
<svg viewBox="0 0 512 512" id="svgContainer" xmlns="http://www.w3.org/2000/svg">
<path fill="currentColor" d="M 194.161 73.749 L 163.821 104.317 239.658 180.158 L 315.495 256 239.518 331.982 L 163.541 407.964 193.998 438.482 C 210.750 455.267, 224.916 468.926, 225.478 468.836 C 226.040 468.746, 274.198 420.820, 332.496 362.335 L 438.493 255.996 331.998 149.498 C 273.426 90.924, 225.278 43.041, 225.002 43.090 C 224.726 43.140, 210.847 56.936, 194.161 73.749 M 103.582 164.662 C 87.312 180.975, 74 194.810, 74 195.405 C 74 196.001, 87.385 209.878, 103.744 226.244 L 133.487 256 103.744 285.756 C 87.385 302.122, 74 316.109, 74 316.837 C 74 317.566, 87.515 331.723, 104.033 348.298 L 134.065 378.433 195.280 317.217 L 256.496 256.002 196.001 195.501 C 162.729 162.225, 134.979 135, 134.335 135 C 133.691 135, 119.852 148.348, 103.582 164.662" stroke="none" fill-rule="evenodd"/>

</svg>
