
<svg viewBox="0 0 512 512" id="svgContainer" xmlns="http://www.w3.org/2000/svg">
<path fill="currentColor" fill-rule="evenodd" d="M 64.557 222.223 C 62.553 225.083, 62.592 225.592, 65 228 C 67.408 230.408, 69.322 230.535, 71.429 228.429 C 74.467 225.390, 72.265 220, 67.985 220 C 66.956 220, 65.413 221, 64.557 222.223 M 129.500 234.086 C 122.263 242.484, 121.716 244, 125.927 244 L 129 244 129 255.532 C 129 272.697, 130.936 276, 141 276 C 148.276 276, 150 274.824, 150 269.858 C 150 266.372, 149.748 265.890, 148.250 266.506 C 144.701 267.967, 142.974 268.210, 140.516 267.593 C 138.012 266.965, 138 266.909, 138 255.531 L 138 244.100 143.750 243.800 L 149.500 243.500 149.500 240 L 149.500 236.500 143.750 236.200 L 138 235.900 138 231.450 C 138 228.523, 137.572 227.021, 136.750 227.063 C 136.063 227.097, 132.800 230.258, 129.500 234.086 M 98.500 236.165 C 96.850 236.768, 94.713 237.947, 93.750 238.785 C 92.153 240.177, 92 240.121, 92 238.155 C 92 236.306, 91.430 236, 87.979 236 L 83.958 236 84.229 255.750 L 84.500 275.500 88 275.500 L 91.500 275.500 91.777 261.301 C 92.050 247.338, 92.097 247.068, 94.662 245.051 C 98.798 241.798, 104.779 242.361, 108.152 246.321 C 108.236 246.420, 108.573 253.025, 108.902 261 L 109.500 275.500 113 275.500 L 116.500 275.500 116.776 260.251 C 117.073 243.832, 116.351 240.585, 111.729 237.560 C 108.646 235.542, 102.095 234.851, 98.500 236.165 M 167.791 235.988 C 159.607 238.455, 154.988 245.409, 155.022 255.210 C 155.049 263.079, 157.507 268.760, 162.548 272.605 C 165.732 275.033, 167.439 275.534, 173.586 275.844 C 179.745 276.155, 181.711 275.821, 186.429 273.661 C 191.855 271.177, 192 271.005, 192 267.055 C 192 264.825, 191.820 263, 191.599 263 C 191.379 263, 188.791 264.121, 185.849 265.490 C 177.364 269.440, 167.851 268.328, 165.030 263.055 C 162.497 258.324, 163.098 258.075, 177.750 257.778 L 191.500 257.500 191.464 252.372 C 191.380 240.432, 179.751 232.383, 167.791 235.988 M 213.011 238.753 L 209 242.765 209 239.325 C 209 235.896, 208.986 235.886, 204.750 236.193 L 200.500 236.500 200.500 256 L 200.500 275.500 204.500 275.500 L 208.500 275.500 209 262.817 C 209.427 251.977, 209.805 249.725, 211.599 247.317 C 214.092 243.970, 218.767 243.146, 222.263 245.437 C 224.565 246.945, 224.703 246.874, 226.855 243.043 L 229.075 239.095 226.643 237.502 C 225.306 236.626, 222.594 235.646, 220.617 235.325 C 217.402 234.804, 216.599 235.166, 213.011 238.753 M 64.229 255.691 L 64.500 275.500 68.500 275.500 L 72.500 275.500 72.500 256 L 72.500 236.500 68.229 236.191 L 63.957 235.883 64.229 255.691 M 235 236.988 C 235 238.488, 249.033 273.319, 250.213 274.750 C 251.881 276.771, 255.821 276.218, 257.330 273.750 C 258.086 272.512, 260.653 266.654, 263.033 260.731 C 265.414 254.807, 267.661 250.307, 268.027 250.731 C 268.394 251.154, 270.186 255.325, 272.009 260 C 277.251 273.438, 278.736 276.002, 281.270 275.985 C 282.497 275.976, 283.991 275.639, 284.590 275.235 C 285.665 274.510, 300 238.942, 300 237 C 300 236.450, 298.212 236, 296.026 236 C 291.350 236, 291.066 236.428, 285.899 251.248 C 284.029 256.610, 282.275 260.996, 282 260.996 C 281.725 260.995, 279.282 255.349, 276.571 248.448 L 271.643 235.901 268.208 236.200 C 264.800 236.498, 264.734 236.598, 259.797 249 C 257.060 255.875, 254.733 261.591, 254.624 261.703 C 254.516 261.815, 252.254 256.077, 249.597 248.953 L 244.766 236 239.883 236 C 237.197 236, 235 236.445, 235 236.988 M 314.008 236.855 C 309.893 238.063, 309.031 241.318, 309.015 255.703 C 309 269.130, 309.852 273.287, 312.885 274.576 C 315.363 275.629, 341.014 276.339, 348.320 275.556 C 358.695 274.445, 358.500 274.818, 358.500 256.116 C 358.500 242.054, 358.280 239.851, 356.716 238.286 C 355.142 236.710, 352.677 236.478, 335.716 236.312 C 325.147 236.209, 315.379 236.453, 314.008 236.855 M 374.229 255.750 L 374.500 275.500 379 275.500 L 383.500 275.500 383.794 268.250 L 384.088 261 388.002 261 C 391.493 261, 392.782 261.810, 399.935 268.500 L 407.955 276 414.478 276 C 418.065 276, 421 275.615, 421 275.144 C 421 274.674, 417.336 271.411, 412.857 267.894 L 404.714 261.500 409.368 260.953 C 411.929 260.652, 414.743 259.686, 415.623 258.806 C 417.586 256.842, 418.483 249.708, 417.549 243.481 C 416.521 236.626, 414.386 236, 392.011 236 L 373.958 236 374.229 255.750 M 166.452 245.646 C 162.110 250.331, 162.978 251, 173.406 251 C 182.358 251, 182.787 250.902, 182.283 248.976 C 180.716 242.983, 170.844 240.907, 166.452 245.646 M 319 255.500 L 319 267 334 267 L 349 267 349 255.500 L 349 244 334 244 L 319 244 319 255.500 M 384 248.468 L 384 253 396.057 253 L 408.115 253 407.807 248.750 L 407.500 244.500 395.750 244.218 L 384 243.937 384 248.468 M 436.997 258.497 L 446.455 267.995 439.003 275.497 L 431.550 283 251.525 282.990 C 71.083 282.979, 52.211 282.658, 44.562 279.461 C 39.627 277.399, 36.686 277.641, 34.174 280.314 C 31.354 283.317, 31.409 287.096, 34.314 289.826 C 37.116 292.458, 39.382 292.546, 45.124 290.250 C 49.224 288.610, 61.813 288.468, 244.654 288 L 439.807 287.500 446.058 280.678 L 452.309 273.857 459.428 280.928 L 466.547 288 473.274 288 C 476.973 288, 480 287.839, 480 287.643 C 480 287.446, 475.266 282.627, 469.480 276.933 L 458.959 266.580 467.709 257.790 L 476.458 249 470.508 249 C 464.610 249, 464.508 249.050, 458.790 254.707 L 453.023 260.415 449.762 257.369 C 440.594 248.808, 440.955 249, 434.030 249 L 427.540 249 436.997 258.497"></path>
</svg>
