
<svg viewBox="0 0 512 512" id="svgContainer" xmlns="http://www.w3.org/2000/svg">

<path fill-rule="evenodd" fill="currentColor" d="M 233.221 33.042 C 222.513 37.798, 216.612 46.140, 216.643 56.480 C 216.664 63.820, 219.122 69.070, 225.038 74.415 C 230.444 79.299, 234.656 81, 241.346 81 C 247.939 81, 252.800 79.079, 257.926 74.448 C 268.053 65.299, 268.774 50.705, 259.612 40.297 C 252.185 31.859, 242.116 29.091, 233.221 33.042 M 301.500 35.871 C 297.104 37.879, 291.601 43.025, 289.443 47.145 C 281.775 61.784, 290.733 79.626, 307.550 83.213 C 317.045 85.238, 329.137 78.546, 333.950 68.603 C 336.717 62.888, 336.702 54.082, 333.916 48.327 C 331.308 42.938, 324.346 36.720, 319.193 35.176 C 313.520 33.476, 306.105 33.768, 301.500 35.871 M 167.332 45.922 C 155.129 48.972, 145.822 62.240, 147.937 73.574 C 151.849 94.545, 176.624 102.228, 190.568 86.793 C 199.706 76.678, 199.690 64.104, 190.524 53.211 C 185.746 47.532, 174.735 44.072, 167.332 45.922 M 362.821 59.357 C 356.668 61.064, 351.686 64.977, 348.272 70.784 C 345.908 74.806, 345.500 76.604, 345.500 83 C 345.500 89.146, 345.951 91.304, 348 94.953 C 354.542 106.607, 369.703 110.911, 381.852 104.562 C 388.813 100.925, 393.949 91.785, 393.968 83 C 394.004 66.688, 378.585 54.984, 362.821 59.357 M 103.500 89.871 C 98.400 92.201, 91.649 99.527, 89.944 104.584 C 84.518 120.670, 96.621 137.521, 113.500 137.382 C 120.823 137.321, 126.107 134.838, 131.415 128.962 C 136.279 123.579, 138.143 119.009, 138.143 112.469 C 138.143 95.536, 118.767 82.897, 103.500 89.871 M 239.303 96.645 C 234.084 98.493, 227.436 104.827, 224.936 110.332 C 215.720 130.631, 238.799 152.388, 258.682 142.143 C 267.415 137.642, 272.434 129.559, 272.429 120 C 272.421 102.856, 255.481 90.914, 239.303 96.645 M 305.184 97.084 C 293.836 99.277, 286.068 109.086, 286.022 121.282 C 285.996 128.109, 287.554 132.283, 292.030 137.382 C 306.002 153.295, 332.516 144.783, 334.693 123.684 C 336.429 106.866, 321.977 93.839, 305.184 97.084 M 419.806 105.399 C 415.013 106.689, 413.671 107.475, 408.624 111.950 C 404.430 115.668, 401.020 123.538, 401.020 129.500 C 401.020 138.749, 407.755 148.920, 416.218 152.449 C 420.984 154.437, 430.013 154.438, 434.782 152.451 C 439.687 150.408, 445.784 144.477, 448.097 139.500 C 450.542 134.238, 450.557 124.816, 448.129 119.500 C 445.467 113.671, 438.211 107.437, 431.913 105.567 C 425.783 103.746, 425.936 103.748, 419.806 105.399 M 185.994 108.875 C 169.132 114.404, 162.939 132.877, 173.030 147.543 C 180.398 158.252, 198.100 160.312, 208.573 151.679 C 218.777 143.269, 219.862 125.500, 210.762 115.835 C 205.301 110.034, 192.999 106.577, 185.994 108.875 M 363.500 123.735 C 355.128 125.391, 347.645 130.956, 343.707 138.455 C 337.595 150.095, 344.213 166.013, 357.468 171.551 C 362.601 173.696, 371.542 173.400, 376.673 170.916 C 381.997 168.339, 388.640 160.955, 389.983 156.123 C 394.145 141.137, 384.201 125.820, 369 123.803 C 367.075 123.548, 364.600 123.517, 363.500 123.735 M 66.994 146.876 C 55.319 150.699, 48.640 159.478, 48.640 171 C 48.640 181.057, 54.418 189.770, 63.645 193.625 C 68.660 195.720, 78.582 195.381, 83.621 192.942 C 88.534 190.563, 94.569 184.275, 96.597 179.422 C 99.592 172.255, 97.979 162.772, 92.556 155.662 C 87.428 148.939, 74.385 144.456, 66.994 146.876 M 137 148.590 C 128.121 152.425, 121.652 162.096, 121.675 171.500 C 121.698 181.248, 126.027 188.587, 134.778 193.716 C 140.822 197.258, 150.459 197.512, 156.568 194.290 C 161.516 191.681, 167.417 185.332, 169.477 180.400 C 174.315 168.821, 167.995 154.563, 155.500 148.867 C 150.614 146.640, 141.820 146.508, 137 148.590 M 449.275 165.971 C 442.684 167.537, 436.841 172.468, 433.245 179.500 C 422.919 199.688, 445.494 222.531, 465.780 212.422 C 486.180 202.257, 484.154 172.875, 462.612 166.477 C 457.247 164.884, 454.318 164.773, 449.275 165.971 M 383.806 178.401 C 381.224 179.095, 378.299 180.278, 377.306 181.031 C 368.755 187.513, 364.989 194.160, 365.022 202.717 C 365.049 209.797, 367.398 215.196, 372.631 220.201 C 388.395 235.280, 414.147 224.421, 414.295 202.632 C 414.402 186.842, 398.733 174.388, 383.806 178.401 M 101.044 197.577 C 91.462 201.734, 85.915 209.927, 85.867 219.994 C 85.789 236.235, 99.746 248.178, 114.984 244.910 C 124.536 242.862, 132.055 235.027, 134.165 224.927 C 137.242 210.187, 125.343 195.967, 110 196.049 C 106.975 196.065, 102.945 196.753, 101.044 197.577 M 49 218.116 C 45.504 219.168, 39.663 223.048, 37.192 225.959 C 34.690 228.908, 31 238.078, 31 241.350 C 31 255.225, 45.440 268.445, 58.622 266.638 C 72.757 264.701, 82.865 250.911, 80.130 237.294 C 77.868 226.032, 69.225 218.157, 58.343 217.444 C 55.129 217.234, 50.925 217.536, 49 218.116 M 456.500 224.935 C 442.714 228.291, 434.394 242.577, 438.351 256.098 C 442.285 269.544, 455.555 276.701, 469.500 272.898 C 477.502 270.716, 487 257.716, 487 248.946 C 487 239.784, 478.129 228.304, 468.941 225.575 C 463.267 223.890, 461.224 223.785, 456.500 224.935 M 394.939 241.327 C 385.910 243.837, 379.004 251.154, 376.934 260.402 C 374.598 270.842, 380.838 282.789, 391 287.332 C 397.195 290.102, 406.353 289.976, 412.421 287.038 C 427.288 279.841, 430.692 259.846, 419.035 248.189 C 412.422 241.576, 403.344 238.990, 394.939 241.327 M 115.500 256.044 C 102.893 260.174, 95.509 273.969, 99.062 286.757 C 100.774 292.923, 109.622 302.026, 115.616 303.789 C 127.453 307.272, 139.252 301.760, 145.698 289.737 C 148.088 285.277, 148.038 274.659, 145.604 270 C 143.045 265.100, 138.195 260.183, 133.572 257.801 C 129.080 255.487, 119.919 254.597, 115.500 256.044 M 58.500 279.310 C 48.197 284.292, 43.577 291.449, 43.530 302.500 C 43.505 308.381, 43.943 310.254, 46.272 314.216 C 54.992 329.049, 74.780 331.126, 85.970 318.382 C 90.441 313.289, 92.002 309.116, 91.990 302.282 C 91.968 288.832, 82.384 278.394, 69.088 277.337 C 64.612 276.981, 62.505 277.374, 58.500 279.310 M 445.500 287.903 C 440.432 290.258, 434.589 296.331, 432.417 301.500 C 425.888 317.045, 438.367 335.340, 455.500 335.340 C 462.596 335.340, 467.704 333.030, 473.201 327.335 C 477.995 322.368, 480 317.403, 480 310.500 C 480 303.713, 478.327 299.474, 473.568 294.207 C 466.474 286.355, 454.580 283.683, 445.500 287.903 M 375.703 301.442 C 369.530 303.644, 364.279 307.666, 361.621 312.228 C 354.986 323.616, 356.266 333.697, 365.489 342.676 C 373.468 350.445, 382.827 352.157, 392.556 347.626 C 404.880 341.888, 410.588 327.044, 404.950 315.397 C 401.992 309.286, 395.209 303.437, 388.913 301.567 C 382.584 299.687, 380.673 299.669, 375.703 301.442 M 128.195 312.590 C 117.147 318.096, 111.406 331.091, 115.159 342.101 C 118.221 351.085, 126.451 358.089, 135.681 359.565 C 145.111 361.073, 156.333 354.776, 160.619 345.571 C 170.385 324.598, 148.589 302.428, 128.195 312.590 M 321.764 323.996 C 314.248 326.259, 306.778 334.336, 305.398 341.690 C 303.371 352.497, 307.745 363.095, 316.453 368.474 C 320.860 371.196, 322.163 371.498, 329.426 371.476 C 338.379 371.450, 341.566 370.246, 346.764 364.930 C 358.784 352.636, 355.138 332.630, 339.556 325.374 C 334.323 322.937, 327.130 322.380, 321.764 323.996 M 81.326 338.140 C 73.720 339.469, 67.263 344.459, 63.502 351.912 C 60.887 357.096, 60.387 366.107, 62.420 371.430 C 67.923 385.839, 90.584 390.243, 102.380 379.197 C 110.412 371.675, 112.261 354.686, 105.923 346.630 C 101.051 340.436, 90.006 336.624, 81.326 338.140 M 428.500 338.031 C 417.455 339.682, 408.644 348.748, 407.339 359.804 C 406.184 369.586, 411.324 378.950, 420.756 384.248 C 431.106 390.061, 444.191 387.083, 451.687 377.208 C 464.945 359.744, 450.176 334.791, 428.500 338.031 M 178.627 351.468 C 169.104 354.863, 161.714 365.301, 161.714 375.359 C 161.714 393.670, 182.743 405.787, 198.497 396.555 C 210.398 389.580, 214.475 376.623, 208.568 364.549 C 205.318 357.907, 200.209 353.452, 193.568 351.471 C 187.524 349.668, 183.680 349.667, 178.627 351.468 M 281.154 366.476 C 275.959 368.818, 270.460 373.591, 267.081 378.691 C 264.519 382.559, 264 384.331, 264 389.204 C 264 396.658, 265.572 400.349, 271.220 406.160 C 277.663 412.787, 281.236 414.447, 289.001 414.418 C 294.266 414.398, 296.541 413.833, 300.967 411.447 C 318.572 401.955, 317.689 376.275, 299.457 367.525 C 294.257 365.030, 285.480 364.527, 281.154 366.476 M 225.110 377.633 C 218.819 380.767, 213.627 387.316, 211.956 394.221 C 208.296 409.352, 220.429 424.143, 236.500 424.143 C 245.977 424.143, 254.436 418.553, 258.649 409.507 C 264.158 397.676, 259.229 384.120, 247.118 377.793 C 239.887 374.016, 232.476 373.962, 225.110 377.633 M 117.748 378.365 C 108.608 381.777, 102.280 389.883, 101.294 399.445 C 99.082 420.868, 125.534 434.362, 142.042 420.232 C 158.824 405.868, 149.768 378.782, 127.710 377.364 C 123.883 377.118, 120.060 377.502, 117.748 378.365 M 162.500 413.903 C 153.841 417.927, 147.719 427.340, 147.792 436.519 C 147.849 443.666, 150.465 449.334, 156.010 454.319 C 166.215 463.494, 180.378 463.307, 189.905 453.872 C 202.587 441.312, 198.365 420.482, 181.728 413.531 C 176.697 411.429, 167.438 411.608, 162.500 413.903 M 279.195 429.590 C 272.720 432.817, 268.387 437.944, 266.401 444.728 C 264.411 451.526, 265.311 457.440, 269.360 464.193 C 279.472 481.054, 304.263 479.515, 312.649 461.507 C 322.287 440.810, 299.777 419.334, 279.195 429.590 M 219.137 433.369 C 214.314 435.115, 208.324 440.467, 205.765 445.319 C 202.320 451.849, 202.615 461.874, 206.456 468.824 C 212.560 479.869, 226.202 485.168, 236.096 480.339 C 246.295 475.360, 252 466.906, 252 456.772 C 252 449.846, 250.445 445.716, 245.882 440.519 C 239.431 433.172, 228.073 430.135, 219.137 433.369"/>
</svg>
