
<svg viewBox="0 0 512 512" id="svgContainer" xmlns="http://www.w3.org/2000/svg">
   <path fill="currentColor" d="M 297 32.612 C 283.197 35.610, 271.362 40.785, 260.201 48.702 L 253.902 53.171 247.701 49.134 C 232.746 39.397, 217.243 34.202, 200.480 33.311 C 188.255 32.661, 177.437 34.289, 167.867 38.216 C 143.410 48.255, 122.856 71.361, 115.733 96.825 C 113.674 104.184, 113.594 106.269, 113.768 147.500 L 113.950 190.500 98.225 199.893 C 50.749 228.250, 41.273 235.109, 32.544 247.430 C 24.839 258.306, 21.230 267.064, 17.946 282.860 C 15.496 294.643, 15.516 302.113, 18.029 313.500 C 23.217 337.007, 39.941 358.169, 62.394 369.634 L 71.500 374.284 71.562 387.892 C 71.612 398.799, 72.069 403.088, 73.864 409.500 C 78.635 426.548, 89.013 443.013, 100.816 452.263 C 121.243 468.273, 149.436 474.606, 173.045 468.488 C 180.896 466.454, 187.404 463.173, 223.382 443.108 C 239.268 434.248, 252.598 427, 253.005 427 C 253.413 427, 266.741 434.696, 282.623 444.103 C 298.505 453.509, 315.071 463.006, 319.436 465.208 C 329.704 470.385, 343.925 474.007, 353.878 473.978 C 374.688 473.919, 399.768 463.609, 413.623 449.418 C 420.412 442.464, 424.155 436.959, 429.031 426.759 C 435.020 414.231, 437 405.067, 437 389.870 L 437 377.061 444.307 373.685 C 454.301 369.067, 461.388 364.387, 468.857 357.472 C 486.765 340.892, 496 321.116, 496 299.346 C 496 275.623, 488.178 255.465, 472.646 239.157 C 465.110 231.245, 459.652 227.625, 423.979 206.881 L 395.843 190.520 396.144 147.510 C 396.473 100.454, 396.342 99.064, 390.176 84.500 C 382.007 65.202, 363.081 45.675, 344.644 37.521 C 330.482 31.258, 312.004 29.354, 297 32.612 M 192.500 91.888 C 181.334 94.783, 174.928 103.428, 173.011 118.189 C 172.489 122.210, 172.016 141.700, 171.960 161.500 C 171.840 203.692, 171.233 212.822, 168.115 219.262 C 164.088 227.580, 159.325 231.167, 125.804 251.117 C 88.775 273.155, 80.331 278.630, 76.685 282.963 C 69.852 291.083, 70.715 304.634, 78.655 313.910 C 84.753 321.034, 90.105 322.639, 100.509 320.463 C 109.744 318.530, 116.050 315.427, 144.833 298.648 C 178.849 278.817, 183.609 276.315, 190.833 274.464 C 204.007 271.089, 215.647 276.602, 221.942 289.200 C 227.755 300.832, 225.575 312.677, 215.906 322 C 212.848 324.949, 200.959 332.349, 181.411 343.470 C 138.290 368.002, 131.966 372.345, 127.912 380.210 C 125.616 384.665, 125.341 394.486, 127.375 399.355 C 129.540 404.537, 135.038 410.109, 140.493 412.649 C 152.040 418.026, 156.906 416.082, 215.941 382.503 C 224.434 377.672, 234.667 372.160, 238.681 370.254 C 245.430 367.049, 246.565 366.815, 253.740 367.159 C 263.592 367.631, 266.498 368.990, 301.262 389.377 C 315.981 398.009, 332.856 407.643, 338.762 410.786 C 348.921 416.192, 349.878 416.498, 356.500 416.470 C 361.679 416.448, 364.540 415.887, 367.500 414.312 C 375.926 409.828, 380.941 401.458, 380.978 391.815 C 381.031 378.097, 376.816 374.448, 328 345.957 C 298.706 328.860, 293.573 325.483, 288.737 320.130 C 283.700 314.555, 281.996 309.987, 282.022 302.128 C 282.048 294.277, 284.105 289.107, 289.651 282.956 C 296.981 274.825, 307.365 272.137, 318.583 275.469 C 321.303 276.277, 336.573 284.414, 352.515 293.552 C 401.594 321.683, 404.344 322.962, 415.800 322.988 C 422.355 323.003, 425.628 321.365, 430.810 315.478 C 437.755 307.589, 439.883 296.743, 436.115 288.448 C 433.164 281.949, 425.710 276.426, 397.776 260.035 C 341.155 226.813, 341.722 227.218, 338.044 217.389 C 336.091 212.168, 336 209.820, 336 164.599 C 336 136.723, 335.582 115.059, 334.983 111.886 C 332.577 99.143, 323.295 91.588, 310.045 91.588 C 296.839 91.588, 288.766 98.731, 285.586 113.227 C 284.333 118.939, 283.822 130.375, 283.208 166.500 L 282.426 212.500 279.843 218.086 C 274.575 229.481, 265.554 235.399, 253.500 235.367 C 241.442 235.335, 233.162 230.135, 227.785 219.218 L 224.500 212.548 224 160.524 C 223.511 109.661, 223.452 108.411, 221.347 104.500 C 220.163 102.300, 218.133 99.509, 216.835 98.299 C 211.531 93.351, 199.291 90.127, 192.500 91.888" stroke="none" fill-rule="evenodd"/>
</svg>
