<?xml version="1.0" encoding="UTF-8" standalone="no"?>
<svg viewBox="0 0 161.46875 100.6875" xmlns="http://www.w3.org/2000/svg">
<g transform="translate(-630.34375,-504.875)">
<path d="m686.09925,506.23981h48.49122c1.38175,0 2.5,1.12305 2.5,2.5v19.3164c0,1.38183-1.11825,2.5-2.5,2.5h-48.49122c-1.38175,0-2.5-1.11817-2.5-2.5v-19.3164c0-1.37695 1.11825-2.5 2.5-2.5" fill="#d94723" fill-rule="evenodd" stroke="#e1e1e1" stroke-linejoin="round" stroke-miterlimit="10" stroke-width="2.5"/>
<path d="m739.5514,506.27886h48.49122c1.38175,0 2.5,1.11818 2.5,2.5v19.31643c0,1.37695-1.11825,2.5-2.5,2.5h-48.49122c-1.38175,0-2.5-1.12305-2.5-2.5v-19.31643c0-1.38182 1.11825-2.5 2.5-2.5" fill="#d94723" fill-rule="evenodd" stroke="#e1e1e1" stroke-linejoin="round" stroke-miterlimit="10" stroke-width="2.5"/>
<path d="m659.9811,530.52691h48.4912c1.38175,0 2.5,1.12305 2.5,2.5v19.3164c0,1.38185-1.11825,2.5-2.5,2.5h-48.4912c-1.38175,0-2.5-1.11815-2.5-2.5v-19.3164c0-1.37695 1.11825-2.5 2.5-2.5" fill="#d94723" fill-rule="evenodd" stroke="#e1e1e1" stroke-linejoin="round" stroke-miterlimit="10" stroke-width="2.5"/>
<path d="m713.43325,530.56599h48.4912c1.38175,0 2.5,1.11815 2.5,2.5v19.3164c0,1.37695-1.11825,2.5-2.5,2.5h-48.4912c-1.38175,0-2.5-1.12305-2.5-2.5v-19.3164c0-1.38185 1.11825-2.5 2.5-2.5" fill="#d94723" fill-rule="evenodd" stroke="#e1e1e1" stroke-linejoin="round" stroke-miterlimit="10" stroke-width="2.5"/>
<path d="m686.04555,554.83844h48.4912c1.38175,0 2.5,1.11817 2.5,2.5v19.31152c0,1.38183-1.11825,2.5-2.5,2.5h-48.4912c-1.38175,0-2.5-1.11817-2.5-2.5v-19.31152c0-1.38183 1.11825-2.5 2.5-2.5" fill="#d94723" fill-rule="evenodd" stroke="#e1e1e1" stroke-linejoin="round" stroke-miterlimit="10" stroke-width="2.5"/>
<path d="m739.4977,554.87261h48.4912c1.38175,0 2.5,1.11818 2.5,2.5v19.31643c0,1.38182-1.11825,2.5-2.5,2.5h-48.4912c-1.38175,0-2.5-1.11818-2.5-2.5v-19.31643c0-1.38182 1.11825-2.5 2.5-2.5" fill="#d94723" fill-rule="evenodd" stroke="#e1e1e1" stroke-linejoin="round" stroke-miterlimit="10" stroke-width="2.5"/>
<path d="m659.9811,579.15484h48.4912c1.377,0 2.5,1.12305 2.5,2.5v19.31642c0,1.38183-1.123,2.5-2.5,2.5h-48.4912c-1.38175,0-2.5-1.11817-2.5-2.5v-19.31642c0-1.37695 1.11825-2.5 2.5-2.5" fill="#d94723" fill-rule="evenodd" stroke="#e1e1e1" stroke-linejoin="round" stroke-miterlimit="10" stroke-width="2.5"/>
<path d="m713.43325,579.19391h48.4912c1.38175,0 2.5,1.11815 2.5,2.5v19.31153c0,1.38182-1.11825,2.5-2.5,2.5h-48.4912c-1.38175,0-2.5-1.11818-2.5-2.5v-19.31153c0-1.38185 1.11825-2.5 2.5-2.5" fill="#d94723" fill-rule="evenodd" stroke="#e1e1e1" stroke-linejoin="round" stroke-miterlimit="10" stroke-width="2.5"/>
<path d="m767.17835,530.60016h20.80077c1.38175,0 2.5,1.11815 2.5,2.5v19.31153c0,1.38182-1.11825,2.5-2.5,2.5h-20.80077c-1.38175,0-2.5-1.11818-2.5-2.5v-19.31153c0-1.38185 1.11825-2.5 2.5-2.5" fill="#d94723" fill-rule="evenodd" stroke="#e1e1e1" stroke-linejoin="round" stroke-miterlimit="10" stroke-width="2.5"/>
<path d="m766.91467,579.16461h21.10353c1.38175,0 2.5,1.11818 2.5,2.5v19.3164c0,1.37695-1.11825,2.5-2.5,2.5h-21.10353c-1.38175,0-2.5-1.12305-2.5-2.5v-19.3164c0-1.38182 1.11825-2.5 2.5-2.5" fill="#d94723" fill-rule="evenodd" stroke="#e1e1e1" stroke-linejoin="round" stroke-miterlimit="10" stroke-width="2.5"/>
<path d="m659.9225,554.80426h21.1035c1.38175,0 2.5,1.12305 2.5,2.5v19.3164c0,1.38185-1.11825,2.5-2.5,2.5h-21.1035c-1.377,0-2.5-1.11815-2.5-2.5v-19.3164c0-1.37695 1.123-2.5 2.5-2.5" fill="#d94723" fill-rule="evenodd" stroke="#e1e1e1" stroke-linejoin="round" stroke-miterlimit="10" stroke-width="2.5"/>
<path d="m657.46645,542.90484v42.09472" fill="none" stroke="#e1e1e1" stroke-linejoin="round" stroke-miterlimit="10" stroke-width="2.5"/>
<path d="m773.90687,603.44684-85.53222-.01" fill="none" stroke="#e1e1e1" stroke-linejoin="round" stroke-miterlimit="10" stroke-width="2.5"/>
<path d="m757.00745,506.23004-38.4668-.11725" fill="none" stroke="#e1e1e1" stroke-linejoin="round" stroke-miterlimit="10" stroke-width="2.5"/>
<path d="m790.4596,541.23981v42.08985" fill="none" stroke="#e1e1e1" stroke-linejoin="round" stroke-miterlimit="10" stroke-width="2.5"/>
<path d="m790.56702,514.06206v42.08985" fill="none" stroke="#e1e1e1" stroke-linejoin="round" stroke-miterlimit="10" stroke-width="2.5"/>
<path d="m644.10707,539.69684 6.7285-10.9912 6.0498-7.66603 3.99903-5.02442 6.3916-6.9873-.7665,6.13282-.17,4.7705 .17,4.25783 .51275,3.0664 .7665,2.30467 1.1085,3.14943 1.787,3.4082 2.38275,3.75 2.47075,3.74512 2.6416,2.9834 3.0713,4.3457 2.9785,3.916 3.23732,5.96192 3.5791-5.10742-.0875,4.34083 .17,4.34569 .9375,5.87891-.42475,6.2207-.8495,4.77052-2.21675,7.3242-2.72462,4.94143-4.2627,4.5996-3.5742,2.8125-6.04983,2.8125-4.5166,1.10353-5.0244.088-3.32492-.34193-4.4287-1.5332-4.00393-2.0459-3.4912-3.2373-3.4082-4.0039-2.8125-3.833-3.0664-6.64553-1.704-5.9619-1.1035-6.21582 .0825-5.5371 .34175-6.22073 .50775-5.2832v-7.91992l-.76675-3.9209-1.36225-3.916-2.21675-3.8379 3.06643.9375 4.94627,2.0459z" fill="#ee1e14" fill-rule="evenodd" stroke="#ee1e14" stroke-miterlimit="10" stroke-width="1.25"/>
<path d="m641.60217,542.49469 3.42775,3.26172 3.09083,3.42285 2.49025,3.0957 2.53905,3.8672 1.04975,2.1533 .82525-1.1621 .498-2.53907 .4005-5.05858-.288-7.53907 .62025-7.37793 2.85645-6.7041 2.9834-4.75097 2.0995-3.31543-1.1035,3.20313 .44425,8.56445 .8935,3.88672 1.42575,3.07128 9.66795,17.01172 1.59675,3.75978 .669,3.70115 .22,3.9209 .2735,2.70507 .38575,2.65138 .55175,1.8213 1.71375.94237h2.15825l1.709-.66405 .95225-1.25 .88375-2.31935 .55175-3.42285 .55175,3.09083 .664,4.31152-.44425,7.0703-1.32325,6.62598-2.65138,5.9668-3.0957,3.31542-4.52637,3.09083-4.30665,2.32422-3.75975,1.21093-3.31103.33205-2.76367.11225-3.09083-.33203-3.0957-1.10352-2.9834-1.87988-2.8711-1.9873-2.6123-3.16895-3.36912-5.85937-1.753-4.78028-.7325-3.8916-.4835-4.1748-.34675-4.38477 .1125-3.9209 .498-3.36915 .71775-3.81347 .9375-3.26171 1.16225-3.7549 .44425-3.0371-.17-2.81737-1.21575-3.64748z" fill="#f38f19" fill-rule="evenodd" stroke="#f38f19" stroke-miterlimit="10" stroke-width="1.25"/>
<path d="m658.526,537.69489 5.0342,8.08105 4.01367,8.2422 2.71973,6.01562 2.50975,6.3037 2.43175,7.23633 1.4355,6.30372 .42975,4.7998-.215,3.72558-.6445,4.08202-1.22075,2.79298-1.499,3.51075-1.9385,2.29002-2.21675,1.57715-2.93945,1.36233-3.13478.74217-2.59765-.23925-2.93457-1.2207-3.0078-1.86035-2.1485-3.36915-1.00575-3.36425-.57125-2.29492-.1475-3.65235 .0725-4.29688 .791-4.5166 2.07525-5.15625 2.50977-4.37012 3.0078-6.01562 1.6455-4.65821 .57125-3.51075-.28325-4.43847-.71775-6.37695z" fill="#f3b326" fill-rule="evenodd" stroke="#f3b326" stroke-miterlimit="10" stroke-width="1.25"/>
<path d="m653.45277,586.57671 1.328-4.91697 1.875-4.29688 1.5625-3.67187 1.875-3.90625 2.10925-3.51563 2.60253-3.48145-.80575,3.6377v3.59375l.46875,3.125 1.5625,2.1875 2.422,3.20313 2.34375,3.51562 1.25,2.96875 1.01075,3.58885 .39075,2.65625-.1525,3.67188-.9375,2.73437-1.95325,2.73438-3.125,2.57812-2.34375,1.17188-1.79675.39062-2.1875-.39062-2.57813-1.48438-2.1095-2.65625-1.40625-3.125-1.32825-4.14062-.54675-2.96875z" fill="#facc7d" fill-rule="evenodd" stroke="#facc7d" stroke-miterlimit="10" stroke-width="1.25"/>
</g>
</svg>
