<?xml version="1.0" encoding="UTF-8" standalone="no"?>
<svg viewBox="0 0 312.5155 274.66559" xmlns="http://www.w3.org/2000/svg">
<path d="m317.25775,580.91738h-141.25775-141.25775l70.62888-122.33279 70.62887-122.3328 70.62887,122.33279 70.62888,122.3328z" fill="#fff" stroke="#d00" stroke-linejoin="round" stroke-width="30" transform="translate(-19.74225,-321.2518)"/>
<g transform="translate(-297.7424,-388.2518)">
<path d="m441.26594,506.84045c-8.441.09648-16.98246.1954-25.26719,1.96343-2.80031,1.50361-3.6686,4.96534-5.01457,7.63521-1.65436,3.95521-3.2949,8.02386-5.92824,11.42079-1.23246,4.73799-.72698,9.73334-.70702,14.58155-.21808,2.94899 1.27818,5.39655 3.10018,7.52289 1.68844,3.5042.23247,7.6239 1.66153,11.17644 2.91116.97649 6.03824.20936 9.04468.12878 .187-3.94921.39087-7.89754.61157-11.845h43.16343v12.36h9.27004c.17082-3.92285-.53094-8.02364.89066-11.77122 1.8243-2.1708 3.40208-4.62891 3.1487-7.63646 .12352-5.87913.61934-12.2268-2.59028-17.46973-2.43532-4.36884-4.19407-9.06296-6.21275-13.61765-1.94062-3.09636-6.09329-2.89771-9.29699-3.42125-5.27616-.54198-10.56363-1.0539-15.87375-1.02778zm-1.48063,4.98909c6.38282.09902 12.81541-.11165 19.15157.74028 3.51905,1.14183 4.27093,5.33924 5.57194,8.33787 .53729,1.7774 2.62401,5.41132-.89028,4.22981-6.8366-.73213-13.69728-1.22646-20.57822-1.1361-8.99046.07595-18.02183.03338-26.96039,1.09672-4.78921,1.77324-.92372-4.40138-.37087-6.44486 1.10459-2.88141 2.95333-6.47768 6.56511-6.33412 5.82244-.45936 11.67383-.45929 17.51114-.4896zm-24.81656,19.11937c3.04028-.41137 7.45056.58025 6.79156,4.5706v3.60503h-14.54875c.2755-2.25088.16043-4.58486.82378-6.76172 1.59259-1.84003 4.75918-1.03775 6.93341-1.41391zm49.05375.06438c2.56774.03443 5.12866.25661 7.69285.38625v7.21c-4.63576.18708-9.27077.39095-13.90504.61156 .11577-2.60868-.65734-6.13829 2.19729-7.5263 1.25314-.57133 2.65752-.65534 4.0149-.68151z" fill="#fff"/>
<path d="m464.03091,532.15954c2.49295.03343 4.97928.24914 7.46878.375v7c-4.50073.18163-9.00074.37956-13.50003.59375 .11239-2.5327-.6382-5.95951 2.13329-7.30709 1.21664-.55469 2.58011-.63625 3.89796-.66166z" fill="#fff"/>
<path d="m416.40592,532.09703c2.95173-.39939 7.23355.56334 6.59375,4.43747v3.50003h-14.125c.26747-2.18532.15575-4.45132.79978-6.56478 1.54621-1.78643 4.62057-1.00752 6.73147-1.37272z" fill="#fff"/>
<path d="m441.93717,508.69076c-8.19514.09367-16.48782.18971-24.53125,1.90625-2.71875,1.45981-3.56175,4.82071-4.86852,7.41282-1.60617,3.84001-3.19893,7.79016-5.75557,11.08815-1.19656,4.59999-.7058,9.44984-.68643,14.15684-.21172,2.8631 1.24096,5.23937 3.00989,7.30378 1.63926,3.40213.2257,7.40184 1.61313,10.85091 2.82637.94805 5.86237.20326 8.78125.12503 .18155-3.83418.37948-7.66751.59375-11.5h41.90625v12h9.00003c.16585-3.80859-.51547-7.78994.86472-11.42837 1.77117-2.10757 3.30299-4.49409 3.05699-7.41404 .11993-5.70789.6013-11.87068-2.51483-16.9609-2.36439-4.24159-4.07191-8.79899-6.0318-13.22102-1.88409-3.00617-5.91581-2.81331-9.0262-3.3216-5.12249-.5262-10.25595-1.02321-15.41141-.99785zm-1.4375,4.84378c6.19691.09614 12.44214-.1084 18.59375.71872 3.41656,1.10857 4.14654,5.18373 5.40965,8.09502 .52164,1.72563 2.54759,5.25371-.86435,4.10661-6.63747-.71081-13.29833-1.19074-19.97885-1.10301-8.7286.07374-17.49692.03241-26.17514,1.06478-4.64971,1.72159-.89681-4.27319-.36006-6.25715 1.07241-2.79748 2.86731-6.28901 6.37389-6.14963 5.65285-.44598 11.33381-.44591 17.00111-.47534zm-24.09375,18.5625c2.95173-.39939 7.23355.56334 6.59375,4.43747v3.50003h-14.125c.26747-2.18532.15575-4.45132.79978-6.56478 1.54621-1.78643 4.62057-1.00752 6.73147-1.37272zm47.625.0625c2.49295.03343 4.97928.24914 7.46878.375v7c-4.50073.18163-9.00074.37956-13.50003.59375 .11239-2.5327-.6382-5.95951 2.13329-7.30709 1.21664-.55469 2.58011-.63625 3.89796-.66166z"/>
<path d="m440.49967,513.53453c6.19691.09614 12.44214-.1084 18.59375.71872 3.41656,1.10857 4.14654,5.18373 5.40965,8.09502 .52164,1.72563 2.54759,5.25371-.86435,4.10661-6.63747-.71081-13.29833-1.19074-19.97885-1.10301-8.7286.07374-17.49692.03241-26.17514,1.06478-4.64971,1.72159-.89681-4.27319-.36006-6.25715 1.07241-2.79748 2.86731-6.28901 6.37389-6.14963 5.65285-.44598 11.33381-.44591 17.00111-.47534z" fill="#fff"/>
</g>
<g transform="translate(-268.3852,-354.6642)">
<path d="m441.26594,506.84045c-8.441.09648-16.98246.1954-25.26719,1.96343-2.80031,1.50361-3.6686,4.96534-5.01457,7.63521-1.65436,3.95521-3.2949,8.02386-5.92824,11.42079-1.23246,4.73799-.72698,9.73334-.70702,14.58155-.21808,2.94899 1.27818,5.39655 3.10018,7.52289 1.68844,3.5042.23247,7.6239 1.66153,11.17644 2.91116.97649 6.03824.20936 9.04468.12878 .187-3.94921.39087-7.89754.61157-11.845h43.16343v12.36h9.27004c.17082-3.92285-.53094-8.02364.89066-11.77122 1.8243-2.1708 3.40208-4.62891 3.1487-7.63646 .12352-5.87913.61934-12.2268-2.59028-17.46973-2.43532-4.36884-4.19407-9.06296-6.21275-13.61765-1.94062-3.09636-6.09329-2.89771-9.29699-3.42125-5.27616-.54198-10.56363-1.0539-15.87375-1.02778zm-1.48063,4.98909c6.38282.09902 12.81541-.11165 19.15157.74028 3.51905,1.14183 4.27093,5.33924 5.57194,8.33787 .53729,1.7774 2.62401,5.41132-.89028,4.22981-6.8366-.73213-13.69728-1.22646-20.57822-1.1361-8.99046.07595-18.02183.03338-26.96039,1.09672-4.78921,1.77324-.92372-4.40138-.37087-6.44486 1.10459-2.88141 2.95333-6.47768 6.56511-6.33412 5.82244-.45936 11.67383-.45929 17.51114-.4896zm-24.81656,19.11937c3.04028-.41137 7.45056.58025 6.79156,4.5706v3.60503h-14.54875c.2755-2.25088.16043-4.58486.82378-6.76172 1.59259-1.84003 4.75918-1.03775 6.93341-1.41391zm49.05375.06438c2.56774.03443 5.12866.25661 7.69285.38625v7.21c-4.63576.18708-9.27077.39095-13.90504.61156 .11577-2.60868-.65734-6.13829 2.19729-7.5263 1.25314-.57133 2.65752-.65534 4.0149-.68151z" fill="#fff"/>
<path d="m464.03091,532.15954c2.49295.03343 4.97928.24914 7.46878.375v7c-4.50073.18163-9.00074.37956-13.50003.59375 .11239-2.5327-.6382-5.95951 2.13329-7.30709 1.21664-.55469 2.58011-.63625 3.89796-.66166z" fill="#fff"/>
<path d="m416.40592,532.09703c2.95173-.39939 7.23355.56334 6.59375,4.43747v3.50003h-14.125c.26747-2.18532.15575-4.45132.79978-6.56478 1.54621-1.78643 4.62057-1.00752 6.73147-1.37272z" fill="#fff"/>
<path d="m441.93717,508.69076c-8.19514.09367-16.48782.18971-24.53125,1.90625-2.71875,1.45981-3.56175,4.82071-4.86852,7.41282-1.60617,3.84001-3.19893,7.79016-5.75557,11.08815-1.19656,4.59999-.7058,9.44984-.68643,14.15684-.21172,2.8631 1.24096,5.23937 3.00989,7.30378 1.63926,3.40213.2257,7.40184 1.61313,10.85091 2.82637.94805 5.86237.20326 8.78125.12503 .18155-3.83418.37948-7.66751.59375-11.5h41.90625v12h9.00003c.16585-3.80859-.51547-7.78994.86472-11.42837 1.77117-2.10757 3.30299-4.49409 3.05699-7.41404 .11993-5.70789.6013-11.87068-2.51483-16.9609-2.36439-4.24159-4.07191-8.79899-6.0318-13.22102-1.88409-3.00617-5.91581-2.81331-9.0262-3.3216-5.12249-.5262-10.25595-1.02321-15.41141-.99785zm-1.4375,4.84378c6.19691.09614 12.44214-.1084 18.59375.71872 3.41656,1.10857 4.14654,5.18373 5.40965,8.09502 .52164,1.72563 2.54759,5.25371-.86435,4.10661-6.63747-.71081-13.29833-1.19074-19.97885-1.10301-8.7286.07374-17.49692.03241-26.17514,1.06478-4.64971,1.72159-.89681-4.27319-.36006-6.25715 1.07241-2.79748 2.86731-6.28901 6.37389-6.14963 5.65285-.44598 11.33381-.44591 17.00111-.47534zm-24.09375,18.5625c2.95173-.39939 7.23355.56334 6.59375,4.43747v3.50003h-14.125c.26747-2.18532.15575-4.45132.79978-6.56478 1.54621-1.78643 4.62057-1.00752 6.73147-1.37272zm47.625.0625c2.49295.03343 4.97928.24914 7.46878.375v7c-4.50073.18163-9.00074.37956-13.50003.59375 .11239-2.5327-.6382-5.95951 2.13329-7.30709 1.21664-.55469 2.58011-.63625 3.89796-.66166z"/>
<path d="m440.49967,513.53453c6.19691.09614 12.44214-.1084 18.59375.71872 3.41656,1.10857 4.14654,5.18373 5.40965,8.09502 .52164,1.72563 2.54759,5.25371-.86435,4.10661-6.63747-.71081-13.29833-1.19074-19.97885-1.10301-8.7286.07374-17.49692.03241-26.17514,1.06478-4.64971,1.72159-.89681-4.27319-.36006-6.25715 1.07241-2.79748 2.86731-6.28901 6.37389-6.14963 5.65285-.44598 11.33381-.44591 17.00111-.47534z" fill="#fff"/>
</g>
<g transform="translate(-239.0279,-321.0766)">
<path d="m441.26594,506.84045c-8.441.09648-16.98246.1954-25.26719,1.96343-2.80031,1.50361-3.6686,4.96534-5.01457,7.63521-1.65436,3.95521-3.2949,8.02386-5.92824,11.42079-1.23246,4.73799-.72698,9.73334-.70702,14.58155-.21808,2.94899 1.27818,5.39655 3.10018,7.52289 1.68844,3.5042.23247,7.6239 1.66153,11.17644 2.91116.97649 6.03824.20936 9.04468.12878 .187-3.94921.39087-7.89754.61157-11.845h43.16343v12.36h9.27004c.17082-3.92285-.53094-8.02364.89066-11.77122 1.8243-2.1708 3.40208-4.62891 3.1487-7.63646 .12352-5.87913.61934-12.2268-2.59028-17.46973-2.43532-4.36884-4.19407-9.06296-6.21275-13.61765-1.94062-3.09636-6.09329-2.89771-9.29699-3.42125-5.27616-.54198-10.56363-1.0539-15.87375-1.02778zm-1.48063,4.98909c6.38282.09902 12.81541-.11165 19.15157.74028 3.51905,1.14183 4.27093,5.33924 5.57194,8.33787 .53729,1.7774 2.62401,5.41132-.89028,4.22981-6.8366-.73213-13.69728-1.22646-20.57822-1.1361-8.99046.07595-18.02183.03338-26.96039,1.09672-4.78921,1.77324-.92372-4.40138-.37087-6.44486 1.10459-2.88141 2.95333-6.47768 6.56511-6.33412 5.82244-.45936 11.67383-.45929 17.51114-.4896zm-24.81656,19.11937c3.04028-.41137 7.45056.58025 6.79156,4.5706v3.60503h-14.54875c.2755-2.25088.16043-4.58486.82378-6.76172 1.59259-1.84003 4.75918-1.03775 6.93341-1.41391zm49.05375.06438c2.56774.03443 5.12866.25661 7.69285.38625v7.21c-4.63576.18708-9.27077.39095-13.90504.61156 .11577-2.60868-.65734-6.13829 2.19729-7.5263 1.25314-.57133 2.65752-.65534 4.0149-.68151z" fill="#fff"/>
<path d="m464.03091,532.15954c2.49295.03343 4.97928.24914 7.46878.375v7c-4.50073.18163-9.00074.37956-13.50003.59375 .11239-2.5327-.6382-5.95951 2.13329-7.30709 1.21664-.55469 2.58011-.63625 3.89796-.66166z" fill="#fff"/>
<path d="m416.40592,532.09703c2.95173-.39939 7.23355.56334 6.59375,4.43747v3.50003h-14.125c.26747-2.18532.15575-4.45132.79978-6.56478 1.54621-1.78643 4.62057-1.00752 6.73147-1.37272z" fill="#fff"/>
<path d="m441.93717,508.69076c-8.19514.09367-16.48782.18971-24.53125,1.90625-2.71875,1.45981-3.56175,4.82071-4.86852,7.41282-1.60617,3.84001-3.19893,7.79016-5.75557,11.08815-1.19656,4.59999-.7058,9.44984-.68643,14.15684-.21172,2.8631 1.24096,5.23937 3.00989,7.30378 1.63926,3.40213.2257,7.40184 1.61313,10.85091 2.82637.94805 5.86237.20326 8.78125.12503 .18155-3.83418.37948-7.66751.59375-11.5h41.90625v12h9.00003c.16585-3.80859-.51547-7.78994.86472-11.42837 1.77117-2.10757 3.30299-4.49409 3.05699-7.41404 .11993-5.70789.6013-11.87068-2.51483-16.9609-2.36439-4.24159-4.07191-8.79899-6.0318-13.22102-1.88409-3.00617-5.91581-2.81331-9.0262-3.3216-5.12249-.5262-10.25595-1.02321-15.41141-.99785zm-1.4375,4.84378c6.19691.09614 12.44214-.1084 18.59375.71872 3.41656,1.10857 4.14654,5.18373 5.40965,8.09502 .52164,1.72563 2.54759,5.25371-.86435,4.10661-6.63747-.71081-13.29833-1.19074-19.97885-1.10301-8.7286.07374-17.49692.03241-26.17514,1.06478-4.64971,1.72159-.89681-4.27319-.36006-6.25715 1.07241-2.79748 2.86731-6.28901 6.37389-6.14963 5.65285-.44598 11.33381-.44591 17.00111-.47534zm-24.09375,18.5625c2.95173-.39939 7.23355.56334 6.59375,4.43747v3.50003h-14.125c.26747-2.18532.15575-4.45132.79978-6.56478 1.54621-1.78643 4.62057-1.00752 6.73147-1.37272zm47.625.0625c2.49295.03343 4.97928.24914 7.46878.375v7c-4.50073.18163-9.00074.37956-13.50003.59375 .11239-2.5327-.6382-5.95951 2.13329-7.30709 1.21664-.55469 2.58011-.63625 3.89796-.66166z"/>
<path d="m440.49967,513.53453c6.19691.09614 12.44214-.1084 18.59375.71872 3.41656,1.10857 4.14654,5.18373 5.40965,8.09502 .52164,1.72563 2.54759,5.25371-.86435,4.10661-6.63747-.71081-13.29833-1.19074-19.97885-1.10301-8.7286.07374-17.49692.03241-26.17514,1.06478-4.64971,1.72159-.89681-4.27319-.36006-6.25715 1.07241-2.79748 2.86731-6.28901 6.37389-6.14963 5.65285-.44598 11.33381-.44591 17.00111-.47534z" fill="#fff"/>
</g>
</svg>
