<svg xmlns="http://www.w3.org/2000/svg" viewBox="0 0 512 512"><path opacity=".4" fill="currentColor" d="M64 112c0 26.5 21.5 48 48 48l48 0 0-48c0-26.5-21.5-48-48-48S64 85.5 64 112zm0 288c0 26.5 21.5 48 48 48s48-21.5 48-48l0-48-48 0c-26.5 0-48 21.5-48 48zM352 112l0 48 48 0c26.5 0 48-21.5 48-48s-21.5-48-48-48-48 21.5-48 48zm0 240l0 48c0 26.5 21.5 48 48 48s48-21.5 48-48-21.5-48-48-48l-48 0z"/><path fill="currentColor" d="M64 112c0 26.5 21.5 48 48 48l48 0 0-48c0-26.5-21.5-48-48-48S64 85.5 64 112zm160 0l0 48 64 0 0-48C288 50.1 338.1 0 400 0s112 50.1 112 112-50.1 112-112 112l-48 0 0 64 48 0c61.9 0 112 50.1 112 112s-50.1 112-112 112-112-50.1-112-112l0-48-64 0 0 48c0 61.9-50.1 112-112 112S0 461.9 0 400 50.1 288 112 288l48 0 0-64-48 0C50.1 224 0 173.9 0 112S50.1 0 112 0 224 50.1 224 112zm32 176l32 0 0-64-64 0 0 64 32 0zM112 352c-26.5 0-48 21.5-48 48s21.5 48 48 48 48-21.5 48-48l0-48-48 0zM448 112c0-26.5-21.5-48-48-48s-48 21.5-48 48l0 48 48 0c26.5 0 48-21.5 48-48zM400 352l-48 0 0 48c0 26.5 21.5 48 48 48s48-21.5 48-48-21.5-48-48-48z"/></svg>