<svg xmlns="http://www.w3.org/2000/svg" viewBox="0 0 512 512"><path style="fill:var(--fa-secondary-color,currentColor);opacity:var(--fa-secondary-opacity,.4)" d="M288 144c0-61.9 50.1-112 112-112S512 82.1 512 144l0 224c0 61.9-50.1 112-112 112S288 429.9 288 368l0-224zm64 0l0 224c0 26.5 21.5 48 48 48s48-21.5 48-48l0-224c0-26.5-21.5-48-48-48s-48 21.5-48 48z"/><path style="fill:var(--fa-primary-color,currentColor);opacity:var(--fa-primary-opacity,1)" d="M0 144C0 82.1 50.1 32 112 32S224 82.1 224 144l0 224c0 61.9-50.1 112-112 112S0 429.9 0 368L0 144zM112 96c-26.5 0-48 21.5-48 48l0 224c0 26.5 21.5 48 48 48s48-21.5 48-48l0-224c0-26.5-21.5-48-48-48z"/></svg>