<svg xmlns="http://www.w3.org/2000/svg" viewBox="0 0 320 512"><path style="fill:var(--fa-secondary-color,currentColor);opacity:var(--fa-secondary-opacity,.4)" d="M80 288c-17.7 0-32-14.3-32-32s14.3-32 32-32l112 0c35.3 0 64-28.7 64-64s-28.7-64-64-64L32 96C14.3 96 0 81.7 0 64S14.3 32 32 32l160 0c70.7 0 128 57.3 128 128 0 38.2-16.8 72.5-43.3 96 26.6 23.5 43.3 57.8 43.3 96 0 70.7-57.3 128-128 128L32 480c-17.7 0-32-14.3-32-32s14.3-32 32-32l160 0c35.3 0 64-28.7 64-64s-28.7-64-64-64L80 288z"/><path style="fill:var(--fa-primary-color,currentColor);opacity:var(--fa-primary-opacity,1)" d=""/></svg>