<svg xmlns="http://www.w3.org/2000/svg" viewBox="0 0 320 512"><path style="fill:var(--fa-secondary-color,currentColor);opacity:var(--fa-secondary-opacity,.4)" d="M0 64C0 46.3 14.3 32 32 32l224 0c17.7 0 32 14.3 32 32s-14.3 32-32 32l-192 0 0 112 120 0c75.1 0 136 60.9 136 136S259.1 480 184 480L32 480c-17.7 0-32-14.3-32-32s14.3-32 32-32l152 0c39.8 0 72-32.2 72-72s-32.2-72-72-72L32 272c-17.7 0-32-14.3-32-32L0 64z"/><path style="fill:var(--fa-primary-color,currentColor);opacity:var(--fa-primary-opacity,1)" d=""/></svg>