<svg xmlns="http://www.w3.org/2000/svg" viewBox="0 0 384 512"><path style="fill:var(--fa-secondary-color,currentColor);opacity:var(--fa-secondary-opacity,.4)" d="M208 320c29.6 0 57.1-8.9 80-24.2l0 32.2c0 48.6-39.4 88-88 88l-88 0c-17.7 0-32 14.3-32 32s14.3 32 32 32l88 0c83.9 0 152-68.1 152-152l0-152.1C351.9 96.4 287.5 32 208 32l-48 0C80.5 32 16 96.5 16 176S80.5 320 160 320l48 0zm80-144c0 44.2-35.8 80-80 80l-48 0c-44.2 0-80-35.8-80-80s35.8-80 80-80l48 0c44.2 0 80 35.8 80 80z"/><path style="fill:var(--fa-primary-color,currentColor);opacity:var(--fa-primary-opacity,1)" d=""/></svg>