<svg xmlns="http://www.w3.org/2000/svg" viewBox="0 0 512 512"><path style="fill:var(--fa-secondary-color,currentColor);opacity:var(--fa-secondary-opacity,.4)" d="M32 416c0-8.5 3.4-16.6 9.4-22.6l80-80c12.5-12.5 32.8-12.5 45.3 0s12.5 32.8 0 45.3L141.3 384 320 384c70.7 0 128-57.3 128-128 0-17.7 14.3-32 32-32s32 14.3 32 32c0 106-86 192-192 192l-178.7 0 25.4 25.4c12.5 12.5 12.5 32.8 0 45.3s-32.8 12.5-45.3 0l-80-80c-6-6-9.4-14.1-9.4-22.6z"/><path style="fill:var(--fa-primary-color,currentColor);opacity:var(--fa-primary-opacity,1)" d="M480 96c0 8.5-3.4 16.6-9.4 22.6l-80 80c-12.5 12.5-32.8 12.5-45.3 0s-12.5-32.8 0-45.3L370.7 128 192 128c-70.7 0-128 57.3-128 128 0 17.7-14.3 32-32 32S0 273.7 0 256C0 150 86 64 192 64l178.7 0-25.4-25.4c-12.5-12.5-12.5-32.8 0-45.3s32.8-12.5 45.3 0l80 80c6 6 9.4 14.1 9.4 22.6z"/></svg>