<svg xmlns="http://www.w3.org/2000/svg" viewBox="0 0 512 512"><path style="fill:var(--fa-secondary-color,currentColor);opacity:var(--fa-secondary-opacity,.4)" d="M0 352.3l1 127c.1 17.7 14.6 31.9 32.3 31.7S65.2 496.4 65 478.7l-.4-51.5 10.7 10.1c46.3 46.1 110.2 74.7 180.7 74.7 129 0 235.7-95.4 253.4-219.5 2.5-17.5-9.7-33.7-27.1-36.2s-33.7 9.7-36.2 27.1c-13.3 93-93.4 164.5-190.1 164.5-53 0-101-21.5-135.8-56.2-.2-.2-.4-.4-.6-.6l-7.6-7.2 47.9 0c17.7 0 32-14.3 32-32s-14.3-32-32-32L32 320c-8.5 0-16.7 3.4-22.7 9.5S-.1 343.7 0 352.3z"/><path style="fill:var(--fa-primary-color,currentColor);opacity:var(--fa-primary-opacity,1)" d="M256 64c-96.7 0-176.7 71.5-190.1 164.5-2.5 17.5-18.7 29.6-36.2 27.1S.1 237 2.6 219.5C20.3 95.4 127 0 256 0 326.5 0 390.5 28.6 436.7 74.7L448 85.4 448 32c0-17.7 14.3-32 32-32s32 14.3 32 32l0 128c0 17.7-14.3 32-32 32l-128 0c-17.7 0-32-14.3-32-32s14.3-32 32-32l47.9 0-7.6-7.2c-.2-.2-.4-.4-.6-.6-34.8-34.8-82.7-56.2-135.8-56.2z"/></svg>