<svg xmlns="http://www.w3.org/2000/svg" viewBox="0 0 448 512"><path style="fill:var(--fa-secondary-color,currentColor);opacity:var(--fa-secondary-opacity,.4)" d="M0 96l0 16 64 0 0-80C28.7 32 0 60.7 0 96zm0 48l0 96 208 0 0-96-208 0zM0 272l0 96 64 0 0-96-64 0zM0 400l0 16c0 35.3 28.7 64 64 64l144 0 0-80-208 0zM96 32l0 80 256 0 0-80-256 0zm0 240l0 96 256 0 0-96-256 0zM240 144l0 96 208 0 0-96-208 0zm0 256l0 80 144 0c35.3 0 64-28.7 64-64l0-16-208 0zM384 32l0 80 64 0 0-16c0-35.3-28.7-64-64-64zm0 240l0 96 64 0 0-96-64 0z"/><path style="fill:var(--fa-primary-color,currentColor);opacity:var(--fa-primary-opacity,1)" d="M64 112l-64 0 0 32 208 0 0 96-208 0 0 32 64 0 0 96-64 0 0 32 208 0 0 80 32 0 0-80 208 0 0-32-64 0 0-96 64 0 0-32-208 0 0-96 208 0 0-32-64 0 0-80-32 0 0 80-256 0 0-80-32 0 0 80zM352 368l-256 0 0-96 256 0 0 96z"/></svg>