<svg xmlns="http://www.w3.org/2000/svg" viewBox="0 0 512 512"><path style="fill:var(--fa-secondary-color,currentColor);opacity:var(--fa-secondary-opacity,.4)" d="M256 72l0 445.3c4.2 0 8.4-.8 12.3-2.5l12.8-5.3c46.8-19.5 97-29.5 147.7-29.5l35.2 0c26.5 0 48-21.5 48-48l0-352c0-26.5-21.5-48-48-48l-35.2 0c-50.7 0-100.9 10-147.7 29.5L256 72z"/><path style="fill:var(--fa-primary-color,currentColor);opacity:var(--fa-primary-opacity,1)" d="M256 72L230.9 61.5C184.1 42 133.9 32 83.2 32L48 32C21.5 32 0 53.5 0 80L0 432c0 26.5 21.5 48 48 48l35.2 0c50.7 0 100.9 10 147.7 29.5l12.8 5.3c3.9 1.6 8.1 2.5 12.3 2.5L256 72z"/></svg>