<svg xmlns="http://www.w3.org/2000/svg" viewBox="0 0 448 512"><path style="fill:var(--fa-secondary-color,currentColor);opacity:var(--fa-secondary-opacity,.4)" d="M0 148.5c0-13.3 4.2-26.3 11.9-37.2L60.9 42.8C72.9 26 92.3 16 112.9 16l222.1 0c20.7 0 40.1 10 52.1 26.8l48.9 68.5c7.8 10.9 11.9 23.9 11.9 37.2L448 416c0 35.3-28.7 64-64 64L64 480c-35.3 0-64-28.7-64-64L0 148.5zM78.6 128l290.7 0-34.3-48-222.1 0-34.3 48zM156 268.5c0 25.7 18.5 47.6 43.9 51.8l41.7 7c6 1 10.4 6.2 10.4 12.3 0 6.9-5.6 12.5-12.5 12.5L184 352c-11 0-20 9-20 20s9 20 20 20l24 0 0 4c0 11 9 20 20 20s20-9 20-20l0-4.7c25-4.1 44-25.7 44-51.8 0-25.7-18.5-47.6-43.9-51.8l-41.7-7c-6-1-10.4-6.2-10.4-12.3 0-6.9 5.6-12.5 12.5-12.5l47.5 0c11 0 20-9 20-20s-9-20-20-20l-8 0 0-4c0-11-9-20-20-20s-20 9-20 20l0 4c-28.8 .3-52 23.7-52 52.5z"/><path style="fill:var(--fa-primary-color,currentColor);opacity:var(--fa-primary-opacity,1)" d="M208 212c0-11 9-20 20-20s20 9 20 20l0 4 8 0c11 0 20 9 20 20s-9 20-20 20l-47.5 0c-6.9 0-12.5 5.6-12.5 12.5 0 6.1 4.4 11.3 10.4 12.3l41.7 7c25.3 4.2 43.9 26.1 43.9 51.8 0 26.1-19 47.7-44 51.8l0 4.7c0 11-9 20-20 20s-20-9-20-20l0-4-24 0c-11 0-20-9-20-20s9-20 20-20l55.5 0c6.9 0 12.5-5.6 12.5-12.5 0-6.1-4.4-11.3-10.4-12.3l-41.7-7c-25.3-4.2-43.9-26.1-43.9-51.8 0-28.8 23.2-52.2 52-52.5l0-4z"/></svg>