<svg xmlns="http://www.w3.org/2000/svg" viewBox="0 0 576 512"><path style="fill:var(--fa-secondary-color,currentColor);opacity:var(--fa-secondary-opacity,.4)" d="M32 148.5L32 416c0 35.3 28.7 64 64 64l161.4 0c-11.2-24.4-17.4-51.4-17.4-80 0-106 86-192 192-192 16.6 0 32.7 2.1 48 6l0-65.5c0-13.3-4.2-26.3-11.9-37.2L419.1 42.8C407.1 26 387.7 16 367.1 16L144.9 16c-20.7 0-40.1 10-52.1 26.8L43.9 111.3C36.2 122.2 32 135.2 32 148.5zM110.6 128l34.3-48 222.1 0 34.3 48-290.7 0z"/><path style="fill:var(--fa-primary-color,currentColor);opacity:var(--fa-primary-opacity,1)" d="M432 544a144 144 0 1 0 0-288 144 144 0 1 0 0 288zm60.9-182.6l-64 88c-2.8 3.8-7 6.2-11.7 6.5s-9.3-1.3-12.6-4.6l-40-40c-6.2-6.2-6.2-16.4 0-22.6s16.4-6.2 22.6 0l26.8 26.8 53-72.9c5.2-7.1 15.2-8.7 22.4-3.5s8.7 15.2 3.5 22.3z"/></svg>