<svg xmlns="http://www.w3.org/2000/svg" viewBox="0 0 448 512"><path style="fill:var(--fa-secondary-color,currentColor);opacity:var(--fa-secondary-opacity,.4)" d="M0 148.5c0-13.3 4.2-26.3 11.9-37.2L60.9 42.8C72.9 26 92.3 16 112.9 16l222.1 0c20.7 0 40.1 10 52.1 26.8l48.9 68.5c7.8 10.9 11.9 23.9 11.9 37.2L448 416c0 35.3-28.7 64-64 64L64 480c-35.3 0-64-28.7-64-64L0 148.5zM78.6 128l290.7 0-34.3-48-222.1 0-34.3 48zm62.2 198.4l48 64c4.7 6.3 12.3 9.9 20.2 9.6s15.1-4.5 19.3-11.3l80-128c7-11.2 3.6-26-7.6-33.1s-26-3.6-33.1 7.6l-61.4 98.3-27-36c-8-10.6-23-12.8-33.6-4.8s-12.8 23-4.8 33.6z"/><path style="fill:var(--fa-primary-color,currentColor);opacity:var(--fa-primary-opacity,1)" d="M300.7 227.6c11.2 7 14.7 21.8 7.6 33.1l-80 128c-4.2 6.7-11.4 10.9-19.3 11.3s-15.5-3.2-20.2-9.6l-48-64c-8-10.6-5.8-25.6 4.8-33.6s25.6-5.8 33.6 4.8l27 36 61.4-98.3c7-11.2 21.8-14.7 33.1-7.6z"/></svg>