<svg xmlns="http://www.w3.org/2000/svg" viewBox="0 0 512 512"><path style="fill:var(--fa-secondary-color,currentColor);opacity:var(--fa-secondary-opacity,.4)" d="M32 128l0 288c0 35.3 28.7 64 64 64l320 0c35.3 0 64-28.7 64-64l0-288-448 0zM160 264c0-13.3 10.7-24 24-24l144 0c13.3 0 24 10.7 24 24s-10.7 24-24 24l-144 0c-13.3 0-24-10.7-24-24z"/><path style="fill:var(--fa-primary-color,currentColor);opacity:var(--fa-primary-opacity,1)" d="M32 32l448 0c17.7 0 32 14.3 32 32l0 32c0 17.7-14.3 32-32 32L32 128C14.3 128 0 113.7 0 96L0 64C0 46.3 14.3 32 32 32z"/></svg>