<svg xmlns="http://www.w3.org/2000/svg" viewBox="0 0 448 512"><path style="fill:var(--fa-secondary-color,currentColor);opacity:var(--fa-secondary-opacity,.4)" d="M0 148.5c0-13.3 4.2-26.3 11.9-37.2L60.9 42.8C72.9 26 92.3 16 112.9 16l222.1 0c20.7 0 40.1 10 52.1 26.8l48.9 68.5c7.8 10.9 11.9 23.9 11.9 37.2L448 416c0 35.3-28.7 64-64 64L64 480c-35.3 0-64-28.7-64-64L0 148.5zM78.6 128l290.7 0-34.3-48-222.1 0-34.3 48zM135 295c-9.4 9.4-9.4 24.6 0 33.9l72 72c9.4 9.4 24.6 9.4 33.9 0l72-72c9.4-9.4 9.4-24.6 0-33.9s-24.6-9.4-33.9 0l-31 31 0-102.1c0-13.3-10.7-24-24-24s-24 10.7-24 24l0 102.1-31-31c-9.4-9.4-24.6-9.4-33.9 0z"/><path style="fill:var(--fa-primary-color,currentColor);opacity:var(--fa-primary-opacity,1)" d="M241 401c-9.4 9.4-24.6 9.4-33.9 0l-72-72c-9.4-9.4-9.4-24.6 0-33.9s24.6-9.4 33.9 0l31 31 0-102.1c0-13.3 10.7-24 24-24s24 10.7 24 24l0 102.1 31-31c9.4-9.4 24.6-9.4 33.9 0s9.4 24.6 0 33.9l-72 72z"/></svg>