<svg xmlns="http://www.w3.org/2000/svg" viewBox="0 0 512 512"><path style="fill:var(--fa-secondary-color,currentColor);opacity:var(--fa-secondary-opacity,.4)" d="M16 120c80 45.3 160 90.7 240 136 29.3-16.6 61.6-34.9 96.9-54.9L132.2 76.9 112.1 65.6 16 120zM160.8 37.9l226.9 127.7 14 7.8 94.3-53.4-208.5-118.1C268-9.2 244-9.2 224.4 1.9l-63.6 36z"/><path style="fill:var(--fa-primary-color,currentColor);opacity:var(--fa-primary-opacity,1)" d="M287.5 510.1l176-99.7C483.6 399 496 377.8 496 354.7L496 120 256 256 16 120 16 354.7c0 23 12.4 44.3 32.4 55.7l176 99.7c19.6 11.1 43.5 11.1 63.1 0z"/></svg>