<svg xmlns="http://www.w3.org/2000/svg" viewBox="0 0 448 512"><path style="fill:var(--fa-secondary-color,currentColor);opacity:var(--fa-secondary-opacity,.4)" d="M0 144L61.2 46.1C72.9 27.4 93.4 16 115.5 16l76.5 0-32 128-160 0zm160 0l0 112 128 0 0-112-128 0zM256 16l76.5 0c22.1 0 42.6 11.4 54.3 30.1L448 144 288 144 256 16z"/><path style="fill:var(--fa-primary-color,currentColor);opacity:var(--fa-primary-opacity,1)" d="M160 144L0 144 0 416c0 35.3 28.7 64 64 64l320 0c35.3 0 64-28.7 64-64l0-272-160 0 0 112-128 0 0-112z"/></svg>