<svg xmlns="http://www.w3.org/2000/svg" viewBox="0 0 512 512"><path style="fill:var(--fa-secondary-color,currentColor);opacity:var(--fa-secondary-opacity,.4)" d="M72.7 70.9L128 320 384 320 434 170.1c6.9-20.7-8.5-42.1-30.4-42.1l-60.5 0c-13.8 0-26-8.8-30.4-21.9L295.3 53.9C290.9 40.8 278.7 32 264.9 32l-161 0C83.4 32 68.2 51 72.7 70.9z"/><path style="fill:var(--fa-primary-color,currentColor);opacity:var(--fa-primary-opacity,1)" d="M48 256l16.6 0 16.5 74.4C86 352.4 105.5 368 128 368l256 0c20.7 0 39-13.2 45.5-32.8l26.4-79.2 8.1 0c26.5 0 48 21.5 48 48l0 128c0 26.5-21.5 48-48 48L48 480c-26.5 0-48-21.5-48-48L0 304c0-26.5 21.5-48 48-48z"/></svg>