<svg xmlns="http://www.w3.org/2000/svg" viewBox="0 0 512 512"><path style="fill:var(--fa-secondary-color,currentColor);opacity:var(--fa-secondary-opacity,.4)" d="M0 192l0 160 512 0 0-160c0-35.3-28.7-64-64-64l-51.1 0c-1.9 3-4.2 5.9-6.8 8.5L288.5 238.1c-.7 .7-1.4 1.3-2.1 1.9L392 240c13.3 0 24 10.7 24 24s-10.7 24-24 24l-272 0c-13.3 0-24-10.7-24-24s10.7-24 24-24l102.7 0c-.7-.6-1.4-1.3-2.1-1.9l-82.7-82.7c-7.7-7.7-12.2-17.3-13.6-27.4L64 128c-35.3 0-64 28.7-64 64z"/><path style="fill:var(--fa-primary-color,currentColor);opacity:var(--fa-primary-opacity,1)" d="M220.6 238.1l-82.7-82.7c-18.7-18.7-18.7-49.1 0-67.9L239.5-14.1c18.7-18.7 49.1-18.7 67.9 0l82.7 82.7c18.7 18.7 18.7 49.1 0 67.9L288.5 238.1c-18.7 18.7-49.1 18.7-67.9 0zM512 352l0 96c0 35.3-28.7 64-64 64L64 512c-35.3 0-64-28.7-64-64l0-96 512 0z"/></svg>