<svg xmlns="http://www.w3.org/2000/svg" viewBox="0 0 512 512"><path style="fill:var(--fa-secondary-color,currentColor);opacity:var(--fa-secondary-opacity,.4)" d="M16 120c80 45.3 160 90.7 240 136 30.1-17.1 60.2-34.1 90.3-51.2L105.5 69.3 16 120zM187.8 22.6L428.7 158.1c22.4-12.7 44.9-25.4 67.3-38.1L287.5 1.9C268-9.2 244-9.2 224.4 1.9L187.8 22.6z"/><path style="fill:var(--fa-primary-color,currentColor);opacity:var(--fa-primary-opacity,1)" d="M375.8 319.6c-10.7 6-23.8-1.7-23.8-13.9l0-97.6-5.7-3.2-90.3 51.2-240-136 0 233.6c0 23.1 12.5 44.4 32.6 55.8l176 99c19.5 11 43.3 11 62.8 0l176-99C483.5 398 496 376.7 496 353.6l0-233.6-67.3 38.1 3.3 1.9 0 109.3c0 11.6-6.2 22.2-16.3 27.9l-39.8 22.4z"/></svg>