<svg xmlns="http://www.w3.org/2000/svg" viewBox="0 0 576 512"><path style="fill:var(--fa-secondary-color,currentColor);opacity:var(--fa-secondary-opacity,.4)" d="M32.5 148.5l0 267.5c0 35.3 28.7 64 64 64l173 0c-28-30.6-45-71.3-45-116 0-95 77-172 172-172 30.5 0 59.2 7.9 84 21.9l0-65.4c0-13.3-4.2-26.3-11.9-37.2L419.6 42.8C407.6 26 388.2 16 367.6 16L145.4 16c-20.7 0-40.1 10-52.1 26.8L44.4 111.3c-7.8 10.9-11.9 23.9-11.9 37.2zM111.1 128l34.3-48 222.1 0 34.3 48-290.7 0z"/><path style="fill:var(--fa-primary-color,currentColor);opacity:var(--fa-primary-opacity,1)" d="M464.5 364a68 68 0 1 0 -136 0 68 68 0 1 0 136 0zM462 469.3c-19 11.9-41.5 18.7-65.5 18.7-68.5 0-124-55.5-124-124s55.5-124 124-124 124 55.5 124 124c0 24.1-6.9 46.7-18.8 65.7l54.6 54.6c10.9 10.9 10.9 28.7 0 39.6s-28.7 10.9-39.6 0L462 469.3z"/></svg>