<svg xmlns="http://www.w3.org/2000/svg" viewBox="0 0 512 512"><path style="fill:var(--fa-secondary-color,currentColor);opacity:var(--fa-secondary-opacity,.4)" d="M96 256l64 0 0 64c0 8.8-7.2 16-16 16l-32 0c-8.8 0-16-7.2-16-16l0-64zM224 0l64 0 0 64c0 8.8-7.2 16-16 16l-32 0c-8.8 0-16-7.2-16-16l0-64zM352 256l64 0 0 64c0 8.8-7.2 16-16 16l-32 0c-8.8 0-16-7.2-16-16l0-64z"/><path style="fill:var(--fa-primary-color,currentColor);opacity:var(--fa-primary-opacity,1)" d="M224 0l0 64c0 8.8 7.2 16 16 16l32 0c8.8 0 16-7.2 16-16l0-64 32 0c35.3 0 64 28.7 64 64l0 128c0 5.5-.7 10.9-2 16l-252 0c-1.3-5.1-2-10.5-2-16l0-128c0-35.3 28.7-64 64-64l32 0zm96 512c-11.2 0-21.8-2.9-31-8 9.5-16.5 15-35.6 15-56l0-128c0-20.4-5.5-39.5-15-56 9.2-5.1 19.7-8 31-8l32 0 0 64c0 8.8 7.2 16 16 16l32 0c8.8 0 16-7.2 16-16l0-64 32 0c35.3 0 64 28.7 64 64l0 128c0 35.3-28.7 64-64 64l-128 0zM0 320c0-35.3 28.7-64 64-64l32 0 0 64c0 8.8 7.2 16 16 16l32 0c8.8 0 16-7.2 16-16l0-64 32 0c35.3 0 64 28.7 64 64l0 128c0 35.3-28.7 64-64 64L64 512c-35.3 0-64-28.7-64-64L0 320z"/></svg>