<svg xmlns="http://www.w3.org/2000/svg" viewBox="0 0 448 512"><path style="fill:var(--fa-secondary-color,currentColor);opacity:var(--fa-secondary-opacity,.4)" d="M32 416l0 32c0 35.3 28.7 64 64 64l192 0c35.3 0 64-28.7 64-64l0-32-123.9 0 23 15.3 3.1 2.6c6.5 6.6 7.8 17.1 2.4 25.2s-15.5 10.9-24.2 7.4l-3.6-1.9-36.9-24.6-36.9 24.6c-9.2 6.1-21.6 3.6-27.8-5.6s-3.6-21.6 5.6-27.8l23-15.3-123.9 0z"/><path style="fill:var(--fa-primary-color,currentColor);opacity:var(--fa-primary-opacity,1)" d="M288 0c53 0 96 43 96 96l0 16-40 0c-34.2 0-63.7 19.5-78.3 48L120 160c-4.4 0-8-3.6-8-8 0-13.3-10.7-24-24-24s-24 10.7-24 24c0 30.9 25.1 56 56 56l136.4 0c3.4 37.5 30.2 68.1 65.7 77.2 12.8 3.3 25.9-4.4 29.2-17.3s-4.4-25.9-17.3-29.2c-17.3-4.4-30-20.1-30-38.8 0-22.1 17.9-40 40-40l40 0c35.3 0 64 28.7 64 64l0 24.2c0 25.5-10.1 49.9-28.1 67.9l-49.1 49.1c-12 12-18.7 28.3-18.7 45.2l0 5.5-123.9 0 23-15.3c9.2-6.1 11.7-18.6 5.6-27.8s-18.6-11.7-27.8-5.6l-36.9 24.6-36.9-24.6-3.6-1.9c-8.6-3.5-18.8-.6-24.2 7.4s-4.1 18.6 2.4 25.2l3.1 2.6 23 15.3-123.9 0 0-56.6C12.4 341.8 0 316.4 0 288L0 96C0 43 43 0 96 0L288 0z"/></svg>