<svg xmlns="http://www.w3.org/2000/svg" viewBox="0 0 576 512"><path style="fill:var(--fa-secondary-color,currentColor);opacity:var(--fa-secondary-opacity,.4)" d="M96 224l480 0 0 96c0 35.3-28.7 64-64 64l-352 0c-35.3 0-64-28.7-64-64l0-96z"/><path style="fill:var(--fa-primary-color,currentColor);opacity:var(--fa-primary-opacity,1)" d="M160 32c-35.3 0-64 28.7-64 64l0 128 480 0 0-128c0-35.3-28.7-64-64-64L160 32zm32 64a32 32 0 1 1 0 64 32 32 0 1 1 0-64zm64 32c0-13.3 10.7-24 24-24l208 0c13.3 0 24 10.7 24 24s-10.7 24-24 24l-208 0c-13.3 0-24-10.7-24-24zM48 152c0-13.3-10.7-24-24-24S0 138.7 0 152L0 416c0 35.3 28.7 64 64 64l392 0c13.3 0 24-10.7 24-24s-10.7-24-24-24L64 432c-8.8 0-16-7.2-16-16l0-264z"/></svg>