<svg xmlns="http://www.w3.org/2000/svg" viewBox="0 0 512 512"><path style="fill:var(--fa-secondary-color,currentColor);opacity:var(--fa-secondary-opacity,.4)" d="M0 256a256 256 0 1 0 512 0 256 256 0 1 0 -512 0zm176-88c0-13.3 10.7-24 24-24s24 10.7 24 24l0 88 48 0 0-88c0-13.3 10.7-24 24-24s24 10.7 24 24l0 88 8 0c13.3 0 24 10.7 24 24s-10.7 24-24 24l-8 0 0 40c0 13.3-10.7 24-24 24s-24-10.7-24-24l0-40-56 0c-22.1 0-40-17.9-40-40l0-96z"/><path style="fill:var(--fa-primary-color,currentColor);opacity:var(--fa-primary-opacity,1)" d="M224 168c0-13.3-10.7-24-24-24s-24 10.7-24 24l0 96c0 22.1 17.9 40 40 40l56 0 0 40c0 13.3 10.7 24 24 24s24-10.7 24-24l0-40 8 0c13.3 0 24-10.7 24-24s-10.7-24-24-24l-8 0 0-88c0-13.3-10.7-24-24-24s-24 10.7-24 24l0 88-48 0 0-88z"/></svg>