<svg xmlns="http://www.w3.org/2000/svg" viewBox="0 0 512 512"><path style="fill:var(--fa-secondary-color,currentColor);opacity:var(--fa-secondary-opacity,.4)" d="M0 256a256 256 0 1 0 512 0 256 256 0 1 0 -512 0zm168 44c0-19.1 7.9-36.3 20.5-48.7-7.9-11.1-12.5-24.7-12.5-39.3 0-37.6 30.4-68 68-68l24 0c37.6 0 68 30.4 68 68 0 14.7-4.6 28.2-12.5 39.3 12.7 12.3 20.5 29.6 20.5 48.7 0 37.6-30.4 68-68 68l-40 0c-37.6 0-68-30.4-68-68zm48 0c0 11 9 20 20 20l40 0c11 0 20-9 20-20s-9-20-20-20l-40 0c-11 0-20 9-20 20zm8-88c0 11 9 20 20 20l24 0c11 0 20-9 20-20s-9-20-20-20l-24 0c-11 0-20 9-20 20z"/><path style="fill:var(--fa-primary-color,currentColor);opacity:var(--fa-primary-opacity,1)" d="M244 144c-37.6 0-68 30.4-68 68 0 14.7 4.6 28.2 12.5 39.3-12.7 12.3-20.5 29.6-20.5 48.7 0 37.6 30.4 68 68 68l40 0c37.6 0 68-30.4 68-68 0-19.1-7.9-36.3-20.5-48.7 7.9-11.1 12.5-24.7 12.5-39.3 0-37.6-30.4-68-68-68l-24 0zm24 88l-24 0c-11 0-20-9-20-20s9-20 20-20l24 0c11 0 20 9 20 20s-9 20-20 20zm-24 48l32 0c11 0 20 9 20 20s-9 20-20 20l-40 0c-11 0-20-9-20-20s9-20 20-20l8 0z"/></svg>