<svg xmlns="http://www.w3.org/2000/svg" viewBox="0 0 512 512"><path style="fill:var(--fa-secondary-color,currentColor);opacity:var(--fa-secondary-opacity,.4)" d="M0 256a256 256 0 1 0 512 0 256 256 0 1 0 -512 0zm176 88c0-13.3 10.7-24 24-24l32 0 0-128-16 0c-13.3 0-24-10.7-24-24s10.7-24 24-24l40 0c13.3 0 24 10.7 24 24l0 152 32 0c13.3 0 24 10.7 24 24s-10.7 24-24 24l-112 0c-13.3 0-24-10.7-24-24z"/><path style="fill:var(--fa-primary-color,currentColor);opacity:var(--fa-primary-opacity,1)" d="M192 168c0-13.3 10.7-24 24-24l40 0c13.3 0 24 10.7 24 24l0 152 32 0c13.3 0 24 10.7 24 24s-10.7 24-24 24l-112 0c-13.3 0-24-10.7-24-24s10.7-24 24-24l32 0 0-128-16 0c-13.3 0-24-10.7-24-24z"/></svg>