<svg xmlns="http://www.w3.org/2000/svg" viewBox="0 0 512 512"><path style="fill:var(--fa-secondary-color,currentColor);opacity:var(--fa-secondary-opacity,.4)" d="M0 256a256 256 0 1 0 512 0 256 256 0 1 0 -512 0zm176-88c0-13.3 10.7-24 24-24l112 0c8.3 0 16 4.3 20.4 11.4s4.8 15.9 1 23.4l-88 176c-5.9 11.9-20.3 16.7-32.2 10.7s-16.7-20.3-10.7-32.2L273.2 192 200 192c-13.3 0-24-10.7-24-24z"/><path style="fill:var(--fa-primary-color,currentColor);opacity:var(--fa-primary-opacity,1)" d="M176 168c0-13.3 10.7-24 24-24l112 0c8.3 0 16 4.3 20.4 11.4s4.8 15.9 1 23.4l-88 176c-5.9 11.9-20.3 16.7-32.2 10.7s-16.7-20.3-10.7-32.2L273.2 192 200 192c-13.3 0-24-10.7-24-24z"/></svg>