<svg xmlns="http://www.w3.org/2000/svg" viewBox="0 0 512 512"><path style="fill:var(--fa-secondary-color,currentColor);opacity:var(--fa-secondary-opacity,.4)" d="M0 256a256 256 0 1 0 512 0 256 256 0 1 0 -512 0zm160-16c0-53 43-96 96-96s96 43 96 96l0 32c0 53-43 96-96 96s-96-43-96-96l0-32zm48 0l0 32c0 26.5 21.5 48 48 48s48-21.5 48-48l0-32c0-26.5-21.5-48-48-48s-48 21.5-48 48z"/><path style="fill:var(--fa-primary-color,currentColor);opacity:var(--fa-primary-opacity,1)" d="M160 240c0-53 43-96 96-96s96 43 96 96l0 32c0 53-43 96-96 96s-96-43-96-96l0-32zm96-48c-26.5 0-48 21.5-48 48l0 32c0 26.5 21.5 48 48 48s48-21.5 48-48l0-32c0-26.5-21.5-48-48-48z"/></svg>