<svg xmlns="http://www.w3.org/2000/svg" viewBox="0 0 512 512"><path style="fill:var(--fa-secondary-color,currentColor);opacity:var(--fa-secondary-opacity,.4)" d="M0 256a256 256 0 1 0 512 0 256 256 0 1 0 -512 0zm168-40c0-39.8 32.2-72 72-72l48 0c13.3 0 24 10.7 24 24s-10.7 24-24 24l-48 0c-13.3 0-24 10.7-24 24l0 12.1c7.5-2.7 15.6-4.1 24-4.1l32 0c39.8 0 72 32.2 72 72s-32.2 72-72 72l-32 0c-39.8 0-72-32.2-72-72l0-80zm48 80c0 13.3 10.7 24 24 24l32 0c13.3 0 24-10.7 24-24s-10.7-24-24-24l-32 0c-13.3 0-24 10.7-24 24z"/><path style="fill:var(--fa-primary-color,currentColor);opacity:var(--fa-primary-opacity,1)" d="M288 144c13.3 0 24 10.7 24 24s-10.7 24-24 24l-48 0c-13.3 0-24 10.7-24 24l0 12.1c7.5-2.7 15.6-4.1 24-4.1l32 0c39.8 0 72 32.2 72 72s-32.2 72-72 72l-32 0c-39.8 0-72-32.2-72-72l0-80c0-39.8 32.2-72 72-72l48 0zM216 296c0 13.3 10.7 24 24 24l32 0c13.3 0 24-10.7 24-24s-10.7-24-24-24l-32 0c-13.3 0-24 10.7-24 24z"/></svg>