<svg xmlns="http://www.w3.org/2000/svg" viewBox="0 0 512 512"><path style="fill:var(--fa-secondary-color,currentColor);opacity:var(--fa-secondary-opacity,.4)" d="M0 256a256 256 0 1 0 512 0 256 256 0 1 0 -512 0zm176-88c0-13.3 10.7-24 24-24l96 0c13.3 0 24 10.7 24 24s-10.7 24-24 24l-72 0 0 32 40 0c39.8 0 72 32.2 72 72s-32.2 72-72 72l-64 0c-13.3 0-24-10.7-24-24s10.7-24 24-24l64 0c13.3 0 24-10.7 24-24s-10.7-24-24-24l-64 0c-13.3 0-24-10.7-24-24l0-80z"/><path style="fill:var(--fa-primary-color,currentColor);opacity:var(--fa-primary-opacity,1)" d="M320 168c0-13.3-10.7-24-24-24l-96 0c-13.3 0-24 10.7-24 24l0 80c0 13.3 10.7 24 24 24l64 0c13.3 0 24 10.7 24 24s-10.7 24-24 24l-64 0c-13.3 0-24 10.7-24 24s10.7 24 24 24l64 0c39.8 0 72-32.2 72-72s-32.2-72-72-72l-40 0 0-32 72 0c13.3 0 24-10.7 24-24z"/></svg>