<svg xmlns="http://www.w3.org/2000/svg" viewBox="0 0 512 512"><path style="fill:var(--fa-secondary-color,currentColor);opacity:var(--fa-secondary-opacity,.4)" d="M64 153.3l0 205.3c9.8-4.3 20.6-6.7 32-6.7s22.2 2.4 32 6.7l0-205.3c-9.8 4.3-20.6 6.7-32 6.7s-22.2-2.4-32-6.7zM231 63c-9.4 9.4-9.4 24.6 0 33.9l56 56c6.9 6.9 17.2 8.9 26.2 5.2S328 145.7 328 136l0-24 24 0c17.7 0 32 14.3 32 32l0 214.7c9.8-4.3 20.6-6.7 32-6.7s22.2 2.4 32 6.7L448 144c0-53-43-96-96-96l-24 0 0-24c0-9.7-5.8-18.5-14.8-22.2S293.9 .2 287 7L231 63z"/><path style="fill:var(--fa-primary-color,currentColor);opacity:var(--fa-primary-opacity,1)" d="M96 56a24 24 0 1 1 0 48 24 24 0 1 1 0-48zm0 104A80 80 0 1 0 96 0 80 80 0 1 0 96 160zm0 248a24 24 0 1 1 0 48 24 24 0 1 1 0-48zm0 104a80 80 0 1 0 0-160 80 80 0 1 0 0 160zm296-80a24 24 0 1 1 48 0 24 24 0 1 1 -48 0zm104 0a80 80 0 1 0 -160 0 80 80 0 1 0 160 0z"/></svg>