<svg xmlns="http://www.w3.org/2000/svg" viewBox="0 0 512 512"><path style="fill:var(--fa-secondary-color,currentColor);opacity:var(--fa-secondary-opacity,.4)" d="M64 144l0 214.7c9.8-4.3 20.6-6.7 32-6.7s22.2 2.4 32 6.7L128 144c0-17.7 14.3-32 32-32l24 0 0 24c0 9.7 5.8 18.5 14.8 22.2s19.3 1.7 26.2-5.2l56-56c9.4-9.4 9.4-24.6 0-33.9L225 7c-6.9-6.9-17.2-8.9-26.2-5.2S184 14.3 184 24l0 24-24 0c-53 0-96 43-96 96zM231 415c-9.4 9.4-9.4 24.6 0 33.9l56 56c6.9 6.9 17.2 8.9 26.2 5.2S328 497.7 328 488l0-24 24 0c53 0 96-43 96-96l0-214.7c-9.8 4.3-20.6 6.7-32 6.7s-22.2-2.4-32-6.7L384 368c0 17.7-14.3 32-32 32l-24 0 0-24c0-9.7-5.8-18.5-14.8-22.2s-19.3-1.7-26.2 5.2l-56 56z"/><path style="fill:var(--fa-primary-color,currentColor);opacity:var(--fa-primary-opacity,1)" d="M440 80a24 24 0 1 1 -48 0 24 24 0 1 1 48 0zM336 80a80 80 0 1 0 160 0 80 80 0 1 0 -160 0zM120 432a24 24 0 1 1 -48 0 24 24 0 1 1 48 0zM16 432a80 80 0 1 0 160 0 80 80 0 1 0 -160 0z"/></svg>