<svg xmlns="http://www.w3.org/2000/svg" viewBox="0 0 448 512"><path style="fill:var(--fa-secondary-color,currentColor);opacity:var(--fa-secondary-opacity,.4)" d="M48 153.3l0 205.3c9.8-4.3 20.6-6.7 32-6.7s22.2 2.4 32 6.7l0-86.6c26.7 20.1 60 32 96 32l86.7 0c-4.3-9.8-6.7-20.6-6.7-32s2.4-22.2 6.7-32L208 240c-49.9 0-91-38.1-95.6-86.8-9.9 4.4-20.9 6.8-32.4 6.8-11.4 0-22.2-2.4-32-6.7z"/><path style="fill:var(--fa-primary-color,currentColor);opacity:var(--fa-primary-opacity,1)" d="M80 56a24 24 0 1 1 0 48 24 24 0 1 1 0-48zm0 104A80 80 0 1 0 80 0 80 80 0 1 0 80 160zm0 248a24 24 0 1 1 0 48 24 24 0 1 1 0-48zm0 104a80 80 0 1 0 0-160 80 80 0 1 0 0 160zM344 272a24 24 0 1 1 48 0 24 24 0 1 1 -48 0zm104 0a80 80 0 1 0 -160 0 80 80 0 1 0 160 0z"/></svg>