<svg xmlns="http://www.w3.org/2000/svg" viewBox="0 0 576 512"><path style="fill:var(--fa-secondary-color,currentColor);opacity:var(--fa-secondary-opacity,.4)" d="M0 256c0 17.7 14.3 32 32 32l99.2 0c-2.1-10.3-3.2-21-3.2-32s1.1-21.7 3.2-32L32 224c-17.7 0-32 14.3-32 32zm444.8-32c2.1 10.3 3.2 21 3.2 32s-1.1 21.7-3.2 32l99.2 0c17.7 0 32-14.3 32-32s-14.3-32-32-32l-99.2 0z"/><path style="fill:var(--fa-primary-color,currentColor);opacity:var(--fa-primary-opacity,1)" d="M288 176a80 80 0 1 1 0 160 80 80 0 1 1 0-160zm0 240a160 160 0 1 0 0-320 160 160 0 1 0 0 320z"/></svg>