<svg xmlns="http://www.w3.org/2000/svg" viewBox="0 0 576 512"><path style="fill:var(--fa-secondary-color,currentColor);opacity:var(--fa-secondary-opacity,.4)" d="M361.4 73.4c12.5-12.5 32.8-12.5 45.3 0l160 160c12.5 12.5 12.5 32.8 0 45.3l-160 160c-12.5 12.5-32.8 12.5-45.3 0s-12.5-32.8 0-45.3L498.7 256 361.4 118.6c-12.5-12.5-12.5-32.8 0-45.3z"/><path style="fill:var(--fa-primary-color,currentColor);opacity:var(--fa-primary-opacity,1)" d="M214.6 73.4c12.5 12.5 12.5 32.8 0 45.3L77.3 256 214.6 393.4c12.5 12.5 12.5 32.8 0 45.3s-32.8 12.5-45.3 0l-160-160c-12.5-12.5-12.5-32.8 0-45.3l160-160c12.5-12.5 32.8-12.5 45.3 0z"/></svg>