<svg xmlns="http://www.w3.org/2000/svg" viewBox="0 0 448 512"><path style="fill:var(--fa-secondary-color,currentColor);opacity:var(--fa-secondary-opacity,.4)" d="M48 153.3c4.9 2.1 10.1 3.8 15.4 4.9 2.7 .6 5.4 1 8.2 1.3s5.6 .4 8.4 .4c11.4 0 22.2-2.4 32-6.7l0 70.7 176 0c26.5 0 48-21.5 48-48l0-22.7c4.9 2.1 10.1 3.8 15.4 4.9 2.7 .6 5.4 1 8.2 1.3s5.6 .4 8.4 .4c11.4 0 22.2-2.4 32-6.7l0 22.7c0 61.9-50.1 112-112 112l-176 0 0 70.7c-4.9-2.1-10.1-3.8-15.4-4.9-2.7-.6-5.4-1-8.2-1.3s-5.6-.4-8.4-.4c-11.4 0-22.2 2.4-32 6.7l0-205.3z"/><path style="fill:var(--fa-primary-color,currentColor);opacity:var(--fa-primary-opacity,1)" d="M80 56a24 24 0 1 1 0 48 24 24 0 1 1 0-48zm0 104A80 80 0 1 0 80 0 80 80 0 1 0 80 160zM368 56a24 24 0 1 1 0 48 24 24 0 1 1 0-48zm0 104a80 80 0 1 0 0-160 80 80 0 1 0 0 160zM56 432a24 24 0 1 1 48 0 24 24 0 1 1 -48 0zm104 0a80 80 0 1 0 -160 0 80 80 0 1 0 160 0z"/></svg>