<svg xmlns="http://www.w3.org/2000/svg" viewBox="0 0 384 512"><path style="fill:var(--fa-secondary-color,currentColor);opacity:var(--fa-secondary-opacity,.4)" d="M48 153.3c9.8 4.3 20.6 6.7 32 6.7s22.2-2.4 32-6.7l0 205.3c-9.8-4.3-20.6-6.7-32-6.7s-22.2 2.4-32 6.7l0-205.3zM233.4 9.4c12.5-12.5 32.8-12.5 45.3 0L304 34.7 329.4 9.4c12.5-12.5 32.8-12.5 45.3 0s12.5 32.8 0 45.3L349.3 80 374.6 105.4c12.5 12.5 12.5 32.8 0 45.3s-32.8 12.5-45.3 0l-25.4-25.4-25.4 25.4c-12.5 12.5-32.8 12.5-45.3 0s-12.5-32.8 0-45.3L258.7 80 233.4 54.6c-12.5-12.5-12.5-32.8 0-45.3zM272 256c0-17.7 14.3-32 32-32s32 14.3 32 32l0 102.7c-9.8-4.3-20.6-6.7-32-6.7s-22.2 2.4-32 6.7L272 256z"/><path style="fill:var(--fa-primary-color,currentColor);opacity:var(--fa-primary-opacity,1)" d="M104 80a24 24 0 1 0 -48 0 24 24 0 1 0 48 0zM0 80A80 80 0 1 1 160 80 80 80 0 1 1 0 80zM80 456c13.3 0 24-10.7 24-24s-10.7-24-24-24-24 10.7-24 24 10.7 24 24 24zm0 56c-44.2 0-80-35.8-80-80s35.8-80 80-80 80 35.8 80 80-35.8 80-80 80zm224-56c13.3 0 24-10.7 24-24s-10.7-24-24-24-24 10.7-24 24 10.7 24 24 24zm0 56c-44.2 0-80-35.8-80-80s35.8-80 80-80 80 35.8 80 80-35.8 80-80 80z"/></svg>