<svg xmlns="http://www.w3.org/2000/svg" viewBox="0 0 512 512"><path style="fill:var(--fa-secondary-color,currentColor);opacity:var(--fa-secondary-opacity,.4)" d="M0 408c0-57.4 46.6-104 104-104l40 0 0-96 64 0 0 200c0 57.4-46.6 104-104 104S0 465.4 0 408zm64 0c0 22.1 17.9 40 40 40s40-17.9 40-40l0-40-40 0c-22.1 0-40 17.9-40 40zM304 104C304 46.6 350.6 0 408 0s104 46.6 104 104-46.6 104-104 104l-40 0 0 96-64 0 0-200zm64 0l0 40 40 0c22.1 0 40-17.9 40-40s-17.9-40-40-40-40 17.9-40 40z"/><path style="fill:var(--fa-primary-color,currentColor);opacity:var(--fa-primary-opacity,1)" d="M408 304l-200 0 0 64 96 0 0 40c0 57.4 46.6 104 104 104s104-46.6 104-104-46.6-104-104-104zm-40 64l40 0c22.1 0 40 17.9 40 40s-17.9 40-40 40-40-17.9-40-40l0-40zM104 208l200 0 0-64-96 0 0-40C208 46.6 161.4 0 104 0S0 46.6 0 104 46.6 208 104 208zm40-64l-40 0c-22.1 0-40-17.9-40-40s17.9-40 40-40 40 17.9 40 40l0 40z"/></svg>