<svg xmlns="http://www.w3.org/2000/svg" viewBox="0 0 448 512"><path style="fill:var(--fa-secondary-color,currentColor);opacity:var(--fa-secondary-opacity,.4)" d="M48 128c2.7 32 5.3 64 8 96l336 0c2.7-32 5.3-64 8-96L48 128zM69.3 384c1.9 23.1 3.9 46.2 5.8 69.3 2.8 33.2 30.5 58.7 63.8 58.7l170.2 0c33.3 0 61-25.5 63.8-58.7 1.9-23.1 3.9-46.2 5.8-69.3L69.3 384z"/><path style="fill:var(--fa-primary-color,currentColor);opacity:var(--fa-primary-opacity,1)" d="M55.2 17.7L32 64C14.3 64 0 78.3 0 96s14.3 32 32 32l384 0c17.7 0 32-14.3 32-32s-14.3-32-32-32L392.8 17.7C387.4 6.8 376.3 0 364.2 0L83.8 0C71.7 0 60.6 6.8 55.2 17.7zM378.7 384l13.3-160-336 0 13.3 160 309.3 0z"/></svg>