<svg xmlns="http://www.w3.org/2000/svg" viewBox="0 0 448 512"><path style="fill:var(--fa-secondary-color,currentColor);opacity:var(--fa-secondary-opacity,.4)" d="M0 384l0 32c0 35.3 28.7 64 64 64l320 0c35.3 0 64-28.7 64-64l0-32c0-35.3-28.7-64-64-64l-82.7 0-54.6 54.6c-12.5 12.5-32.8 12.5-45.3 0L146.7 320 64 320c-35.3 0-64 28.7-64 64zm392 16a24 24 0 1 1 -48 0 24 24 0 1 1 48 0z"/><path style="fill:var(--fa-primary-color,currentColor);opacity:var(--fa-primary-opacity,1)" d="M224 0c17.7 0 32 14.3 32 32l0 242.7 41.4-41.4c12.5-12.5 32.8-12.5 45.3 0s12.5 32.8 0 45.3l-96 96c-12.5 12.5-32.8 12.5-45.3 0l-96-96c-12.5-12.5-12.5-32.8 0-45.3s32.8-12.5 45.3 0L192 274.7 192 32c0-17.7 14.3-32 32-32z"/></svg>