<svg xmlns="http://www.w3.org/2000/svg" viewBox="0 0 512 512"><path style="fill:var(--fa-secondary-color,currentColor);opacity:var(--fa-secondary-opacity,.4)" d="M1.1 280.3l81.7 20.4c8.2 2 16.8-.4 22.8-6.3l14.8-14.8c11.6-11.6 31.1-8.4 38.4 6.2 3.1 6.2 6.2 12.4 9.3 18.5 4.8 9.6 14.6 15.7 25.4 15.7 15.2 0 26.1-14.6 21.7-29.2-2-6.6-4-13.3-6-19.9-4.6-15.4 6.9-30.9 23-30.9 .8 0 1.6 0 2.3 0 13.4 0 25.9-6.7 33.3-17.8 3.6-5.4 7.1-10.7 10.7-16.1 5.6-8.5 5.3-19.6-.8-27.7-5.4-7.2-10.8-14.3-16.1-21.5-10.3-13.7-3.3-33.5 13.4-37.7 5.9-1.5 11.7-2.9 17.6-4.4 7.2-1.8 13.1-6.8 16.1-13.5 12.6-28.3 25.1-56.6 37.7-84.9 96.7 36.6 165.5 130 165.5 239.6 0 25.2-3.6 49.6-10.4 72.6-.3-.3-.7-.6-1.1-.8l-31.9-23c-5.9-4.3-13.4-5.6-20.5-3.6-4.5 1.3-9 2.5-13.5 3.8-6.7 1.9-13.8-.9-17.5-6.7l-2-3.1c-6-9.4-16.4-15.1-27.6-15.1s-21.6 5.7-27.6 15.1l-6.1 9.5c-1.4 2.2-3.4 4.1-5.7 5.3L312 330.1c-18.1 10.1-25.5 32.4-17 51.3l5.5 12.4c8.6 19.2 30.7 28.5 50.5 21.1 1.2-.5 2.4-.9 3.7-1.4 9.4-3.5 20-2.4 28.4 3.1 15 9.6 30 19.3 45.1 28.9-45.5 41.3-105.8 66.5-172.1 66.5-133.2 0-242.6-101.7-254.9-231.7zm143.3 67.8c-2.1 8.6 3.1 17.3 11.6 19.4 10.7 2.7 21.3 5.3 32 8 8.6 2.1 17.3-3.1 19.4-11.6 2.1-8.7-3.1-17.3-11.6-19.4l-32-8c-8.6-2.1-17.3 3.1-19.4 11.6zm92-20c-2.1 8.6 3.1 17.3 11.6 19.4s17.3-3.1 19.4-11.6c2.7-10.7 5.3-21.3 8-32 2.1-8.6-3.1-17.3-11.6-19.4s-17.3 3.1-19.4 11.6c-2.7 10.7-5.3 21.3-8 32zm69.2-175.3c-4 7.9-.7 17.5 7.2 21.5s17.5 .7 21.5-7.2c5.3-10.7 10.7-21.3 16-32 4-7.9 .7-17.5-7.2-21.5s-17.5-.7-21.5 7.2c-5.3 10.7-10.7 21.3-16 32z"/><path style="fill:var(--fa-primary-color,currentColor);opacity:var(--fa-primary-opacity,1)" d="M1.1 280.3l81.7 20.4c8.2 2 16.8-.4 22.8-6.3l14.8-14.8c11.6-11.6 31.1-8.4 38.4 6.2l9.3 18.5c4.8 9.6 14.6 15.7 25.4 15.7 15.2 0 26.1-14.6 21.7-29.2l-6-19.9c-4.6-15.4 6.9-30.9 23-30.9l2.3 0c13.4 0 25.9-6.7 33.3-17.8l10.7-16.1c5.6-8.5 5.3-19.6-.8-27.7l-16.1-21.5c-10.3-13.7-3.3-33.5 13.4-37.7l17.6-4.4c7.2-1.8 13.1-6.8 16.1-13.5l37.7-84.9C318.3 5.8 287.8 0 256 0 114.6 0 0 114.6 0 256 0 264.2 .4 272.3 1.1 280.3zm500.4 48.3c-.3-.3-.7-.6-1.1-.8l-31.9-23c-5.9-4.3-13.4-5.6-20.5-3.6l-13.5 3.8c-6.7 1.9-13.8-.9-17.5-6.7l-2-3.1c-6-9.4-16.4-15.1-27.6-15.1s-21.6 5.7-27.6 15.1l-6.1 9.5c-1.4 2.2-3.4 4.1-5.7 5.3L312 330.1c-18.1 10.1-25.5 32.4-17 51.3l5.5 12.4c8.6 19.2 30.7 28.5 50.5 21.1l3.7-1.4c9.4-3.5 20-2.4 28.4 3.1l45.1 28.9c34.2-31.1 60-71.4 73.5-116.9zM144.5 348.1c-2.1 8.6 3.1 17.3 11.6 19.4l32 8c8.6 2.1 17.3-3.1 19.4-11.6s-3.1-17.3-11.6-19.4l-32-8c-8.6-2.1-17.3 3.1-19.4 11.6zm92-20c-2.1 8.6 3.1 17.3 11.6 19.4s17.3-3.1 19.4-11.6l8-32c2.1-8.6-3.1-17.3-11.6-19.4s-17.3 3.1-19.4 11.6l-8 32zM343.2 113.7c-7.9-4-17.5-.7-21.5 7.2l-16 32c-4 7.9-.7 17.5 7.2 21.5s17.5 .7 21.5-7.2l16-32c4-7.9 .7-17.5-7.2-21.5z"/></svg>