<svg xmlns="http://www.w3.org/2000/svg" viewBox="0 0 512 512"><path style="fill:var(--fa-secondary-color,currentColor);opacity:var(--fa-secondary-opacity,.4)" d="M0 256C0 397.4 114.6 512 256 512S512 397.4 512 256c0-22.1-2.8-43.5-8.1-64-25.5 0-50.9 0-76.4 0-7.1 0-13.5 4-16.7 10.3-6.2 12.4-20.7 18.4-33.9 14-4.2-1.4-8.3-2.8-12.5-4.2-7.7-2.6-16.1-.6-21.8 5.1-3.7 3.7-3.7 9.7 0 13.4 11.2 11.2 22.3 22.3 33.5 33.5 5 5 7.8 11.8 7.8 18.9 0 12.3-8.4 23-20.3 26l-5.3 1.3c-3.8 .9-6.4 4.3-6.4 8.2l0 12.1c0 13.8-4.5 27.3-12.8 38.4-8.5 11.4-17.1 22.8-25.6 34.1-6 8.1-15.5 12.8-25.6 12.8-17.7 0-32-14.3-32-32l0-48c0-8.8-7.2-16-16-16l-32 0c-26.5 0-48-21.5-48-48l0-28c0-12.6 5.9-24.4 16-32 13.1-9.8 26.3-19.7 39.4-29.5 5.6-4.2 12.4-6.5 19.4-6.5 3.5 0 6.9 .6 10.2 1.7 10.7 3.6 21.3 7.1 32 10.7 7.2 2.4 15 2.7 22.3 .9 11.8-2.9 23.6-5.9 35.4-8.8 10.2-2.5 17.3-11.7 17.3-22.2 0-8.7-4.9-16.6-12.6-20.5-9.7-4.9-19.5-9.7-29.2-14.6-3.7-1.8-8.1-1.1-11 1.8-1.3 1.3-2.6 2.6-3.9 3.9-4.6 4.6-10.9 7.2-17.4 7.2-3.8 0-7.6-.9-11-2.6-5.1-2.5-10.2-5.1-15.2-7.6-6.7-3.4-14.9-1.6-19.6 4.3-4.5 5.7-9.1 11.3-13.6 17-5.5 6.9-15.8 7.4-22 1.2-2.8-2.8-4.3-6.5-4.3-10.4l0-39.5C192 91.6 189.9 85.1 185.9 79.6 172.6 61.3 159.3 43 146 24.8 59.7 65.9 0 154 0 256z"/><path style="fill:var(--fa-primary-color,currentColor);opacity:var(--fa-primary-opacity,1)" d="M146 24.8l39.9 54.8c4 5.5 6.1 12.1 6.1 18.8l0 39.5c0 3.9 1.6 7.7 4.3 10.4 6.2 6.2 16.5 5.7 22-1.2l13.6-17c4.7-5.9 12.9-7.7 19.6-4.3l15.2 7.6c3.4 1.7 7.2 2.6 11 2.6 6.5 0 12.8-2.6 17.4-7.2l3.9-3.9c2.9-2.9 7.3-3.6 11-1.8l29.2 14.6c7.8 3.9 12.6 11.8 12.6 20.5 0 10.5-7.1 19.6-17.3 22.2l-35.4 8.8c-7.4 1.8-15.1 1.5-22.3-.9l-32-10.7c-3.3-1.1-6.7-1.7-10.2-1.7-7 0-13.8 2.3-19.4 6.5L176 212c-10.1 7.6-16 19.4-16 32l0 28c0 26.5 21.5 48 48 48l32 0c8.8 0 16 7.2 16 16l0 48c0 17.7 14.3 32 32 32 10.1 0 19.6-4.7 25.6-12.8l25.6-34.1c8.3-11.1 12.8-24.6 12.8-38.4l0-12.1c0-3.9 2.6-7.3 6.4-8.2l5.3-1.3c11.9-3 20.3-13.7 20.3-26 0-7.1-2.8-13.9-7.8-18.9l-33.5-33.5c-3.7-3.7-3.7-9.7 0-13.4 5.7-5.7 14.1-7.7 21.8-5.1l12.5 4.2c13.2 4.4 27.6-1.6 33.9-14 3.2-6.3 9.6-10.3 16.7-10.3l76.4 0C475.5 81.6 375.3 0 256 0 216.6 0 179.3 8.9 146 24.8z"/></svg>