<svg xmlns="http://www.w3.org/2000/svg" viewBox="0 0 512 512"><path style="fill:var(--fa-secondary-color,currentColor);opacity:var(--fa-secondary-opacity,.4)" d="M0 256c0 141.4 114.6 256 256 256 125.5 0 229.9-90.3 251.8-209.4l-76.6-25.5c-9.6-3.2-17.1-10.7-20.2-20.2-5.9-17.6-11.8-35.3-17.6-52.9-5.3-15.8 2.5-33 17.8-39.5 23.4-10 46.8-20.1 70.2-30.1-43.3-80-127.9-134.3-225.3-134.3-4.9 0-9.7 .1-14.6 .4 9.4 17.4 18.8 34.8 28.1 52.3 6.3 11.6 4.7 26-3.9 36-5.4 6.3-10.7 12.5-16.1 18.8-10.2 11.9-10.3 29.3-.3 41.3 4.5 5.4 9 10.8 13.6 16.3 5.4 6.5 5.9 15.8 1.2 22.8-4.8 7.2-13.8 10.2-21.9 7.5L219 187.7c-7-2.3-14.7-1.8-21.3 1.5-2 1-4 2-5.9 3-9 4.5-13.3 15-10.2 24.5 1.6 4.7 4.8 8.7 9.2 11.2 11.5 6.6 23 13.2 34.5 19.7 9.7 5.5 20.6 8.4 31.8 8.4 14.4 0 28.7 0 43.1 0 12.7 0 24.9 5.1 33.9 14.1l3.9 3.9c9 9 14.1 21.2 14.1 33.9l0 8.3c0 17.2-9.2 33.1-24.2 41.7l-8.1 4.6c-15.1 8.7-26.1 23.1-30.3 40l-2.8 11.2c-4.1 16.3-16.5 29.1-32.7 33.8-15 4.3-29.9-7-29.9-22.6 0-13 0-26 0-39 0-.9 0-1.5-.1-2 0-.7-.1-1.3-.2-2-.2-1.3-.5-2.7-.8-3.9-.7-2.6-1.8-5-3.2-7.2-2.8-4.5-6.8-8.2-11.7-10.7-9.7-4.9-15.9-14.8-16-25.9 0-13.3 0-26.6 0-39.9 0-.1 0-.2 0-.3 0-.3 0-.8 0-1.3 0-.6-.1-1.1-.1-1.6-.1-1.1-.2-2.2-.4-3.3-.4-2.2-.9-4.2-1.6-6.3-1.4-4.1-3.4-7.8-5.9-11.2-5.1-6.8-12.4-11.9-20.9-14.4l-60.4-17.2C88 234.3 75.4 225.1 67 212.4 52.6 190.9 38.3 169.4 23.9 147.8 8.6 180.7 0 217.4 0 256z"/><path style="fill:var(--fa-primary-color,currentColor);opacity:var(--fa-primary-opacity,1)" d="M241.4 .4C144.9 5.8 62.7 64.7 23.9 147.8l43.1 64.6c8.4 12.6 21.1 21.9 35.7 26L163 255.7c17.2 4.9 29 20.6 29 38.5l0 39.9c0 11 6.2 21 16 25.9s16 14.9 16 25.9l0 39c0 15.6 14.9 26.9 29.9 22.6 16.1-4.6 28.6-17.5 32.7-33.8l2.8-11.2c4.2-16.9 15.2-31.4 30.3-40l8.1-4.6c15-8.5 24.2-24.5 24.2-41.7l0-8.3c0-12.7-5.1-24.9-14.1-33.9l-3.9-3.9c-9-9-21.2-14.1-33.9-14.1L257 256c-11.1 0-22.1-2.9-31.8-8.4l-34.5-19.7c-4.3-2.5-7.6-6.5-9.2-11.2-3.2-9.6 1.1-20 10.2-24.5l5.9-3c6.6-3.3 14.3-3.9 21.3-1.5l23.2 7.7c8.2 2.7 17.2-.4 21.9-7.5 4.7-7 4.2-16.3-1.2-22.8l-13.6-16.3c-10-12-9.9-29.5 .3-41.3l16.1-18.8c8.6-10 10.2-24.3 3.9-36L241.4 .4zM481.3 134.3l-70.2 30.1c-15.3 6.6-23 23.7-17.8 39.5l17.6 52.9c3.2 9.6 10.7 17.1 20.2 20.2l76.6 25.5c2.8-15.1 4.2-30.7 4.2-46.6 0-44-11.1-85.5-30.7-121.7z"/></svg>