<svg xmlns="http://www.w3.org/2000/svg" viewBox="0 0 640 512"><path style="fill:var(--fa-secondary-color,currentColor);opacity:var(--fa-secondary-opacity,.4)" d="M64.1 64l0 384c0 35.3 28.7 64 64 64l146.2 0 10.9-54.5c.6-3.2 1.4-6.3 2.3-9.5l-31.5 0c-10.6 0-19.9-7-23-17.1l-15.2-50.7-47.1 58.8c-8.3 10.4-23.4 12-33.7 3.8s-12-23.4-3.7-33.7l60.1-75.1c7-8.8 17.7-13.9 28.9-13.9 16.4 0 30.8 10.7 35.5 26.4l16.1 53.6 42.1 0 132-132 0-97.5c0-17-6.7-33.3-18.7-45.3L322.8 18.7C310.8 6.7 294.5 0 277.6 0L128.1 0c-35.3 0-64 28.7-64 64zm208-5.5l117.5 117.5-93.5 0c-13.3 0-24-10.7-24-24l0-93.5z"/><path style="fill:var(--fa-primary-color,currentColor);opacity:var(--fa-primary-opacity,1)" d="M320.4 526.5l11.9-59.6c2.5-12.4 8.6-23.8 17.5-32.7l118.9-118.9 80 80-118.9 118.9c-8.9 8.9-20.3 15-32.7 17.5l-59.6 11.9c-.9 .2-1.9 .3-2.9 .3-8 0-14.6-6.5-14.6-14.6 0-1 .1-1.9 .3-2.9zm251-153.8l-80-80 28.8-28.8c22.1-22.1 57.9-22.1 80 0s22.1 57.9 0 80l-28.8 28.8z"/></svg>