<svg xmlns="http://www.w3.org/2000/svg" viewBox="0 0 576 512"><path style="fill:var(--fa-secondary-color,currentColor);opacity:var(--fa-secondary-opacity,.4)" d="M32 64C32 28.7 60.7 0 96 0L245.5 0c17 0 33.3 6.7 45.3 18.7L397.3 125.3c12 12 18.7 28.3 18.7 45.3l0 165.5-176 0c-35.3 0-64 28.7-64 64l0 112-80 0c-35.3 0-64-28.7-64-64L32 64zm208-5.5l0 93.5c0 13.3 10.7 24 24 24L357.5 176 240 58.5z"/><path style="fill:var(--fa-primary-color,currentColor);opacity:var(--fa-primary-opacity,1)" d="M220 432c0-28.7 23.3-52 52-52l24 0c11 0 20 9 20 20s-9 20-20 20l-24 0c-6.6 0-12 5.4-12 12s5.4 12 12 12c28.7 0 52 23.3 52 52s-23.3 52-52 52l-32 0c-11 0-20-9-20-20s9-20 20-20l32 0c6.6 0 12-5.4 12-12s-5.4-12-12-12c-28.7 0-52-23.3-52-52zm148-52c11 0 20 9 20 20l0 31.6c0 19.6 4.1 38.9 12 56.7 7.9-17.8 12-37.1 12-56.7l0-31.6c0-11 9-20 20-20s20 9 20 20l0 31.6c0 35.5-10.5 70.3-30.2 99.8l-5.1 7.7c-3.7 5.6-10 8.9-16.6 8.9s-12.9-3.3-16.6-8.9l-5.1-7.7c-19.7-29.6-30.2-64.3-30.2-99.8l0-31.6c0-11 9-20 20-20zm152 0l24 0c19.9 0 36 16.1 36 36 0 11-9 20-20 20-9.7 0-17.7-6.9-19.6-16L520 420c-2.2 0-4 1.8-4 4l0 80c0 2.2 1.8 4 4 4l16 0c2.2 0 4-1.8 4-4l0-8c-4.9-3.6-8-9.5-8-16 0-11 9-20 20-20l8 0c11 0 20 9 20 20l0 24c0 24.3-19.7 44-44 44l-16 0c-24.3 0-44-19.7-44-44l0-80c0-24.3 19.7-44 44-44z"/></svg>