<svg xmlns="http://www.w3.org/2000/svg" viewBox="0 0 576 512"><path style="fill:var(--fa-secondary-color,currentColor);opacity:var(--fa-secondary-opacity,.4)" d="M32 64C32 28.7 60.7 0 96 0L245.5 0c17 0 33.3 6.7 45.3 18.7L397.3 125.3c12 12 18.7 28.3 18.7 45.3l0 165.5-176 0c-35.3 0-64 28.7-64 64l0 112-80 0c-35.3 0-64-28.7-64-64L32 64zm208-5.5l0 93.5c0 13.3 10.7 24 24 24L357.5 176 240 58.5z"/><path style="fill:var(--fa-primary-color,currentColor);opacity:var(--fa-primary-opacity,1)" d="M220 400c0-11 9-20 20-20l32 0c28.7 0 52 23.3 52 52l0 64c0 28.7-23.3 52-52 52l-32 0c-11 0-20-9-20-20l0-128zm40 20l0 88 12 0c6.6 0 12-5.4 12-12l0-64c0-6.6-5.4-12-12-12l-12 0zm88 4c0-24.3 19.7-44 44-44l16 0c24.3 0 44 19.7 44 44l0 80c0 24.3-19.7 44-44 44l-16 0c-24.3 0-44-19.7-44-44l0-80zm44-4c-2.2 0-4 1.8-4 4l0 80c0 2.2 1.8 4 4 4l16 0c2.2 0 4-1.8 4-4l0-80c0-2.2-1.8-4-4-4l-16 0zm128-40l16 0c24.3 0 44 19.7 44 44l0 8c0 11-9 20-20 20s-20-9-20-20l0-8c0-2.2-1.8-4-4-4l-16 0c-2.2 0-4 1.8-4 4l0 80c0 2.2 1.8 4 4 4l16 0c2.2 0 4-1.8 4-4l0-8c0-11 9-20 20-20s20 9 20 20l0 8c0 24.3-19.7 44-44 44l-16 0c-24.3 0-44-19.7-44-44l0-80c0-24.3 19.7-44 44-44z"/></svg>