<svg xmlns="http://www.w3.org/2000/svg" viewBox="0 0 576 512"><path style="fill:var(--fa-secondary-color,currentColor);opacity:var(--fa-secondary-opacity,.4)" d="M32 64C32 28.7 60.7 0 96 0L245.5 0c17 0 33.3 6.7 45.3 18.7L397.3 125.3c12 12 18.7 28.3 18.7 45.3l0 165.5-208 0c-35.3 0-64 28.7-64 64l0 112-48 0c-35.3 0-64-28.7-64-64L32 64zm208-5.5l0 93.5c0 13.3 10.7 24 24 24L357.5 176 240 58.5z"/><path style="fill:var(--fa-primary-color,currentColor);opacity:var(--fa-primary-opacity,1)" d="M202.7 380.7c8.7-2.4 17.9 1.3 22.5 9l30.9 51.4 30.9-51.4c4.6-7.7 13.8-11.4 22.5-9S324 391 324 400l0 128c0 11-9 20-20 20s-20-9-20-20l0-55.8-10.9 18.1c-3.6 6-10.1 9.7-17.1 9.7s-13.5-3.7-17.1-9.7L228 472.2 228 528c0 11-9 20-20 20s-20-9-20-20l0-128c0-9 6-16.9 14.7-19.3zM348 400c0-11 9-20 20-20l32 0c33.1 0 60 26.9 60 60s-26.9 60-60 60l-12 0 0 28c0 11-9 20-20 20s-20-9-20-20l0-128zm40 60l12 0c11 0 20-9 20-20s-9-20-20-20l-12 0 0 40zm140 88l-32 0c-11 0-20-9-20-20s9-20 20-20l32 0c6.6 0 12-5.4 12-12s-5.4-12-12-12l-24 0c-11 0-20-9-20-20s9-20 20-20l24 0c6.6 0 12-5.4 12-12s-5.4-12-12-12l-32 0c-11 0-20-9-20-20s9-20 20-20l32 0c28.7 0 52 23.3 52 52 0 12.1-4.1 23.2-11 32 6.9 8.8 11 19.9 11 32 0 28.7-23.3 52-52 52z"/></svg>