<svg xmlns="http://www.w3.org/2000/svg" viewBox="0 0 384 512"><path style="fill:var(--fa-secondary-color,currentColor);opacity:var(--fa-secondary-opacity,.4)" d="M0 64L0 448c0 35.3 28.7 64 64 64l256 0c35.3 0 64-28.7 64-64l0-277.5c0-17-6.7-33.3-18.7-45.3L258.7 18.7C246.7 6.7 230.5 0 213.5 0L64 0C28.7 0 0 28.7 0 64zM80 314.7c0-32.4 26.3-58.7 58.7-58.7 18.5 0 35.9 8.7 46.9 23.5l6.4 8.5 6.4-8.5c11.1-14.8 28.5-23.5 46.9-23.5 32.4 0 58.7 26.3 58.7 58.7l0 5.3c0 49.1-65.8 98.1-96.5 118.3-9.5 6.2-21.5 6.2-30.9 0-30.7-20.2-96.5-69.3-96.5-118.3l0-5.3zM208 58.5L325.5 176 232 176c-13.3 0-24-10.7-24-24l0-93.5z"/><path style="fill:var(--fa-primary-color,currentColor);opacity:var(--fa-primary-opacity,1)" d="M138.7 256c18.5 0 35.9 8.7 46.9 23.5l6.4 8.5 6.4-8.5c11.1-14.8 28.5-23.5 46.9-23.5 32.4 0 58.7 26.3 58.7 58.7l0 5.3c0 49.1-65.8 98.1-96.5 118.3-9.5 6.2-21.5 6.2-30.9 0-30.7-20.2-96.5-69.3-96.5-118.3l0-5.3c0-32.4 26.3-58.7 58.7-58.7z"/></svg>