<svg xmlns="http://www.w3.org/2000/svg" viewBox="0 0 384 512"><path style="fill:var(--fa-secondary-color,currentColor);opacity:var(--fa-secondary-opacity,.4)" d="M0 64L0 448c0 35.3 28.7 64 64 64l256 0c35.3 0 64-28.7 64-64l0-277.5c0-17-6.7-33.3-18.7-45.3L258.7 18.7C246.7 6.7 230.5 0 213.5 0L64 0C28.7 0 0 28.7 0 64zM68 264c0-19.9 16.1-36 36-36l176 0c19.9 0 36 16.1 36 36l0 144c0 19.9-16.1 36-36 36l-176 0c-19.9 0-36-16.1-36-36l0-144zm40 4l0 48 64 0 0-48-64 0zm0 88l0 48 64 0 0-48-64 0zM208 58.5L325.5 176 232 176c-13.3 0-24-10.7-24-24l0-93.5zM212 268l0 48 64 0 0-48-64 0zm0 88l0 48 64 0 0-48-64 0z"/><path style="fill:var(--fa-primary-color,currentColor);opacity:var(--fa-primary-opacity,1)" d="M68 264c0-19.9 16.1-36 36-36l176 0c19.9 0 36 16.1 36 36l0 144c0 19.9-16.1 36-36 36l-176 0c-19.9 0-36-16.1-36-36l0-144zm40 4l0 48 64 0 0-48-64 0zm104 0l0 48 64 0 0-48-64 0zm-40 88l-64 0 0 48 64 0 0-48zm40 48l64 0 0-48-64 0 0 48z"/></svg>