<svg xmlns="http://www.w3.org/2000/svg" viewBox="0 0 576 512"><path style="fill:var(--fa-secondary-color,currentColor);opacity:var(--fa-secondary-opacity,.4)" d="M96 165.8L96 448c0 35.3 28.7 64 64 64l256 0c7.8 0 15.3-1.4 22.2-4L96 165.8z"/><path style="fill:var(--fa-primary-color,currentColor);opacity:var(--fa-primary-opacity,1)" d="M7-24.9c9.4-9.4 24.6-9.4 33.9 0l61.3 61.3C112.6 14.9 134.5 0 160 0L309.5 0c17 0 33.3 6.7 45.3 18.7L461.3 125.3c12 12 18.7 28.3 18.7 45.3l0 243.6 89 89c9.4 9.4 9.4 24.6 0 33.9s-24.6 9.4-33.9 0L7 9.1C-2.3-.3-2.3-15.5 7-24.9zM304 58.5l0 93.5c0 13.3 10.7 24 24 24L421.5 176 304 58.5z"/></svg>