<svg xmlns="http://www.w3.org/2000/svg" viewBox="0 0 576 512"><path style="fill:var(--fa-secondary-color,currentColor);opacity:var(--fa-secondary-opacity,.4)" d="M96 64c0-35.3 28.7-64 64-64L309.5 0c17 0 33.3 6.7 45.3 18.7L461.3 125.3c12 12 18.7 28.3 18.7 45.3l0 69.5-384 0 0-176zm0 320l384 0 0 64c0 35.3-28.7 64-64 64l-256 0c-35.3 0-64-28.7-64-64l0-64zM304 58.5l0 93.5c0 13.3 10.7 24 24 24L421.5 176 304 58.5z"/><path style="fill:var(--fa-primary-color,currentColor);opacity:var(--fa-primary-opacity,1)" d="M0 312c0-13.3 10.7-24 24-24l112 0c13.3 0 24 10.7 24 24s-10.7 24-24 24L24 336c-13.3 0-24-10.7-24-24zm224 0c0-13.3 10.7-24 24-24l80 0c13.3 0 24 10.7 24 24s-10.7 24-24 24l-80 0c-13.3 0-24-10.7-24-24zm192 0c0-13.3 10.7-24 24-24l112 0c13.3 0 24 10.7 24 24s-10.7 24-24 24l-112 0c-13.3 0-24-10.7-24-24z"/></svg>