<svg xmlns="http://www.w3.org/2000/svg" viewBox="0 0 384 512"><path style="fill:var(--fa-secondary-color,currentColor);opacity:var(--fa-secondary-opacity,.4)" d="M0 64L0 448c0 35.3 28.7 64 64 64l256 0c35.3 0 64-28.7 64-64l0-277.5c0-17-6.7-33.3-18.7-45.3L258.7 18.7C246.7 6.7 230.5 0 213.5 0L64 0C28.7 0 0 28.7 0 64zM96 408c0-30.9 28.7-56 64-56 5.5 0 10.9 .6 16 1.8l0-89.8c0-13.3 10.7-24 24-24l48 0c13.3 0 24 10.7 24 24l0 16c0 13.3-10.7 24-24 24l-24 0 0 104c0 30.9-28.7 56-64 56s-64-25.1-64-56zM208 58.5L325.5 176 232 176c-13.3 0-24-10.7-24-24l0-93.5z"/><path style="fill:var(--fa-primary-color,currentColor);opacity:var(--fa-primary-opacity,1)" d="M200 240l48 0c13.3 0 24 10.7 24 24l0 16c0 13.3-10.7 24-24 24l-24 0 0 104c0 30.9-28.7 56-64 56s-64-25.1-64-56 28.7-56 64-56c5.5 0 10.9 .6 16 1.8l0-89.8c0-13.3 10.7-24 24-24z"/></svg>