<svg xmlns="http://www.w3.org/2000/svg" viewBox="0 0 576 512"><path style="fill:var(--fa-secondary-color,currentColor);opacity:var(--fa-secondary-opacity,.4)" d="M32.5 64l0 384c0 35.3 28.7 64 64 64l256 0c35.3 0 64-28.7 64-64l0-96-168 0c-13.3 0-24-10.7-24-24s10.7-24 24-24l168 0 0-133.5c0-17-6.7-33.3-18.7-45.3L291.2 18.7C279.2 6.7 263 0 246 0L96.5 0c-35.3 0-64 28.7-64 64zm208-5.5L358 176 264.5 176c-13.3 0-24-10.7-24-24l0-93.5z"/><path style="fill:var(--fa-primary-color,currentColor);opacity:var(--fa-primary-opacity,1)" d="M497.5 417l72-72c9.4-9.4 9.4-24.6 0-33.9l-72-72c-9.4-9.4-24.6-9.4-33.9 0s-9.4 24.6 0 33.9l31 31-246.1 0c-13.3 0-24 10.7-24 24s10.7 24 24 24l246.1 0-31 31c-9.4 9.4-9.4 24.6 0 33.9s24.6 9.4 33.9 0z"/></svg>