<svg xmlns="http://www.w3.org/2000/svg" viewBox="0 0 576 512"><path style="fill:var(--fa-secondary-color,currentColor);opacity:var(--fa-secondary-opacity,.4)" d="M32 64C32 28.7 60.7 0 96 0L245.5 0c17 0 33.3 6.7 45.3 18.7L397.3 125.3c12 12 18.7 28.3 18.7 45.3l0 38.1c-98.6 8.1-176 90.7-176 191.3 0 41.8 13.4 80.5 36 112L96 512c-35.3 0-64-28.7-64-64L32 64zm208-5.5l0 93.5c0 13.3 10.7 24 24 24L357.5 176 240 58.5z"/><path style="fill:var(--fa-primary-color,currentColor);opacity:var(--fa-primary-opacity,1)" d="M432 544a144 144 0 1 0 0-288 144 144 0 1 0 0 288zm60.9-182.6l-64 88c-2.8 3.8-7 6.2-11.7 6.5s-9.3-1.3-12.6-4.6l-40-40c-6.2-6.2-6.2-16.4 0-22.6s16.4-6.2 22.6 0l26.8 26.8 53-72.9c5.2-7.1 15.2-8.7 22.4-3.5s8.7 15.2 3.5 22.3z"/></svg>