<svg xmlns="http://www.w3.org/2000/svg" viewBox="0 0 384 512"><path style="fill:var(--fa-secondary-color,currentColor);opacity:var(--fa-secondary-opacity,.4)" d="M0 64L0 448c0 35.3 28.7 64 64 64l256 0c35.3 0 64-28.7 64-64l0-277.5c0-17-6.7-33.3-18.7-45.3L258.7 18.7C246.7 6.7 230.5 0 213.5 0L64 0C28.7 0 0 28.7 0 64zM80 304c0-17.7 14.3-32 32-32l96 0c17.7 0 32 14.3 32 32l0 24 35-35c3.2-3.2 7.5-5 12-5 9.4 0 17 7.6 17 17l0 94.1c0 9.4-7.6 17-17 17-4.5 0-8.8-1.8-12-5l-35-35 0 24c0 17.7-14.3 32-32 32l-96 0c-17.7 0-32-14.3-32-32l0-96zM208 58.5L325.5 176 232 176c-13.3 0-24-10.7-24-24l0-93.5z"/><path style="fill:var(--fa-primary-color,currentColor);opacity:var(--fa-primary-opacity,1)" d="M112 272c-17.7 0-32 14.3-32 32l0 96c0 17.7 14.3 32 32 32l96 0c17.7 0 32-14.3 32-32l0-24 35 35c3.2 3.2 7.5 5 12 5 9.4 0 17-7.6 17-17l0-94.1c0-9.4-7.6-17-17-17-4.5 0-8.8 1.8-12 5l-35 35 0-24c0-17.7-14.3-32-32-32l-96 0z"/></svg>