<svg xmlns="http://www.w3.org/2000/svg" viewBox="0 0 384 512"><path style="fill:var(--fa-secondary-color,currentColor);opacity:var(--fa-secondary-opacity,.4)" d="M0 64C0 28.7 28.7 0 64 0L213.5 0c17 0 33.3 6.7 45.3 18.7L365.3 125.3c12 12 18.7 28.3 18.7 45.3L384 448c0 35.3-28.7 64-64 64L64 512c-35.3 0-64-28.7-64-64L0 64zm64 8c0 13.3 10.7 24 24 24l48 0c13.3 0 24-10.7 24-24s-10.7-24-24-24L88 48C74.7 48 64 58.7 64 72zm0 96c0 13.3 10.7 24 24 24l48 0c13.3 0 24-10.7 24-24s-10.7-24-24-24l-48 0c-13.3 0-24 10.7-24 24zm0 104l0 48c0 26.5 21.5 48 48 48s48-21.5 48-48l0-48c0-17.7-14.3-32-32-32l-32 0c-17.7 0-32 14.3-32 32zM208 58.5l0 93.5c0 13.3 10.7 24 24 24L325.5 176 208 58.5z"/><path style="fill:var(--fa-primary-color,currentColor);opacity:var(--fa-primary-opacity,1)" d="M88 48l48 0c13.3 0 24 10.7 24 24s-10.7 24-24 24L88 96C74.7 96 64 85.3 64 72S74.7 48 88 48zm0 96l48 0c13.3 0 24 10.7 24 24s-10.7 24-24 24l-48 0c-13.3 0-24-10.7-24-24s10.7-24 24-24zm8 96l32 0c17.7 0 32 14.3 32 32l0 48c0 26.5-21.5 48-48 48s-48-21.5-48-48l0-48c0-17.7 14.3-32 32-32zm32 80a16 16 0 1 0 -32 0 16 16 0 1 0 32 0z"/></svg>