<svg xmlns="http://www.w3.org/2000/svg" viewBox="0 0 384 512"><path style="fill:var(--fa-secondary-color,currentColor);opacity:var(--fa-secondary-opacity,.4)" d="M0 64C0 28.7 28.7 0 64 0l160 0 0 128c0 17.7 14.3 32 32 32l128 0 0 160-384 0 0-256z"/><path style="fill:var(--fa-primary-color,currentColor);opacity:var(--fa-primary-opacity,1)" d="M265 17C254.1 6.1 239.4 0 224 0l0 128c0 17.7 14.3 32 32 32l128 0c0-15.4-6.1-30.1-17-41L265 17zM0 352l0 64 64 0 0-64-64 0zM64 512l0-64-64 0c0 35.3 28.7 64 64 64zm32 0l80 0 0-64-80 0 0 64zm112 0l80 0 0-64-80 0 0 64zm112 0c35.3 0 64-28.7 64-64l-64 0 0 64zm64-160l-64 0 0 64 64 0 0-64z"/></svg>