<svg xmlns="http://www.w3.org/2000/svg" viewBox="0 0 448 512"><path style="fill:var(--fa-secondary-color,currentColor);opacity:var(--fa-secondary-opacity,.4)" d="M96 64l0 320c0 35.3 28.7 64 64 64l224 0c35.3 0 64-28.7 64-64l0-224-128 0c-17.7 0-32-14.3-32-32L288 0 160 0C124.7 0 96 28.7 96 64z"/><path style="fill:var(--fa-primary-color,currentColor);opacity:var(--fa-primary-opacity,1)" d="M329 17C318.1 6.1 303.4 0 288 0l0 128c0 17.7 14.3 32 32 32l128 0c0-15.4-6.1-30.1-17-41L329 17zM48 120c0-13.3-10.7-24-24-24S0 106.7 0 120L0 480c0 35.3 28.7 64 64 64l264 0c13.3 0 24-10.7 24-24s-10.7-24-24-24L64 496c-8.8 0-16-7.2-16-16l0-360z"/></svg>