<svg xmlns="http://www.w3.org/2000/svg" viewBox="0 0 384 512"><path style="fill:var(--fa-secondary-color,currentColor);opacity:var(--fa-secondary-opacity,.4)" d="M0 64L0 448c0 35.3 28.7 64 64 64l256 0c35.3 0 64-28.7 64-64l0-277.5c0-17-6.7-33.3-18.7-45.3L258.7 18.7C246.7 6.7 230.5 0 213.5 0L64 0C28.7 0 0 28.7 0 64zM98.3 413c14.7-17.7 36.9-29 61.7-29l64 0c24.8 0 47 11.3 61.7 29 12.9 15.6-2.2 35-22.4 35l-142.5 0c-20.2 0-35.3-19.4-22.4-35zM248 288a56 56 0 1 1 -112 0 56 56 0 1 1 112 0zM208 58.5L325.5 176 232 176c-13.3 0-24-10.7-24-24l0-93.5z"/><path style="fill:var(--fa-primary-color,currentColor);opacity:var(--fa-primary-opacity,1)" d="M136 288a56 56 0 1 1 112 0 56 56 0 1 1 -112 0zM120.8 448c-20.2 0-35.3-19.4-22.4-35 14.7-17.7 36.9-29 61.7-29l64 0c24.8 0 47 11.3 61.7 29 12.9 15.6-2.2 35-22.4 35l-142.5 0z"/></svg>