<svg xmlns="http://www.w3.org/2000/svg" viewBox="0 0 576 512"><path style="fill:var(--fa-secondary-color,currentColor);opacity:var(--fa-secondary-opacity,.4)" d="M32 64C32 28.7 60.7 0 96 0L245.5 0c17 0 33.3 6.7 45.3 18.7L397.3 125.3c12 12 18.7 28.3 18.7 45.3l0 38.1c-98.6 8.1-176 90.7-176 191.3 0 41.8 13.4 80.5 36 112L96 512c-35.3 0-64-28.7-64-64L32 64zm208-5.5l0 93.5c0 13.3 10.7 24 24 24L357.5 176 240 58.5z"/><path style="fill:var(--fa-primary-color,currentColor);opacity:var(--fa-primary-opacity,1)" d="M480.8 482.7L349.3 351.2c-8.4 14.3-13.3 31-13.3 48.8 0 53 43 96 96 96 17.8 0 34.5-4.8 48.8-13.3zm33.9-33.9c8.4-14.3 13.3-31 13.3-48.8 0-53-43-96-96-96-17.8 0-34.5 4.8-48.8 13.3L514.7 448.8zM288 400a144 144 0 1 1 288 0 144 144 0 1 1 -288 0z"/></svg>