<svg xmlns="http://www.w3.org/2000/svg" viewBox="0 0 576 512"><path style="fill:var(--fa-secondary-color,currentColor);opacity:var(--fa-secondary-opacity,.4)" d="M32 64C32 28.7 60.7 0 96 0L245.5 0c17 0 33.3 6.7 45.3 18.7L397.3 125.3c12 12 18.7 28.3 18.7 45.3l0 38.1c-98.6 8.1-176 90.7-176 191.3 0 41.8 13.4 80.5 36 112L96 512c-35.3 0-64-28.7-64-64L32 64zm208-5.5l0 93.5c0 13.3 10.7 24 24 24L357.5 176 240 58.5z"/><path style="fill:var(--fa-primary-color,currentColor);opacity:var(--fa-primary-opacity,1)" d="M288 400a144 144 0 1 1 288 0 144 144 0 1 1 -288 0zm164 64a20 20 0 1 0 -40 0 20 20 0 1 0 40 0zM408.5 363.2c2.2-11 11.9-19.2 23.5-19.2 13.3 0 24 10.7 24 24 0 7.2-4.2 13.7-10.8 16.6l-12.4 5.5c-10.2 4.5-16.8 14.7-16.8 25.9 0 8.8 7.2 16 16 16 8 0 14.6-5.9 15.8-13.5l10.4-4.6c18.1-8.1 29.8-26 29.8-45.9 0-30.9-25.1-56-56-56-27.1 0-49.7 19.2-54.9 44.8-1.8 8.7 3.8 17.1 12.5 18.9s17.1-3.8 18.9-12.5z"/></svg>