<svg xmlns="http://www.w3.org/2000/svg" viewBox="0 0 384 512"><path style="fill:var(--fa-secondary-color,currentColor);opacity:var(--fa-secondary-opacity,.4)" d="M0 64L0 448c0 35.3 28.7 64 64 64l256 0c35.3 0 64-28.7 64-64l0-277.5c0-17-6.7-33.3-18.7-45.3L258.7 18.7C246.7 6.7 230.5 0 213.5 0L64 0C28.7 0 0 28.7 0 64zM108.8 358.4c-8-10.6-5.8-25.6 4.8-33.6s25.6-5.8 33.6 4.8l27 36 61.4-98.3c7-11.2 21.8-14.7 33.1-7.6s14.7 21.8 7.6 33.1l-80 128c-4.2 6.7-11.4 10.9-19.3 11.3s-15.5-3.2-20.2-9.6l-48-64zM208 58.5L325.5 176 232 176c-13.3 0-24-10.7-24-24l0-93.5z"/><path style="fill:var(--fa-primary-color,currentColor);opacity:var(--fa-primary-opacity,1)" d="M268.7 259.6c11.2 7 14.7 21.8 7.6 33.1l-80 128c-4.2 6.7-11.4 10.9-19.3 11.3s-15.5-3.2-20.2-9.6l-48-64c-8-10.6-5.8-25.6 4.8-33.6s25.6-5.8 33.6 4.8l27 36 61.4-98.3c7-11.2 21.8-14.7 33.1-7.6z"/></svg>