<svg xmlns="http://www.w3.org/2000/svg" viewBox="0 0 384 512"><path style="fill:var(--fa-secondary-color,currentColor);opacity:var(--fa-secondary-opacity,.4)" d="M0 64L0 448c0 35.3 28.7 64 64 64l256 0c35.3 0 64-28.7 64-64l0-277.5c0-17-6.7-33.3-18.7-45.3L258.7 18.7C246.7 6.7 230.5 0 213.5 0L64 0C28.7 0 0 28.7 0 64zM64 312c0-8.8 7.2-16 16-16l24 0 27.2-34c3-3.8 7.6-6 12.8-6 8.8 0 16 7.2 16 16l0 128c0 8.8-7.2 16-16.3 16-4.9 0-9.5-2.2-12.5-6l-27.2-34-24 0c-8.8 0-16-7.2-16-16l0-48zM208 58.5L325.5 176 232 176c-13.3 0-24-10.7-24-24l0-93.5zm0 245.3c0-10.7 10.5-18.2 18.9-11.6 12.9 10.3 21.1 26.1 21.1 43.8s-8.2 33.5-21.1 43.8c-8.4 6.7-18.9-.9-18.9-11.6l0-64.5zm26-71.1c6.3-9.1 18.8-11.3 27.8-5 34.1 23.8 56.6 63.5 56.6 108.3S296 420.5 261.8 444.3c-9.1 6.3-21.5 4.1-27.8-5s-4.1-21.5 5-27.8c23.9-16.7 39.4-44.3 39.4-75.5s-15.6-58.9-39.4-75.5c-9.1-6.3-11.3-18.8-5-27.8z"/><path style="fill:var(--fa-primary-color,currentColor);opacity:var(--fa-primary-opacity,1)" d="M234 232.6c6.3-9.1 18.8-11.3 27.8-5 34.1 23.8 56.6 63.5 56.6 108.3S296 420.5 261.8 444.3c-9.1 6.3-21.5 4.1-27.8-5s-4.1-21.5 5-27.8c23.9-16.7 39.4-44.3 39.4-75.5s-15.6-58.9-39.4-75.5c-9.1-6.3-11.3-18.8-5-27.8zM104 296l27.2-34c3-3.8 7.6-6 12.5-6l.3 0c8.8 0 16 7.2 16 16l0 128c0 8.8-7.2 16-16 16l-.3 0c-4.9 0-9.5-2.2-12.5-6l-27.2-34-24 0c-8.8 0-16-7.2-16-16l0-48c0-8.8 7.2-16 16-16l24 0zm122.9 83.8c-8.4 6.7-18.9-.9-18.9-11.6l0-64.5c0-10.7 10.5-18.2 18.9-11.6 12.9 10.3 21.1 26.1 21.1 43.8s-8.2 33.5-21.1 43.8z"/></svg>