<svg xmlns="http://www.w3.org/2000/svg" viewBox="0 0 512 512"><path style="fill:var(--fa-secondary-color,currentColor);opacity:var(--fa-secondary-opacity,.4)" d="M64 64l0 240 72 0c7.4 0 14.4 3.4 18.9 9.3l32 41.1 47.3-100.6c3.9-8.3 12.2-13.7 21.4-13.8s17.6 5 21.8 13.3l25.4 50.7 57.2 0c13.3 0 24 10.7 24 24s-10.7 24-24 24l-72 0c-9.1 0-17.4-5.1-21.5-13.3l-9.9-19.8-42.9 91.2c-3.6 7.6-10.8 12.7-19.1 13.6s-16.5-2.5-21.6-9.1l-48.8-62.7-60.3 0 0 96c0 35.3 28.7 64 64 64l256 0c35.3 0 64-28.7 64-64l0-277.5c0-17-6.7-33.3-18.7-45.3L322.7 18.7C310.7 6.7 294.5 0 277.5 0L128 0C92.7 0 64 28.7 64 64zm208-5.5L389.5 176 296 176c-13.3 0-24-10.7-24-24l0-93.5z"/><path style="fill:var(--fa-primary-color,currentColor);opacity:var(--fa-primary-opacity,1)" d="M277.5 253.3c-4.1-8.2-12.6-13.4-21.8-13.3s-17.5 5.5-21.4 13.8l-47.3 100.6-32-41.1c-4.5-5.8-11.5-9.3-18.9-9.3L24 304c-13.3 0-24 10.7-24 24s10.7 24 24 24l100.3 0 48.8 62.7c5.1 6.6 13.3 10 21.6 9.1s15.5-6.1 19.1-13.6l42.9-91.2 9.9 19.8c4.1 8.1 12.4 13.3 21.5 13.3l72 0c13.3 0 24-10.7 24-24s-10.7-24-24-24l-57.2 0-25.4-50.7z"/></svg>