<svg xmlns="http://www.w3.org/2000/svg" viewBox="0 0 576 512"><path style="fill:var(--fa-secondary-color,currentColor);opacity:var(--fa-secondary-opacity,.4)" d="M32 64l0 384c0 35.3 28.7 64 64 64l80 0 0-112c0-35.3 28.7-64 64-64l176 0 0-165.5c0-17-6.7-33.2-18.7-45.2L290.7 18.8C278.8 6.8 262.5 0 245.5 0L96 0C60.7 0 32 28.7 32 64zm208-5.5L357.5 176 264 176c-13.3 0-24-10.7-24-24l0-93.5z"/><path style="fill:var(--fa-primary-color,currentColor);opacity:var(--fa-primary-opacity,1)" d="M304 380c11 0 20 9 20 20s-9 20-20 20l-12 0 0 108c0 11-9 20-20 20s-20-9-20-20l0-108-12 0c-11 0-20-9-20-20s9-20 20-20l64 0zm128 0c11 0 20 9 20 20s-9 20-20 20l-44 0 0 24 28 0c11 0 20 9 20 20s-9 20-20 20l-28 0 0 24 44 0c11 0 20 9 20 20s-9 20-20 20l-64 0c-11 0-20-9-20-20l0-128 .4-4c1.9-9.1 9.9-16 19.6-16l64 0zm128 0c11 0 20 9 20 20 0 14.4-4.2 28.4-12.2 40.4L552 464 567.8 487.6c8 12 12.2 26 12.2 40.4 0 11-9 20-20 20s-20-9-20-20c0-6.5-1.9-12.8-5.5-18.2l-6.5-9.7-6.5 9.7c-3.6 5.4-5.5 11.7-5.5 18.2 0 11-9 20-20 20s-20-9-20-20c0-14.4 4.2-28.4 12.2-40.4l15.7-23.6-15.7-23.6c-8-12-12.2-26-12.2-40.4 0-11 9-20 20-20s20 9 20 20c0 6.5 1.9 12.8 5.5 18.2l6.5 9.7 6.5-9.7c3.6-5.4 5.5-11.7 5.5-18.2 0-11 9-20 20-20z"/></svg>