<svg xmlns="http://www.w3.org/2000/svg" viewBox="0 0 384 512"><path style="fill:var(--fa-secondary-color,currentColor);opacity:var(--fa-secondary-opacity,.4)" d="M0 64L0 448c0 35.3 28.7 64 64 64l256 0c35.3 0 64-28.7 64-64l0-277.5c0-17-6.7-33.3-18.7-45.3L258.7 18.7C246.7 6.7 230.5 0 213.5 0L64 0C28.7 0 0 28.7 0 64zM64 88c0-13.3 10.7-24 24-24l48 0c13.3 0 24 10.7 24 24s-10.7 24-24 24l-48 0c-13.3 0-24-10.7-24-24zm0 96c0-13.3 10.7-24 24-24l48 0c13.3 0 24 10.7 24 24s-10.7 24-24 24l-48 0c-13.3 0-24-10.7-24-24zm5.3 225l60.1-75.1c7-8.8 17.7-13.9 28.9-13.9 16.4 0 30.8 10.7 35.5 26.4l16.1 53.6 86.1 0c13.3 0 24 10.7 24 24s-10.7 24-24 24l-104 0c-10.6 0-19.9-7-23-17.1l-15.2-50.7-47.1 58.8c-8.3 10.4-23.4 12-33.7 3.8S61 419.4 69.3 409zM208 58.5L325.5 176 232 176c-13.3 0-24-10.7-24-24l0-93.5z"/><path style="fill:var(--fa-primary-color,currentColor);opacity:var(--fa-primary-opacity,1)" d="M64 88c0-13.3 10.7-24 24-24l48 0c13.3 0 24 10.7 24 24s-10.7 24-24 24l-48 0c-13.3 0-24-10.7-24-24zm0 96c0-13.3 10.7-24 24-24l48 0c13.3 0 24 10.7 24 24s-10.7 24-24 24l-48 0c-13.3 0-24-10.7-24-24zm65.3 149.9c7-8.8 17.7-13.9 28.9-13.9 16.4 0 30.8 10.7 35.5 26.4l16.1 53.6 86.1 0c13.3 0 24 10.7 24 24s-10.7 24-24 24l-104 0c-10.6 0-19.9-7-23-17.1l-15.2-50.7-47.1 58.8c-8.3 10.4-23.4 12-33.7 3.8S61 419.4 69.3 409l60.1-75.1z"/></svg>