<svg xmlns="http://www.w3.org/2000/svg" viewBox="0 0 384 512"><path style="fill:var(--fa-secondary-color,currentColor);opacity:var(--fa-secondary-opacity,.4)" d="M0 64L0 448c0 35.3 28.7 64 64 64l256 0c35.3 0 64-28.7 64-64l0-277.5c0-17-6.7-33.3-18.7-45.3L258.7 18.7C246.7 6.7 230.5 0 213.5 0L64 0C28.7 0 0 28.7 0 64zM80 320c0-53 43-96 96-96s96 43 96 96c0 17.8-4.9 34.5-13.3 48.9L297 407.2c9.4 9.4 9.4 24.6 0 33.9s-24.6 9.4-33.9 0l-38.4-38.4c-14.3 8.4-30.9 13.2-48.7 13.2-53 0-96-43-96-96zm48 0a48 48 0 1 0 96 0 48 48 0 1 0 -96 0zM208 58.5L325.5 176 232 176c-13.3 0-24-10.7-24-24l0-93.5z"/><path style="fill:var(--fa-primary-color,currentColor);opacity:var(--fa-primary-opacity,1)" d="M258.7 368.9c8.5-14.3 13.3-31 13.3-48.9 0-53-43-96-96-96s-96 43-96 96 43 96 96 96c17.8 0 34.4-4.8 48.7-13.2L263 441.1c9.4 9.4 24.6 9.4 33.9 0s9.4-24.6 0-33.9l-38.3-38.3zM128 320a48 48 0 1 1 96 0 48 48 0 1 1 -96 0z"/></svg>