<svg xmlns="http://www.w3.org/2000/svg" viewBox="0 0 448 512"><path style="fill:var(--fa-secondary-color,currentColor);opacity:var(--fa-secondary-opacity,.4)" d="M96 64l0 320c0 35.3 28.7 64 64 64l224 0c35.3 0 64-28.7 64-64l0-229.5c0-17-6.7-33.3-18.7-45.3L338.7 18.7C326.7 6.7 310.5 0 293.5 0L160 0C124.7 0 96 28.7 96 64zm88 208c0-8.8 7.2-16 16-16l40 0 0-40c0-8.8 7.2-16 16-16l32 0c8.8 0 16 7.2 16 16l0 40 40 0c8.8 0 16 7.2 16 16l0 32c0 8.8-7.2 16-16 16l-40 0 0 40c0 8.8-7.2 16-16 16l-32 0c-8.8 0-16-7.2-16-16l0-40-40 0c-8.8 0-16-7.2-16-16l0-32zM288 58.5L389.5 160 312 160c-13.3 0-24-10.7-24-24l0-77.5z"/><path style="fill:var(--fa-primary-color,currentColor);opacity:var(--fa-primary-opacity,1)" d="M48 88c0-13.3-10.7-24-24-24S0 74.7 0 88L0 480c0 35.3 28.7 64 64 64l264 0c13.3 0 24-10.7 24-24s-10.7-24-24-24L64 496c-8.8 0-16-7.2-16-16L48 88zM240 216l0 40-40 0c-8.8 0-16 7.2-16 16l0 32c0 8.8 7.2 16 16 16l40 0 0 40c0 8.8 7.2 16 16 16l32 0c8.8 0 16-7.2 16-16l0-40 40 0c8.8 0 16-7.2 16-16l0-32c0-8.8-7.2-16-16-16l-40 0 0-40c0-8.8-7.2-16-16-16l-32 0c-8.8 0-16 7.2-16 16z"/></svg>