<svg xmlns="http://www.w3.org/2000/svg" viewBox="0 0 384 512"><path style="fill:var(--fa-secondary-color,currentColor);opacity:var(--fa-secondary-opacity,.4)" d="M0 64L0 448c0 35.3 28.7 64 64 64l256 0c35.3 0 64-28.7 64-64l0-277.5c0-17-6.7-33.3-18.7-45.3L258.7 18.7C246.7 6.7 230.5 0 213.5 0L64 0C28.7 0 0 28.7 0 64zM124 293.3c-7.4-11-4.4-25.9 6.7-33.3s25.9-4.4 33.3 6.7l28 42 28-42c7.4-11 22.3-14 33.3-6.7s14 22.3 6.7 33.3L220.8 352 260 410.7c7.4 11 4.4 25.9-6.7 33.3s-25.9 4.4-33.3-6.7l-28-42-28 42c-7.4 11-22.3 14-33.3 6.7s-14-22.3-6.7-33.3L163.2 352 124 293.3zM208 58.5L325.5 176 232 176c-13.3 0-24-10.7-24-24l0-93.5z"/><path style="fill:var(--fa-primary-color,currentColor);opacity:var(--fa-primary-opacity,1)" d="M164 266.7c-7.4-11-22.3-14-33.3-6.7s-14 22.3-6.7 33.3L163.2 352 124 410.7c-7.4 11-4.4 25.9 6.7 33.3s25.9 4.4 33.3-6.7l28-42 28 42c7.4 11 22.3 14 33.3 6.7s14-22.3 6.7-33.3L220.8 352 260 293.3c7.4-11 4.4-25.9-6.7-33.3s-25.9-4.4-33.3 6.7l-28 42-28-42z"/></svg>