<svg xmlns="http://www.w3.org/2000/svg" viewBox="0 0 640 512"><path style="fill:var(--fa-secondary-color,currentColor);opacity:var(--fa-secondary-opacity,.4)" d="M64 64C64 28.7 92.7 0 128 0L277.5 0c17 0 33.3 6.7 45.3 18.7L429.3 125.3c12 12 18.7 28.3 18.7 45.3l0 165.5-112 0c-35.3 0-64 28.7-64 64l0 112-144 0c-35.3 0-64-28.7-64-64L64 64zm208-5.5l0 93.5c0 13.3 10.7 24 24 24L389.5 176 272 58.5z"/><path style="fill:var(--fa-primary-color,currentColor);opacity:var(--fa-primary-opacity,1)" d="M316 400c0 11 9 20 20 20l31.6 0-49.5 99.1c-3.1 6.2-2.8 13.6 .9 19.5s10.1 9.5 17 9.5l64 0c11 0 20-9 20-20s-9-20-20-20l-31.6 0 49.5-99.1c3.1-6.2 2.8-13.6-.9-19.5s-10.1-9.5-17-9.5l-64 0c-11 0-20 9-20 20zm148-20c-11 0-20 9-20 20l0 128c0 11 9 20 20 20s20-9 20-20l0-128c0-11-9-20-20-20zm64 0c-11 0-20 9-20 20l0 128c0 11 9 20 20 20s20-9 20-20l0-28 12 0c33.1 0 60-26.9 60-60s-26.9-60-60-60l-32 0zm32 80l-12 0 0-40 12 0c11 0 20 9 20 20s-9 20-20 20z"/></svg>