<svg xmlns="http://www.w3.org/2000/svg" viewBox="0 0 384 512"><path style="fill:var(--fa-secondary-color,currentColor);opacity:var(--fa-secondary-opacity,.4)" d="M0 64L0 448c0 35.3 28.7 64 64 64l256 0c35.3 0 64-28.7 64-64l0-277.5c0-17-6.7-33.3-18.7-45.3L258.7 18.7C246.7 6.7 230.5 0 213.5 0L64 0C28.7 0 0 28.7 0 64zM124.1 268.1c9.4-9.4 24.6-9.4 33.9 0l33.9 33.9 33.9-33.9c9.4-9.4 24.6-9.4 33.9 0s9.4 24.6 0 33.9l-33.9 33.9 33.9 33.9c9.4 9.4 9.4 24.6 0 33.9s-24.6 9.4-33.9 0l-33.9-33.9-33.9 33.9c-9.4 9.4-24.6 9.4-33.9 0s-9.4-24.6 0-33.9l33.9-33.9-33.9-33.9c-9.4-9.4-9.4-24.6 0-33.9zM208 58.5L325.5 176 232 176c-13.3 0-24-10.7-24-24l0-93.5z"/><path style="fill:var(--fa-primary-color,currentColor);opacity:var(--fa-primary-opacity,1)" d="M259.9 302.1c9.4-9.4 9.4-24.6 0-33.9s-24.6-9.4-33.9 0l-33.9 33.9-33.9-33.9c-9.4-9.4-24.6-9.4-33.9 0s-9.4 24.6 0 33.9l33.9 33.9-33.9 33.9c-9.4 9.4-9.4 24.6 0 33.9s24.6 9.4 33.9 0l33.9-33.9 33.9 33.9c9.4 9.4 24.6 9.4 33.9 0s9.4-24.6 0-33.9l-33.9-33.9 33.9-33.9z"/></svg>