<svg xmlns="http://www.w3.org/2000/svg" viewBox="0 0 384 512"><path style="fill:var(--fa-secondary-color,currentColor);opacity:var(--fa-secondary-opacity,.4)" d="M0 64L0 448c0 35.3 28.7 64 64 64l256 0c35.3 0 64-28.7 64-64l0-277.5c0-17-6.7-33.2-18.7-45.2L258.7 18.8C246.7 6.8 230.5 0 213.5 0L64 0C28.7 0 0 28.7 0 64zM57.1 322.7L84 292.4 84 264c0-19.9 16.1-36 36-36l16 0c11 0 20 9 20 20s-9 20-20 20l-12 0 0 25.9c0 7.7-2.5 15.2-7 21.4l-2.1 2.6-16.2 18.2 16.2 18.2 2.1 2.6c4.5 6.2 7 13.7 7 21.4l0 25.9 12 0c11 0 20 9 20 20s-9 20-20 20l-16 0c-19.9 0-36-16.1-36-36l0-28.4-26.9-30.3c-6.7-7.6-6.7-19 0-26.6zM208 58.5L325.5 176 232 176c-13.3 0-24-10.7-24-24l0-93.5zM228 248c0-11 9-20 20-20l16 0c19.9 0 36 16.1 36 36l0 28.4 26.9 30.3c6.7 7.6 6.7 19 0 26.6L300 379.6 300 408c0 19.9-16.1 36-36 36l-16 0c-11 0-20-9-20-20s9-20 20-20l12 0 0-25.9c0-7.7 2.5-15.2 7-21.4l2.1-2.6 16.2-18.2-16.2-18.2-2.1-2.6c-4.5-6.2-7-13.7-7-21.4l0-25.9-12 0c-11 0-20-9-20-20z"/><path style="fill:var(--fa-primary-color,currentColor);opacity:var(--fa-primary-opacity,1)" d="M136 228c11 0 20 9 20 20s-9 20-20 20l-12 0 0 25.9c0 7.7-2.5 15.2-7 21.4l-2.1 2.6-16.2 18.2 16.2 18.2 2.1 2.6c4.5 6.2 7 13.7 7 21.4l0 25.9 12 0c11 0 20 9 20 20s-9 20-20 20l-16 0c-19.9 0-36-16.1-36-36l0-28.4-26.9-30.3c-6.7-7.6-6.7-19 0-26.6L84 292.4 84 264c0-19.9 16.1-36 36-36l16 0zm128 0c19.9 0 36 16.1 36 36l0 28.4 26.9 30.3c6.7 7.6 6.7 19 0 26.6L300 379.6 300 408c0 19.9-16.1 36-36 36l-16 0c-11 0-20-9-20-20s9-20 20-20l12 0 0-25.9c0-7.7 2.5-15.2 7-21.4l2.1-2.6 16.2-18.2-16.2-18.2-2.1-2.6c-4.5-6.2-7-13.7-7-21.4l0-25.9-12 0c-11 0-20-9-20-20s9-20 20-20l16 0z"/></svg>