<svg xmlns="http://www.w3.org/2000/svg" viewBox="0 0 576 512"><path style="fill:var(--fa-secondary-color,currentColor);opacity:var(--fa-secondary-opacity,.4)" d="M32 64C32 28.7 60.7 0 96 0L245.5 0c17 0 33.3 6.7 45.3 18.7L397.3 125.3c12 12 18.7 28.3 18.7 45.3l0 165.5-176 0c-35.3 0-64 28.7-64 64l0 112-80 0c-35.3 0-64-28.7-64-64L32 64zm208-5.5l0 93.5c0 13.3 10.7 24 24 24L357.5 176 240 58.5z"/><path style="fill:var(--fa-primary-color,currentColor);opacity:var(--fa-primary-opacity,1)" d="M363.4 380.5c9-2.1 18.3 2.2 22.5 10.5l26.1 52.2 0-43.3c0-11 9-20 20-20s20 9 20 20l0 128c0 9.3-6.4 17.3-15.4 19.5s-18.3-2.2-22.5-10.5L388 484.7 388 528c0 11-9 20-20 20s-20-9-20-20l0-128c0-9.3 6.4-17.3 15.4-19.5zM220 400c0-11 9-20 20-20l32 0c33.1 0 60 26.9 60 60s-26.9 60-60 60l-12 0 0 28c0 11-9 20-20 20s-20-9-20-20l0-128zm40 60l12 0c11 0 20-9 20-20s-9-20-20-20l-12 0 0 40zm260-80l24 0c19.9 0 36 16.1 36 36 0 11-9 20-20 20-9.7 0-17.7-6.9-19.6-16L520 420c-2.2 0-4 1.8-4 4l0 80c0 2.2 1.8 4 4 4l16 0c2.2 0 4-1.8 4-4l0-8c-4.9-3.6-8-9.5-8-16 0-11 9-20 20-20l8 0c11 0 20 9 20 20l0 24c0 24.3-19.7 44-44 44l-16 0c-24.3 0-44-19.7-44-44l0-80c0-24.3 19.7-44 44-44z"/></svg>