<svg xmlns="http://www.w3.org/2000/svg" viewBox="0 0 384 512"><path style="fill:var(--fa-secondary-color,currentColor);opacity:var(--fa-secondary-opacity,.4)" d="M0 64L0 448c0 35.3 28.7 64 64 64l256 0c35.3 0 64-28.7 64-64l0-277.5c0-17-6.7-33.3-18.7-45.3L258.7 18.7C246.7 6.7 230.5 0 213.5 0L64 0C28.7 0 0 28.7 0 64zM69.8 320.4l48-56c8.6-10.1 23.8-11.2 33.8-2.6s11.2 23.8 2.6 33.8l-34.6 40.4 34.6 40.4c8.6 10.1 7.5 25.2-2.6 33.8s-25.2 7.5-33.8-2.6l-48-56c-7.7-9-7.7-22.2 0-31.2zM208 58.5L325.5 176 232 176c-13.3 0-24-10.7-24-24l0-93.5zm21.8 237.1c-8.6-10.1-7.5-25.2 2.6-33.8s25.2-7.5 33.8 2.6l48 56c7.7 9 7.7 22.2 0 31.2l-48 56c-8.6 10.1-23.8 11.2-33.8 2.6s-11.2-23.8-2.6-33.8l34.6-40.4-34.6-40.4z"/><path style="fill:var(--fa-primary-color,currentColor);opacity:var(--fa-primary-opacity,1)" d="M151.6 261.8c10.1 8.6 11.2 23.8 2.6 33.8l-34.6 40.4 34.6 40.4c8.6 10.1 7.5 25.2-2.6 33.8s-25.2 7.5-33.8-2.6l-48-56c-7.7-9-7.7-22.2 0-31.2l48-56c8.6-10.1 23.8-11.2 33.8-2.6zm80.8 0c10.1-8.6 25.2-7.5 33.8 2.6l48 56c7.7 9 7.7 22.2 0 31.2l-48 56c-8.6 10.1-23.8 11.2-33.8 2.6s-11.2-23.8-2.6-33.8l34.6-40.4-34.6-40.4c-8.6-10.1-7.5-25.2 2.6-33.8z"/></svg>