<svg xmlns="http://www.w3.org/2000/svg" viewBox="0 0 576 512"><path style="fill:var(--fa-secondary-color,currentColor);opacity:var(--fa-secondary-opacity,.4)" d="M32 64C32 28.7 60.7 0 96 0L245.5 0c17 0 33.3 6.7 45.3 18.7L397.3 125.3c12 12 18.7 28.3 18.7 45.3l0 39.1c-3.1 .6-6.2 1.5-9.3 2.5l-112 37.3C262 260.3 240 290.9 240 325.3l0 31.1c0 58.1 21 113 57.2 155.6L96 512c-35.3 0-64-28.7-64-64L32 64zm208-5.5l0 93.5c0 13.3 10.7 24 24 24L357.5 176 240 58.5z"/><path style="fill:var(--fa-primary-color,currentColor);opacity:var(--fa-primary-opacity,1)" d="M432 494.8l13.3-6.3C495.8 464.8 528 414 528 358.2l0-19.6-96-32 0 188.1zm-122.1-198l112-37.3c6.6-2.2 13.7-2.2 20.2 0l112 37.3c13.1 4.4 21.9 16.6 21.9 30.4l0 31.1c0 74.4-43 142.1-110.2 173.7l-18.5 8.7c-4.8 2.2-10 3.4-15.2 3.4s-10.5-1.2-15.2-3.4L398.2 532C331 500.3 288 432.6 288 358.2l0-31.1c0-13.8 8.8-26 21.9-30.4z"/></svg>