<svg xmlns="http://www.w3.org/2000/svg" viewBox="0 0 512 512"><path style="fill:var(--fa-secondary-color,currentColor);opacity:var(--fa-secondary-opacity,.4)" d="M64 64l0 240 182.1 0-31-31c-9.4-9.4-9.4-24.6 0-33.9s24.6-9.4 33.9 0l72 72c9.4 9.4 9.4 24.6 0 33.9l-72 72c-9.4 9.4-24.6 9.4-33.9 0s-9.4-24.6 0-33.9l31-31-182.1 0 0 96c0 35.3 28.7 64 64 64l256 0c35.3 0 64-28.7 64-64l0-277.5c0-17-6.7-33.3-18.7-45.3L322.7 18.7C310.7 6.7 294.5 0 277.5 0L128 0C92.7 0 64 28.7 64 64zm208-5.5L389.5 176 296 176c-13.3 0-24-10.7-24-24l0-93.5z"/><path style="fill:var(--fa-primary-color,currentColor);opacity:var(--fa-primary-opacity,1)" d="M249 417l72-72c9.4-9.4 9.4-24.6 0-33.9l-72-72c-9.4-9.4-24.6-9.4-33.9 0s-9.4 24.6 0 33.9l31 31-222.1 0c-13.3 0-24 10.7-24 24s10.7 24 24 24l222.1 0-31 31c-9.4 9.4-9.4 24.6 0 33.9s24.6 9.4 33.9 0z"/></svg>