<svg xmlns="http://www.w3.org/2000/svg" viewBox="0 0 384 512"><path style="fill:var(--fa-secondary-color,currentColor);opacity:var(--fa-secondary-opacity,.4)" d="M0 64L0 448c0 35.3 28.7 64 64 64l256 0c35.3 0 64-28.7 64-64l0-277.5c0-17-6.7-33.3-18.7-45.3L258.7 18.7C246.7 6.7 230.5 0 213.5 0L64 0C28.7 0 0 28.7 0 64zM120 288c0-13.3 10.7-24 24-24l24 0 0-24c0-13.3 10.7-24 24-24s24 10.7 24 24l0 24 24 0c13.3 0 24 10.7 24 24s-10.7 24-24 24l-24 0 0 24c0 13.3-10.7 24-24 24s-24-10.7-24-24l0-24-24 0c-13.3 0-24-10.7-24-24zm0 136c0-13.3 10.7-24 24-24l96 0c13.3 0 24 10.7 24 24s-10.7 24-24 24l-96 0c-13.3 0-24-10.7-24-24zM208 58.5L325.5 176 232 176c-13.3 0-24-10.7-24-24l0-93.5z"/><path style="fill:var(--fa-primary-color,currentColor);opacity:var(--fa-primary-opacity,1)" d="M192 216c13.3 0 24 10.7 24 24l0 24 24 0c13.3 0 24 10.7 24 24s-10.7 24-24 24l-24 0 0 24c0 13.3-10.7 24-24 24s-24-10.7-24-24l0-24-24 0c-13.3 0-24-10.7-24-24s10.7-24 24-24l24 0 0-24c0-13.3 10.7-24 24-24zM120 424c0-13.3 10.7-24 24-24l96 0c13.3 0 24 10.7 24 24s-10.7 24-24 24l-96 0c-13.3 0-24-10.7-24-24z"/></svg>