<svg xmlns="http://www.w3.org/2000/svg" viewBox="0 0 576 512"><path style="fill:var(--fa-secondary-color,currentColor);opacity:var(--fa-secondary-opacity,.4)" d="M32 64C32 28.7 60.7 0 96 0L245.5 0c17 0 33.3 6.7 45.3 18.7L397.3 125.3c12 12 18.7 28.3 18.7 45.3l0 165.5-208 0c-35.3 0-64 28.7-64 64l0 112-48 0c-35.3 0-64-28.7-64-64L32 64zm208-5.5l0 93.5c0 13.3 10.7 24 24 24L357.5 176 240 58.5z"/><path style="fill:var(--fa-primary-color,currentColor);opacity:var(--fa-primary-opacity,1)" d="M202.7 380.7c8.7-2.4 17.9 1.3 22.5 9l30.9 51.4 30.9-51.4c4.6-7.7 13.8-11.4 22.5-9S324 391 324 400l0 128c0 11-9 20-20 20s-20-9-20-20l0-55.8-10.9 18.1c-3.6 6-10.1 9.7-17.1 9.7s-13.5-3.7-17.1-9.7L228 472.2 228 528c0 11-9 20-20 20s-20-9-20-20l0-128c0-9 6-16.9 14.7-19.3zM348 424c0-24.3 19.7-44 44-44l16 0c24.3 0 44 19.7 44 44l0 80c0 24.3-19.7 44-44 44l-16 0c-24.3 0-44-19.7-44-44l0-80zm44-4c-2.2 0-4 1.8-4 4l0 80c0 2.2 1.8 4 4 4l16 0c2.2 0 4-1.8 4-4l0-80c0-2.2-1.8-4-4-4l-16 0zm124-20l0 31.6c0 19.6 4.1 38.9 12 56.7 7.9-17.8 12-37.1 12-56.7l0-31.6c0-11 9-20 20-20s20 9 20 20l0 31.6c0 35.5-10.5 70.3-30.2 99.8l-5.1 7.7c-3.7 5.6-10 8.9-16.6 8.9s-12.9-3.3-16.6-8.9l-5.1-7.7c-19.7-29.6-30.2-64.3-30.2-99.8l0-31.6c0-11 9-20 20-20s20 9 20 20z"/></svg>