<svg xmlns="http://www.w3.org/2000/svg" viewBox="0 0 576 512"><path style="fill:var(--fa-secondary-color,currentColor);opacity:var(--fa-secondary-opacity,.4)" d="M32 64C32 28.7 60.7 0 96 0L245.5 0c17 0 33.3 6.7 45.3 18.7L397.3 125.3c12 12 18.7 28.3 18.7 45.3l0 165.5-176 0c-35.3 0-64 28.7-64 64l0 112-80 0c-35.3 0-64-28.7-64-64L32 64zm208-5.5l0 93.5c0 13.3 10.7 24 24 24L357.5 176 240 58.5z"/><path style="fill:var(--fa-primary-color,currentColor);opacity:var(--fa-primary-opacity,1)" d="M528 548c-11 0-20-9-20-20l0-128c0-11 9-20 20-20s20 9 20 20l0 108 12 0c11 0 20 9 20 20s-9 20-20 20l-32 0zM362.7 380.7c8.7-2.4 17.9 1.3 22.5 9l30.9 51.4 30.9-51.4c4.6-7.7 13.8-11.4 22.5-9S484 391 484 400l0 128c0 11-9 20-20 20s-20-9-20-20l0-55.8-10.9 18.1c-3.6 6-10.1 9.7-17.1 9.7s-13.5-3.7-17.1-9.7L388 472.2 388 528c0 11-9 20-20 20s-20-9-20-20l0-128c0-9 6-16.9 14.7-19.3zM240 380c11 0 20 9 20 20 0 6.5 1.9 12.8 5.5 18.2l6.5 9.7 6.5-9.7c3.6-5.4 5.5-11.7 5.5-18.2 0-11 9-20 20-20s20 9 20 20c0 14.4-4.3 28.4-12.2 40.4L296 464 311.8 487.6c8 12 12.2 26 12.2 40.4 0 11-9 20-20 20s-20-9-20-20c0-6.5-1.9-12.8-5.5-18.2l-6.5-9.7-6.5 9.7c-3.6 5.4-5.5 11.7-5.5 18.2 0 11-9 20-20 20s-20-9-20-20c0-14.4 4.3-28.4 12.2-40.4L248 464 232.2 440.4c-8-12-12.2-26-12.2-40.4 0-11 9-20 20-20z"/></svg>