<svg xmlns="http://www.w3.org/2000/svg" viewBox="0 0 384 512"><path style="fill:var(--fa-secondary-color,currentColor);opacity:var(--fa-secondary-opacity,.4)" d="M0 64L0 448c0 35.3 28.7 64 64 64l256 0c35.3 0 64-28.7 64-64l0-277.5c0-17-6.7-33.3-18.7-45.3L258.7 18.7C246.7 6.7 230.5 0 213.5 0L64 0C28.7 0 0 28.7 0 64zM64 216c0-13.3 10.7-24 24-24l56 0c35.3 0 64 28.7 64 64 0 18.8-8.1 35.7-21.1 47.5l40.9 38.5 35.7-33.7c9.6-9.1 24.8-8.7 33.9 .9s8.7 24.8-.9 33.9l-33.6 31.8 33.6 31.6c9.7 9.1 10.1 24.3 1 33.9s-24.3 10.1-33.9 1l-35.6-33.5-35.4 33.5c-9.6 9.1-24.8 8.7-33.9-.9s-8.7-24.8 .9-33.9l33.4-31.6-58.4-55-22.5 0 0 40c0 13.3-10.7 24-24 24s-24-10.7-24-24l0-144zm48 24l0 32 32 0c8.8 0 16-7.2 16-16s-7.2-16-16-16l-32 0zM208 58.5L325.5 176 232 176c-13.3 0-24-10.7-24-24l0-93.5z"/><path style="fill:var(--fa-primary-color,currentColor);opacity:var(--fa-primary-opacity,1)" d="M64 216c0-13.3 10.7-24 24-24l56 0c35.3 0 64 28.7 64 64 0 18.8-8.1 35.7-21.1 47.5l40.9 38.5 35.7-33.7c9.6-9.1 24.8-8.7 33.9 .9s8.7 24.8-.9 33.9l-33.6 31.8 33.6 31.6c9.7 9.1 10.1 24.3 1 33.9s-24.3 10.1-33.9 1l-35.6-33.5-35.4 33.5c-9.6 9.1-24.8 8.7-33.9-.9s-8.7-24.8 .9-33.9l33.4-31.6-58.4-55-22.5 0 0 40c0 13.3-10.7 24-24 24s-24-10.7-24-24l0-144zm48 56l32 0c8.8 0 16-7.2 16-16s-7.2-16-16-16l-32 0 0 32z"/></svg>