<svg xmlns="http://www.w3.org/2000/svg" viewBox="0 0 576 512"><path style="fill:var(--fa-secondary-color,currentColor);opacity:var(--fa-secondary-opacity,.4)" d="M32 64l0 384c0 35.3 28.7 64 64 64l48 0 0-112c0-35.3 28.7-64 64-64l208 0 0-165.5c0-17-6.7-33.2-18.7-45.2L290.7 18.8C278.8 6.8 262.5 0 245.5 0L96 0C60.7 0 32 28.7 32 64zm208-5.5L357.5 176 264 176c-13.3 0-24-10.7-24-24l0-93.5z"/><path style="fill:var(--fa-primary-color,currentColor);opacity:var(--fa-primary-opacity,1)" d="M288.8 387c5-5.8 13-8.4 20.6-6.3 8.7 2.4 14.7 10.3 14.7 19.3l0 128c0 11-9 20-20 20s-20-9-20-20l0-55.8-10.8 18.1c-3.6 6-10.1 9.7-17.2 9.7-6.1 0-11.9-2.8-15.7-7.6l-1.5-2.2-10.8-18.1 0 55.8c0 11-9 20-20 20s-20-9-20-20l0-128c0-9 6-16.9 14.7-19.3s17.9 1.3 22.5 9l30.8 51.4 30.8-51.4 1.9-2.7zm79.2-7c11 0 20 9 20 20l0 128c0 11-9 20-20 20s-20-9-20-20l0-128c0-11 9-20 20-20zm96 0c28.7 0 52 23.3 52 52l0 64c0 28.7-23.3 52-52 52l-32 0c-11 0-20-9-20-20l0-128 .4-4c1.9-9.1 9.9-16 19.6-16l32 0zm96 0c11 0 20 9 20 20l0 128c0 11-9 20-20 20s-20-9-20-20l0-128c0-11 9-20 20-20zM452 508l12 0c6.6 0 12-5.4 12-12l0-64c0-6.6-5.4-12-12-12l-12 0 0 88z"/></svg>