<svg xmlns="http://www.w3.org/2000/svg" viewBox="0 0 640 512"><path style="fill:var(--fa-secondary-color,currentColor);opacity:var(--fa-secondary-opacity,.4)" d="M64.1 64c0-35.3 28.7-64 64-64L277.6 0c17 0 33.3 6.7 45.3 18.7L429.3 125.3c12 12 18.7 28.3 18.7 45.3l0 97.5-132.2 132.2c-15.6 15.6-26.3 35.5-30.6 57.2l-10.9 54.5-146.2 0c-35.3 0-64-28.7-64-64l0-384zm208-5.5l0 93.5c0 13.3 10.7 24 24 24l93.5 0-117.5-117.5z"/><path style="fill:var(--fa-primary-color,currentColor);opacity:var(--fa-primary-opacity,1)" d="M320.4 526.5l11.9-59.6c2.5-12.4 8.6-23.8 17.5-32.7l118.9-118.9 80 80-118.9 118.9c-8.9 8.9-20.3 15-32.7 17.5l-59.6 11.9c-.9 .2-1.9 .3-2.9 .3-8 0-14.6-6.5-14.6-14.6 0-1 .1-1.9 .3-2.9zm251-153.8l-80-80 28.8-28.8c22.1-22.1 57.9-22.1 80 0s22.1 57.9 0 80l-28.8 28.8z"/></svg>