<svg xmlns="http://www.w3.org/2000/svg" viewBox="0 0 384 512"><path style="fill:var(--fa-secondary-color,currentColor);opacity:var(--fa-secondary-opacity,.4)" d="M0 64L0 448c0 35.3 28.7 64 64 64l256 0c35.3 0 64-28.7 64-64l0-277.5c0-17-6.7-33.3-18.7-45.3L258.7 18.7C246.7 6.7 230.5 0 213.5 0L64 0C28.7 0 0 28.7 0 64zM80 336c0-53.6 37.7-98.4 88-109.4L168 336c0 13.3 10.7 24 24 24l109.4 0c-11 50.3-55.8 88-109.4 88-61.9 0-112-50.1-112-112zM208 58.5L325.5 176 232 176c-13.3 0-24-10.7-24-24l0-93.5zm8 168.1c42.6 9.3 76.1 42.8 85.4 85.4l-85.4 0 0-85.4z"/><path style="fill:var(--fa-primary-color,currentColor);opacity:var(--fa-primary-opacity,1)" d="M168 226.6c-50.3 11-88 55.8-88 109.4 0 61.9 50.1 112 112 112 53.6 0 98.4-37.7 109.4-88L192 360c-13.3 0-24-10.7-24-24l0-109.4zM301.4 312c-9.3-42.6-42.8-76.1-85.4-85.4l0 85.4 85.4 0z"/></svg>