<svg xmlns="http://www.w3.org/2000/svg" viewBox="0 0 384 512"><path style="fill:var(--fa-secondary-color,currentColor);opacity:var(--fa-secondary-opacity,.4)" d="M0 64L0 448c0 35.3 28.7 64 64 64l256 0c35.3 0 64-28.7 64-64l0-277.5c0-17-6.7-33.3-18.7-45.3L258.7 18.7C246.7 6.7 230.5 0 213.5 0L64 0C28.7 0 0 28.7 0 64zM128 256a32 32 0 1 1 -64 0 32 32 0 1 1 64 0zM64 419.4c0-7.3 2.8-14.4 7.9-19.7l96.8-101.8c6-6.3 14.4-9.9 23.5-9.9 8.8 0 17.1 3.6 23.2 9.9l96.8 101.8c5.1 5.3 7.9 12.4 7.9 19.7 0 15.8-12.8 28.6-28.6 28.6L92.6 448C76.8 448 64 435.2 64 419.4zM208 58.5L325.5 176 232 176c-13.3 0-24-10.7-24-24l0-93.5z"/><path style="fill:var(--fa-primary-color,currentColor);opacity:var(--fa-primary-opacity,1)" d="M96 224a32 32 0 1 1 0 64 32 32 0 1 1 0-64zM291.4 448L92.6 448c-15.8 0-28.6-12.8-28.6-28.6 0-7.3 2.8-14.4 7.9-19.7l96.8-101.8c6-6.3 14.4-9.9 23.2-9.9l.3 0c8.8 0 17.1 3.6 23.2 9.9l96.8 101.8c5.1 5.3 7.9 12.4 7.9 19.7 0 15.8-12.8 28.6-28.6 28.6z"/></svg>