<svg xmlns="http://www.w3.org/2000/svg" viewBox="0 0 384 512"><path style="fill:var(--fa-secondary-color,currentColor);opacity:var(--fa-secondary-opacity,.4)" d="M0 64L0 448c0 35.3 28.7 64 64 64l256 0c35.3 0 64-28.7 64-64l0-277.5c0-17-6.7-33.3-18.7-45.3L258.7 18.7C246.7 6.7 230.5 0 213.5 0L64 0C28.7 0 0 28.7 0 64zM64 312c0-30.9 25.1-56 56-56l16 0c30.9 0 56 25.1 56 56l0 48c0 30.9-25.1 56-56 56l-16 0c-30.9 0-56-25.1-56-56l0-48zm48 0l0 48c0 4.4 3.6 8 8 8l16 0c4.4 0 8-3.6 8-8l0-48c0-4.4-3.6-8-8-8l-16 0c-4.4 0-8 3.6-8 8zM208 58.5L325.5 176 232 176c-13.3 0-24-10.7-24-24l0-93.5zM224 280c0-13.3 10.7-24 24-24l24 0c13.3 0 24 10.7 24 24l0 88c13.3 0 24 10.7 24 24s-10.7 24-24 24l-48 0c-13.3 0-24-10.7-24-24s10.7-24 24-24l0-64c-13.3 0-24-10.7-24-24z"/><path style="fill:var(--fa-primary-color,currentColor);opacity:var(--fa-primary-opacity,1)" d="M64 312c0-30.9 25.1-56 56-56l16 0c30.9 0 56 25.1 56 56l0 48c0 30.9-25.1 56-56 56l-16 0c-30.9 0-56-25.1-56-56l0-48zm56-8c-4.4 0-8 3.6-8 8l0 48c0 4.4 3.6 8 8 8l16 0c4.4 0 8-3.6 8-8l0-48c0-4.4-3.6-8-8-8l-16 0zm104-24c0-13.3 10.7-24 24-24l24 0c13.3 0 24 10.7 24 24l0 88c13.3 0 24 10.7 24 24s-10.7 24-24 24l-48 0c-13.3 0-24-10.7-24-24s10.7-24 24-24l0-64c-13.3 0-24-10.7-24-24z"/></svg>