<svg xmlns="http://www.w3.org/2000/svg" viewBox="0 0 576 512"><path style="fill:var(--fa-secondary-color,currentColor);opacity:var(--fa-secondary-opacity,.4)" d="M96 64l0 256c0 35.3 28.7 64 64 64l352 0c35.3 0 64-28.7 64-64l0-192c0-35.3-28.7-64-64-64L381.3 64c-8.5 0-16.6-3.4-22.6-9.4L322.7 18.7C310.7 6.7 294.5 0 277.5 0L160 0C124.7 0 96 28.7 96 64z"/><path style="fill:var(--fa-primary-color,currentColor);opacity:var(--fa-primary-opacity,1)" d="M24 96c13.3 0 24 10.7 24 24l0 296c0 8.8 7.2 16 16 16l392 0c13.3 0 24 10.7 24 24s-10.7 24-24 24L64 480c-35.3 0-64-28.7-64-64L0 120c0-13.3 10.7-24 24-24z"/></svg>