<svg xmlns="http://www.w3.org/2000/svg" viewBox="0 0 512 512"><path style="fill:var(--fa-secondary-color,currentColor);opacity:var(--fa-secondary-opacity,.4)" d="M0 96L0 384c0 35.3 28.7 64 64 64l384 0c35.3 0 64-28.7 64-64l0-240c0-35.3-28.7-64-64-64L298.7 80c-6.9 0-13.7-2.2-19.2-6.4L241.1 44.8C230 36.5 216.5 32 202.7 32L64 32C28.7 32 0 60.7 0 96zM162.3 349c14.7-17.7 36.9-29 61.7-29l64 0c24.8 0 47 11.3 61.7 29 12.9 15.6-2.2 35-22.4 35l-142.5 0c-20.2 0-35.3-19.4-22.4-35zM312 224a56 56 0 1 1 -112 0 56 56 0 1 1 112 0z"/><path style="fill:var(--fa-primary-color,currentColor);opacity:var(--fa-primary-opacity,1)" d="M200 224a56 56 0 1 1 112 0 56 56 0 1 1 -112 0zM184.8 384c-20.2 0-35.3-19.4-22.4-35 14.7-17.7 36.9-29 61.7-29l64 0c24.8 0 47 11.3 61.7 29 12.9 15.6-2.2 35-22.4 35l-142.5 0z"/></svg>