<svg xmlns="http://www.w3.org/2000/svg" viewBox="0 0 512 512"><path style="fill:var(--fa-secondary-color,currentColor);opacity:var(--fa-secondary-opacity,.4)" d="M0 96L0 384c0 35.3 28.7 64 64 64l384 0c35.3 0 64-28.7 64-64l0-240c0-35.3-28.7-64-64-64L298.7 80c-6.9 0-13.7-2.2-19.2-6.4L241.1 44.8C230 36.5 216.5 32 202.7 32L64 32C28.7 32 0 60.7 0 96zM144 256c0-53 43-96 96-96s96 43 96 96c0 17.8-4.9 34.5-13.3 48.9L361 343.2c9.4 9.4 9.4 24.6 0 33.9s-24.6 9.4-33.9 0l-38.4-38.4c-14.3 8.4-30.9 13.2-48.7 13.2-53 0-96-43-96-96z"/><path style="fill:var(--fa-primary-color,currentColor);opacity:var(--fa-primary-opacity,1)" d="M322.7 304.9c8.5-14.3 13.3-31 13.3-48.9 0-53-43-96-96-96s-96 43-96 96 43 96 96 96c17.8 0 34.4-4.8 48.7-13.2L327 377.1c9.4 9.4 24.6 9.4 33.9 0s9.4-24.6 0-33.9l-38.3-38.3zM192 256a48 48 0 1 1 96 0 48 48 0 1 1 -96 0z"/></svg>