<svg xmlns="http://www.w3.org/2000/svg" viewBox="0 0 576 512"><path style="fill:var(--fa-secondary-color,currentColor);opacity:var(--fa-secondary-opacity,.4)" d="M32.4 96l0 288c0 6.3 .9 12.4 2.6 18.1-.2-5.7 .5-11.5 2.5-17.3l48-144C92 221.2 110.4 208 131 208l381.4 0 0-64c0-35.3-28.7-64-64-64L331.1 80c-6.9 0-13.7-2.2-19.2-6.4L273.5 44.8C262.4 36.5 249 32 235.1 32L96.4 32c-35.3 0-64 28.7-64 64z"/><path style="fill:var(--fa-primary-color,currentColor);opacity:var(--fa-primary-opacity,1)" d="M83 448l394.8 0c20.7 0 39-13.2 45.5-32.8l48-144c10.4-31.1-12.8-63.2-45.5-63.2L131 208c-20.7 0-39 13.2-45.5 32.8l-48 144C27.1 415.9 50.3 448 83 448z"/></svg>