<svg xmlns="http://www.w3.org/2000/svg" viewBox="0 0 512 512"><!--! Font Awesome Pro 7.1.0 by @fontawesome - https://fontawesome.com License - https://fontawesome.com/license (Commercial License) Copyright 2025 Fonticons, Inc. --><path opacity=".4" fill="currentColor" d="M5.8 145.9c-7.6 13.2-4.9 29.8 6.5 39.9l53.4 47.5c-.9 7.4-1.3 15-1.3 22.7s.5 15.3 1.3 22.7L12.3 326.2c-11.4 10.1-14 26.8-6.5 39.9l29.9 51.8c7.6 13.1 23.4 19.2 37.8 14.4l67.8-22.5c12.1 9.1 25.3 16.7 39.3 22.8l14.4 69.9c3.1 14.9 16.2 25.5 31.3 25.5l59.8 0c15.2 0 28.3-10.7 31.3-25.5L332 432.5c14.1-6 27.2-13.7 39.3-22.8l67.8 22.5c14.4 4.8 30.2-1.2 37.8-14.4l29.9-51.8c7.6-13.2 4.9-29.8-6.5-39.9L447 278.7c.9-7.4 1.3-15 1.3-22.7s-.5-15.3-1.3-22.7l53.4-47.5c11.4-10.1 14-26.8 6.5-39.9L476.9 94.1c-7.6-13.2-23.4-19.2-37.8-14.4l-67.8 22.5C359.2 93.2 346 85.5 332 79.5L317.6 9.5C314.5-5.3 301.4-16 286.2-16l-59.8 0c-15.2 0-28.3 10.7-31.3 25.5L180.7 79.5c-14.1 6-27.2 13.7-39.3 22.8L73.5 79.7c-14.4-4.8-30.2 1.2-37.8 14.4L5.8 145.9zm116.4 95.9l32-32c7.8-7.8 20.5-7.8 28.3 0s7.8 20.5 0 28.3l-17.9 17.9 17.9 17.9c7.8 7.8 7.8 20.5 0 28.3s-20.5 7.8-28.3 0l-32-32c-7.8-7.8-7.8-20.5 0-28.3zm90.7 113.6l48-208c2.5-10.8 13.2-17.5 24-15s17.5 13.2 15 24l-48 208c-2.5 10.8-13.2 17.5-24 15s-17.5-13.2-15-24zM330.2 209.9c7.8-7.8 20.5-7.8 28.3 0l32 32c7.8 7.8 7.8 20.5 0 28.3l-32 32c-7.8 7.8-20.5 7.8-28.3 0s-7.8-20.5 0-28.3L348 256 330.2 238.1c-7.8-7.8-7.8-20.5 0-28.3z"/><path fill="currentColor" d="M284.8 132.5c10.8 2.5 17.5 13.2 15 24l-48 208c-2.5 10.8-13.2 17.5-24 15s-17.5-13.2-15-24l48-208c2.5-10.8 13.2-17.5 24-15zM182.5 209.9c7.8 7.8 7.8 20.5 0 28.3l-17.9 17.9 17.9 17.9c7.8 7.8 7.8 20.5 0 28.3s-20.5 7.8-28.3 0l-32-32c-7.8-7.8-7.8-20.5 0-28.3l32-32c7.8-7.8 20.5-7.8 28.3 0zm147.7 0c7.8-7.8 20.5-7.8 28.3 0l32 32c7.8 7.8 7.8 20.5 0 28.3l-32 32c-7.8 7.8-20.5 7.8-28.3 0s-7.8-20.5 0-28.3L348 256 330.2 238.1c-7.8-7.8-7.8-20.5 0-28.3z"/></svg>