<svg xmlns="http://www.w3.org/2000/svg" viewBox="0 0 640 512"><!--! Font Awesome Pro 7.1.0 by @fontawesome - https://fontawesome.com License - https://fontawesome.com/license (Commercial License) Copyright 2025 Fonticons, Inc. --><path opacity=".4" fill="currentColor" d="M274.9 351.6c-3.2 12.1 2.5 24.9 13.8 30.5l37.7 18.6c.7 5.1 1.7 10.1 3.1 15.2 1.4 5.1 3 10 5 14.7l-23.3 35c-7 10.5-5.6 24.4 3.3 33.3L333.6 518c8.9 8.9 22.8 10.3 33.3 3.3l35-23.3c9.5 3.9 19.6 6.7 29.9 8.1l18.6 37.6c5.6 11.3 18.4 17 30.5 13.8l26.2-7c12.2-3.3 20.3-14.7 19.5-27.2l-2.7-41.9c8.3-6.4 15.6-13.8 21.9-22l42 2.7c12.5 .8 23.9-7.4 27.2-19.5l7-26.2c3.2-12.1-2.5-24.9-13.8-30.5l-37.7-18.6c-.7-5.1-1.6-10.1-3-15.2-1.4-5.1-3.1-10-5-14.7l23.3-34.9c7-10.5 5.6-24.4-3.3-33.3l-19.2-19.2c-8.9-8.9-22.8-10.2-33.3-3.3L495 270c-9.5-3.9-19.6-6.7-29.9-8.1l-18.6-37.6c-5.6-11.3-18.3-17-30.5-13.8l-26.2 7c-12.1 3.3-20.3 14.6-19.5 27.2l2.7 41.9c-8.3 6.4-15.6 13.8-21.9 22l-41.9-2.7c-12.5-.8-23.9 7.4-27.2 19.5l-7 26.2zM492.4 384a44 44 0 1 1 -88 0 44 44 0 1 1 88 0z"/><path fill="currentColor" d="M224.9-45.5l26.2 7c12.2 3.3 20.3 14.6 19.5 27.2l-2.7 41.9c8.3 6.4 15.6 13.8 21.9 22l42-2.7c12.5-.8 23.9 7.4 27.2 19.5l7 26.2c3.2 12.1-2.5 24.9-13.8 30.5l-37.7 18.6c-.7 5.1-1.6 10.2-3 15.2s-3.1 10-5 14.7l23.3 35c7 10.5 5.6 24.4-3.3 33.3L307.3 262c-8.9 8.9-22.8 10.3-33.3 3.3L239 242c-9.5 3.9-19.6 6.7-29.9 8.1l-18.6 37.6c-5.6 11.3-18.3 17-30.5 13.8l-26.2-7c-12.1-3.3-20.3-14.7-19.5-27.2l2.7-41.9c-8.3-6.4-15.6-13.8-21.9-22l-41.9 2.7c-12.5 .8-23.9-7.4-27.2-19.5l-7-26.2c-3.2-12.1 2.5-24.9 13.8-30.5l37.7-18.6c.7-5.1 1.7-10.1 3.1-15.2 1.4-5.1 3-10 5-14.7L55.1 46.5C48.1 36 49.5 22 58.4 13.1L77.6-6.1c8.9-8.9 22.8-10.2 33.3-3.3l35 23.3c9.5-3.9 19.6-6.7 29.9-8.1l18.6-37.6c5.6-11.3 18.4-17 30.5-13.8zM192.4 84a44 44 0 1 0 0 88 44 44 0 1 0 0-88z"/></svg>