<svg xmlns="http://www.w3.org/2000/svg" viewBox="0 0 576 512"><path style="fill:var(--fa-secondary-color,currentColor);opacity:var(--fa-secondary-opacity,.4)" d="M32 165.1l0 2.6c0 112.2 139.9 242.5 212.9 298.2 12.4 9.4 27.6 14.1 43.1 14.1s30.8-4.6 43.1-14.1c10.7-8.2 22.9-18 35.9-29.1L42.8 112.6C35.8 128.7 32 146.5 32 165.1z"/><path style="fill:var(--fa-primary-color,currentColor);opacity:var(--fa-primary-opacity,1)" d="M7-25c9.4-9.4 24.6-9.4 33.9 0L109.9 44c16.8-7.7 35.5-12 55.2-12 42.7 0 82.8 20.5 107.9 55.1l15 20.7 15-20.7C328 52.5 368.2 32 410.9 32 484.4 32 544 91.6 544 165.1l0 2.6c0 67.8-51.1 142.2-107.6 202.7L569 503c9.4 9.4 9.4 24.6 0 33.9s-24.6 9.4-33.9 0L7 9C-2.3-.4-2.3-15.6 7-25z"/></svg>