<svg xmlns="http://www.w3.org/2000/svg" viewBox="0 0 512 512"><path style="fill:var(--fa-secondary-color,currentColor);opacity:var(--fa-secondary-opacity,.4)" d="M0 165.1l0 2.6c0 112.2 139.9 242.5 212.9 298.2 12.4 9.4 27.6 14.1 43.1 14.1s30.8-4.6 43.1-14.1c73-55.7 212.9-186 212.9-298.2l0-2.6c0-73.5-59.6-133.1-133.1-133.1-30.3 0-59.2 10.3-82.4 28.6l23.1 64.7c1.1 3.2 .2 6.7-2.4 8.8l-90.7 75.6 60.4 98.1c2.1 3.4 1.4 7.8-1.7 10.4s-7.6 2.4-10.5-.3l-112-104c-1.6-1.5-2.5-3.5-2.6-5.7s.8-4.3 2.3-5.8l75.4-75.4-54.8-85.2C167.4 35.4 150.5 32 133.1 32 59.6 32 0 91.6 0 165.1z"/><path style="fill:var(--fa-primary-color,currentColor);opacity:var(--fa-primary-opacity,1)" d="M296.4 60.6C286.9 68.1 278.3 77 271 87.1l-15 20.7-15-20.7C226.1 66.5 205.9 51 183 41.7l54.8 85.2-75.4 75.4c-1.5 1.5-2.4 3.6-2.3 5.8s1 4.2 2.6 5.7l112 104c2.9 2.7 7.4 2.9 10.5 .3s3.8-7 1.7-10.4l-60.4-98.1 90.7-75.6c2.6-2.1 3.5-5.7 2.4-8.8L296.4 60.6z"/></svg>