<svg xmlns="http://www.w3.org/2000/svg" viewBox="0 0 576 512"><path style="fill:var(--fa-secondary-color,currentColor);opacity:var(--fa-secondary-opacity,.4)" d="M0 165.1l0 2.6c0 112.2 139.9 242.5 212.9 298.2 12.4 9.4 27.6 14.1 43.1 14.1 .5 0 .9 0 1.4 0-11.2-24.3-17.4-51.4-17.4-80 0-106 86-192 192-192 24.9 0 48.7 4.7 70.5 13.4 6.1-18.1 9.5-36.1 9.5-53.7l0-2.6C512 91.6 452.4 32 378.9 32 336.2 32 296 52.5 271 87.1l-15 20.7-15-20.7C216 52.5 175.8 32 133.1 32 59.6 32 0 91.6 0 165.1z"/><path style="fill:var(--fa-primary-color,currentColor);opacity:var(--fa-primary-opacity,1)" d="M432 544a144 144 0 1 0 0-288 144 144 0 1 0 0 288zm60.9-182.6l-64 88c-2.8 3.8-7 6.2-11.7 6.5s-9.3-1.3-12.6-4.6l-40-40c-6.2-6.2-6.2-16.4 0-22.6s16.4-6.2 22.6 0l26.8 26.8 53-72.9c5.2-7.1 15.2-8.7 22.4-3.5s8.7 15.2 3.5 22.3z"/></svg>