<svg xmlns="http://www.w3.org/2000/svg" viewBox="0 0 576 512"><path style="fill:var(--fa-secondary-color,currentColor);opacity:var(--fa-secondary-opacity,.4)" d="M0 165.1l0 2.6c0 112.2 139.9 242.5 212.9 298.2 12.4 9.4 27.6 14.1 43.1 14.1 .5 0 .9 0 1.4 0-11.2-24.3-17.4-51.4-17.4-80 0-106 86-192 192-192 24.9 0 48.7 4.7 70.5 13.4 6.1-18.1 9.5-36.1 9.5-53.7l0-2.6C512 91.6 452.4 32 378.9 32 336.2 32 296 52.5 271 87.1l-15 20.7-15-20.7C216 52.5 175.8 32 133.1 32 59.6 32 0 91.6 0 165.1z"/><path style="fill:var(--fa-primary-color,currentColor);opacity:var(--fa-primary-opacity,1)" d="M432 544a144 144 0 1 0 0-288 144 144 0 1 0 0 288zm39-202.4L455.1 384 488 384c6.8 0 12.8 4.3 15.1 10.7s.2 13.5-5.1 17.8l-80 64c-5.6 4.5-13.6 4.7-19.4 .5s-8.1-11.8-5.6-18.6l15.9-42.4-32.9 0c-6.8 0-12.8-4.3-15.1-10.7s-.2-13.5 5.1-17.8l80-64c5.6-4.5 13.6-4.7 19.4-.5s8.1 11.8 5.6 18.6z"/></svg>