<svg xmlns="http://www.w3.org/2000/svg" viewBox="0 0 576 512"><path style="fill:var(--fa-secondary-color,currentColor);opacity:var(--fa-secondary-opacity,.4)" d="M0 165.1l0 2.6c0 112.2 139.9 242.5 212.9 298.2 12.4 9.4 27.6 14.1 43.1 14.1 .5 0 .9 0 1.4 0-11.2-24.3-17.4-51.4-17.4-80 0-106 86-192 192-192 24.9 0 48.7 4.7 70.5 13.4 6.1-18.1 9.5-36.1 9.5-53.7l0-2.6C512 91.6 452.4 32 378.9 32 336.2 32 296 52.5 271 87.1l-15 20.7-15-20.7C216 52.5 175.8 32 133.1 32 59.6 32 0 91.6 0 165.1z"/><path style="fill:var(--fa-primary-color,currentColor);opacity:var(--fa-primary-opacity,1)" d="M288 400a144 144 0 1 1 288 0 144 144 0 1 1 -288 0zm144-80c-8.8 0-16 7.2-16 16l0 48-48 0c-8.8 0-16 7.2-16 16s7.2 16 16 16l48 0 0 48c0 8.8 7.2 16 16 16s16-7.2 16-16l0-48 48 0c8.8 0 16-7.2 16-16s-7.2-16-16-16l-48 0 0-48c0-8.8-7.2-16-16-16z"/></svg>