<svg xmlns="http://www.w3.org/2000/svg" viewBox="0 0 512 512"><path style="fill:var(--fa-secondary-color,currentColor);opacity:var(--fa-secondary-opacity,.4)" d="M256.5 107.8l0 109.2c14.8-20.4 37.1-51.3 66.9-92.4 13-18 33.8-28.6 56-28.6 38.2 0 69.1 30.9 69.1 69.1l0 2.6c0 32.5-22.2 78.2-64.5 129.6-40.1 48.8-89.5 92-123.3 117.8-.1 .1-1.4 .9-4.2 .9l0 64c15.6 0 30.8-4.7 43.1-14.1 73-55.8 212.9-186 212.9-298.2l0-2.6c0-73.5-59.6-133.1-133.1-133.1-42.7 0-82.8 20.5-107.9 55.1l-15 20.7z"/><path style="fill:var(--fa-primary-color,currentColor);opacity:var(--fa-primary-opacity,1)" d="M256.5 107.8l-15-20.7C216.5 52.5 176.3 32 133.6 32 60.1 32 .5 91.6 .5 165.1l0 2.6c0 112.2 139.9 242.5 212.9 298.2 12.4 9.4 27.6 14.1 43.1 14.1l0-372.2z"/></svg>