<svg xmlns="http://www.w3.org/2000/svg" viewBox="0 0 576 512"><path style="fill:var(--fa-secondary-color,currentColor);opacity:var(--fa-secondary-opacity,.4)" d="M.5 148.8c7.3 83 90 151.9 158.4 197.6-10.5-28.4-16.2-59.2-13.4-91.2 7.1-81.3 78.8-141.5 160.2-134.4 28 2.4 54.3 12.8 76.1 29.2 1.7-11.5 2.2-23.1 1.2-34.7-4.8-54.9-53.2-95.6-108.2-90.8-31.9 2.8-60.6 20.7-77 48.2l-9.8 16.5-12.6-14.5c-21-24.2-52.3-36.9-84.2-34.1-54.9 4.8-95.6 53.2-90.8 108.2z"/><path style="fill:var(--fa-primary-color,currentColor);opacity:var(--fa-primary-opacity,1)" d="M378.5 216.8l9.8 16.5 12.6-14.5c21-24.2 52.3-36.9 84.2-34.1 54.9 4.8 95.6 53.2 90.8 108.2-8 91.4-107.6 165.7-178.7 210.8-9.8 6.2-21.5 8.7-33.1 7.7s-22.7-5.5-31.3-13.3c-62.2-56.7-147.4-147.2-139.4-238.6 4.8-54.9 53.2-95.6 108.2-90.8 31.9 2.8 60.6 20.7 77 48.2z"/></svg>