<svg xmlns="http://www.w3.org/2000/svg" viewBox="0 0 448 512"><path style="fill:var(--fa-secondary-color,currentColor);opacity:var(--fa-secondary-opacity,.4)" d="M0 96L0 416c0 35.3 28.7 64 64 64l320 0c35.3 0 64-28.7 64-64l0-320c0-35.3-28.7-64-64-64L64 32C28.7 32 0 60.7 0 96zM66.7 403.1c-4.1-7.9-3.5-17.5 1.6-24.8l56-80c4.5-6.4 11.8-10.2 19.7-10.2s15.2 3.8 19.7 10.2l26.4 37.8 61.4-100.5c4.4-7.1 12.1-11.5 20.5-11.5s16.1 4.4 20.5 11.5l88 144c4.5 7.4 4.7 16.7 .5 24.3S368.7 416 360 416L88 416c-8.9 0-17.2-5-21.3-12.9zM176 160a48 48 0 1 1 -96 0 48 48 0 1 1 96 0z"/><path style="fill:var(--fa-primary-color,currentColor);opacity:var(--fa-primary-opacity,1)" d="M292.5 235.5c-4.4-7.1-12.1-11.5-20.5-11.5s-16.1 4.4-20.5 11.5L190.1 336 163.7 298.2c-4.5-6.4-11.8-10.2-19.7-10.2s-15.2 3.8-19.7 10.2l-56 80c-5.1 7.3-5.8 16.9-1.6 24.8S79.1 416 88 416l272 0c8.7 0 16.7-4.7 20.9-12.3s4.1-16.8-.5-24.3l-88-144z"/></svg>