<svg xmlns="http://www.w3.org/2000/svg" viewBox="0 0 384 512"><path style="fill:var(--fa-secondary-color,currentColor);opacity:var(--fa-secondary-opacity,.4)" d="M0 192C0 243.2 20 289.7 52.7 324.1 76.3 349 96 379.4 96 413.7l0 2.3 192 0 0-2.3C288 379.4 307.7 349 331.3 324.1 364 289.7 384 243.2 384 192 384 86 298 0 192 0S0 86 0 192zm64-8c0-66.3 53.7-120 120-120 13.3 0 24 10.7 24 24s-10.7 24-24 24c-39.8 0-72 32.2-72 72 0 13.3-10.7 24-24 24s-24-10.7-24-24z"/><path style="fill:var(--fa-primary-color,currentColor);opacity:var(--fa-primary-opacity,1)" d="M96 416l192 0 0 32c0 44.2-35.8 80-80 80l-32 0c-44.2 0-80-35.8-80-80l0-32z"/></svg>