<svg xmlns="http://www.w3.org/2000/svg" viewBox="0 0 576 512"><path style="fill:var(--fa-secondary-color,currentColor);opacity:var(--fa-secondary-opacity,.4)" d="M192 259.5c0 43.9 18.1 83.6 47.2 112 15.7 15.3 34.5 27.3 55.5 35 16.8 6.1 34.9 9.5 53.7 9.5 41.5 0 81.3-16.5 110.6-45.8l71.1-71.1C559.5 269.7 576 229.9 576 188.5 576 102 506 32 419.5 32 378.1 32 338.3 48.5 308.9 77.8l-27.7 27.7c20.9 7.7 39.8 19.8 55.4 35.1l17.5-17.5c17.3-17.3 40.9-27.1 65.4-27.1 51.1 0 92.5 41.4 92.5 92.5 0 24.5-9.7 48-27.1 65.4l-71.1 71.1c-17.3 17.3-40.9 27.1-65.5 27.1-24.8 0-47.3-9.8-63.9-25.7-17.5-16.8-28.5-40.5-28.5-66.7 0-24.5 9.7-48 27.1-65.4l8.3-8.3c-16.6-15.9-39-25.8-63.9-25.8-22.8 27.9-35.5 63.1-35.5 99.5z"/><path style="fill:var(--fa-primary-color,currentColor);opacity:var(--fa-primary-opacity,1)" d="M162.2 187.1c17.3-17.3 40.9-27.1 65.4-27.1 50.9 0 92.5 41.7 92.5 92.9 0 24.2-9.6 47.5-26.6 64.5l-8.9 8.9c16.6 15.9 39.1 25.7 63.8 25.7 23-27.7 35.7-62.9 35.7-99.1 0-86.3-69.9-156.9-156.5-156.9-41.5 0-81.3 16.5-110.6 45.8L45.8 212.9C16.5 242.3 0 282.1 0 323.5 0 410 70 480 156.5 480 197.9 480 237.7 463.5 267.1 434.2l27.6-27.6c-21-7.7-39.8-19.7-55.5-35l-17.4 17.4c-17.3 17.3-40.9 27.1-65.4 27.1-51.1 0-92.5-41.4-92.5-92.5 0-24.5 9.7-48 27.1-65.4l71.1-71.1z"/></svg>