<svg xmlns="http://www.w3.org/2000/svg" viewBox="0 0 512 512"><path style="fill:var(--fa-secondary-color,currentColor);opacity:var(--fa-secondary-opacity,.4)" d="M180.7 68.7c-6.2 6.2-6.2 16.4 0 22.6L224 134.6c6 6 14.1 9.4 22.6 9.4L416 144c17.7 0 32-14.3 32-32l0-64c0-17.7-14.3-32-32-32L246.6 16c-8.5 0-16.6 3.4-22.6 9.4L180.7 68.7zm0 176c-6.2 6.2-6.2 16.4 0 22.6L224 310.6c6 6 14.1 9.4 22.6 9.4L480 320c17.7 0 32-14.3 32-32l0-64c0-17.7-14.3-32-32-32l-233.4 0c-8.5 0-16.6 3.4-22.6 9.4l-43.3 43.3zm0 176c-6.2 6.2-6.2 16.4 0 22.6L224 486.6c6 6 14.1 9.4 22.6 9.4L416 496c17.7 0 32-14.3 32-32l0-64c0-17.7-14.3-32-32-32l-169.4 0c-8.5 0-16.6 3.4-22.6 9.4l-43.3 43.3z"/><path style="fill:var(--fa-primary-color,currentColor);opacity:var(--fa-primary-opacity,1)" d="M80 128a48 48 0 1 0 0-96 48 48 0 1 0 0 96zm48 128a48 48 0 1 0 -96 0 48 48 0 1 0 96 0zm0 176a48 48 0 1 0 -96 0 48 48 0 1 0 96 0z"/></svg>