<svg xmlns="http://www.w3.org/2000/svg" viewBox="0 0 448 512"><path style="fill:var(--fa-secondary-color,currentColor);opacity:var(--fa-secondary-opacity,.4)" d="M0 192L0 416c0 35.3 28.7 64 64 64l320 0c35.3 0 64-28.7 64-64l0-224-448 0zm96 88c0-13.3 10.7-24 24-24l208 0c13.3 0 24 10.7 24 24s-10.7 24-24 24l-208 0c-13.3 0-24-10.7-24-24zm0 112c0-13.3 10.7-24 24-24l208 0c13.3 0 24 10.7 24 24s-10.7 24-24 24l-208 0c-13.3 0-24-10.7-24-24z"/><path style="fill:var(--fa-primary-color,currentColor);opacity:var(--fa-primary-opacity,1)" d="M64 32C28.7 32 0 60.7 0 96l0 96 448 0 0-96c0-35.3-28.7-64-64-64L64 32zM304 80l64 0c6.5 0 12.3 3.9 14.8 9.9s1.1 12.9-3.5 17.4l-32 32c-6.2 6.2-16.4 6.2-22.6 0l-32-32c-4.6-4.6-5.9-11.5-3.5-17.4S297.5 80 304 80z"/></svg>