<svg xmlns="http://www.w3.org/2000/svg" viewBox="0 0 576 512"><path style="fill:var(--fa-secondary-color,currentColor);opacity:var(--fa-secondary-opacity,.4)" d="M32 96c0-17.7 14.3-32 32-32l240 0c17.7 0 32 14.3 32 32s-14.3 32-32 32L64 128c-17.7 0-32-14.3-32-32zm0 160c0-17.7 14.3-32 32-32l128 0c17.7 0 32 14.3 32 32s-14.3 32-32 32L64 288c-17.7 0-32-14.3-32-32zm0 160c0-17.7 14.3-32 32-32l80 0c17.7 0 32 14.3 32 32s-14.3 32-32 32l-80 0c-17.7 0-32-14.3-32-32z"/><path style="fill:var(--fa-primary-color,currentColor);opacity:var(--fa-primary-opacity,1)" d="M563.7 6.8C571.5 12.8 576 22.1 576 32l0 96c0 14.7-10 27.5-24.2 31L448 185 448 400c0 53-50.1 96-112 96s-112-43-112-96 50.1-96 112-96c17.2 0 33.5 3.3 48 9.2L384 64c0-14.7 10-27.5 24.2-31l128-32c9.6-2.4 19.7-.2 27.5 5.8z"/></svg>