<svg xmlns="http://www.w3.org/2000/svg" viewBox="0 0 512 512"><path style="fill:var(--fa-secondary-color,currentColor);opacity:var(--fa-secondary-opacity,.4)" d="M192 96c0-17.7 14.3-32 32-32l256 0c17.7 0 32 14.3 32 32s-14.3 32-32 32l-256 0c-17.7 0-32-14.3-32-32zm0 160c0-17.7 14.3-32 32-32l256 0c17.7 0 32 14.3 32 32s-14.3 32-32 32l-256 0c-17.7 0-32-14.3-32-32zm0 160c0-17.7 14.3-32 32-32l256 0c17.7 0 32 14.3 32 32s-14.3 32-32 32l-256 0c-17.7 0-32-14.3-32-32z"/><path style="fill:var(--fa-primary-color,currentColor);opacity:var(--fa-primary-opacity,1)" d="M64 160a64 64 0 1 0 0-128 64 64 0 1 0 0 128zm0 72a24 24 0 1 1 0 48 24 24 0 1 1 0-48zm0 88a64 64 0 1 0 0-128 64 64 0 1 0 0 128zm0 72a24 24 0 1 1 0 48 24 24 0 1 1 0-48zm0 88a64 64 0 1 0 0-128 64 64 0 1 0 0 128z"/></svg>