<svg xmlns="http://www.w3.org/2000/svg" viewBox="0 0 512 512"><path style="fill:var(--fa-secondary-color,currentColor);opacity:var(--fa-secondary-opacity,.4)" d="M160 416c0-17.7 14.3-32 32-32l288 0c17.7 0 32 14.3 32 32s-14.3 32-32 32l-288 0c-17.7 0-32-14.3-32-32zM224 96c0-17.7 14.3-32 32-32l224 0c17.7 0 32 14.3 32 32s-14.3 32-32 32l-224 0c-17.7 0-32-14.3-32-32zm0 160c0-17.7 14.3-32 32-32l224 0c17.7 0 32 14.3 32 32s-14.3 32-32 32l-224 0c-17.7 0-32-14.3-32-32z"/><path style="fill:var(--fa-primary-color,currentColor);opacity:var(--fa-primary-opacity,1)" d="M139.7 69.8c7.6-10.9 5-25.8-5.9-33.4s-25.8-5-33.4 5.9L60.7 98.8 41 79C31.6 69.7 16.4 69.7 7 79S-2.3 103.6 7 113l40 40c5 5 12 7.6 19.1 6.9s13.5-4.3 17.6-10.1l56-80zm0 160c7.6-10.9 5-25.8-5.9-33.4s-25.8-5-33.4 5.9L60.7 258.8 41 239c-9.4-9.4-24.6-9.4-33.9 0S-2.3 263.6 7 273l40 40c5 5 12 7.6 19.1 6.9s13.5-4.3 17.6-10.1l56-80zM64 456a40 40 0 1 0 0-80 40 40 0 1 0 0 80z"/></svg>