<svg xmlns="http://www.w3.org/2000/svg" viewBox="0 0 512 512"><path style="fill:var(--fa-secondary-color,currentColor);opacity:var(--fa-secondary-opacity,.4)" d="M192 96c0-17.7 14.3-32 32-32l256 0c17.7 0 32 14.3 32 32s-14.3 32-32 32l-256 0c-17.7 0-32-14.3-32-32zm0 160c0-17.7 14.3-32 32-32l256 0c17.7 0 32 14.3 32 32s-14.3 32-32 32l-256 0c-17.7 0-32-14.3-32-32zm0 160c0-17.7 14.3-32 32-32l256 0c17.7 0 32 14.3 32 32s-14.3 32-32 32l-256 0c-17.7 0-32-14.3-32-32z"/><path style="fill:var(--fa-primary-color,currentColor);opacity:var(--fa-primary-opacity,1)" d="M24 48C10.7 48 0 58.8 0 72S10.7 96 24 96l24 0 0 80-24 0c-13.3 0-24 10.7-24 24s10.7 24 24 24l96 0c13.3 0 24-10.7 24-24s-10.7-24-24-24l-24 0 0-104c0-13.3-10.7-24-24-24L24 48zM70 288c-14.3 0-28.2 4.6-39.6 13.2L9.6 316.8c-10.6 8-12.8 23-4.8 33.6s23 12.8 33.6 4.8l20.8-15.6c3.1-2.3 6.9-3.6 10.8-3.6l4.9 0c7.2 0 13.1 5.9 13.1 13.1 0 4.2-2 8.1-5.4 10.6L12.1 411C4.5 416.5 0 425.3 0 434.7 0 450.9 13.1 464 29.3 464l90.7 0c13.3 0 24-10.7 24-24s-10.7-24-24-24l-33.2 0 24-17.5c15.8-11.5 25.2-29.9 25.2-49.4 0-33.7-27.4-61.1-61.1-61.1L70 288z"/></svg>