<svg xmlns="http://www.w3.org/2000/svg" viewBox="0 0 576 512"><path style="fill:var(--fa-secondary-color,currentColor);opacity:var(--fa-secondary-opacity,.4)" d="M32 480c0-17.7 14.3-32 32-32l384 0c17.7 0 32 14.3 32 32s-14.3 32-32 32L64 512c-17.7 0-32-14.3-32-32z"/><path style="fill:var(--fa-primary-color,currentColor);opacity:var(--fa-primary-opacity,1)" d="M96 32C78.3 32 64 46.3 64 64l0 224c0 53 43 96 96 96l192 0c53 0 96-43 96-96 70.7 0 128-57.3 128-128S518.7 32 448 32L96 32zM448 96c35.3 0 64 28.7 64 64s-28.7 64-64 64l0-128z"/></svg>