<svg xmlns="http://www.w3.org/2000/svg" viewBox="0 0 576 512"><path style="fill:var(--fa-secondary-color,currentColor);opacity:var(--fa-secondary-opacity,.4)" d="M0 256c0 17.7 14.3 32 32 32l96 0 0 32 64 0 0-32 192 0 0 32 64 0 0-32 96 0c17.7 0 32-14.3 32-32s-14.3-32-32-32l-224 0 0-32-64 0 0 32-224 0c-17.7 0-32 14.3-32 32z"/><path style="fill:var(--fa-primary-color,currentColor);opacity:var(--fa-primary-opacity,1)" d="M248 88l80 0 0 48-80 0 0-48zm-8-56c-26.5 0-48 21.5-48 48l0 64c0 26.5 21.5 48 48 48l96 0c26.5 0 48-21.5 48-48l0-64c0-26.5-21.5-48-48-48l-96 0zM120 376l80 0 0 48-80 0 0-48zm-8-56c-26.5 0-48 21.5-48 48l0 64c0 26.5 21.5 48 48 48l96 0c26.5 0 48-21.5 48-48l0-64c0-26.5-21.5-48-48-48l-96 0zM376 424l0-48 80 0 0 48-80 0zm-56-56l0 64c0 26.5 21.5 48 48 48l96 0c26.5 0 48-21.5 48-48l0-64c0-26.5-21.5-48-48-48l-96 0c-26.5 0-48 21.5-48 48z"/></svg>