<svg xmlns="http://www.w3.org/2000/svg" viewBox="0 0 448 512"><path style="fill:var(--fa-secondary-color,currentColor);opacity:var(--fa-secondary-opacity,.4)" d="M0 280c0 80.7 51.7 134 120 159.8 15.3 5.8 31.4 10.2 48 13.3l0-7.2-44.1-51.5-.5-.5-.4-.6-7.3-10.2c-23.2-32.5-35.7-71.4-35.7-111.3 0-17.2 2.3-34.3 6.9-50.9l29.2-105.7C107 123.6 97.5 131.8 88 140 44 178 0 216 0 280zm112-8.2c0 33.2 10.4 65.7 29.7 92.7l6.9 9.7 45.9 53.6c3.5 4.1 5.5 9.3 5.5 14.8l0 14.8c15.9 1.2 32.1 1.2 48 0l0-14.8c0-5.4 1.9-10.6 5.5-14.8l45.9-53.6 6.9-9.7c19.3-27 29.7-59.5 29.7-92.7 0-14.3-1.9-28.6-5.7-42.4L274.6 27.5C269 12.2 255.9 0 239.7 0L208.3 0C192.1 0 179 12.2 173.4 27.5L117.7 229.3c-3.8 13.8-5.7 28.1-5.7 42.4zM280 445.9l0 7.2c16.6-3 32.7-7.5 48-13.3 68.3-25.9 120-79.1 120-159.8 0-64-44-102-88-140-9.5-8.2-19-16.4-28.1-24.9l29.2 105.7c4.6 16.6 6.9 33.7 6.9 50.9 0 39.9-12.5 78.8-35.7 111.3l-7.3 10.2-.4 .6-.5 .5-44.1 51.5z"/><path style="fill:var(--fa-primary-color,currentColor);opacity:var(--fa-primary-opacity,1)" d="M120 439.8l0 48.2c0 13.3 10.7 24 24 24s24-10.7 24-24l0-34.9c-16.6-3-32.7-7.5-48-13.3zm80 17.4l0 30.8c0 13.3 10.7 24 24 24s24-10.7 24-24l0-30.8c-15.9 1.2-32.1 1.2-48 0zm80-4.1l0 34.9c0 13.3 10.7 24 24 24s24-10.7 24-24l0-48.2c-15.3 5.8-31.4 10.2-48 13.3z"/></svg>