<svg xmlns="http://www.w3.org/2000/svg" viewBox="0 0 512 512"><path style="fill:var(--fa-secondary-color,currentColor);opacity:var(--fa-secondary-opacity,.4)" d="M0 256c0 141.4 114.6 256 256 256 3.5 0 7.1-.1 10.6-.2 31.8-1.3 53.4-30.1 53.4-62 0-14.5-6.1-28.3-12.1-42-4.3-9.8-8.7-19.7-10.8-29.9-.7-3.2-1-6.5-1-9.9 0-26.5 21.5-48 48-48l97.9 0c36.5 0 69.7-24.8 70.1-61.3 0-.9 0-1.8 0-2.7 0-141.4-114.6-256-256-256S0 114.6 0 256zm128 32a32 32 0 1 1 -64 0 32 32 0 1 1 64 0zm32-128a32 32 0 1 1 -64 0 32 32 0 1 1 64 0zM288 96a32 32 0 1 1 -64 0 32 32 0 1 1 64 0zm128 64a32 32 0 1 1 -64 0 32 32 0 1 1 64 0z"/><path style="fill:var(--fa-primary-color,currentColor);opacity:var(--fa-primary-opacity,1)" d="M224 96a32 32 0 1 1 64 0 32 32 0 1 1 -64 0zm-96 32a32 32 0 1 1 0 64 32 32 0 1 1 0-64zM96 256a32 32 0 1 1 0 64 32 32 0 1 1 0-64zM384 128a32 32 0 1 1 0 64 32 32 0 1 1 0-64z"/></svg>