<svg xmlns="http://www.w3.org/2000/svg" viewBox="0 0 448 512"><path style="fill:var(--fa-secondary-color,currentColor);opacity:var(--fa-secondary-opacity,.4)" d="M0 352l0 64c0 35.3 28.7 64 64 64l320 0c35.3 0 64-28.7 64-64l0-64c0-35.3-28.7-64-64-64L64 288c-35.3 0-64 28.7-64 64zm304 32a24 24 0 1 1 -48 0 24 24 0 1 1 48 0zm32-256a24 24 0 1 0 48 0 24 24 0 1 0 -48 0zm48 256a24 24 0 1 1 -48 0 24 24 0 1 1 48 0z"/><path style="fill:var(--fa-primary-color,currentColor);opacity:var(--fa-primary-opacity,1)" d="M64 32C28.7 32 0 60.7 0 96l0 64c0 35.3 28.7 64 64 64l320 0c35.3 0 64-28.7 64-64l0-64c0-35.3-28.7-64-64-64L64 32zm216 72a24 24 0 1 1 0 48 24 24 0 1 1 0-48zm56 24a24 24 0 1 1 48 0 24 24 0 1 1 -48 0zm24 280a24 24 0 1 0 0-48 24 24 0 1 0 0 48z"/></svg>