<svg xmlns="http://www.w3.org/2000/svg" viewBox="0 0 512 512"><path style="fill:var(--fa-secondary-color,currentColor);opacity:var(--fa-secondary-opacity,.4)" d="M0 240c0 75.8 37.5 143.4 96 187.4L96 464c0 26.5 21.5 48 48 48l32 0 0-40c0-13.3 10.7-24 24-24s24 10.7 24 24l0 40 64 0 0-40c0-13.3 10.7-24 24-24s24 10.7 24 24l0 40 32 0c26.5 0 48-21.5 48-48l0-36.6c58.5-44 96-111.6 96-187.4 0-132.5-114.6-240-256-240S0 107.5 0 240zm224 16a64 64 0 1 1 -128 0 64 64 0 1 1 128 0zm192 0a64 64 0 1 1 -128 0 64 64 0 1 1 128 0z"/><path style="fill:var(--fa-primary-color,currentColor);opacity:var(--fa-primary-opacity,1)" d="M160 320a64 64 0 1 0 0-128 64 64 0 1 0 0 128zm192 0a64 64 0 1 0 0-128 64 64 0 1 0 0 128z"/></svg>