<svg xmlns="http://www.w3.org/2000/svg" viewBox="0 0 448 512"><path style="fill:var(--fa-secondary-color,currentColor);opacity:var(--fa-secondary-opacity,.4)" d="M0 96L0 416c0 35.3 28.7 64 64 64l320 0c35.3 0 64-28.7 64-64l0-320c0-35.3-28.7-64-64-64L64 32C28.7 32 0 60.7 0 96zm133.4 87.2c-8.4-10.3-6.9-25.4 3.4-33.8s25.4-6.9 33.8 3.4l53.4 65.3 53.4-65.3c8.4-10.3 23.5-11.8 33.8-3.4s11.8 23.5 3.4 33.8L255 256 314.6 328.8c8.4 10.3 6.9 25.4-3.4 33.8s-25.4 6.9-33.8-3.4l-53.4-65.3-53.4 65.3c-8.4 10.3-23.5 11.8-33.8 3.4s-11.8-23.5-3.4-33.8L193 256 133.4 183.2z"/><path style="fill:var(--fa-primary-color,currentColor);opacity:var(--fa-primary-opacity,1)" d="M136.8 149.4c10.3-8.4 25.4-6.9 33.8 3.4l53.4 65.3 53.4-65.3c8.4-10.3 23.5-11.8 33.8-3.4s11.8 23.5 3.4 33.8L255 256 314.6 328.8c8.4 10.3 6.9 25.4-3.4 33.8s-25.4 6.9-33.8-3.4l-53.4-65.3-53.4 65.3c-8.4 10.3-23.5 11.8-33.8 3.4s-11.8-23.5-3.4-33.8L193 256 133.4 183.2c-8.4-10.3-6.9-25.4 3.4-33.8z"/></svg>