<svg xmlns="http://www.w3.org/2000/svg" viewBox="0 0 448 512"><path style="fill:var(--fa-secondary-color,currentColor);opacity:var(--fa-secondary-opacity,.4)" d="M0 96L0 416c0 35.3 28.7 64 64 64l320 0c35.3 0 64-28.7 64-64l0-320c0-35.3-28.7-64-64-64L64 32C28.7 32 0 60.7 0 96zm128 48a32 32 0 1 1 -64 0 32 32 0 1 1 64 0zm0 112a32 32 0 1 1 -64 0 32 32 0 1 1 64 0zm0 112a32 32 0 1 1 -64 0 32 32 0 1 1 64 0zm40-224c0-13.3 10.7-24 24-24l160 0c13.3 0 24 10.7 24 24s-10.7 24-24 24l-160 0c-13.3 0-24-10.7-24-24zm0 112c0-13.3 10.7-24 24-24l160 0c13.3 0 24 10.7 24 24s-10.7 24-24 24l-160 0c-13.3 0-24-10.7-24-24zm0 112c0-13.3 10.7-24 24-24l160 0c13.3 0 24 10.7 24 24s-10.7 24-24 24l-160 0c-13.3 0-24-10.7-24-24z"/><path style="fill:var(--fa-primary-color,currentColor);opacity:var(--fa-primary-opacity,1)" d="M168 144c0-13.3 10.7-24 24-24l160 0c13.3 0 24 10.7 24 24s-10.7 24-24 24l-160 0c-13.3 0-24-10.7-24-24zm0 224c0-13.3 10.7-24 24-24l160 0c13.3 0 24 10.7 24 24s-10.7 24-24 24l-160 0c-13.3 0-24-10.7-24-24zm24-136l160 0c13.3 0 24 10.7 24 24s-10.7 24-24 24l-160 0c-13.3 0-24-10.7-24-24s10.7-24 24-24z"/></svg>