<svg xmlns="http://www.w3.org/2000/svg" viewBox="0 0 576 512"><path style="fill:var(--fa-secondary-color,currentColor);opacity:var(--fa-secondary-opacity,.4)" d="M160 348.8c10.3 2.1 21 3.2 32 3.2s21.7-1.1 32-3.2l0 19.2c0 61.9 50.1 112 112 112s112-50.1 112-112l0-85.5c10 3.5 20.8 5.5 32 5.5s22-1.9 32-5.5l0 85.5c0 97.2-78.8 176-176 176S160 465.2 160 368l0-19.2z"/><path style="fill:var(--fa-primary-color,currentColor);opacity:var(--fa-primary-opacity,1)" d="M80 0C53.5 0 32 21.5 32 48l0 144c0 88.4 71.6 160 160 160s160-71.6 160-160l0-144c0-26.5-21.5-48-48-48L256 0c-17.7 0-32 14.3-32 32s14.3 32 32 32l32 0 0 128c0 53-43 96-96 96s-96-43-96-96l0-128 32 0c17.7 0 32-14.3 32-32S145.7 0 128 0L80 0zM448 192a32 32 0 1 1 64 0 32 32 0 1 1 -64 0zm128 0a96 96 0 1 0 -192 0 96 96 0 1 0 192 0z"/></svg>