<svg xmlns="http://www.w3.org/2000/svg" viewBox="0 0 576 512"><path style="fill:var(--fa-secondary-color,currentColor);opacity:var(--fa-secondary-opacity,.4)" d="M32.1 96c0-35.3 28.7-64 64-64l133.5 0c17 0 33.3 6.7 45.3 18.7l144 144c25 25 25 65.5 0 90.5L285.4 418.7c-25 25-65.5 25-90.5 0l-144-144c-12-12-18.7-28.3-18.7-45.3L32.1 96zm80 48a32 32 0 1 0 64 0 32 32 0 1 0 -64 0z"/><path style="fill:var(--fa-primary-color,currentColor);opacity:var(--fa-primary-opacity,1)" d="M367.2 38.9c9.4-9.3 24.6-9.2 33.9 .2L549.4 189.4c27.7 28.1 27.7 73.1 0 101.2L393 448.9c-9.3 9.4-24.5 9.5-33.9 .2s-9.5-24.5-.2-33.9L515.3 256.8c9.2-9.3 9.2-24.4 0-33.7L367 72.9c-9.3-9.4-9.2-24.6 .2-33.9z"/></svg>