<svg xmlns="http://www.w3.org/2000/svg" viewBox="0 0 512 512"><path style="fill:var(--fa-secondary-color,currentColor);opacity:var(--fa-secondary-opacity,.4)" d="M192 416c0-17.7 14.3-32 32-32l256 0c17.7 0 32 14.3 32 32s-14.3 32-32 32l-256 0c-17.7 0-32-14.3-32-32z"/><path style="fill:var(--fa-primary-color,currentColor);opacity:var(--fa-primary-opacity,1)" d="M9.4 73.4c-12.5 12.5-12.5 32.8 0 45.3L146.7 256 9.4 393.4c-12.5 12.5-12.5 32.8 0 45.3s32.8 12.5 45.3 0l160-160c12.5-12.5 12.5-32.8 0-45.3l-160-160c-12.5-12.5-32.8-12.5-45.3 0z"/></svg>