<svg xmlns="http://www.w3.org/2000/svg" viewBox="0 0 512 512"><path style="fill:var(--fa-secondary-color,currentColor);opacity:var(--fa-secondary-opacity,.4)" d="M160 126.8l0 186.6c0 14.9 3.5 29.6 10.1 42.9l56.2 112.4c8.4 16.8 25.5 27.3 44.2 27.3 27.3 0 49.4-22.1 49.4-49.4l0-4.2c0-6.8-1.3-13.6-3.8-19.9L288 352 448 352c26.5 0 48-21.5 48-48 0-19.7-11.9-36.6-28.9-44 17-7.4 28.9-24.3 28.9-44 0-23.4-16.8-42.9-39-47.1 4.4-7.3 7-15.8 7-24.9 0-22.2-15-40.8-35.4-46.3 2.2-5.5 3.4-11.5 3.4-17.7 0-26.5-21.5-48-48-48l-87.9 0c-36.3 0-71.6 12.4-99.9 35.1L184 76.8c-15.2 12.1-24 30.5-24 50z"/><path style="fill:var(--fa-primary-color,currentColor);opacity:var(--fa-primary-opacity,1)" d="M0 384c0 17.7 14.3 32 32 32l48 0c17.7 0 32-14.3 32-32l0-256c0-17.7-14.3-32-32-32L32 96C14.3 96 0 110.3 0 128L0 384z"/></svg>