<svg xmlns="http://www.w3.org/2000/svg" viewBox="0 0 448 512"><path style="fill:var(--fa-secondary-color,currentColor);opacity:var(--fa-secondary-opacity,.4)" d="M32 96l384 0-21.4 370.8c-1.5 25.4-22.5 45.2-47.9 45.2l-245.4 0c-25.4 0-46.5-19.8-47.9-45.2L32 96z"/><path style="fill:var(--fa-primary-color,currentColor);opacity:var(--fa-primary-opacity,1)" d="M167.1-16c-13.8 0-26 8.8-30.4 21.9L128 32 32 32C14.3 32 0 46.3 0 64S14.3 96 32 96l384 0c17.7 0 32-14.3 32-32s-14.3-32-32-32l-96 0-8.7-26.1C306.9-7.2 294.7-16 280.9-16L167.1-16z"/></svg>