<svg xmlns="http://www.w3.org/2000/svg" viewBox="0 0 512 512"><path style="fill:var(--fa-secondary-color,currentColor);opacity:var(--fa-secondary-opacity,.4)" d="M4.8 421c-6.7 12.4-6.4 27.4 .8 39.5S25.9 480 40 480l432 0c14.1 0 27.1-7.4 34.4-19.5s7.5-27.1 .8-39.5L291.2 21C284.2 8.1 270.7 0 256 0s-28.2 8.1-35.2 21L4.8 421zm277.9-37a26.7 26.7 0 1 1 -53.3 0 26.7 26.7 0 1 1 53.3 0zM232 192c0-13.3 10.7-24 24-24s24 10.7 24 24l0 112c0 13.3-10.7 24-24 24s-24-10.7-24-24l0-112z"/><path style="fill:var(--fa-primary-color,currentColor);opacity:var(--fa-primary-opacity,1)" d="M280 192c0-13.3-10.7-24-24-24s-24 10.7-24 24l0 112c0 13.3 10.7 24 24 24s24-10.7 24-24l0-112zM256 410.7a26.7 26.7 0 1 0 0-53.3 26.7 26.7 0 1 0 0 53.3z"/></svg>