<svg xmlns="http://www.w3.org/2000/svg" viewBox="0 0 512 512"><!--! Font Awesome Pro 7.0.0 by @fontawesome - https://fontawesome.com License - https://fontawesome.com/license (Commercial License) Copyright 2025 Fonticons, Inc. --><path fill="currentColor" d="M112 32C50.1 32 0 82.1 0 144L0 368c0 61.9 50.1 112 112 112s112-50.1 112-112l0-224c0-61.9-50.1-112-112-112zM64 144c0-26.5 21.5-48 48-48s48 21.5 48 48l0 224c0 26.5-21.5 48-48 48s-48-21.5-48-48l0-224zM400 32c-61.9 0-112 50.1-112 112l0 224c0 61.9 50.1 112 112 112s112-50.1 112-112l0-224c0-61.9-50.1-112-112-112zM352 144c0-26.5 21.5-48 48-48s48 21.5 48 48l0 224c0 26.5-21.5 48-48 48s-48-21.5-48-48l0-224z"/></svg>