<svg xmlns="http://www.w3.org/2000/svg" viewBox="0 0 640 512"><!--! Font Awesome Pro 7.0.0 by @fontawesome - https://fontawesome.com License - https://fontawesome.com/license (Commercial License) Copyright 2025 Fonticons, Inc. --><path fill="currentColor" d="M224 32l192 0 0 80-192 0 0-80zm-32 80l-96 0 0-16c0-35.3 28.7-64 64-64l32 0 0 80zM96 144l208 0 0 96-208 0 0-96zm0 224l0-96 96 0 0 96-96 0zm0 32l176.7 0c-.5 4.7-.7 9.4-.7 14.1 0 22.9 3.7 45.1 10.6 65.9L160 480c-35.3 0-64-28.7-64-64l0-16zM544 144l0 60.2c-12 .3-23.8 3.9-34.1 11-7.9-7.9-15.9-15.6-24.2-23.1-23.8-21.4-60-21.5-83.9-.2-17 15.2-32.9 31.4-47.2 48.1l-18.6 0 0-96 208 0zM224 272l105.2 0c-6.4 8.8-12.3 17.6-17.7 26.3-13.2 21.3-25.1 45.2-32.3 69.7l-55.2 0 0-96zM544 112l-96 0 0-80 32 0c35.3 0 64 28.7 64 64l0 16zM505.7 272.3L518 258.5c5.4-6.1 13.3-8.8 20.9-8.9 7.2 0 14.3 2.6 19.9 7.8 19.7 18.3 39.8 43.2 55 70.6 15.1 27.2 26.2 58.1 26.2 88.1 0 88.7-71.3 159.8-160 159.8-89.6 0-160-71.3-160-159.8 0-37.3 16-73.4 36.8-104.5 20.9-31.3 47.5-59 70.9-80.2 5.7-5.2 13.1-7.7 20.3-7.5s13.4 3.2 18.8 7.5c14.4 11.4 38.9 40.7 38.9 40.7zM544 464.2c0-36.5-37-73-54.8-88.4-5.4-4.7-13.1-4.7-18.5 0-17.7 15.4-54.8 51.9-54.8 88.4 0 35.3 28.7 64 64 64s64-28.7 64-64z"/></svg>