<svg xmlns="http://www.w3.org/2000/svg" viewBox="0 0 576 512"><!--! Font Awesome Pro 7.0.0 by @fontawesome - https://fontawesome.com License - https://fontawesome.com/license (Commercial License) Copyright 2025 Fonticons, Inc. --><path fill="currentColor" d="M401.9 128l-34.3-48-222.1 0-34.3 48 290.7 0zM32.5 148.5c0-13.3 4.2-26.3 11.9-37.2L93.4 42.8C105.4 26 124.8 16 145.4 16l222.1 0c20.7 0 40.1 10 52.1 26.8l48.9 68.5c7.8 10.9 11.9 23.9 11.9 37.2l0 65.4c-24.8-13.9-53.5-21.9-84-21.9-95 0-172 77-172 172 0 44.7 17.1 85.4 45 116l-173 0c-35.3 0-64-28.7-64-64l0-267.5zM396.5 432a68 68 0 1 0 0-136 68 68 0 1 0 0 136zm0 56c-68.5 0-124-55.5-124-124s55.5-124 124-124 124 55.5 124 124c0 24.1-6.9 46.7-18.8 65.7l54.6 54.6c10.9 10.9 10.9 28.7 0 39.6s-28.7 10.9-39.6 0L462 469.3c-19 11.9-41.5 18.7-65.5 18.7z"/></svg>