<svg xmlns="http://www.w3.org/2000/svg" viewBox="0 0 448 512"><!--! Font Awesome Pro 7.0.0 by @fontawesome - https://fontawesome.com License - https://fontawesome.com/license (Commercial License) Copyright 2025 Fonticons, Inc. --><path fill="currentColor" d="M335.1 80l34.3 48-290.7 0 34.3-48 222.1 0zM11.9 111.3C4.2 122.2 0 135.2 0 148.5L0 416c0 35.3 28.7 64 64 64l320 0c35.3 0 64-28.7 64-64l0-267.5c0-13.3-4.2-26.3-11.9-37.2L387.1 42.8C375.1 26 355.7 16 335.1 16L112.9 16C92.3 16 72.9 26 60.9 42.8L11.9 111.3zM241 207l72 72c9.4 9.4 9.4 24.6 0 33.9s-24.6 9.4-33.9 0l-31-31 0 102.1c0 13.3-10.7 24-24 24s-24-10.7-24-24l0-102.1-31 31c-9.4 9.4-24.6 9.4-33.9 0s-9.4-24.6 0-33.9l72-72c9.4-9.4 24.6-9.4 33.9 0z"/></svg>