<svg xmlns="http://www.w3.org/2000/svg" viewBox="0 0 448 512"><!--! Font Awesome Pro 7.0.0 by @fontawesome - https://fontawesome.com License - https://fontawesome.com/license (Commercial License) Copyright 2025 Fonticons, Inc. --><path fill="currentColor" d="M369.4 128l-34.3-48-87.1 0 0 48 121.4 0zM200 128l0-48-87.1 0-34.3 48 121.4 0zM0 148.5c0-13.3 4.2-26.3 11.9-37.2L60.9 42.8C72.9 26 92.3 16 112.9 16l222.1 0c20.7 0 40.1 10 52.1 26.8l48.9 68.5c7.8 10.9 11.9 23.9 11.9 37.2L448 416c0 35.3-28.7 64-64 64L64 480c-35.3 0-64-28.7-64-64L0 148.5zM228 192c-11 0-20 9-20 20l0 4c-28.8 .3-52 23.7-52 52.5 0 25.7 18.5 47.6 43.9 51.8l41.7 7c6 1 10.4 6.2 10.4 12.3 0 6.9-5.6 12.5-12.5 12.5L184 352c-11 0-20 9-20 20s9 20 20 20l24 0 0 4c0 11 9 20 20 20s20-9 20-20l0-4.7c25-4.1 44-25.7 44-51.8 0-25.7-18.5-47.6-43.9-51.8l-41.7-7c-6-1-10.4-6.2-10.4-12.3 0-6.9 5.6-12.5 12.5-12.5l47.5 0c11 0 20-9 20-20s-9-20-20-20l-8 0 0-4c0-11-9-20-20-20z"/></svg>