<svg xmlns="http://www.w3.org/2000/svg" viewBox="0 0 576 512"><!--! Font Awesome Pro 7.0.0 by @fontawesome - https://fontawesome.com License - https://fontawesome.com/license (Commercial License) Copyright 2025 Fonticons, Inc. --><path fill="currentColor" d="M401.4 128l-34.3-48-222.1 0-34.3 48 290.7 0zM32 148.5c0-13.3 4.2-26.3 11.9-37.2L92.9 42.8C104.9 26 124.3 16 144.9 16l222.1 0c20.7 0 40.1 10 52.1 26.8l48.9 68.5c7.8 10.9 11.9 23.9 11.9 37.2l0 65.5c-15.3-3.9-31.4-6-48-6-106 0-192 86-192 192 0 28.6 6.2 55.6 17.4 80L96 480c-35.3 0-64-28.7-64-64l0-267.5zM288 400a144 144 0 1 1 288 0 144 144 0 1 1 -288 0zm201.4-60.9c-7.1-5.2-17.2-3.6-22.4 3.5l-53 72.9-26.8-26.8c-6.2-6.2-16.4-6.2-22.6 0s-6.2 16.4 0 22.6l40 40c3.3 3.3 7.9 5 12.6 4.6s8.9-2.8 11.7-6.5l64-88c5.2-7.1 3.6-17.2-3.5-22.3z"/></svg>