<svg xmlns="http://www.w3.org/2000/svg" viewBox="0 0 448 512"><!--! Font Awesome Pro 7.0.0 by @fontawesome - https://fontawesome.com License - https://fontawesome.com/license (Commercial License) Copyright 2025 Fonticons, Inc. --><path fill="currentColor" d="M335.1 80l34.3 48-290.7 0 34.3-48 222.1 0zM11.9 111.3C4.2 122.2 0 135.2 0 148.5L0 416c0 35.3 28.7 64 64 64l320 0c35.3 0 64-28.7 64-64l0-267.5c0-13.3-4.2-26.3-11.9-37.2L387.1 42.8C375.1 26 355.7 16 335.1 16L112.9 16C92.3 16 72.9 26 60.9 42.8L11.9 111.3zM308.4 260.7l-80 128c-4.2 6.7-11.4 10.9-19.3 11.3s-15.5-3.2-20.2-9.6l-48-64c-8-10.6-5.8-25.6 4.8-33.6s25.6-5.8 33.6 4.8l27 36 61.4-98.3c7-11.2 21.8-14.7 33.1-7.6s14.7 21.8 7.6 33.1z"/></svg>