<svg xmlns="http://www.w3.org/2000/svg" viewBox="0 0 512 512"><!--! Font Awesome Pro 7.0.0 by @fontawesome - https://fontawesome.com License - https://fontawesome.com/license (Commercial License) Copyright 2025 Fonticons, Inc. --><path fill="currentColor" d="M137.9 155.4l82.7 82.7c18.7 18.7 49.1 18.7 67.9 0L390.1 136.5c18.7-18.7 18.7-49.1 0-67.9L307.4-14.1c-18.7-18.7-49.1-18.7-67.9 0L137.9 87.5c-18.7 18.7-18.7 49.1 0 67.9zM170.7 256l-67.4-67.4C86.4 171.7 77.2 150.1 75.7 128L64 128c-35.3 0-64 28.7-64 64l0 160 512 0 0-160c0-35-28.1-63.4-62.9-64-4.2 15.3-12.4 29.8-24.4 41.8L338.5 256 392 256c13.3 0 24 10.7 24 24s-10.7 24-24 24l-272 0c-13.3 0-24-10.7-24-24s10.7-24 24-24l50.7 0zM512 400L0 400 0 448c0 35.3 28.7 64 64 64l384 0c35.3 0 64-28.7 64-64l0-48z"/></svg>