<svg xmlns="http://www.w3.org/2000/svg" viewBox="0 0 448 512"><!--! Font Awesome Pro 7.0.0 by @fontawesome - https://fontawesome.com License - https://fontawesome.com/license (Commercial License) Copyright 2025 Fonticons, Inc. --><path fill="currentColor" d="M.2 144c-.1 1.5-.2 3-.2 4.5L0 416c0 35.3 28.7 64 64 64l320 0c35.3 0 64-28.7 64-64l0-267.5c0-1.5-.1-3-.2-4.5l-159.8 0 0 48c0 17.7-14.3 32-32 32l-64 0c-17.7 0-32-14.3-32-32l0-48-159.8 0zM22.9 96l146.3 0 22.9-80-79.1 0C92.3 16 72.9 26 60.9 42.8L22.9 96zm256 0l146.3 0-38-53.2C375.1 26 355.7 16 335.1 16L256 16 278.9 96z"/></svg>