<svg xmlns="http://www.w3.org/2000/svg" viewBox="0 0 512 512"><!--! Font Awesome Pro 7.0.0 by @fontawesome - https://fontawesome.com License - https://fontawesome.com/license (Commercial License) Copyright 2025 Fonticons, Inc. --><path fill="currentColor" d="M463.4 409.4l-176 99c-19.5 11-43.3 11-62.8 0l-176-99C28.5 398 16 376.7 16 353.6l0-196.3c0-23 12.4-44.3 32.4-55.7l57-32.3 230.2 129.5c10.1 5.7 16.3 16.3 16.3 27.9l0 78.9c0 12.2 13.2 19.9 23.8 13.9l39.8-22.4c10.1-5.7 16.3-16.3 16.3-27.9l0-90.6c0-11.6-6.2-22.2-16.3-27.9L187.8 22.6 224.4 1.9C244-9.2 268-9.2 287.5 1.9l176 99.7C483.6 113 496 134.2 496 157.3l0 196.3c0 23.1-12.5 44.4-32.6 55.8z"/></svg>