<svg xmlns="http://www.w3.org/2000/svg" viewBox="0 0 512 512"><!--! Font Awesome Pro 7.0.0 by @fontawesome - https://fontawesome.com License - https://fontawesome.com/license (Commercial License) Copyright 2025 Fonticons, Inc. --><path fill="currentColor" d="M0 128C0 92.7 28.7 64 64 64l384 0c35.3 0 64 28.7 64 64l0 256c0 35.3-28.7 64-64 64L64 448c-35.3 0-64-28.7-64-64L0 128zm128 32a32 32 0 1 0 -64 0 32 32 0 1 0 64 0zm56-24c-13.3 0-24 10.7-24 24s10.7 24 24 24l240 0c13.3 0 24-10.7 24-24s-10.7-24-24-24l-240 0z"/></svg>