<svg xmlns="http://www.w3.org/2000/svg" viewBox="0 0 512 512"><!--! Font Awesome Pro 7.0.0 by @fontawesome - https://fontawesome.com License - https://fontawesome.com/license (Commercial License) Copyright 2025 Fonticons, Inc. --><path fill="currentColor" d="M256 512a256 256 0 1 0 0-512 256 256 0 1 0 0 512zm20-280c11 0 20-9 20-20s-9-20-20-20l-76 0c-13.3 0-24-10.7-24-24s10.7-24 24-24l76 0c37.6 0 68 30.4 68 68 0 16.8-6.1 32.1-16.2 44 10.1 11.9 16.2 27.2 16.2 44 0 37.6-30.4 68-68 68l-76 0c-13.3 0-24-10.7-24-24s10.7-24 24-24l76 0c11 0 20-9 20-20s-9-20-20-20l-52 0c-13.3 0-24-10.7-24-24s10.7-24 24-24l52 0z"/></svg>