<svg xmlns="http://www.w3.org/2000/svg" viewBox="0 0 512 512"><!--! Font Awesome Pro 7.0.0 by @fontawesome - https://fontawesome.com License - https://fontawesome.com/license (Commercial License) Copyright 2025 Fonticons, Inc. --><path fill="currentColor" d="M256 512a256 256 0 1 0 0-512 256 256 0 1 0 0 512zM200 144c13.3 0 24 10.7 24 24l0 88 48 0 0-88c0-13.3 10.7-24 24-24s24 10.7 24 24l0 88 8 0c13.3 0 24 10.7 24 24s-10.7 24-24 24l-8 0 0 40c0 13.3-10.7 24-24 24s-24-10.7-24-24l0-40-56 0c-22.1 0-40-17.9-40-40l0-96c0-13.3 10.7-24 24-24z"/></svg>