<svg xmlns="http://www.w3.org/2000/svg" viewBox="0 0 512 512"><!--! Font Awesome Pro 7.0.0 by @fontawesome - https://fontawesome.com License - https://fontawesome.com/license (Commercial License) Copyright 2025 Fonticons, Inc. --><path fill="currentColor" d="M256 512a256 256 0 1 0 0-512 256 256 0 1 0 0 512zm40-368c13.3 0 24 10.7 24 24s-10.7 24-24 24l-72 0 0 32 40 0c39.8 0 72 32.2 72 72s-32.2 72-72 72l-64 0c-13.3 0-24-10.7-24-24s10.7-24 24-24l64 0c13.3 0 24-10.7 24-24s-10.7-24-24-24l-64 0c-13.3 0-24-10.7-24-24l0-80c0-13.3 10.7-24 24-24l96 0z"/></svg>