<svg xmlns="http://www.w3.org/2000/svg" viewBox="0 0 384 512"><!--! Font Awesome Pro 7.0.0 by @fontawesome - https://fontawesome.com License - https://fontawesome.com/license (Commercial License) Copyright 2025 Fonticons, Inc. --><path fill="currentColor" d="M233.4 9.4c12.5-12.5 32.8-12.5 45.3 0L304 34.7 329.4 9.4c12.5-12.5 32.8-12.5 45.3 0s12.5 32.8 0 45.3L349.3 80 374.6 105.4c12.5 12.5 12.5 32.8 0 45.3s-32.8 12.5-45.3 0l-25.4-25.4-25.4 25.4c-12.5 12.5-32.8 12.5-45.3 0s-12.5-32.8 0-45.3L258.7 80 233.4 54.6c-12.5-12.5-12.5-32.8 0-45.3zM104 80a24 24 0 1 0 -48 0 24 24 0 1 0 48 0zm56 0c0 32.8-19.7 61-48 73.3l0 205.3c28.3 12.3 48 40.5 48 73.3 0 44.2-35.8 80-80 80S0 476.2 0 432c0-32.8 19.7-61 48-73.3l0-205.3C19.7 141 0 112.8 0 80 0 35.8 35.8 0 80 0s80 35.8 80 80zM80 456c13.3 0 24-10.7 24-24s-10.7-24-24-24-24 10.7-24 24 10.7 24 24 24zm224 0c13.3 0 24-10.7 24-24s-10.7-24-24-24-24 10.7-24 24 10.7 24 24 24zm0 56c-44.2 0-80-35.8-80-80 0-32.8 19.7-61 48-73.3L272 256c0-17.7 14.3-32 32-32s32 14.3 32 32l0 102.7c28.3 12.3 48 40.5 48 73.3 0 44.2-35.8 80-80 80z"/></svg>