<svg xmlns="http://www.w3.org/2000/svg" viewBox="0 0 384 512"><!--! Font Awesome Pro 7.0.0 by @fontawesome - https://fontawesome.com License - https://fontawesome.com/license (Commercial License) Copyright 2025 Fonticons, Inc. --><path fill="currentColor" d="M56 80a24 24 0 1 1 48 0 24 24 0 1 1 -48 0zm56 73.3c28.3-12.3 48-40.5 48-73.3 0-44.2-35.8-80-80-80S0 35.8 0 80c0 32.8 19.7 61 48 73.3l0 205.3C19.7 371 0 399.2 0 432 0 476.2 35.8 512 80 512s80-35.8 80-80c0-32.8-19.7-61-48-73.3l0-205.3zM104 432c0 13.3-10.7 24-24 24s-24-10.7-24-24 10.7-24 24-24 24 10.7 24 24zm200 24c-13.3 0-24-10.7-24-24s10.7-24 24-24 24 10.7 24 24-10.7 24-24 24zm0 56c44.2 0 80-35.8 80-80s-35.8-80-80-80-80 35.8-80 80 35.8 80 80 80zM344 80a40 40 0 1 0 -80 0 40 40 0 1 0 80 0zM304 272a40 40 0 1 0 0-80 40 40 0 1 0 0 80z"/></svg>