<svg xmlns="http://www.w3.org/2000/svg" viewBox="0 0 512 512"><!--! Font Awesome Pro 7.0.0 by @fontawesome - https://fontawesome.com License - https://fontawesome.com/license (Commercial License) Copyright 2025 Fonticons, Inc. --><path fill="currentColor" d="M104 208l40 0 0 96-40 0C46.6 304 0 350.6 0 408s46.6 104 104 104 104-46.6 104-104l0-40 96 0 0 40c0 57.4 46.6 104 104 104s104-46.6 104-104-46.6-104-104-104l-40 0 0-96 40 0c57.4 0 104-46.6 104-104S465.4 0 408 0 304 46.6 304 104l0 40-96 0 0-40C208 46.6 161.4 0 104 0S0 46.6 0 104 46.6 208 104 208zm152 96l-48 0 0-96 96 0 0 96-48 0zM104 144c-22.1 0-40-17.9-40-40s17.9-40 40-40 40 17.9 40 40l0 40-40 0zm40 264c0 22.1-17.9 40-40 40s-40-17.9-40-40 17.9-40 40-40l40 0 0 40zM368 144l0-40c0-22.1 17.9-40 40-40s40 17.9 40 40-17.9 40-40 40l-40 0zm40 224c22.1 0 40 17.9 40 40s-17.9 40-40 40-40-17.9-40-40l0-40 40 0z"/></svg>