<svg xmlns="http://www.w3.org/2000/svg" viewBox="0 0 384 512"><!--! Font Awesome Pro 7.0.0 by @fontawesome - https://fontawesome.com License - https://fontawesome.com/license (Commercial License) Copyright 2025 Fonticons, Inc. --><path fill="currentColor" d="M192 512C86 512 0 426 0 320 0 228.8 130.2 45.9 166.6-3.5 172.5-11.5 181.8-16 191.8-16l.4 0c10 0 19.3 4.5 25.2 12.5 36.4 49.4 166.6 232.3 166.6 323.5 0 106-86 192-192 192zM136 288a24 24 0 1 0 0-48 24 24 0 1 0 0 48zm95-41L119 359c-9.4 9.4-9.4 24.6 0 33.9s24.6 9.4 33.9 0L265 281c9.4-9.4 9.4-24.6 0-33.9s-24.6-9.4-33.9 0zm41 129a24 24 0 1 0 -48 0 24 24 0 1 0 48 0z"/></svg>