<svg xmlns="http://www.w3.org/2000/svg" viewBox="0 0 576 512"><!--! Font Awesome Pro 7.0.0 by @fontawesome - https://fontawesome.com License - https://fontawesome.com/license (Commercial License) Copyright 2025 Fonticons, Inc. --><path fill="currentColor" d="M256 512c-106 0-192-86-192-192 0-91.2 130.2-274.1 166.6-323.5 5.9-8 15.2-12.5 25.2-12.5l.4 0c10 0 19.3 4.5 25.2 12.5 36.4 49.4 166.6 232.3 166.6 323.5 0 106-86 192-192 192zM528 80a32 32 0 1 0 -64 0 32 32 0 1 0 64 0zM416 80a80 80 0 1 1 160 0 80 80 0 1 1 -160 0z"/></svg>