<svg xmlns="http://www.w3.org/2000/svg" viewBox="0 0 576 512"><!--! Font Awesome Pro 7.0.0 by @fontawesome - https://fontawesome.com License - https://fontawesome.com/license (Commercial License) Copyright 2025 Fonticons, Inc. --><path fill="currentColor" d="M160 0C124.7 0 96 28.7 96 64l0 176 384 0 0-69.5c0-17-6.7-33.3-18.7-45.3L354.7 18.7C342.7 6.7 326.5 0 309.5 0L160 0zM96 448c0 35.3 28.7 64 64 64l256 0c35.3 0 64-28.7 64-64l0-64-384 0 0 64zM421.5 176L328 176c-13.3 0-24-10.7-24-24L304 58.5 421.5 176zM24 288c-13.3 0-24 10.7-24 24s10.7 24 24 24l112 0c13.3 0 24-10.7 24-24s-10.7-24-24-24L24 288zm208 0c-13.3 0-24 10.7-24 24s10.7 24 24 24l112 0c13.3 0 24-10.7 24-24s-10.7-24-24-24l-112 0zm208 0c-13.3 0-24 10.7-24 24s10.7 24 24 24l112 0c13.3 0 24-10.7 24-24s-10.7-24-24-24l-112 0z"/></svg>