<svg xmlns="http://www.w3.org/2000/svg" viewBox="0 0 384 512"><!--! Font Awesome Pro 7.0.0 by @fontawesome - https://fontawesome.com License - https://fontawesome.com/license (Commercial License) Copyright 2025 Fonticons, Inc. --><path fill="currentColor" d="M213.5 0c17 0 33.3 6.8 45.3 18.8L365.3 125.2c12 12 18.7 28.3 18.7 45.2L384 448c0 35.3-28.7 64-64 64L64 512c-35.3 0-64-28.7-64-64L0 64C0 28.7 28.7 0 64 0L213.5 0zM120 228c-19.9 0-36 16.1-36 36l0 28.4-26.9 30.3c-6.7 7.6-6.7 19 0 26.6L84 379.6 84 408c0 19.9 16.1 36 36 36l16 0c11 0 20-9 20-20s-9-20-20-20l-12 0 0-25.9c0-7.7-2.5-15.2-7-21.4l-2.1-2.6-16.2-18.2 16.2-18.2 2.1-2.6c4.5-6.2 7-13.7 7-21.4l0-25.9 12 0c11 0 20-9 20-20s-9-20-20-20l-16 0zm128 0c-11 0-20 9-20 20s9 20 20 20l12 0 0 25.9c0 7.7 2.5 15.2 7 21.4l2.1 2.6 16.2 18.2-16.2 18.2-2.1 2.6c-4.5 6.2-7 13.7-7 21.4l0 25.9-12 0c-11 0-20 9-20 20s9 20 20 20l16 0c19.9 0 36-16.1 36-36l0-28.4 26.9-30.3c6.7-7.6 6.7-19 0-26.6L300 292.4 300 264c0-19.9-16.1-36-36-36l-16 0zm-40-76c0 13.3 10.7 24 24 24l93.5 0-117.5-117.5 0 93.5z"/></svg>