<svg xmlns="http://www.w3.org/2000/svg" viewBox="0 0 384 512"><!--! Font Awesome Pro 7.0.0 by @fontawesome - https://fontawesome.com License - https://fontawesome.com/license (Commercial License) Copyright 2025 Fonticons, Inc. --><path fill="currentColor" d="M0 64C0 28.7 28.7 0 64 0L213.5 0c17 0 33.3 6.7 45.3 18.7L365.3 125.3c12 12 18.7 28.3 18.7 45.3L384 448c0 35.3-28.7 64-64 64L64 512c-35.3 0-64-28.7-64-64L0 64zm208-5.5l0 93.5c0 13.3 10.7 24 24 24L325.5 176 208 58.5zM80 336c0 61.9 50.1 112 112 112 53.6 0 98.4-37.7 109.4-88L192 360c-13.3 0-24-10.7-24-24l0-109.4c-50.3 11-88 55.8-88 109.4zm136-24l85.4 0c-9.3-42.6-42.8-76.1-85.4-85.4l0 85.4z"/></svg>