<svg xmlns="http://www.w3.org/2000/svg" viewBox="0 0 448 512"><!--! Font Awesome Pro 7.0.0 by @fontawesome - https://fontawesome.com License - https://fontawesome.com/license (Commercial License) Copyright 2025 Fonticons, Inc. --><path fill="currentColor" d="M160 0C124.7 0 96 28.7 96 64l0 320c0 35.3 28.7 64 64 64l224 0c35.3 0 64-28.7 64-64l0-229.5c0-17-6.7-33.3-18.7-45.3L338.7 18.7C326.7 6.7 310.5 0 293.5 0L160 0zM288 58.5L389.5 160 312 160c-13.3 0-24-10.7-24-24l0-77.5zM24 96C10.7 96 0 106.7 0 120L0 480c0 35.3 28.7 64 64 64l264 0c13.3 0 24-10.7 24-24s-10.7-24-24-24L64 496c-8.8 0-16-7.2-16-16l0-360c0-13.3-10.7-24-24-24zM240 216c0-8.8 7.2-16 16-16l32 0c8.8 0 16 7.2 16 16l0 40 40 0c8.8 0 16 7.2 16 16l0 32c0 8.8-7.2 16-16 16l-40 0 0 40c0 8.8-7.2 16-16 16l-32 0c-8.8 0-16-7.2-16-16l0-40-40 0c-8.8 0-16-7.2-16-16l0-32c0-8.8 7.2-16 16-16l40 0 0-40z"/></svg>