<svg xmlns="http://www.w3.org/2000/svg" viewBox="0 0 576 512"><!--! Font Awesome Pro 7.0.0 by @fontawesome - https://fontawesome.com License - https://fontawesome.com/license (Commercial License) Copyright 2025 Fonticons, Inc. --><path fill="currentColor" d="M304 380c11 0 20 9 20 20s-9 20-20 20l-12 0 0 108c0 11-9 20-20 20s-20-9-20-20l0-108-12 0c-11 0-20-9-20-20s9-20 20-20l64 0zm128 0c11 0 20 9 20 20s-9 20-20 20l-44 0 0 24 28 0c11 0 20 9 20 20s-9 20-20 20l-28 0 0 24 44 0c11 0 20 9 20 20s-9 20-20 20l-64 0c-11 0-20-9-20-20l0-128 .4-4c1.9-9.1 9.9-16 19.6-16l64 0zm128 0c11 0 20 9 20 20 0 14.4-4.2 28.4-12.2 40.4L552 464 567.8 487.6c8 12 12.2 26 12.2 40.4 0 11-9 20-20 20s-20-9-20-20c0-6.5-1.9-12.8-5.5-18.2l-6.5-9.7-6.5 9.7c-3.6 5.4-5.5 11.7-5.5 18.2 0 11-9 20-20 20s-20-9-20-20c0-14.4 4.2-28.4 12.2-40.4l15.7-23.6-15.7-23.6c-8-12-12.2-26-12.2-40.4 0-11 9-20 20-20s20 9 20 20c0 6.5 1.9 12.8 5.5 18.2l6.5 9.7 6.5-9.7c3.6-5.4 5.5-11.7 5.5-18.2 0-11 9-20 20-20zM245.5 0c17 0 33.2 6.8 45.2 18.8L397.3 125.2c12 12 18.7 28.3 18.7 45.2l0 165.5-176 0c-35.3 0-64 28.7-64 64l0 112-80 0c-35.3 0-64-28.7-64-64L32 64C32 28.7 60.7 0 96 0L245.5 0zM240 152c0 13.3 10.7 24 24 24l93.5 0-117.5-117.5 0 93.5z"/></svg>