<svg xmlns="http://www.w3.org/2000/svg" viewBox="0 0 640 512"><!--! Font Awesome Pro 7.0.0 by @fontawesome - https://fontawesome.com License - https://fontawesome.com/license (Commercial License) Copyright 2025 Fonticons, Inc. --><path fill="currentColor" d="M128 0C92.7 0 64 28.7 64 64l0 384c0 35.3 28.7 64 64 64l144 0 0-112c0-35.3 28.7-64 64-64l112 0 0-165.5c0-17-6.7-33.3-18.7-45.3L322.7 18.7C310.7 6.7 294.5 0 277.5 0L128 0zM389.5 176L296 176c-13.3 0-24-10.7-24-24L272 58.5 389.5 176zM336 380c-11 0-20 9-20 20s9 20 20 20l31.6 0-49.5 99.1c-3.1 6.2-2.8 13.6 .9 19.5s10.1 9.5 17 9.5l64 0c11 0 20-9 20-20s-9-20-20-20l-31.6 0 49.5-99.1c3.1-6.2 2.8-13.6-.9-19.5s-10.1-9.5-17-9.5l-64 0zm148 20c0-11-9-20-20-20s-20 9-20 20l0 128c0 11 9 20 20 20s20-9 20-20l0-128zm24 0l0 128c0 11 9 20 20 20s20-9 20-20l0-28 12 0c33.1 0 60-26.9 60-60s-26.9-60-60-60l-32 0c-11 0-20 9-20 20zm40 60l0-40 12 0c11 0 20 9 20 20s-9 20-20 20l-12 0z"/></svg>