<svg xmlns="http://www.w3.org/2000/svg" viewBox="0 0 576 512"><!--! Font Awesome Pro 7.0.0 by @fontawesome - https://fontawesome.com License - https://fontawesome.com/license (Commercial License) Copyright 2025 Fonticons, Inc. --><path fill="currentColor" d="M96 0C60.7 0 32 28.7 32 64l0 384c0 35.3 28.7 64 64 64l48 0 0-112c0-35.3 28.7-64 64-64l208 0 0-165.5c0-17-6.7-33.3-18.7-45.3L290.7 18.7C278.7 6.7 262.5 0 245.5 0L96 0zM357.5 176L264 176c-13.3 0-24-10.7-24-24L240 58.5 357.5 176zM225.1 389.7c-4.6-7.7-13.8-11.4-22.5-9S188 391 188 400l0 128c0 11 9 20 20 20s20-9 20-20l0-55.8 10.9 18.1c3.6 6 10.1 9.7 17.1 9.7s13.5-3.7 17.1-9.7l10.9-18.1 0 55.8c0 11 9 20 20 20s20-9 20-20l0-128c0-9-6-16.9-14.7-19.3s-17.9 1.3-22.5 9l-30.9 51.4-30.9-51.4zM368 380c-11 0-20 9-20 20l0 128c0 11 9 20 20 20s20-9 20-20l0-28 12 0c33.1 0 60-26.9 60-60s-26.9-60-60-60l-32 0zm32 80l-12 0 0-40 12 0c11 0 20 9 20 20s-9 20-20 20zm180 36c0-12.1-4.1-23.2-11-32 6.9-8.8 11-19.9 11-32 0-28.7-23.3-52-52-52l-32 0c-11 0-20 9-20 20s9 20 20 20l32 0c6.6 0 12 5.4 12 12s-5.4 12-12 12l-24 0c-11 0-20 9-20 20s9 20 20 20l24 0c6.6 0 12 5.4 12 12s-5.4 12-12 12l-32 0c-11 0-20 9-20 20s9 20 20 20l32 0c28.7 0 52-23.3 52-52z"/></svg>