<svg xmlns="http://www.w3.org/2000/svg" viewBox="0 0 384 512"><!--! Font Awesome Pro 7.0.0 by @fontawesome - https://fontawesome.com License - https://fontawesome.com/license (Commercial License) Copyright 2025 Fonticons, Inc. --><path fill="currentColor" d="M0 64C0 28.7 28.7 0 64 0L213.5 0c17 0 33.3 6.7 45.3 18.7L365.3 125.3c12 12 18.7 28.3 18.7 45.3L384 448c0 35.3-28.7 64-64 64L64 512c-35.3 0-64-28.7-64-64L0 64zm208-5.5l0 93.5c0 13.3 10.7 24 24 24L325.5 176 208 58.5zm51.9 209.6c-9.4-9.4-24.6-9.4-33.9 0l-33.9 33.9-33.9-33.9c-9.4-9.4-24.6-9.4-33.9 0s-9.4 24.6 0 33.9l33.9 33.9-33.9 33.9c-9.4 9.4-9.4 24.6 0 33.9s24.6 9.4 33.9 0l33.9-33.9 33.9 33.9c9.4 9.4 24.6 9.4 33.9 0s9.4-24.6 0-33.9l-33.9-33.9 33.9-33.9c9.4-9.4 9.4-24.6 0-33.9z"/></svg>