<svg xmlns="http://www.w3.org/2000/svg" viewBox="0 0 384 512"><!--! Font Awesome Pro 7.0.0 by @fontawesome - https://fontawesome.com License - https://fontawesome.com/license (Commercial License) Copyright 2025 Fonticons, Inc. --><path fill="currentColor" d="M0 64C0 28.7 28.7 0 64 0L213.5 0c17 0 33.3 6.7 45.3 18.7L365.3 125.3c12 12 18.7 28.3 18.7 45.3L384 448c0 35.3-28.7 64-64 64L64 512c-35.3 0-64-28.7-64-64L0 64zm208-5.5l0 93.5c0 13.3 10.7 24 24 24L325.5 176 208 58.5zM192 344a56 56 0 1 0 0-112 56 56 0 1 0 0 112zM98.3 413c-12.9 15.6 2.2 35 22.4 35l142.5 0c20.2 0 35.3-19.4 22.4-35-14.7-17.7-36.9-29-61.7-29l-64 0c-24.8 0-47 11.3-61.7 29z"/></svg>