<svg xmlns="http://www.w3.org/2000/svg" viewBox="0 0 448 512"><!--! Font Awesome Pro 7.0.0 by @fontawesome - https://fontawesome.com License - https://fontawesome.com/license (Commercial License) Copyright 2025 Fonticons, Inc. --><path fill="currentColor" d="M96 64c0-35.3 28.7-64 64-64L293.5 0c17 0 33.3 6.7 45.3 18.7l90.5 90.5c12 12 18.7 28.3 18.7 45.3L448 384c0 35.3-28.7 64-64 64l-224 0c-35.3 0-64-28.7-64-64L96 64zm192 72c0 13.3 10.7 24 24 24l77.5 0-101.5-101.5 0 77.5zM48 120l0 360c0 8.8 7.2 16 16 16l264 0c13.3 0 24 10.7 24 24s-10.7 24-24 24L64 544c-35.3 0-64-28.7-64-64L0 120c0-13.3 10.7-24 24-24s24 10.7 24 24z"/></svg>