<svg xmlns="http://www.w3.org/2000/svg" viewBox="0 0 576 512"><!--! Font Awesome Pro 7.0.0 by @fontawesome - https://fontawesome.com License - https://fontawesome.com/license (Commercial License) Copyright 2025 Fonticons, Inc. --><path fill="currentColor" d="M41-24.9c-9.4-9.4-24.6-9.4-33.9 0S-2.3-.3 7 9.1l528 528c9.4 9.4 24.6 9.4 33.9 0s9.4-24.6 0-33.9l-89-89 0-243.6c0-17-6.7-33.3-18.7-45.3L354.7 18.7C342.7 6.7 326.5 0 309.5 0L160 0c-25.5 0-47.4 14.9-57.8 36.4L41-24.9zM96 165.8L96 448c0 35.3 28.7 64 64 64l256 0c7.8 0 15.3-1.4 22.2-4L96 165.8zM421.5 176L328 176c-13.3 0-24-10.7-24-24L304 58.5 421.5 176z"/></svg>