<svg xmlns="http://www.w3.org/2000/svg" viewBox="0 0 576 512"><!--! Font Awesome Pro 7.0.0 by @fontawesome - https://fontawesome.com License - https://fontawesome.com/license (Commercial License) Copyright 2025 Fonticons, Inc. --><path fill="currentColor" d="M280 380c24.3 0 44 19.7 44 44l0 80c0 24.3-19.7 44-44 44l-16 0c-24.3 0-44-19.7-44-44l0-80c0-24.3 19.7-44 44-44l16 0zm120 0c28.7 0 52 23.3 52 52l0 64c0 28.7-23.3 52-52 52l-32 0c-11 0-20-9-20-20l0-128 .4-4c1.9-9.1 9.9-16 19.6-16l32 0zm144 0c11 0 20 9 20 20s-9 20-20 20l-28 0 0 24 28 0c11 0 20 9 20 20s-9 20-20 20l-28 0 0 44c0 11-9 20-20 20s-20-9-20-20l0-128 .4-4c1.9-9.1 9.9-16 19.6-16l48 0zM245.5 0c17 0 33.2 6.8 45.2 18.8L397.3 125.2c12 12 18.7 28.3 18.7 45.2l0 165.5-176 0c-35.3 0-64 28.7-64 64l0 112-80 0c-35.3 0-64-28.7-64-64L32 64C32 28.7 60.7 0 96 0L245.5 0zM264 420c-2.2 0-4 1.8-4 4l0 80c0 2.2 1.8 4 4 4l16 0c2.2 0 4-1.8 4-4l0-80c0-2.2-1.8-4-4-4l-16 0zm124 88l12 0c6.6 0 12-5.4 12-12l0-64c0-6.6-5.4-12-12-12l-12 0 0 88zM240 152c0 13.3 10.7 24 24 24l93.5 0-117.5-117.5 0 93.5z"/></svg>