<svg xmlns="http://www.w3.org/2000/svg" viewBox="0 0 576 512"><!--! Font Awesome Pro 7.0.0 by @fontawesome - https://fontawesome.com License - https://fontawesome.com/license (Commercial License) Copyright 2025 Fonticons, Inc. --><path fill="currentColor" d="M304 380c11 0 20 9 20 20l0 31.6c0 40.6-14.4 76.1-35.3 107.5-3.7 5.6-10 8.9-16.7 8.9s-12.9-3.3-16.7-8.9l-14.2-21.4c-.4-.6-.7-1.2-1.1-1.8l-1.1 1.8-14.2 21.4c-3.7 5.6-10 8.9-16.7 8.9-5.9 0-11.4-2.6-15.1-6.9l-1.5-2c-21-31.4-35.3-67-35.3-107.5l0-31.6c0-11 9-20 20-20s20 9 20 20l0 31.6c0 20.3 4.8 39.4 13.2 57.9 7-12.7 10.8-26.9 10.8-41.4 0-11 9-20 20-20s20 9 20 20c0 14.5 3.7 28.8 10.7 41.4 8.4-18.4 13.3-37.6 13.3-57.9l0-31.6c0-11 9-20 20-20zm104 0c24.3 0 44 19.7 44 44l0 104c0 11-9 20-20 20s-20-9-20-20l0-28-24 0 0 28c0 11-9 20-20 20s-20-9-20-20l0-104c0-24.3 19.7-44 44-44l16 0zm152 0c11 0 20 9 20 20l0 31.6c0 35.5-10.5 70.3-30.2 99.8l-5.1 7.7c-3.7 5.6-10 8.9-16.7 8.9s-12.9-3.3-16.7-8.9l-5.1-7.7c-19.7-29.6-30.2-64.3-30.2-99.8l0-31.6c0-11 9-20 20-20s20 9 20 20l0 31.6c0 19.5 4.2 38.7 12 56.4 7.8-17.7 12-36.9 12-56.4l0-31.6c0-11 9-20 20-20zM245.5 0c17 0 33.2 6.8 45.2 18.8L397.3 125.2c12 12 18.7 28.3 18.7 45.2l0 165.5-240 0c-35.3 0-64 28.7-64 64l0 112-16 0c-35.3 0-64-28.7-64-64L32 64C32 28.7 60.7 0 96 0L245.5 0zM392 420c-2.2 0-4 1.8-4 4l0 36 24 0 0-36c0-2.2-1.8-4-4-4l-16 0zM240 152c0 13.3 10.7 24 24 24l93.5 0-117.5-117.5 0 93.5z"/></svg>