<svg xmlns="http://www.w3.org/2000/svg" viewBox="0 0 576 512"><!--! Font Awesome Pro 7.0.0 by @fontawesome - https://fontawesome.com License - https://fontawesome.com/license (Commercial License) Copyright 2025 Fonticons, Inc. --><path fill="currentColor" d="M96 0C60.7 0 32 28.7 32 64l0 384c0 35.3 28.7 64 64 64l209.3 0c-.9-5.2-1.3-10.6-1.3-16.1l0-96c0-28.5 12.4-54 32-71.5l0-24.4c0-53.7 33.1-99.7 80-118.7l0-14.8c0-17-6.7-33.3-18.7-45.3L290.7 18.7C278.7 6.7 262.5 0 245.5 0L96 0zM357.5 176L264 176c-13.3 0-24-10.7-24-24L240 58.5 357.5 176zM496 304.1l0 47.9-64 0 0-47.9c0-17.7 14.3-32 32-32s32 14.3 32 32zM352 400l0 96c0 26.5 21.5 48 48 48l128 0c26.5 0 48-21.5 48-48l0-96c0-20.9-13.4-38.7-32-45.3l0-50.6c0-44.2-35.8-80-80-80s-80 35.8-80 80l0 50.6c-18.6 6.6-32 24.4-32 45.3z"/></svg>