<svg xmlns="http://www.w3.org/2000/svg" viewBox="0 0 576 512"><!--! Font Awesome Pro 7.0.0 by @fontawesome - https://fontawesome.com License - https://fontawesome.com/license (Commercial License) Copyright 2025 Fonticons, Inc. --><path fill="currentColor" d="M96 0C60.7 0 32 28.7 32 64l0 384c0 35.3 28.7 64 64 64l80 0 0-112c0-35.3 28.7-64 64-64l176 0 0-165.5c0-17-6.7-33.3-18.7-45.3L290.7 18.7C278.7 6.7 262.5 0 245.5 0L96 0zM357.5 176L264 176c-13.3 0-24-10.7-24-24L240 58.5 357.5 176zM264 380c-24.3 0-44 19.7-44 44l0 80c0 24.3 19.7 44 44 44l16 0c24.3 0 44-19.7 44-44l0-8c0-11-9-20-20-20s-20 9-20 20l0 8c0 2.2-1.8 4-4 4l-16 0c-2.2 0-4-1.8-4-4l0-80c0-2.2 1.8-4 4-4l16 0c2.2 0 4 1.8 4 4l0 8c0 11 9 20 20 20s20-9 20-20l0-8c0-24.3-19.7-44-44-44l-16 0zm128 0c-24.3 0-44 19.7-44 44l0 104c0 11 9 20 20 20s20-9 20-20l0-28 24 0 0 28c0 11 9 20 20 20s20-9 20-20l0-104c0-24.3-19.7-44-44-44l-16 0zm20 80l-24 0 0-36c0-2.2 1.8-4 4-4l16 0c2.2 0 4 1.8 4 4l0 36zm64-60l0 128c0 11 9 20 20 20l32 0c28.7 0 52-23.3 52-52l0-64c0-28.7-23.3-52-52-52l-32 0c-11 0-20 9-20 20zm40 20l12 0c6.6 0 12 5.4 12 12l0 64c0 6.6-5.4 12-12 12l-12 0 0-88z"/></svg>