<svg xmlns="http://www.w3.org/2000/svg" viewBox="0 0 384 512"><!--! Font Awesome Pro 7.0.0 by @fontawesome - https://fontawesome.com License - https://fontawesome.com/license (Commercial License) Copyright 2025 Fonticons, Inc. --><path fill="currentColor" d="M0 64C0 28.7 28.7 0 64 0L213.5 0c17 0 33.3 6.7 45.3 18.7L365.3 125.3c12 12 18.7 28.3 18.7 45.3L384 448c0 35.3-28.7 64-64 64L64 512c-35.3 0-64-28.7-64-64L0 64zm208-5.5l0 93.5c0 13.3 10.7 24 24 24L325.5 176 208 58.5zM240 256l-96 0c0-17.7-14.3-32-32-32s-32 14.3-32 32 14.3 32 32 32l0 96c-17.7 0-32 14.3-32 32s14.3 32 32 32 32-14.3 32-32l96 0c0 17.7 14.3 32 32 32s32-14.3 32-32-14.3-32-32-32l0-96c17.7 0 32-14.3 32-32s-14.3-32-32-32-32 14.3-32 32zM152 376l0-80 80 0 0 80-80 0z"/></svg>