<svg xmlns="http://www.w3.org/2000/svg" viewBox="0 0 576 512"><!--! Font Awesome Pro 7.0.0 by @fontawesome - https://fontawesome.com License - https://fontawesome.com/license (Commercial License) Copyright 2025 Fonticons, Inc. --><path fill="currentColor" d="M96 0C60.7 0 32 28.7 32 64l0 384c0 35.3 28.7 64 64 64l144 0 0-112c0-35.3 28.7-64 64-64l112 0 0-165.5c0-17-6.7-33.3-18.7-45.3L290.7 18.7C278.7 6.7 262.5 0 245.5 0L96 0zM357.5 176L264 176c-13.3 0-24-10.7-24-24L240 58.5 357.5 176zM328 380c-24.3 0-44 19.7-44 44l0 80c0 24.3 19.7 44 44 44l16 0c24.3 0 44-19.7 44-44l0-24c0-11-9-20-20-20l-8 0c-11 0-20 9-20 20 0 6.5 3.1 12.4 8 16l0 8c0 2.2-1.8 4-4 4l-16 0c-2.2 0-4-1.8-4-4l0-80c0-2.2 1.8-4 4-4l20.4 0c1.9 9.1 9.9 16 19.6 16 11 0 20-9 20-20 0-19.9-16.1-36-36-36l-24 0zm124 20c0-11-9-20-20-20s-20 9-20 20l0 128c0 11 9 20 20 20s20-9 20-20l0-128zm24 0l0 128c0 11 9 20 20 20s20-9 20-20l0-44 28 0c11 0 20-9 20-20s-9-20-20-20l-28 0 0-24 28 0c11 0 20-9 20-20s-9-20-20-20l-48 0c-11 0-20 9-20 20z"/></svg>