<svg xmlns="http://www.w3.org/2000/svg" viewBox="0 0 576 512"><!--! Font Awesome Pro 7.0.0 by @fontawesome - https://fontawesome.com License - https://fontawesome.com/license (Commercial License) Copyright 2025 Fonticons, Inc. --><path fill="currentColor" d="M96 0C60.7 0 32 28.7 32 64l0 384c0 35.3 28.7 64 64 64l112 0 0-112c0-35.3 28.7-64 64-64l144 0 0-165.5c0-17-6.7-33.3-18.7-45.3L290.7 18.7C278.7 6.7 262.5 0 245.5 0L96 0zM357.5 176L264 176c-13.3 0-24-10.7-24-24L240 58.5 357.5 176zM292 400c0-11-9-20-20-20s-20 9-20 20c0 14.4 4.3 28.4 12.2 40.4L280 464 264.2 487.6c-8 12-12.2 26-12.2 40.4 0 11 9 20 20 20s20-9 20-20c0-6.5 1.9-12.8 5.5-18.2l6.5-9.7 6.5 9.7c3.6 5.4 5.5 11.7 5.5 18.2 0 11 9 20 20 20s20-9 20-20c0-14.4-4.3-28.4-12.2-40.4L328 464 343.8 440.4c8-12 12.2-26 12.2-40.4 0-11-9-20-20-20s-20 9-20 20c0 6.5-1.9 12.8-5.5 18.2l-6.5 9.7-6.5-9.7c-3.6-5.4-5.5-11.7-5.5-18.2zM400 548l32 0c11 0 20-9 20-20s-9-20-20-20l-12 0 0-108c0-11-9-20-20-20s-20 9-20 20l0 128c0 11 9 20 20 20zm76-116c0 28.7 23.3 52 52 52 6.6 0 12 5.4 12 12s-5.4 12-12 12l-32 0c-11 0-20 9-20 20s9 20 20 20l32 0c28.7 0 52-23.3 52-52s-23.3-52-52-52c-6.6 0-12-5.4-12-12s5.4-12 12-12l24 0c11 0 20-9 20-20s-9-20-20-20l-24 0c-28.7 0-52 23.3-52 52z"/></svg>