<svg xmlns="http://www.w3.org/2000/svg" viewBox="0 0 576 512"><!--! Font Awesome Pro 7.0.0 by @fontawesome - https://fontawesome.com License - https://fontawesome.com/license (Commercial License) Copyright 2025 Fonticons, Inc. --><path fill="currentColor" d="M96 0C60.7 0 32 28.7 32 64l0 384c0 35.3 28.7 64 64 64l80 0 0-112c0-35.3 28.7-64 64-64l176 0 0-165.5c0-17-6.7-33.3-18.7-45.3L290.7 18.7C278.7 6.7 262.5 0 245.5 0L96 0zM357.5 176L264 176c-13.3 0-24-10.7-24-24L240 58.5 357.5 176zM508 528c0 11 9 20 20 20l32 0c11 0 20-9 20-20s-9-20-20-20l-12 0 0-108c0-11-9-20-20-20s-20 9-20 20l0 128zM385.1 389.7c-4.6-7.7-13.8-11.4-22.5-9S348 391 348 400l0 128c0 11 9 20 20 20s20-9 20-20l0-55.8 10.9 18.1c3.6 6 10.1 9.7 17.1 9.7s13.5-3.7 17.1-9.7l10.9-18.1 0 55.8c0 11 9 20 20 20s20-9 20-20l0-128c0-9-6-16.9-14.7-19.3s-17.9 1.3-22.5 9l-30.9 51.4-30.9-51.4zM260 400c0-11-9-20-20-20s-20 9-20 20c0 14.4 4.3 28.4 12.2 40.4L248 464 232.2 487.6c-8 12-12.2 26-12.2 40.4 0 11 9 20 20 20s20-9 20-20c0-6.5 1.9-12.8 5.5-18.2l6.5-9.7 6.5 9.7c3.6 5.4 5.5 11.7 5.5 18.2 0 11 9 20 20 20s20-9 20-20c0-14.4-4.3-28.4-12.2-40.4L296 464 311.8 440.4c8-12 12.2-26 12.2-40.4 0-11-9-20-20-20s-20 9-20 20c0 6.5-1.9 12.8-5.5 18.2l-6.5 9.7-6.5-9.7c-3.6-5.4-5.5-11.7-5.5-18.2z"/></svg>