<svg xmlns="http://www.w3.org/2000/svg" viewBox="0 0 576 512"><!--! Font Awesome Pro 7.0.0 by @fontawesome - https://fontawesome.com License - https://fontawesome.com/license (Commercial License) Copyright 2025 Fonticons, Inc. --><path fill="currentColor" d="M96 0C60.7 0 32 28.7 32 64l0 384c0 35.3 28.7 64 64 64l48 0 0-112c0-35.3 28.7-64 64-64l208 0 0-165.5c0-17-6.7-33.3-18.7-45.3L290.7 18.7C278.7 6.7 262.5 0 245.5 0L96 0zM357.5 176L264 176c-13.3 0-24-10.7-24-24L240 58.5 357.5 176zM225.1 389.7c-4.6-7.7-13.8-11.4-22.5-9S188 391 188 400l0 128c0 11 9 20 20 20s20-9 20-20l0-55.8 10.9 18.1c3.6 6 10.1 9.7 17.1 9.7s13.5-3.7 17.1-9.7l10.9-18.1 0 55.8c0 11 9 20 20 20s20-9 20-20l0-128c0-9-6-16.9-14.7-19.3s-17.9 1.3-22.5 9l-30.9 51.4-30.9-51.4zM392 380c-24.3 0-44 19.7-44 44l0 80c0 24.3 19.7 44 44 44l16 0c24.3 0 44-19.7 44-44l0-80c0-24.3-19.7-44-44-44l-16 0zm-4 44c0-2.2 1.8-4 4-4l16 0c2.2 0 4 1.8 4 4l0 80c0 2.2-1.8 4-4 4l-16 0c-2.2 0-4-1.8-4-4l0-80zm108-44c-11 0-20 9-20 20l0 31.6c0 35.5 10.5 70.3 30.2 99.8l5.1 7.7c3.7 5.6 10 8.9 16.6 8.9s12.9-3.3 16.6-8.9l5.1-7.7c19.7-29.6 30.2-64.3 30.2-99.8l0-31.6c0-11-9-20-20-20s-20 9-20 20l0 31.6c0 19.6-4.1 38.9-12 56.7-7.9-17.8-12-37.1-12-56.7l0-31.6c0-11-9-20-20-20z"/></svg>