<svg xmlns="http://www.w3.org/2000/svg" viewBox="0 0 512 512"><!--! Font Awesome Pro 7.0.0 by @fontawesome - https://fontawesome.com License - https://fontawesome.com/license (Commercial License) Copyright 2025 Fonticons, Inc. --><path fill="currentColor" d="M448 448L64 448c-35.3 0-64-28.7-64-64L0 96C0 60.7 28.7 32 64 32l138.7 0c13.8 0 27.3 4.5 38.4 12.8l38.4 28.8c5.5 4.2 12.3 6.4 19.2 6.4L448 80c35.3 0 64 28.7 64 64l0 240c0 35.3-28.7 64-64 64zM354.6 247.4c5.5-3.2 8.3-9.8 6-15.7-4.2-10.9-10.1-21.1-17.4-30.1-4-5-11.1-5.9-16.6-2.7-19.1 11-42.5-2.5-42.5-24.6 0-6.4-4.3-12.1-10.6-13-11.3-1.8-23.4-1.8-34.8 0-6.3 1-10.6 6.7-10.6 13 0 22.1-23.4 35.6-42.5 24.6-5.5-3.2-12.6-2.3-16.6 2.7-7.3 9-13.2 19.3-17.4 30.1-2.3 6 .5 12.5 6 15.7 19.2 11.1 19.2 38.1 0 49.1-5.5 3.2-8.3 9.8-6 15.7 4.2 10.9 10.1 21.1 17.4 30.1 4 5 11.1 5.9 16.6 2.7 19.1-11 42.5 2.5 42.5 24.6 0 6.4 4.3 12.1 10.6 13 11.3 1.8 23.4 1.8 34.8 0 6.3-1 10.6-6.7 10.6-13 0-22.1 23.4-35.6 42.5-24.6 5.5 3.2 12.6 2.3 16.6-2.7 7.3-9 13.2-19.3 17.4-30.1 2.3-6-.5-12.5-6-15.7-19.1-11.1-19.1-38.1 0-49.1zM224 272a32 32 0 1 1 64 0 32 32 0 1 1 -64 0z"/></svg>