<svg xmlns="http://www.w3.org/2000/svg" viewBox="0 0 576 512"><!--! Font Awesome Pro 7.0.0 by @fontawesome - https://fontawesome.com License - https://fontawesome.com/license (Commercial License) Copyright 2025 Fonticons, Inc. --><path fill="currentColor" d="M512 384l-352 0c-35.3 0-64-28.7-64-64L96 64c0-35.3 28.7-64 64-64L277.5 0c17 0 33.3 6.7 45.3 18.7l35.9 35.9c6 6 14.1 9.4 22.6 9.4L512 64c35.3 0 64 28.7 64 64l0 192c0 35.3-28.7 64-64 64zM48 120l0 296c0 8.8 7.2 16 16 16l392 0c13.3 0 24 10.7 24 24s-10.7 24-24 24L64 480c-35.3 0-64-28.7-64-64L0 120c0-13.3 10.7-24 24-24s24 10.7 24 24z"/></svg>