<svg xmlns="http://www.w3.org/2000/svg" viewBox="0 0 512 512"><!--! Font Awesome Pro 7.0.0 by @fontawesome - https://fontawesome.com License - https://fontawesome.com/license (Commercial License) Copyright 2025 Fonticons, Inc. --><path fill="currentColor" d="M448 448L64 448c-35.3 0-64-28.7-64-64L0 96C0 60.7 28.7 32 64 32l138.7 0c13.8 0 27.3 4.5 38.4 12.8l38.4 28.8c5.5 4.2 12.3 6.4 19.2 6.4L448 80c35.3 0 64 28.7 64 64l0 240c0 35.3-28.7 64-64 64zM323.9 196.1c-9.4-9.4-24.6-9.4-33.9 0l-33.9 33.9-33.9-33.9c-9.4-9.4-24.6-9.4-33.9 0s-9.4 24.6 0 33.9l33.9 33.9-33.9 33.9c-9.4 9.4-9.4 24.6 0 33.9s24.6 9.4 33.9 0l33.9-33.9 33.9 33.9c9.4 9.4 24.6 9.4 33.9 0s9.4-24.6 0-33.9l-33.9-33.9 33.9-33.9c9.4-9.4 9.4-24.6 0-33.9z"/></svg>