<svg xmlns="http://www.w3.org/2000/svg" viewBox="0 0 512 512"><!--! Font Awesome Pro 7.0.0 by @fontawesome - https://fontawesome.com License - https://fontawesome.com/license (Commercial License) Copyright 2025 Fonticons, Inc. --><path fill="currentColor" d="M448 448L64 448c-35.3 0-64-28.7-64-64L0 96C0 60.7 28.7 32 64 32l138.7 0c13.8 0 27.3 4.5 38.4 12.8l38.4 28.8c5.5 4.2 12.3 6.4 19.2 6.4L448 80c35.3 0 64 28.7 64 64l0 240c0 35.3-28.7 64-64 64zM256 280a56 56 0 1 0 0-112 56 56 0 1 0 0 112zm-93.7 69c-12.9 15.6 2.2 35 22.4 35l142.5 0c20.2 0 35.3-19.4 22.4-35-14.7-17.7-36.9-29-61.7-29l-64 0c-24.8 0-47 11.3-61.7 29z"/></svg>