<svg xmlns="http://www.w3.org/2000/svg" viewBox="0 0 512 512"><!--! Font Awesome Pro 7.0.0 by @fontawesome - https://fontawesome.com License - https://fontawesome.com/license (Commercial License) Copyright 2025 Fonticons, Inc. --><path fill="currentColor" d="M195.1 9.5C198.1-5.3 211.2-16 226.4-16l59.8 0c15.2 0 28.3 10.7 31.3 25.5L332 79.5c14.1 6 27.3 13.7 39.3 22.8l67.8-22.5c14.4-4.8 30.2 1.2 37.8 14.4l29.9 51.8c7.6 13.2 4.9 29.8-6.5 39.9L447 233.3c.9 7.4 1.3 15 1.3 22.7s-.5 15.3-1.3 22.7l53.4 47.5c11.4 10.1 14 26.8 6.5 39.9l-29.9 51.8c-7.6 13.1-23.4 19.2-37.8 14.4l-67.8-22.5c-12.1 9.1-25.3 16.7-39.3 22.8l-14.4 69.9c-3.1 14.9-16.2 25.5-31.3 25.5l-59.8 0c-15.2 0-28.3-10.7-31.3-25.5l-14.4-69.9c-14.1-6-27.2-13.7-39.3-22.8L73.5 432.3c-14.4 4.8-30.2-1.2-37.8-14.4L5.8 366.1c-7.6-13.2-4.9-29.8 6.5-39.9l53.4-47.5c-.9-7.4-1.3-15-1.3-22.7s.5-15.3 1.3-22.7L12.3 185.8c-11.4-10.1-14-26.8-6.5-39.9L35.7 94.1c7.6-13.2 23.4-19.2 37.8-14.4l67.8 22.5c12.1-9.1 25.3-16.7 39.3-22.8L195.1 9.5zm104.7 147c2.5-10.8-4.2-21.5-15-24s-21.5 4.2-24 15l-48 208c-2.5 10.8 4.2 21.5 15 24s21.5-4.2 24-15l48-208zM182.5 238.1c7.8-7.8 7.8-20.5 0-28.3s-20.5-7.8-28.3 0l-32 32c-7.8 7.8-7.8 20.5 0 28.3l32 32c7.8 7.8 20.5 7.8 28.3 0s7.8-20.5 0-28.3l-17.9-17.9 17.9-17.9zm176-28.3c-7.8-7.8-20.5-7.8-28.3 0s-7.8 20.5 0 28.3L348 256 330.2 273.9c-7.8 7.8-7.8 20.5 0 28.3s20.5 7.8 28.3 0l32-32c7.8-7.8 7.8-20.5 0-28.3l-32-32z"/></svg>