<svg xmlns="http://www.w3.org/2000/svg" viewBox="0 0 512 512"><!--! Font Awesome Pro 7.0.0 by @fontawesome - https://fontawesome.com License - https://fontawesome.com/license (Commercial License) Copyright 2025 Fonticons, Inc. --><path fill="currentColor" d="M329.7 448c-5.1 0-9.7 3.7-9.7 8.8l0 7.2c0 26.5-21.5 48-48 48l-160 0c-26.5 0-48-21.5-48-48l0-63.6c0-12.6-5.1-24.5-13.1-34.2-31.8-38.7-50.9-88.2-50.9-142.2 0-123.7 100.3-224 224-224 112.7 0 206 83.3 221.7 191.7 .4 3 1.7 5.9 3.6 8.3l35.8 42.9c7 8.4 10.9 19.1 10.9 30.1 0 25.9-21 47-47 47l-1 0c-8.8 0-16 7.2-16 16l0 48c0 35.3-28.7 64-64 64l-38.3 0zm7-284.1c6.3-3.6 9.5-11.1 6.8-18-2.1-5.5-4.6-10.8-7.4-15.9l-2.3-4c-3.1-5.1-6.5-9.9-10.2-14.5-4.6-5.7-12.7-6.7-19-3l-2.9 1.7c-9.2 5.3-20.4 4-29.6-1.3S256 94.4 256 83.8l0-3.4c0-7.3-4.9-13.8-12.1-14.9-6.5-1-13.1-1.5-19.9-1.5s-13.4 .5-19.9 1.5c-7.2 1.1-12.1 7.6-12.1 14.9l0 3.4c0 10.6-6.9 19.8-16.1 25.1s-20.4 6.6-29.6 1.3l-2.9-1.7c-6.3-3.6-14.4-2.6-19 3-3.7 4.6-7.1 9.5-10.2 14.6l-2.3 3.9c-2.8 5.1-5.3 10.4-7.4 15.9-2.6 6.8 .5 14.3 6.8 18l2.9 1.7c9.2 5.3 13.7 15.8 13.7 26.4s-4.5 21.1-13.7 26.4l-3 1.7c-6.3 3.6-9.5 11.1-6.8 18 2.1 5.5 4.6 10.7 7.4 15.8l2.4 4.1c3.1 5.1 6.4 9.9 10.1 14.5 4.6 5.7 12.7 6.7 19 3l2.9-1.7c9.2-5.3 20.4-4 29.6 1.3S192 289.6 192 300.2l0 3.4c0 7.3 4.9 13.8 12.1 14.9 6.5 1 13.1 1.5 19.9 1.5s13.4-.5 19.9-1.5c7.2-1.1 12.1-7.6 12.1-14.9l0-3.4c0-10.6 6.9-19.8 16.1-25.1s20.4-6.6 29.6-1.3l2.9 1.7c6.3 3.6 14.4 2.6 19-3 3.7-4.6 7.1-9.4 10.1-14.5l2.4-4.2c2.8-5.1 5.3-10.3 7.4-15.8 2.6-6.8-.5-14.3-6.8-18l-3-1.7c-9.2-5.3-13.7-15.8-13.7-26.4s4.5-21.1 13.7-26.4l3-1.7zM184 192a40 40 0 1 1 80 0 40 40 0 1 1 -80 0z"/></svg>