<svg xmlns="http://www.w3.org/2000/svg" viewBox="0 0 576 512"><!--! Font Awesome Pro 7.0.0 by @fontawesome - https://fontawesome.com License - https://fontawesome.com/license (Commercial License) Copyright 2025 Fonticons, Inc. --><path fill="currentColor" d="M41-25C31.6-34.3 16.4-34.3 7-25S-2.3-.4 7 9L535 537c9.4 9.4 24.6 9.4 33.9 0s9.4-24.6 0-33.9L436.4 370.4C492.9 309.9 544 235.5 544 167.7l0-2.6C544 91.6 484.4 32 410.9 32 368.2 32 328 52.5 303 87.1l-15 20.7-15-20.7c-25-34.6-65.2-55.1-107.9-55.1-19.7 0-38.4 4.3-55.2 12L41-25zm1.8 137.6C35.8 128.7 32 146.5 32 165.1l0 2.6c0 112.2 139.9 242.5 212.9 298.2 12.4 9.4 27.6 14.1 43.1 14.1s30.8-4.6 43.1-14.1c10.7-8.2 22.9-18 35.9-29.1L42.8 112.6z"/></svg>