<svg xmlns="http://www.w3.org/2000/svg" viewBox="0 0 448 512"><!--! Font Awesome Pro 7.0.0 by @fontawesome - https://fontawesome.com License - https://fontawesome.com/license (Commercial License) Copyright 2025 Fonticons, Inc. --><path fill="currentColor" d="M64 32C28.7 32 0 60.7 0 96l0 80 448 0 0-80c0-35.3-28.7-64-64-64L64 32zM448 224L0 224 0 416c0 35.3 28.7 64 64 64l320 0c35.3 0 64-28.7 64-64l0-192zM120 280l208 0c13.3 0 24 10.7 24 24s-10.7 24-24 24l-208 0c-13.3 0-24-10.7-24-24s10.7-24 24-24zm0 96l208 0c13.3 0 24 10.7 24 24s-10.7 24-24 24l-208 0c-13.3 0-24-10.7-24-24s10.7-24 24-24zM289.2 89.9c2.5-6 8.3-9.9 14.8-9.9l64 0c6.5 0 12.3 3.9 14.8 9.9s1.1 12.9-3.5 17.4l-32 32c-6.2 6.2-16.4 6.2-22.6 0l-32-32c-4.6-4.6-5.9-11.5-3.5-17.4z"/></svg>