<svg xmlns="http://www.w3.org/2000/svg" viewBox="0 0 512 512"><!--! Font Awesome Pro 7.0.0 by @fontawesome - https://fontawesome.com License - https://fontawesome.com/license (Commercial License) Copyright 2025 Fonticons, Inc. --><path fill="currentColor" d="M246.6 16L416 16c17.7 0 32 14.3 32 32l0 64c0 17.7-14.3 32-32 32l-169.4 0c-8.5 0-16.6-3.4-22.6-9.4L180.7 91.3c-6.2-6.2-6.2-16.4 0-22.6L224 25.4c6-6 14.1-9.4 22.6-9.4zM224 201.4c6-6 14.1-9.4 22.6-9.4L480 192c17.7 0 32 14.3 32 32l0 64c0 17.7-14.3 32-32 32l-233.4 0c-8.5 0-16.6-3.4-22.6-9.4l-43.3-43.3c-6.2-6.2-6.2-16.4 0-22.6L224 201.4zm0 176c6-6 14.1-9.4 22.6-9.4L416 368c17.7 0 32 14.3 32 32l0 64c0 17.7-14.3 32-32 32l-169.4 0c-8.5 0-16.6-3.4-22.6-9.4l-43.3-43.3c-6.2-6.2-6.2-16.4 0-22.6L224 377.4zM32 80a48 48 0 1 1 96 0 48 48 0 1 1 -96 0zM80 208a48 48 0 1 1 0 96 48 48 0 1 1 0-96zm0 176a48 48 0 1 1 0 96 48 48 0 1 1 0-96z"/></svg>