<svg xmlns="http://www.w3.org/2000/svg" viewBox="0 0 576 512"><!--! Font Awesome Pro 7.0.0 by @fontawesome - https://fontawesome.com License - https://fontawesome.com/license (Commercial License) Copyright 2025 Fonticons, Inc. --><path fill="currentColor" d="M576 32c0-9.9-4.5-19.2-12.3-25.2S545.8-1.4 536.2 1l-128 32C394 36.5 384 49.3 384 64l0 249.2c-14.5-5.9-30.8-9.2-48-9.2-61.9 0-112 43-112 96s50.1 96 112 96 112-43 112-96l0-215 103.8-25.9c14.2-3.6 24.2-16.4 24.2-31l0-96zM64 64C46.3 64 32 78.3 32 96s14.3 32 32 32l240 0c17.7 0 32-14.3 32-32s-14.3-32-32-32L64 64zm0 160c-17.7 0-32 14.3-32 32s14.3 32 32 32l128 0c17.7 0 32-14.3 32-32s-14.3-32-32-32L64 224zm0 160c-17.7 0-32 14.3-32 32s14.3 32 32 32l80 0c17.7 0 32-14.3 32-32s-14.3-32-32-32l-80 0z"/></svg>