<svg xmlns="http://www.w3.org/2000/svg" viewBox="0 0 448 512"><!--! Font Awesome Pro 7.0.0 by @fontawesome - https://fontawesome.com License - https://fontawesome.com/license (Commercial License) Copyright 2025 Fonticons, Inc. --><path fill="currentColor" d="M274.6 27.5C269 12.2 255.9 0 239.7 0L208.3 0C192.1 0 179 12.2 173.4 27.5L117.7 229.3c-3.8 13.8-5.7 28.1-5.7 42.4 0 33.2 10.4 65.7 29.7 92.7l6.9 9.7 45.9 53.6c3.5 4.1 5.5 9.3 5.5 14.8l0 45.5c0 13.3 10.7 24 24 24s24-10.7 24-24l0-45.5c0-5.4 1.9-10.6 5.5-14.8l45.9-53.6 6.9-9.7c19.3-27 29.7-59.5 29.7-92.7 0-14.3-1.9-28.6-5.7-42.4L274.6 27.5zM280 453.1l0 34.9c0 13.3 10.7 24 24 24s24-10.7 24-24l0-48.2c68.3-25.9 120-79.1 120-159.8 0-64-44-102-88-140-9.5-8.2-19-16.4-28.1-24.9l29.2 105.7c4.6 16.6 6.9 33.7 6.9 50.9 0 39.9-12.5 78.8-35.7 111.3l-7.3 10.2-.4 .6-.5 .5-44.1 51.5 0 7.2zM88 140l0 0C44 178 0 216 0 280 0 360.7 51.7 414 120 439.8l0 48.2c0 13.3 10.7 24 24 24s24-10.7 24-24l0-42.1-44.1-51.5-.5-.5-.4-.6-7.3-10.2c-23.2-32.5-35.7-71.4-35.7-111.3 0-17.2 2.3-34.3 6.9-50.9l29.2-105.7C107 123.6 97.5 131.8 88 140z"/></svg>