<svg xmlns="http://www.w3.org/2000/svg" viewBox="0 0 448 512"><!--! Font Awesome Pro 7.0.0 by @fontawesome - https://fontawesome.com License - https://fontawesome.com/license (Commercial License) Copyright 2025 Fonticons, Inc. --><path fill="currentColor" d="M32 112C32 32.5 96.5-32 176-32S320 32.5 320 112l0 232c0 48.6-39.4 88-88 88s-88-39.4-88-88l0-216c0-17.7 14.3-32 32-32s32 14.3 32 32l0 216c0 13.3 10.7 24 24 24s24-10.7 24-24l0-232c0-44.2-35.8-80-80-80S96 67.8 96 112l0 232c0 75.1 60.9 136 136 136s136-60.9 136-136l0-184c0-17.7 14.3-32 32-32s32 14.3 32 32l0 184c0 110.5-89.5 200-200 200S32 454.5 32 344l0-232z"/></svg>