<svg xmlns="http://www.w3.org/2000/svg" viewBox="0 0 640 512"><!--! Font Awesome Pro 7.0.0 by @fontawesome - https://fontawesome.com License - https://fontawesome.com/license (Commercial License) Copyright 2025 Fonticons, Inc. --><path fill="currentColor" d="M512 188.8c0 15 12.2 27.2 27.2 27.2 9.5 0 18-5.4 24.9-12 7.9-7.5 17.5-12 27.9-12 26.5 0 48 28.7 48 64s-21.5 64-48 64c-10.4 0-20.1-4.4-27.9-12-6.9-6.6-15.3-12-24.9-12-15 0-27.2 12.2-27.2 27.2l0 76.8c0 26.5-21.5 48-48 48l-88.8 0c-12.8 0-23.2-10.4-23.2-23.2 0-9.2 5.8-17.3 13.2-22.8 11.6-8.7 18.8-20.7 18.8-34 0-26.5-28.7-48-64-48s-64 21.5-64 48c0 13.3 7.2 25.3 18.8 34 7.4 5.5 13.2 13.5 13.2 22.8 0 12.8-10.4 23.2-23.2 23.2L176 448c-26.5 0-48-21.5-48-48l0-76.8c0-15-12.2-27.2-27.2-27.2-9.5 0-18 5.4-24.9 12-7.9 7.5-17.5 12-27.9 12-26.5 0-48-28.7-48-64s21.5-64 48-64c10.4 0 20.1 4.4 27.9 12 6.9 6.6 15.3 12 24.9 12 15 0 27.2-12.2 27.2-27.2l0-76.8c0-26.5 21.5-48 48-48l88.8 0c12.8 0 23.2 10.4 23.2 23.2 0 9.2-5.8 17.3-13.2 22.8-11.6 8.7-18.8 20.7-18.8 34 0 26.5 28.7 48 64 48s64-21.5 64-48c0-13.3-7.2-25.3-18.8-34-7.4-5.5-13.2-13.5-13.2-22.8 0-12.8 10.4-23.2 23.2-23.2L464 64c26.5 0 48 21.5 48 48l0 76.8z"/></svg>