<svg xmlns="http://www.w3.org/2000/svg" viewBox="0 0 448 512"><!--! Font Awesome Pro 7.0.0 by @fontawesome - https://fontawesome.com License - https://fontawesome.com/license (Commercial License) Copyright 2025 Fonticons, Inc. --><path fill="currentColor" d="M64 32C28.7 32 0 60.7 0 96L0 416c0 35.3 28.7 64 64 64l320 0c35.3 0 64-28.7 64-64l0-320c0-35.3-28.7-64-64-64L64 32zM170.6 152.8l53.4 65.3 53.4-65.3c8.4-10.3 23.5-11.8 33.8-3.4s11.8 23.5 3.4 33.8L255 256 314.6 328.8c8.4 10.3 6.9 25.4-3.4 33.8s-25.4 6.9-33.8-3.4l-53.4-65.3-53.4 65.3c-8.4 10.3-23.5 11.8-33.8 3.4s-11.8-23.5-3.4-33.8L193 256 133.4 183.2c-8.4-10.3-6.9-25.4 3.4-33.8s25.4-6.9 33.8 3.4z"/></svg>