<svg xmlns="http://www.w3.org/2000/svg" viewBox="0 0 504 560"><!--! Font Awesome Pro 7.1.0 by @fontawesome - https://fontawesome.com License - https://fontawesome.com/license (Commercial License) Copyright 2025 Fonticons, Inc. --><path fill="currentColor" d="M109.7 53.7C145 18.4 194.6 0 252 0S359 18.4 394.3 53.7 448 138.6 448 196l0 53c0 5.5 1.6 10.9 4.7 15.5L490 320.5c9.1 13.7 14 29.8 14 46.2 0 35.2-22.7 68.5-60 76.6-38.7 8.4-103.8 18.7-192 18.7S98.7 451.8 60 443.3c-37.3-8.1-60-41.4-60-76.6 0-16.5 4.9-32.5 14-46.2l37.3-55.9c3.1-4.6 4.7-10 4.7-15.5l0-53c0-57.4 18.4-107 53.7-142.3zm95.6 463.4c-12.4-.5-23.7 7.3-27.7 19.1s.3 24.8 10.6 31.9c18.1 12.6 40.2 20 63.8 20s45.7-7.4 63.8-20c10.2-7.1 14.5-20.1 10.6-31.9s-15.2-19.6-27.7-19.1c-14.8 .6-30.4 .9-46.7 .9s-31.9-.3-46.7-.9z"/></svg>