<?xml version="1.0" encoding="UTF-8" standalone="no"?>
<svg width="640" xmlns="http://www.w3.org/2000/svg" xmlns:xlink="http://www.w3.org/1999/xlink" height="480">
 <defs>
  <linearGradient id="linearGradient15860" x1="5.2439" xlink:href="#linearGradient4869" spreadMethod="reflect" x2="5.928" gradientTransform="matrix(1.3011 .2851 -.034273 .14526 -429.6 254.57)" y1="-17.284" y2="-17.284"/>
  <linearGradient id="linearGradient15858" x1="3.2502" xlink:href="#linearGradient4869" spreadMethod="reflect" x2="3.866" gradientTransform="matrix(-1.3106 .11512 .011868 .19394 981.42 149.52)" y1="-1.2151" y2="-1.2151"/>
  <linearGradient id="svg_3" y1=".015625" x2=".51953" x1=".48828" y2=".87109">
   <stop stop-color="#f00" offset="0"/>
   <stop stop-color="#aa1212" offset="1"/>
  </linearGradient>
  <linearGradient id="linearGradient15866" x1="4.1106" xlink:href="#linearGradient4869" spreadMethod="reflect" x2="4.9168" gradientTransform="matrix(-1.0023 .17715 .014946 .13611 821.43 299.92)" y1="-21.505" y2="-21.505"/>
  <linearGradient id="svg_1" y1=".085938" x2=".88672" x1=".12109" y2=".89062">
   <stop stop-color="#b20707" offset="0"/>
   <stop stop-color="#f00" offset="1"/>
  </linearGradient>
  <linearGradient id="linearGradient15864" x1="7.0272" xlink:href="#linearGradient4869" spreadMethod="reflect" x2="7.9684" gradientTransform="matrix(.94639 .23924 -.012472 .14588 -251.64 263.33)" y1="-18.602" y2="-18.602"/>
  <linearGradient id="linearGradient15862" x1="3.1141" xlink:href="#linearGradient4869" spreadMethod="reflect" x2="3.6977" gradientTransform="matrix(-1.3837 .24781 .030580 .15516 1014.1 273.89)" y1="-17.24" y2="-17.24"/>
  <linearGradient id="linearGradient4869">
   <stop id="stop4871" stop-color="#fff" stop-opacity=".742" offset="0"/>
   <stop id="stop4873" stop-color="#dcc13b" stop-opacity="0" offset="1"/>
  </linearGradient>
  <linearGradient id="linearGradient15842" x1="6.8206" xlink:href="#linearGradient4869" spreadMethod="reflect" x2="9.3659" gradientTransform="matrix(.57149 -.23252 0 1.1242 13.681 85.489)" y1=".44984" y2=".44984"/>
  <linearGradient id="linearGradient15856" x1="4.754" xlink:href="#linearGradient4869" spreadMethod="reflect" x2="5.382" gradientTransform="matrix(1.4182 .18439 -.026458 .14753 -487.16 122.65)" y1="-.78128" y2="-.78128"/>
  <linearGradient id="linearGradient15854" x1="2.9764" xlink:href="#linearGradient4869" spreadMethod="reflect" x2="3.5586" gradientTransform="matrix(-1.4246 .12492 .020265 .14851 1044.3 101.73)" y1="7.3842" y2="7.3842"/>
  <linearGradient id="linearGradient15844" x1="6.7531" xlink:href="#linearGradient4869" spreadMethod="reflect" x2="7.7946" gradientTransform="matrix(1 0 0 1.0267 -280 -10.96)" y1=".59883" y2=".59883"/>
  <linearGradient id="linearGradient15852" x1="4.5239" xlink:href="#linearGradient4869" spreadMethod="reflect" x2="5.1061" gradientTransform="matrix(1.4246 .12492 -.020265 .14851 -493.73 101.73)" y1="7.3842" y2="7.3842"/>
  <radialGradient id="radialGradient15870" xlink:href="#linearGradient4869" gradientUnits="userSpaceOnUse" cy="307.51" cx="230.83" gradientTransform="matrix(6.3935 .058514 -.088864 3.9162 -1466.8 -1070.1)" r="2.2968"/>
  <radialGradient id="radialGradient15876" xlink:href="#linearGradient4869" gradientUnits="userSpaceOnUse" cy="307.51" cx="230.83" gradientTransform="matrix(-3.3488 -3.782 3.3244 -3.5441 -2.7602 2104.3)" r="2.2968"/>
  <radialGradient id="radialGradient15872" xlink:href="#linearGradient4869" gradientUnits="userSpaceOnUse" cy="282.94" cx="212.68" gradientTransform="matrix(2.1677 0 0 .92419 -549.64 -154.84)" r="3.9045"/>
  <radialGradient id="radialGradient15874" xlink:href="#linearGradient4869" gradientUnits="userSpaceOnUse" cy="283.62" cx="214.57" gradientTransform="matrix(.73666 -1.0208 27.861 5.0844 -7756.6 -1116.7)" r="3.9045"/>
 </defs>
 <g id="svg_4">
  <path id="path5884" fill-rule="evenodd" fill="url(#svg_3)" d="m336.31 333.48c0.25989 1.1505 0.37976 2.3109 0.37976 3.4906 0 24.218-54.144 43.906-120.85 43.906-66.71 0-120.85-19.688-120.85-43.906 0-1.1505 0.1398-2.2781 0.37974-3.4065h-0.42721c-11.754 5.5337-13.101 19.766-13.101 19.766l1.1867 72.167s12.124 42.808 135.05 41.046c123.52-1.7707 130.58-39.069 130.58-39.069l1.1867-72.798c0.20557-12.69-11.268-19.9-13.528-21.196z"/>
  <path id="path2179" stroke-linejoin="bevel" d="m215.17 8.2991c-49.692 0.64757-129.58 43.492-142.36 54.546-1.0211 0.8834-1.6511 1.9742-1.9462 3.2382 37.643 8.4787 89.346 13.752 146.39 13.752 55.414 0 105.82-4.9825 143.16-13.037-0.091797-0.90904-0.43109-1.6401-0.99683-2.1869-17.168-12.367-95.742-56.96-144.26-56.312z" fill-opacity=".89" stroke-linecap="round" stroke-width=".5" fill="url(#svg_1)"/>
  <path id="path3062" fill-rule="evenodd" fill="#bf0000" d="m71.863 65.696c-2.6369 11.296 20.933 35.663 20.933 35.663v0.757c35.201 7.6954 80.24 12.322 129.3 12.322 43.73 0 84.264-3.6782 117.48-9.925v-1.0934c0.005768-0.004715 0.042938-0.038002 0.047485-0.042053 0.75754-1.1591 22.732-27.619 21.788-36.966-37.342 8.0546-87.749 13.037-143.16 13.037-57.045 0-108.75-5.2733-146.39-13.752z"/>
  <g stroke-linejoin="bevel" stroke-linecap="round" stroke-width=".5">
   <path id="path3073" fill="#f00" d="m92.797 101.34l1.1392 234h0.42721c-0.23994 1.1284-0.37974 2.2559-0.37974 3.4065 0 24.218 54.144 43.906 120.85 43.906 66.71 0 120.85-19.688 120.85-43.906 0-1.6414-0.27506-3.2416-0.75946-4.8363v-0.042053l4.6518-230.13c-33.219 6.2468-73.754 9.925-117.48 9.925-49.063 0-94.102-4.6268-129.3-12.322z"/>
   <path id="path5756" fill="url(#linearGradient15842)" d="m298.55 110.07c-25.844 0.81344-52.521 1.4059-79.875 1.8084 3.9241 13.551 2.728 25.015-0.61726 37.597 2.453 0.08046 6.159 0.1692 10.988 0.21027 0.2491 0.002136 0.48561-0.001846 0.74075 0 29.836-1.2345 53.235-3.3026 69.505-5.1307-3.7436-12.144-3.1092-20.472-0.74066-34.485z"/>
   <path id="rect4867" fill="url(#linearGradient15844)" d="m134.02 109.04c4.2108 11.08 1.5083 22.185-1.7783 33.266 8.1921 1.1702 22.923 5.2515 52.731 7.4017h30.154c-4.9343-12.566-6.5035-22.488-0.77318-36.294-28.219-0.90638-55.16-2.3784-80.333-4.3737z"/>
  </g>
  <g fill-rule="evenodd">
   <path id="path3086" fill="#ad0606" d="m124.09 140.24s42.577 10.848 101.3 9.1224c58.718-1.7258 91.277-9.1224 91.277-9.1224l1.1132 38.462s-90.999-20.71-97.399-20.464c-6.4005 0.24654-97.678 21.203-97.678 21.203l1.3914-39.202z"/>
   <path id="path3088" fill="#c90808" d="m123.03 252.47s74.858-9.862 101.57-8.6293c26.715 1.2328 97.399 10.602 97.399 10.602l-1.3914-16.026h-195.63l-1.948 14.053z"/>
  </g>
  <path id="rect3090" stroke-linejoin="bevel" d="m125.25 191.32l97.678-18.841 97.678 18.841v46.845h-195.36v-46.845z" stroke-linecap="round" fill="#f00"/>
  <path id="path3093" fill-rule="evenodd" fill="#c94646" d="m223.93 161l97.121 20.71s7.2355 1.4793 6.4006 5.6707c-0.83484 4.1914-6.1222 3.6983-6.1222 3.6983l-97.399-18.738-98.234 19.478s-3.896 0.73962-4.7308-3.9448c-0.83484-4.6845 4.1742-5.1776 4.1742-5.1776l98.791-21.696z"/>
  <g stroke-linejoin="bevel" stroke-linecap="round">
   <g stroke-width=".5">
    <path id="path6639" fill="url(#linearGradient15852)" d="m117.05 72.661l-0.5696 2.0827c7.139 0.72589 20.742 2.9808 43.328 4.4091 22.298 1.4283 35.579 1.763 35.579 1.763l-0.3949-2.5353c-28.029-0.71552-54.391-2.7186-77.942-5.7195z"/>
    <path id="path6665" fill="url(#linearGradient15854)" d="m316.96 72.661l0.5696 2.0827c-7.139 0.72589-20.742 2.9808-43.328 4.4091-22.298 1.4283-35.579 1.763-35.579 1.763l0.3947-2.5353c28.029-0.71552 54.391-2.7186 77.942-5.7195z"/>
    <path id="path6669" fill="url(#linearGradient15856)" d="m122.66 138.52c-0.96558 0.35741-1.3738 1.2086-0.48167 1.7306 7.0985 0.98978 13.658 2.8476 36.157 5.1116 22.211 2.2533 35.65 3.2825 35.65 3.2825 1.5804-0.35547 0.83856-1.9454-0.18192-2.1362-27.97-1.7535-47.755-4.1175-71.144-7.9884z"/>
    <path id="path6671" fill="url(#linearGradient15858)" d="m300.46 141.46c0.97089-0.068802 1.9605 1.1802 0.4158 2.7272-6.5764 0.73404-19.174 3.7728-39.936 4.9652-20.497 1.201-32.68 1.2447-32.68 1.2447-2.3015-0.59241-0.9819-2.8552 0.49062-3.2878 25.711-0.10422 49.984-2.4389 71.71-5.6494z"/>
    <path id="path7574" fill="url(#linearGradient15860)" d="m122.27 386.11c-0.92088 0.29547-1.3626 1.1187-0.57536 1.6958 2.4507 1.7947 10.006 5.1385 30.671 8.8188 20.4 3.6515 35.198 4.0928 35.198 4.0928 1.4901-0.25464 0.92203-1.8874-0.008743-2.1423-11.286-0.81393-24.169-2.4604-34.598-4.4696s-20.916-4.7185-30.687-7.9955z"/>
    <path id="path7578" fill="url(#linearGradient15862)" d="m305.68 388.27c1.0258-0.15717 2.2091 0.74756 0.72742 2.1582-4.4678 1.5225-17.553 5.5359-39.516 8.6721-21.682 3.1155-37.09 3.9435-37.09 3.9435-2.5104-0.23727-1.343-2.2021 0.17847-2.7055 13.671-1.388 27.447-2.7057 40.107-4.7675s24.205-4.8676 35.594-7.3008z"/>
    <path id="path7582" fill="url(#linearGradient15864)" d="m131.07 367.22c-0.62618 0.32236-0.86378 1.1559-0.25217 1.7067 1.9041 1.713 7.5722 4.8135 22.574 7.8498 14.81 3.0157 25.35 3.0043 25.35 3.0043 1.0338-0.29907 0.48048-1.9082-0.20332-2.1337-8.0827-0.46689-17.375-1.7143-24.959-3.3979-7.5843-1.6836-15.275-4.0627-22.509-7.0292z"/>
    <path id="path7584" fill="url(#linearGradient15866)" d="m295.28 369.99c0.74271-0.11145 1.5446 0.70657 0.41171 1.8992-3.2775 1.2159-12.854 4.3887-28.746 6.576-15.689 2.1762-26.769 2.5146-26.769 2.5146-1.7863-0.26929-0.85052-1.9529 0.26477-2.3539 9.8636-0.86969 19.798-1.6756 28.972-3.1578 9.1733-1.4822 17.585-3.6407 25.867-5.4782z"/>
   </g>
   <rect id="rect8481" rx="4" ry="4" height="13.458" width="147.34" y="206.21" x="149.71" fill="#7f0000"/>
   <path id="path8491" fill="url(#radialGradient15870)" d="m147.05 207.41c-5.4646 0.3072-9.8258 4.3335-9.8258 9.2522 0 5.1186 4.713 9.2942 10.49 9.2942 4.5903 0 8.5107-2.6212 9.9208-6.2662h-1.8513c-3.366 0-6.0759-2.4008-6.0759-5.3831v-2.6915c0-1.3979 0.58713-2.7038 1.5664-3.6588-1.1118-0.35678-2.3098-0.54672-3.5601-0.54672-0.22565 0-0.44237-0.012482-0.66455 0z"/>
   <path id="path9383" fill="url(#radialGradient15872)" d="m129.39 186.07a5.2934 3.8425 0 1 1 -10.587 0"/>
   <path id="path10266" fill="url(#radialGradient15874)" d="m326.2 185.81c-0.1955 1.8213-2.5143 3.1618-5.176 2.9922-2.6616-0.16948-4.6632-1.7852-4.4677-3.6064 0.097717-0.91064-30.28-9.4644-29.344-10.006 0.93683-0.54158 33.189 6.929 34.52 7.0138 2.6616 0.16952 4.6633 1.7852 4.4677 3.6064z"/>
   <path id="path10273" fill="url(#radialGradient15876)" d="m296.67 204.67c-1.05 0.080688-2.0746 0.4978-3.038 1.2196l0.807 1.2616c0.02002 0.012283 0.027618 0.029587 0.047485 0.042053l0.0475 0.0421c1.5142 0.97714 2.5158 2.5798 2.5158 4.3738v2.6915c0 2.2134-1.5092 4.0914-3.655 4.9205l-0.0475 0.0421-0.3323 0.5047c-0.83844 1.2835-1.9446 1.9804-3.0379 2.0607 0.37686 1.2321 0.90198 2.3894 1.5664 3.4065 0.11996 0.18362 0.20676 0.37749 0.33228 0.54674 3.0886 4.1635 7.8248 4.0117 10.775-0.50468 3.0704-4.7 3.0704-12.374 0-17.074-1.639-2.509-3.831-3.6979-5.981-3.5326z"/>
  </g>
 </g>
</svg>
