<svg xmlns="http://www.w3.org/2000/svg" viewBox="0 0 512 512">
  <path fill="currentColor" fill-rule="evenodd" d="M122 2c-17 6-27 25-24 44 4 22 27 37 48 32 12-4 21-12 27-24 2-5 3-7 3-15 0-10-1-11-3-16-4-8-12-15-20-19-6-3-7-4-16-4-7 0-11 0-15 2m264 16c-10 4-19 11-24 22-2 5-2 7-2 17s0 11 3 17c4 8 11 15 20 19 6 3 7 3 16 3 7 0 9 0 14-2 12-6 22-18 24-30 3-17-7-36-24-44-7-3-20-4-27-2M198 28c-8 3-13 9-18 21-11 30-29 40-61 33h-13c-12 4-21 13-23 24-2 7-1 20 2 30 5 19 14 34 30 50 29 30 55 40 100 42 21 0 24 0 24-4-1-3 0-3-18-10l-23-10c-10-5-36-22-44-29-15-15-20-35-11-48 9-12 35-17 55-10l8 2c2 0 6-4 7-9 3-18 8-32 17-45 7-11 9-16 8-19-1-4-7-9-17-14-11-5-17-6-23-4m111 3c-9 2-15 6-26 16-20 20-33 43-39 72-3 14-3 40-1 54 3 12 9 30 14 41 3 6 4 8 6 8h3v-23c0-25 1-36 6-58 9-36 30-56 51-46 6 4 11 9 15 18 5 8 7 15 8 29 2 13 3 13 12 13 26-3 40-2 55 3 9 3 9 3 12 1 4-3 6-10 7-25 0-14 0-18-5-24-6-6-10-7-26-8-18 0-23-2-32-10-8-7-12-16-15-31-4-21-6-24-15-29l-15-3-15 2M80 192c-8 3-16 10-20 14-4 5-6 10-6 17s3 14 13 24c12 14 17 28 15 42-1 8-4 15-11 24-9 13-10 16-8 26 5 17 19 29 39 31 10 1 31 1 42-2 29-5 54-21 73-43a146 146 0 0 0 32-63l-3-1c-2 0-6 4-18 16-24 22-42 36-60 43-23 10-42 7-49-8-2-4-2-6-2-13 0-15 5-30 14-40 5-7 7-10 5-13 0-2-5-6-10-10-16-13-26-26-32-39-3-5-5-8-7-8l-7 3m278-1c-25 5-47 16-66 32-5 4-7 7-7 8l1 3 8-2c24-7 55-11 75-10 32 2 52 18 49 37-1 14-16 29-36 36-13 5-14 6-9 19 7 18 8 27 8 46 0 17 1 17 3 19 3 2 12 2 22 1 24-4 30-14 25-38-6-28 2-46 27-58l11-5c2 0 8-6 10-11 6-11 1-32-11-46-7-7-27-20-43-26-13-5-22-6-41-7-14 0-19 0-26 2M26 245c-10 5-17 11-22 21-3 6-3 7-3 18 0 10 0 11 3 17 4 7 11 15 19 19 5 2 6 3 16 3 9 0 10-1 16-4 12-6 20-16 23-32v-15c-3-12-11-20-23-26-8-4-21-4-29-1m250 10-1 1 8 14c11 18 18 33 23 49 10 30 10 51 0 64-7 11-21 13-35 6-9-5-20-15-27-23-4-7-8-9-11-7l-13 9c-16 12-28 18-50 22-1 0-3 1-3 3-3 5 6 28 14 36 5 5 11 8 17 7l14-6c17-10 24-12 35-10 13 2 22 8 33 22 8 11 13 13 22 13 13 0 29-12 37-26 7-13 11-33 11-54 0-22-4-41-14-59-11-24-31-46-53-59-4-3-5-3-7-2m189 34c-8 2-14 6-20 11a40 40 0 0 0 1 57c19 19 51 13 63-12 3-8 4-23 1-31-2-7-8-15-13-18-9-7-22-9-32-7M231 433c-18 7-29 27-25 46l3 12c3 6 11 14 18 18 6 2 8 2 17 2 8 0 10 0 15-2 12-5 21-18 23-31 3-16-8-35-24-43-4-2-7-2-14-3l-13 1"/>
</svg>
