<svg xmlns="http://www.w3.org/2000/svg" viewBox="0 0 300 300">
  <path fill="currentColor" d="M 110.517 35.585 C 91.004 38.863, 77.219 51.033, 71.612 69.932 C 70.290 74.387, 70 80.632, 70 104.682 C 70 120.807, 69.739 134, 69.420 134 C 69.101 134, 66.236 131.412, 63.053 128.250 C 59.870 125.088, 54.635 120.925, 51.421 119 C 45.877 115.680, 45.136 115.507, 37.038 115.645 C 30.246 115.760, 27.312 116.316, 22.692 118.365 C 15.449 121.577, 7.234 129.787, 3.354 137.689 C 0.764 142.962, 0.500 144.472, 0.505 154 C 0.509 163.142, 0.819 165.082, 2.899 169 C 8.112 178.817, 13.499 184.540, 21.500 188.758 C 25.907 191.081, 27.686 191.400, 36.500 191.447 C 45.771 191.496, 46.865 191.288, 51.500 188.597 C 59.645 183.869, 70.267 172.217, 74.936 162.888 C 77.171 158.422, 79 154.209, 79 153.525 C 79 152.841, 77.656 149.631, 76.013 146.391 C 74.370 143.151, 73.020 140.393, 73.013 140.262 C 73.006 140.131, 89.987 139.906, 110.750 139.762 L 148.500 139.500 148.769 116.750 L 149.038 94 156.519 94 L 164 94 164 103.552 L 164 113.105 169.250 112.802 L 174.500 112.500 174.788 103.250 L 175.075 94 183.038 94 L 191 94 191 99.500 L 191 105 196.481 105 C 201.515 105, 202.014 104.793, 202.599 102.463 C 202.949 101.068, 202.969 98.593, 202.643 96.963 L 202.050 94 211.525 94 L 221 94 221 134.500 L 221 175 145.500 175 L 70 175 70 199.818 C 70 219.729, 70.319 225.711, 71.612 230.068 C 74.239 238.923, 77.914 245.124, 84.155 251.231 C 94.162 261.023, 104.084 264.811, 122.057 265.703 C 139.288 266.558, 138 268.516, 138 241.465 L 138 219 185 219 L 232 219 232 240.929 C 232 260.228, 232.204 263.061, 233.699 264.556 C 235.169 266.026, 237.021 266.189, 247.449 265.765 C 274.087 264.681, 290.217 253.971, 297.914 232.254 C 300.125 226.015, 300.127 225.925, 300.106 150.254 C 300.086 78.629, 299.982 74.189, 298.191 68.794 C 292.029 50.226, 277.958 38.369, 258.582 35.419 C 245.757 33.466, 122.306 33.604, 110.517 35.585 M 30.754 131.599 C 19.002 135.213, 11.993 149.859, 16.156 162.101 C 18.888 170.134, 27.549 177, 34.950 177 C 43.909 177, 53.387 170.391, 59.858 159.630 L 63.217 154.045 60.428 149.273 C 55.937 141.585, 47.474 133.350, 42.229 131.562 C 36.826 129.721, 36.860 129.721, 30.754 131.599 M 0.355 153.500 C 0.352 158.450, 0.521 160.601, 0.731 158.280 C 0.940 155.959, 0.943 151.909, 0.736 149.280 C 0.530 146.651, 0.358 148.550, 0.355 153.500"/>
</svg>
