<svg xmlns="http://www.w3.org/2000/svg" viewBox="0 0 512 512">
<path fill="#ddad00" d="M142.131 381.198M120.443 42.092C120.072 42.692 120.334 48.892 121.025 55.868 122.734 73.123 121.834 101.029 119.098 115.65 113.658 144.719 102.901 172.578 86.723 199.5 79.301 211.85 71.923 222.169 58.657 238.756 46.63 253.794 40.414 263.476 35.702 274.509 28.692 290.924 26 305.061 26 325.455 26 359.052 35.782 385.759 56.918 409.867 67.788 422.265 88.355 438.659 95.136 440.331 99.522 441.412 100.624 438.988 98.594 432.724 93.944 418.376 94.445 403.998 100.066 390.496 104.313 380.295 107.276 376.029 119.039 363.175 133.842 347.001 139.451 339.666 144.411 330 148.769 321.509 153.3 309.246 154.557 302.548 154.923 300.597 155.51 299.003 155.861 299.007 156.213 299.011 157.235 302.048 158.133 305.757 163.479 327.837 171.047 340.053 198.553 371 206.162 379.561 211.611 389.038 214.079 398 216.152 405.531 215.66 421.296 213.056 430.746 209.57 443.393 211.35 444.796 222.095 437.873 244.494 423.441 262.315 404.262 272.925 383.171 277.465 374.146 282.641 358.067 284.57 347 286.561 335.581 286.034 313.718 283.487 302 278.365 278.442 267.866 256.933 252.003 237.5 225.216 204.685 206.613 159.041 204.156 120.105 203.619 111.6 203.171 109.51 201.691 108.605 199.052 106.992 197.527 109.581 196.129 118.05 195.486 121.94 191.811 133.439 187.961 143.602 184.112 153.765 179.94 165.62 178.691 169.947L176.42 177.814 173.725 163.521C168.619 136.444 157.73 102.947 146.074 78.467 140.13 65.984 128.918 45.801 126.231 42.75 124.499 40.784 121.465 40.439 120.443 42.092M255.366 195.488C254.607 197.466 258.183 203.384 267.458"/>
<path fill="#999999" d="M 288.248 242.987 293.242 252.222L298.5 261.943 317.782 261.972C340.632 262.005 343.009 261.4 346.01 254.788 347.749 250.956 347.958 248.13 347.978 228.218 348.002 203.832 347.41 200.562 342.199 196.286 339.51 194.08 339.342 194.072 297.719 194.036 261.634 194.005 255.859 194.203 255.366 195.488M378.164 195.689C371.64 198.904 371.5 199.581 371.5 228 371.5 256.524 371.638 257.177 378.326 260.351 381.406 261.812 387.258 262 429.651 261.996 475.88 261.993 477.612 261.924 480.81 259.974 486.469 256.524 487 253.781 487 228 487 202.219 486.469 199.476 480.81 196.026 477.61 194.075 475.902 194.008 429.5 194.027 387.011 194.043 381.117 194.234 378.164 195.689M307.499 284.001C307.159 284.552 307.902 289.615 309.151 295.251 311.112 304.102 311.444 308.638 311.579 328.5L311.735 351.5 394.784 351.756 477.833 352.011 481.052 349.302C486.59 344.643 487 342.435 486.998 317.282 486.997 291.276 486.516 289.226 479.5 285.282L475.5 283.033 391.809 283.016C336.993 283.006 307.904 283.346 307.499 284.001M124.437 357.25 121.5 360.5 124.75 357.563C126.537 355.948 128 354.485 128 354.313 128 353.54 127.175 354.221 124.437 357.25M306.233 374.25C305.676 374.938 303.326 380 301.011 385.5 293.737 402.778 283.812 418.621 270.668 433.94 268.101 436.932 266 440.004 266 440.767 266 441.929 271.858 442.1 302.25 441.827 334.949 441.532 338.86 441.321 342.173 439.673 348.608 436.471 349 434.525 349 405.802L349 380.406 345.208 376.703 341.416 373 324.33 373C311.868 373 306.971 373.338 306.233 374.25M376.697 376.798 372.905 380.682 373.203 407.262 373.5 433.842 376 436.516C381.224 442.103 380.227 442 429.2 441.994 457.195 441.991 475.917 441.595 478.209 440.959 480.248 440.392 483.286 438.56 484.959 436.887L488 433.846 488 408.324C488 387.712 487.712 382.194 486.5 379.642 483.497 373.312 485.379 373.529 430.495 373.207L380.489 372.915 376.697 376.798M215.286 412.5C215.294 415.25 215.488 416.256 215.718 414.736 215.947 413.216 215.941 410.966 215.704 409.736 215.467 408.506 215.279 409.75 215.286 412.5"/>
</svg>
