<svg xmlns="http://www.w3.org/2000/svg" viewBox="0 0 512 512">
<g id="#ee1e14ff">
<path fill="#ee1e14" opacity="1.00" d=" M 100.06 133.05 C 107.72 124.81 115.16 116.36 122.88 108.18 C 122.18 116.15 121.09 124.08 119.90 132.00 C 119.04 146.65 118.36 161.87 123.64 175.84 C 124.50 178.46 125.35 181.07 126.34 183.64 C 130.83 194.51 137.67 204.17 143.99 214.03 C 146.92 218.66 150.61 222.72 154.26 226.78 C 158.28 231.22 161.02 236.59 164.76 241.24 C 167.47 244.62 169.98 248.16 172.60 251.62 C 174.17 253.74 175.54 256.00 176.74 258.36 C 178.59 261.97 180.55 265.53 182.48 269.10 C 185.20 265.63 187.58 261.92 190.06 258.28 C 191.70 255.90 193.46 253.60 195.28 251.36 C 195.29 253.66 195.27 255.97 195.22 258.28 C 195.00 266.39 194.91 274.53 195.51 282.64 C 196.12 290.45 198.57 298.11 198.07 306.01 C 197.64 312.39 197.37 318.80 196.35 325.12 C 195.91 327.73 195.48 330.34 195.02 332.95 C 193.77 340.18 190.71 346.91 188.97 354.01 C 187.39 360.35 183.51 365.70 180.49 371.40 C 177.59 376.94 172.45 380.74 168.60 385.56 C 162.97 391.17 156.75 396.39 149.62 399.99 C 143.48 402.35 137.78 405.86 131.34 407.40 C 124.65 409.39 117.78 410.81 110.76 410.05 C 122.24 409.44 133.68 406.51 143.58 400.56 C 153.03 395.07 162.79 389.46 169.86 380.93 C 175.53 375.14 177.52 367.02 180.85 359.86 C 183.79 349.79 186.02 339.39 186.31 328.88 C 186.64 323.13 187.51 317.33 186.56 311.59 C 185.01 301.93 183.68 292.20 181.27 282.70 C 179.13 291.55 179.45 301.08 175.48 309.42 C 172.59 315.70 163.68 316.19 158.53 312.49 C 156.61 304.79 155.37 296.91 154.96 288.99 C 154.76 281.57 153.99 274.11 151.97 266.95 C 147.83 254.71 140.31 244.07 134.22 232.79 C 131.61 227.78 128.57 223.02 125.84 218.08 C 120.81 208.60 114.26 199.65 112.10 188.93 C 109.87 181.80 110.37 174.28 109.81 166.94 C 109.65 162.49 108.76 157.85 110.49 153.59 C 112.91 147.08 115.39 140.57 117.12 133.82 C 111.30 142.23 106.17 151.07 100.56 159.61 C 96.73 165.90 92.42 171.99 90.01 179.02 C 88.00 185.01 84.06 190.50 83.97 197.01 C 83.45 205.34 82.27 213.66 82.85 222.02 C 83.48 235.16 83.62 248.46 80.74 261.37 C 69.36 240.49 52.36 223.45 34.76 207.75 C 37.84 215.53 43.37 222.08 46.06 230.03 C 47.70 234.86 49.38 239.83 49.18 245.01 C 48.70 254.82 44.82 263.97 42.44 273.39 C 39.30 286.01 36.77 298.95 37.39 312.03 C 38.45 330.35 40.31 349.13 48.28 365.92 C 53.92 375.60 58.90 385.95 67.26 393.66 C 72.54 397.68 78.38 400.92 83.62 405.02 C 77.95 403.34 72.71 400.34 67.71 397.22 C 57.48 388.81 48.91 378.58 41.23 367.85 C 36.43 362.71 34.83 355.67 31.51 349.65 C 27.31 342.14 25.88 333.57 23.44 325.42 C 21.52 316.06 18.85 306.64 19.52 296.99 C 19.50 286.95 20.26 276.94 20.81 266.92 C 21.25 259.94 22.76 253.04 22.48 246.02 C 22.41 240.35 22.56 234.68 22.44 229.02 C 20.96 220.12 18.99 211.19 15.13 202.97 C 12.89 198.53 8.79 194.67 8.84 189.39 C 14.84 191.16 21.01 192.56 26.61 195.42 C 34.02 198.40 41.47 201.37 48.29 205.57 C 52.12 199.89 55.20 193.75 59.10 188.12 C 62.91 181.97 66.18 175.45 70.82 169.85 C 80.48 157.52 90.16 145.20 100.06 133.05 Z" />
</g>
<g id="#d94723ff">
<path fill="#d94723" opacity="1.00" d=" M 177.18 109.28 C 226.12 108.87 275.09 109.27 324.05 109.09 C 325.94 109.26 328.28 108.66 329.77 110.18 C 331.12 111.40 330.75 113.36 330.87 114.97 C 330.77 134.02 330.90 153.08 330.81 172.13 C 331.03 174.67 328.35 176.35 326.03 175.99 C 277.00 176.06 227.96 175.86 178.93 175.89 C 176.66 176.26 174.26 174.50 174.45 172.10 C 174.31 152.73 174.42 133.34 174.40 113.97 C 174.20 112.03 175.03 109.67 177.18 109.28 Z" />
<path fill="#d94723" opacity="1.00" d=" M 341.26 109.38 C 387.49 108.96 433.76 109.32 480.01 109.20 C 484.00 109.28 488.01 108.98 492.00 109.34 C 494.16 109.70 495.55 111.92 495.21 114.05 C 495.17 133.36 495.25 152.67 495.17 171.97 C 495.47 174.67 492.49 176.41 490.08 176.01 C 441.05 175.98 392.02 176.02 342.99 175.99 C 340.65 176.44 338.31 174.49 338.52 172.09 C 338.41 152.72 338.50 133.34 338.48 113.96 C 338.32 112.06 339.15 109.75 341.26 109.38 Z" />
<path fill="#d94723" opacity="1.00" d=" M 126.34 183.64 C 165.55 183.41 204.76 183.66 243.97 183.52 C 245.79 183.66 247.90 183.29 249.43 184.51 C 250.84 185.95 250.42 188.16 250.57 189.99 C 250.42 209.01 250.65 228.04 250.46 247.06 C 250.72 249.52 248.16 250.85 246.01 250.63 C 221.33 250.68 196.64 250.58 171.95 250.68 L 172.60 251.62 C 169.98 248.16 167.47 244.62 164.76 241.24 C 161.02 236.59 158.28 231.22 154.26 226.78 C 150.61 222.72 146.92 218.66 143.99 214.03 C 137.67 204.17 130.83 194.51 126.34 183.64 Z" />
<path fill="#d94723" opacity="1.00" d=" M 260.18 184.15 C 262.34 183.37 264.71 183.76 266.96 183.67 C 314.66 183.72 362.35 183.66 410.04 183.69 C 412.48 183.38 415.26 185.21 414.96 187.88 C 415.04 207.28 414.99 226.68 414.99 246.08 C 415.54 248.94 412.66 251.10 410.01 250.70 C 360.62 250.72 311.22 250.69 261.83 250.61 C 259.36 250.86 258.03 248.17 258.19 246.04 C 258.12 227.34 258.21 208.63 258.15 189.92 C 258.17 187.90 258.16 185.28 260.18 184.15 Z" />
<path fill="#d94723" opacity="1.00" d=" M 425.27 184.33 C 426.72 183.54 428.47 183.87 430.06 183.75 C 450.36 183.85 470.67 183.68 490.97 183.83 C 493.65 183.70 495.37 186.57 495.07 188.99 C 495.08 208.01 495.01 227.03 495.02 246.05 C 495.46 248.86 492.84 251.26 490.10 250.85 C 469.39 250.85 448.69 250.86 427.98 250.84 C 425.20 251.26 423.00 248.70 423.30 246.03 C 423.23 227.34 423.32 208.65 423.26 189.95 C 423.21 187.96 423.42 185.52 425.27 184.33 Z" />
<path fill="#d94723" opacity="1.00" d=" M 176.74 258.36 C 181.18 258.27 185.62 258.28 190.06 258.28 C 187.58 261.92 185.20 265.63 182.48 269.10 C 180.55 265.53 178.59 261.97 176.74 258.36 Z" />
<path fill="#d94723" opacity="1.00" d=" M 195.22 258.28 C 236.48 258.29 277.73 258.30 318.98 258.27 C 322.12 258.35 325.33 257.94 328.41 258.69 C 330.71 259.35 330.61 262.09 330.65 264.00 C 330.55 283.01 330.69 302.03 330.59 321.04 C 330.96 323.66 328.51 325.51 326.05 325.16 C 282.82 325.22 239.58 325.13 196.35 325.12 C 197.37 318.80 197.64 312.39 198.07 306.01 C 198.57 298.11 196.12 290.45 195.51 282.64 C 194.91 274.53 195.00 266.39 195.22 258.28 Z" />
<path fill="#d94723" opacity="1.00" d=" M 341.41 258.58 C 391.28 258.08 441.18 258.76 491.06 258.64 C 493.41 258.42 495.38 260.69 495.02 262.98 C 495.06 282.33 495.07 301.68 495.00 321.02 C 495.34 323.77 492.46 325.64 489.96 325.21 C 440.96 325.16 391.96 325.33 342.96 325.25 C 340.46 325.67 338.02 323.68 338.34 321.10 C 338.27 301.72 338.31 282.34 338.32 262.97 C 338.13 261.00 339.26 258.77 341.41 258.58 Z" />
<path fill="#d94723" opacity="1.00" d=" M 195.02 332.95 C 211.67 332.93 228.32 332.98 244.97 332.92 C 246.39 333.07 248.10 332.75 249.29 333.77 C 250.92 334.99 250.40 337.26 250.57 339.02 C 250.43 358.03 250.63 377.04 250.48 396.05 C 250.72 399.02 247.45 400.23 244.99 399.89 C 213.20 399.73 181.41 400.03 149.62 399.99 C 156.75 396.39 162.97 391.17 168.60 385.56 C 172.45 380.74 177.59 376.94 180.49 371.40 C 183.51 365.70 187.39 360.35 188.97 354.01 C 190.71 346.91 193.77 340.18 195.02 332.95 Z" />
<path fill="#d94723" opacity="1.00" d=" M 260.34 333.39 C 261.81 332.77 263.47 333.08 265.02 332.98 C 313.35 333.03 361.68 332.99 410.01 333.00 C 412.27 332.73 415.22 334.35 414.95 336.91 C 415.05 356.30 414.96 375.69 414.99 395.08 C 415.54 397.91 412.73 400.34 410.02 399.91 C 360.64 399.86 311.26 399.95 261.88 399.85 C 259.42 399.99 257.98 397.25 258.18 395.08 C 258.14 376.38 258.20 357.69 258.15 338.99 C 258.11 336.97 258.19 334.37 260.34 333.39 Z" />
<path fill="#d94723" opacity="1.00" d=" M 424.37 333.52 C 425.76 332.76 427.44 333.04 428.97 332.94 C 449.66 333.03 470.35 332.90 491.03 333.00 C 493.13 332.84 495.27 334.75 495.00 336.92 C 495.33 356.28 495.07 375.65 495.15 395.01 C 495.58 397.80 492.82 400.37 490.09 400.00 C 469.05 400.03 448.02 399.97 426.99 399.88 C 424.34 400.14 422.06 397.66 422.41 395.05 C 422.36 376.36 422.43 357.66 422.37 338.96 C 422.37 337.02 422.30 334.52 424.37 333.52 Z" />
</g>
<g id="#f38f19ff">
<path fill="#f38f19" opacity="1.00" d=" M 100.56 159.61 C 106.17 151.07 111.30 142.23 117.12 133.82 C 115.39 140.57 112.91 147.08 110.49 153.59 C 108.76 157.85 109.65 162.49 109.81 166.94 C 110.37 174.28 109.87 181.80 112.10 188.93 C 114.26 199.65 120.81 208.60 125.84 218.08 C 128.57 223.02 131.61 227.78 134.22 232.79 C 140.31 244.07 147.83 254.71 151.97 266.95 C 153.99 274.11 154.76 281.57 154.96 288.99 C 155.37 296.91 156.61 304.79 158.53 312.49 C 163.68 316.19 172.59 315.70 175.48 309.42 C 179.45 301.08 179.13 291.55 181.27 282.70 C 183.68 292.20 185.01 301.93 186.56 311.59 C 187.51 317.33 186.64 323.13 186.31 328.88 C 186.02 339.39 183.79 349.79 180.85 359.86 C 177.52 367.02 175.53 375.14 169.86 380.93 C 162.79 389.46 153.03 395.07 143.58 400.56 C 133.68 406.51 122.24 409.44 110.76 410.05 C 105.36 410.46 99.92 409.83 94.59 409.03 C 90.95 407.67 87.21 406.49 83.62 405.02 C 78.38 400.92 72.54 397.68 67.26 393.66 C 58.90 385.95 53.92 375.60 48.28 365.92 C 40.31 349.13 38.45 330.35 37.39 312.03 C 36.77 298.95 39.30 286.01 42.44 273.39 C 44.82 263.97 48.70 254.82 49.18 245.01 C 49.38 239.83 47.70 234.86 46.06 230.03 C 43.37 222.08 37.84 215.53 34.76 207.75 C 52.36 223.45 69.36 240.49 80.74 261.37 C 83.62 248.46 83.48 235.16 82.85 222.02 C 82.27 213.66 83.45 205.34 83.97 197.01 C 84.06 190.50 88.00 185.01 90.01 179.02 C 92.42 171.99 96.73 165.90 100.56 159.61 M 89.17 191.82 C 91.26 203.72 95.60 215.09 97.81 226.96 C 99.05 237.25 100.26 247.56 100.62 257.93 C 99.67 274.02 91.52 288.31 84.37 302.36 C 77.70 313.75 71.04 325.70 69.34 339.01 C 67.55 347.22 68.22 355.68 68.23 364.02 C 68.14 371.11 70.55 377.87 72.41 384.62 C 73.55 389.26 76.75 392.92 79.22 396.89 C 81.38 400.48 85.50 402.01 88.94 404.05 C 94.08 406.48 99.40 409.64 105.32 408.85 C 108.09 409.38 110.92 408.56 113.55 407.71 C 114.81 407.87 116.05 407.77 117.26 407.43 C 125.03 404.53 132.75 400.67 138.10 394.13 C 141.99 390.11 143.44 384.60 145.71 379.65 C 146.92 376.89 148.45 374.26 149.36 371.37 C 153.02 356.20 153.10 340.21 149.78 324.97 C 145.99 306.34 138.90 288.63 131.95 271.01 C 125.70 256.26 118.50 241.95 111.47 227.56 C 108.22 221.57 104.53 215.84 100.83 210.12 C 97.06 203.95 93.41 197.69 89.17 191.82 Z" />
</g>
<g id="#f3b326ff">
<path fill="#f3b326" opacity="1.00" d=" M 89.17 191.82 C 93.41 197.69 97.06 203.95 100.83 210.12 C 104.53 215.84 108.22 221.57 111.47 227.56 C 118.50 241.95 125.70 256.26 131.95 271.01 C 138.90 288.63 145.99 306.34 149.78 324.97 C 153.10 340.21 153.02 356.20 149.36 371.37 C 148.45 374.26 146.92 376.89 145.71 379.65 C 143.44 384.60 141.99 390.11 138.10 394.13 C 132.75 400.67 125.03 404.53 117.26 407.43 C 116.05 407.77 114.81 407.87 113.55 407.71 C 125.54 402.55 136.29 392.85 140.08 380.06 C 143.21 366.46 139.36 352.53 134.10 339.99 C 131.87 334.55 127.96 330.10 124.81 325.21 C 121.46 320.24 117.24 315.89 114.24 310.70 C 112.37 306.41 112.43 301.57 112.16 296.98 C 111.64 288.26 114.99 280.02 116.11 271.49 C 110.69 278.03 105.55 284.83 100.93 291.97 C 95.67 300.72 91.18 309.94 87.41 319.43 C 84.58 326.27 80.91 332.81 79.07 340.03 C 77.53 345.99 75.77 351.91 74.86 358.00 C 73.88 363.67 75.85 369.24 77.37 374.63 C 79.89 382.82 82.29 391.41 87.92 398.10 C 91.75 404.10 98.64 407.17 105.32 408.85 C 99.40 409.64 94.08 406.48 88.94 404.05 C 85.50 402.01 81.38 400.48 79.22 396.89 C 76.75 392.92 73.55 389.26 72.41 384.62 C 70.55 377.87 68.14 371.11 68.23 364.02 C 68.22 355.68 67.55 347.22 69.34 339.01 C 71.04 325.70 77.70 313.75 84.37 302.36 C 91.52 288.31 99.67 274.02 100.62 257.93 C 100.26 247.56 99.05 237.25 97.81 226.96 C 95.60 215.09 91.26 203.72 89.17 191.82 Z" />
</g>
<g id="#facc7dff">
<path fill="#facc7d" opacity="1.00" d=" M 100.93 291.97 C 105.55 284.83 110.69 278.03 116.11 271.49 C 114.99 280.02 111.64 288.26 112.16 296.98 C 112.43 301.57 112.37 306.41 114.24 310.70 C 117.24 315.89 121.46 320.24 124.81 325.21 C 127.96 330.10 131.87 334.55 134.10 339.99 C 139.36 352.53 143.21 366.46 140.08 380.06 C 136.29 392.85 125.54 402.55 113.55 407.71 C 110.92 408.56 108.09 409.38 105.32 408.85 C 98.64 407.17 91.75 404.10 87.92 398.10 C 82.29 391.41 79.89 382.82 77.37 374.63 C 75.85 369.24 73.88 363.67 74.86 358.00 C 75.77 351.91 77.53 345.99 79.07 340.03 C 80.91 332.81 84.58 326.27 87.41 319.43 C 91.18 309.94 95.67 300.72 100.93 291.97 Z" />
</g>

</svg>
