<svg xmlns="http://www.w3.org/2000/svg" viewBox="0 0 32 32"><path fill="currentColor" d="M28.784 3.471c-1.221 0-2.211 0.99-2.211 2.211v0c0.007 0.266 0.061 0.518 0.154 0.75l-0.005-0.015-10.373 17.778c-1.009 0.198-1.761 1.071-1.771 2.122v0.001c0 1.221 0.99 2.211 2.211 2.211s2.211-0.99 2.211-2.211v0c-0.009-0.25-0.059-0.486-0.144-0.705l0.005 0.015 10.425-17.836c0.979-0.222 1.701-1.080 1.71-2.108v-0.001c-0-1.221-0.99-2.211-2.211-2.211v0zM16.789 27.525c-0 0-0.001 0-0.001 0-0.667 0-1.208-0.541-1.208-1.208s0.541-1.208 1.208-1.208c0.667 0 1.208 0.541 1.208 1.208 0 0 0 0 0 0v0c0 0 0 0 0 0 0 0.667-0.54 1.207-1.207 1.208h-0zM28.785 6.89c0.667-0 1.208-0.541 1.208-1.208s-0.541-1.208-1.208-1.208c-0.667 0-1.208 0.541-1.208 1.208s0.541 1.208 1.208 1.208v0zM19.737 3.471c-0 0-0 0-0.001 0-1.221 0-2.211 0.99-2.211 2.211 0 0 0 0 0 0.001v-0c0.007 0.266 0.061 0.518 0.154 0.75l-0.005-0.015-10.373 17.778c-1.010 0.198-1.762 1.071-1.772 2.122v0.001c0 1.221 0.99 2.211 2.211 2.211s2.211-0.99 2.211-2.211v0c-0.009-0.25-0.059-0.486-0.144-0.705l0.005 0.015 10.425-17.836c0.979-0.222 1.701-1.080 1.71-2.108v-0.001c-0-1.221-0.99-2.211-2.211-2.211h-0zM7.741 27.526c-0 0-0 0-0 0-0.667 0-1.208-0.541-1.208-1.208s0.541-1.208 1.208-1.208c0.667 0 1.208 0.541 1.208 1.208 0 0 0 0 0 0v0c-0 0.667-0.541 1.207-1.208 1.208h-0zM19.737 6.89c-0.667-0-1.207-0.54-1.207-1.207s0.54-1.207 1.207-1.207c0.667 0 1.207 0.54 1.207 1.207s-0.54 1.207-1.207 1.207v0zM3.216 14.005c1.221-0 2.211-0.99 2.211-2.211v0c-0.010-0.25-0.060-0.486-0.145-0.705l0.005 0.015c-0.29-0.886-1.106-1.515-2.071-1.521h-0.001c-0.163 0.015-0.312 0.047-0.455 0.094l0.015-0.004c-1.009 0.197-1.762 1.070-1.771 2.12v0.001c0 1.221 0.99 2.211 2.211 2.211v0zM3.216 10.587c0.667 0 1.208 0.541 1.208 1.208s-0.541 1.208-1.208 1.208-1.208-0.541-1.208-1.208c0 0 0 0 0-0v0c0-0.667 0.541-1.208 1.208-1.208v0zM5.427 19.52c-0.009-0.25-0.060-0.486-0.145-0.705l0.005 0.015c-0.29-0.886-1.106-1.515-2.071-1.521h-0.001c-0.163 0.016-0.313 0.047-0.456 0.093l0.015-0.004c-1.009 0.198-1.761 1.071-1.771 2.122v0.001c0 1.221 0.99 2.211 2.211 2.211s2.211-0.99 2.211-2.211v0zM2.008 19.52c0.667 0 1.208 0.541 1.208 1.208s-0.541 1.208-1.208 1.208c-0.667 0-1.208-0.541-1.208-1.208s0.541-1.208 1.208-1.208v0z"/></svg>