<svg viewBox="0 0 512 512" id="svgContainer" xmlns="http://www.w3.org/2000/svg"><path d="" stroke="none" fill="currentColor" fill-rule="evenodd"></path><path d="M 249.864 7.469 C 249.606 7.727, 245.045 8.592, 239.729 9.391 C 234.413 10.189, 229.584 11.139, 228.997 11.502 C 228.411 11.864, 225.043 12.570, 221.513 13.070 C 217.983 13.569, 209.786 15.822, 203.297 18.076 C 196.809 20.330, 189.475 22.883, 187 23.749 C 184.525 24.616, 181.375 26.088, 180 27.021 C 178.625 27.954, 174.463 29.717, 170.750 30.940 C 167.037 32.163, 164 33.576, 164 34.082 C 164 34.587, 163.462 35, 162.804 35 C 162.146 35, 159.896 36.186, 157.804 37.636 C 155.712 39.086, 154 40.886, 154 41.636 C 154 42.386, 153.036 43, 151.858 43 C 150.679 43, 148.317 44.323, 146.608 45.939 C 144.898 47.555, 142.242 50.030, 140.705 51.439 C 139.167 52.848, 137.655 54, 137.345 54 C 137.036 54, 135.714 55.012, 134.408 56.250 C 133.103 57.487, 132.027 59.032, 132.017 59.683 C 132.008 60.333, 131.140 61.138, 130.089 61.472 C 129.039 61.805, 127.524 63.073, 126.723 64.289 C 125.922 65.505, 122.956 68.917, 120.133 71.871 C 117.310 74.825, 115 77.833, 115 78.554 C 115 79.275, 114.178 80.126, 113.173 80.445 C 112.167 80.764, 110.381 83.159, 109.202 85.767 C 107.989 88.452, 107.306 91.456, 107.630 92.692 C 107.947 93.903, 109.467 95.316, 111.049 95.867 C 113.898 96.860, 113.898 96.860, 110.449 100.626 C 108.552 102.696, 107 104.911, 107 105.547 C 107 106.183, 105.650 108.116, 104 109.843 C 102.350 111.569, 101 113.786, 101 114.769 C 101 115.751, 100.213 117.299, 99.250 118.207 C 98.287 119.116, 96.956 120.527, 96.291 121.344 C 95.625 122.161, 94.789 123.992, 94.432 125.414 C 94.075 126.836, 93.425 128, 92.987 128 C 92.548 128, 89.936 132.612, 87.181 138.250 C 84.427 143.887, 81.511 150.075, 80.702 152 C 79.892 153.925, 78.675 157.300, 77.996 159.500 C 77.318 161.700, 75.676 166.425, 74.348 170 C 73.019 173.575, 71.520 179.094, 71.016 182.264 C 70.512 185.435, 69.770 188.563, 69.367 189.215 C 68.964 189.867, 68.035 195.598, 67.303 201.950 C 66.571 208.303, 65.510 218.450, 64.946 224.500 C 64.382 230.550, 64.174 239.775, 64.485 245 C 64.796 250.225, 65.745 261.025, 66.595 269 C 67.444 276.975, 68.747 285.750, 69.489 288.500 C 70.232 291.250, 71.321 295.877, 71.910 298.783 C 72.498 301.688, 73.884 306.051, 74.990 308.478 C 76.095 310.905, 77 313.837, 77 314.993 C 77 316.150, 77.868 318.894, 78.930 321.091 C 79.991 323.288, 81.152 326.414, 81.508 328.037 C 81.865 329.660, 82.732 331.328, 83.437 331.744 C 84.141 332.160, 85.296 334.300, 86.004 336.500 C 86.712 338.700, 88.125 341.573, 89.145 342.885 C 90.165 344.197, 91 346.087, 91 347.085 C 91 348.084, 91.574 349.260, 92.275 349.700 C 92.977 350.140, 94.664 352.684, 96.025 355.352 C 97.386 358.021, 99.063 360.432, 99.750 360.709 C 100.437 360.987, 101 362.086, 101 363.152 C 101 364.219, 102.013 366.134, 103.250 367.409 C 104.487 368.684, 106.145 370.801, 106.934 372.114 C 107.723 373.426, 108.993 375.738, 109.757 377.250 C 110.521 378.763, 111.789 380, 112.573 380 C 113.358 380, 114 380.400, 114 380.889 C 114 381.377, 112.425 382.073, 110.500 382.434 C 107.478 383.001, 107 383.478, 107 385.923 C 107 387.481, 107.583 389.239, 108.294 389.829 C 109.006 390.420, 110.215 392.500, 110.981 394.452 C 111.747 396.403, 112.934 398, 113.619 398 C 114.305 398, 115.151 398.900, 115.500 400 C 115.849 401.100, 116.518 402, 116.986 402 C 117.454 402, 118.796 403.552, 119.968 405.448 C 121.140 407.345, 122.977 409.175, 124.050 409.516 C 125.122 409.856, 126 410.593, 126 411.152 C 126 411.712, 129.639 415.732, 134.087 420.085 C 138.535 424.438, 142.824 428, 143.618 428 C 144.413 428, 145.352 428.753, 145.705 429.674 C 146.058 430.594, 147.104 432.104, 148.029 433.029 C 148.954 433.954, 150.901 435.009, 152.355 435.374 C 153.810 435.739, 155 436.656, 155 437.411 C 155 438.166, 156.012 439.047, 157.250 439.369 C 158.487 439.690, 160.947 441.322, 162.715 442.995 C 164.483 444.668, 167.296 446.309, 168.965 446.643 C 170.634 446.977, 172 447.833, 172 448.546 C 172 449.258, 173.312 450.129, 174.916 450.482 C 176.521 450.834, 178.081 451.770, 178.385 452.561 C 178.689 453.352, 180.081 454, 181.478 454 C 182.876 454, 184.790 454.900, 185.732 456 C 186.674 457.100, 188.626 458, 190.069 458 C 191.513 458, 193.732 458.900, 195 460 C 196.268 461.100, 198.082 462, 199.031 462 C 199.979 462, 201.315 462.675, 202 463.500 C 202.685 464.325, 204.427 465.005, 205.872 465.011 C 207.318 465.017, 210.188 465.301, 212.250 465.642 C 214.313 465.983, 216 466.836, 216 467.537 C 216 468.313, 218.008 469.088, 221.133 469.518 C 223.956 469.907, 229.018 471.636, 232.383 473.362 C 238.500 476.500, 238.500 476.500, 269.579 476.500 C 298.685 476.500, 300.907 476.373, 304.579 474.500 C 306.736 473.400, 308.750 472.165, 309.056 471.756 C 309.361 471.346, 312.286 470.499, 315.556 469.872 C 318.825 469.246, 322.020 468.090, 322.656 467.304 C 323.292 466.518, 326.326 465.615, 329.399 465.298 C 332.472 464.981, 335.494 464.109, 336.116 463.361 C 336.737 462.612, 337.906 462, 338.715 462 C 339.523 462, 341.329 461.100, 342.727 460 C 344.126 458.900, 346.338 458, 347.645 458 C 348.951 458, 350.790 457.100, 351.732 456 C 352.674 454.900, 354.484 454, 355.754 454 C 357.024 454, 358.322 453.325, 358.638 452.500 C 358.955 451.675, 360.048 451, 361.068 451 C 362.088 451, 363.727 450.137, 364.711 449.081 C 365.695 448.026, 367.734 446.853, 369.243 446.474 C 370.752 446.096, 371.738 445.385, 371.434 444.893 C 371.130 444.402, 371.400 444, 372.033 444 C 372.666 444, 374.504 442.987, 376.118 441.750 C 377.732 440.512, 380.232 438.488, 381.672 437.250 C 383.113 436.012, 385.014 434.988, 385.896 434.972 C 386.778 434.957, 388.625 433.395, 390 431.500 C 391.375 429.605, 393.079 428.043, 393.787 428.028 C 394.495 428.012, 397.741 425.300, 401 422 C 404.259 418.700, 407.468 416, 408.130 416 C 408.792 416, 409.088 415.755, 408.788 415.455 C 408.489 415.155, 409.573 413.580, 411.199 411.955 C 412.824 410.330, 414.569 409, 415.077 409 C 415.585 409, 416.013 408.438, 416.028 407.750 C 416.043 407.063, 417.393 405.187, 419.028 403.583 C 420.663 401.979, 422 400.067, 422 399.333 C 422 398.600, 422.570 398, 423.266 398 C 423.963 398, 425.948 395.634, 427.678 392.741 C 429.408 389.849, 431.876 386.337, 433.162 384.938 C 434.448 383.538, 436.167 381.067, 436.981 379.446 C 437.796 377.826, 439.592 374.700, 440.972 372.500 C 442.352 370.300, 443.835 368.241, 444.267 367.925 C 444.699 367.608, 445.320 365.092, 445.647 362.334 C 446.006 359.301, 445.784 356.465, 445.085 355.159 C 444.450 353.972, 443.031 353, 441.933 353 C 440.836 353, 439.698 353.625, 439.405 354.388 C 439.112 355.151, 437.551 356.040, 435.936 356.363 C 434.228 356.704, 433 357.588, 433 358.475 C 433 359.334, 432.125 360, 430.996 360 C 429.894 360, 427.314 360.900, 425.261 362 C 423.209 363.100, 421.016 364, 420.387 364 C 419.759 364, 418.736 364.613, 418.114 365.363 C 417.456 366.155, 413.828 367.012, 409.446 367.409 C 402.386 368.048, 401.658 368.342, 397.954 372.046 C 395.779 374.221, 394 376.675, 394 377.500 C 394 378.325, 393.510 379, 392.910 379 C 392.311 379, 390.976 380.012, 389.944 381.250 C 388.911 382.488, 388.052 383.843, 388.033 384.263 C 388.015 384.683, 385.750 387.264, 383 390 C 380.250 392.736, 378 395.430, 378 395.987 C 378 396.544, 377.616 397, 377.146 397 C 376.676 397, 375.101 398.104, 373.646 399.452 C 372.191 400.801, 371 402.376, 371 402.952 C 371 403.529, 370.621 404, 370.158 404 C 369.696 404, 368.233 404.921, 366.908 406.047 C 365.584 407.173, 362.789 409.393, 360.697 410.980 C 358.605 412.567, 357.030 414.228, 357.197 414.669 C 357.364 415.111, 356.614 415.643, 355.532 415.852 C 354.450 416.060, 351.975 417.414, 350.032 418.859 C 348.089 420.305, 346.140 422.053, 345.700 422.744 C 345.260 423.435, 344.071 424, 343.057 424 C 342.043 424, 340.955 424.675, 340.638 425.500 C 340.322 426.325, 339.209 427, 338.166 427 C 337.123 427, 335.197 427.838, 333.885 428.862 C 332.573 429.887, 330.481 431.044, 329.235 431.434 C 327.990 431.825, 327.200 432.514, 327.480 432.967 C 327.760 433.420, 327.279 434.063, 326.412 434.395 C 325.546 434.728, 323.571 435, 322.025 435 C 320.449 435, 318.961 435.659, 318.638 436.500 C 318.260 437.485, 316.699 438, 314.090 438 C 311.906 438, 309.875 437.606, 309.577 437.125 C 309.280 436.644, 310.828 435.963, 313.018 435.613 C 315.208 435.263, 317 434.586, 317 434.110 C 317 433.633, 318.318 432.697, 319.928 432.030 C 321.539 431.363, 323.100 430.183, 323.397 429.408 C 323.694 428.634, 325.090 428, 326.500 428 C 327.910 428, 329.315 427.342, 329.624 426.538 C 329.932 425.734, 331.110 424.783, 332.240 424.424 C 333.370 424.065, 335.819 422.248, 337.681 420.386 C 339.543 418.524, 341.576 417, 342.199 417 C 342.822 417, 344.183 416.212, 345.222 415.250 C 346.262 414.287, 348.151 412.488, 349.421 411.250 C 350.690 410.013, 352.465 409, 353.365 409 C 354.264 409, 355 408.586, 355 408.079 C 355 407.572, 357.025 405.133, 359.500 402.658 C 362.397 399.761, 364 397.281, 364 395.696 C 364 394.010, 363.316 393.054, 361.830 392.666 C 360.637 392.354, 357.712 392.620, 355.330 393.257 C 352.949 393.894, 351 394.948, 351 395.600 C 351 396.252, 350.288 397.059, 349.418 397.393 C 348.548 397.727, 347.086 398.010, 346.168 398.023 C 345.251 398.036, 342.763 399.611, 340.640 401.523 C 338.516 403.435, 335.773 405, 334.543 405 C 333.312 405, 331.268 405.900, 330 407 C 328.732 408.100, 326.847 409, 325.812 409 C 324.777 409, 322.933 409.626, 321.715 410.392 C 320.497 411.157, 317.402 412.079, 314.839 412.440 C 312.275 412.801, 309.953 413.680, 309.680 414.393 C 309.320 415.330, 304.793 415.913, 293.341 416.496 C 284.628 416.939, 276.600 417.291, 275.500 417.278 C 274.400 417.265, 265.921 416.899, 256.657 416.466 C 244.261 415.887, 239.681 415.332, 239.310 414.366 C 239.033 413.645, 237.163 412.790, 235.153 412.467 C 233.144 412.144, 230.375 411.293, 229 410.576 C 227.625 409.859, 225.208 408.963, 223.629 408.587 C 222.050 408.210, 220.106 407.248, 219.308 406.451 C 218.510 405.653, 216.901 405, 215.732 405 C 214.564 405, 211.896 403.814, 209.804 402.364 C 207.712 400.914, 206 399.397, 206 398.992 C 206 398.587, 204.200 397.968, 202 397.616 C 199.575 397.228, 198 396.433, 198 395.597 C 198 394.838, 196.875 393.934, 195.500 393.589 C 194.125 393.244, 193 392.509, 193 391.956 C 193 391.403, 191.875 390.523, 190.500 390 C 189.125 389.477, 188 388.588, 188 388.025 C 188 387.461, 187.325 387, 186.500 387 C 185.675 387, 183.244 385.244, 181.099 383.099 C 178.953 380.953, 176.194 378.879, 174.967 378.489 C 173.377 377.985, 173.099 377.557, 174 377 C 174.924 376.429, 174.741 376.053, 173.320 375.602 C 172.251 375.262, 168.929 372.243, 165.938 368.893 C 162.947 365.542, 159.262 361.480, 157.750 359.866 C 156.238 358.252, 155 356.578, 155 356.147 C 155 355.716, 153.451 353.622, 151.557 351.494 C 149.664 349.365, 148.342 347.255, 148.621 346.805 C 148.899 346.354, 148.423 345.716, 147.563 345.386 C 146.704 345.056, 146 344.145, 146 343.362 C 146 342.578, 145.325 341.678, 144.500 341.362 C 143.675 341.045, 143 340.127, 143 339.322 C 143 338.516, 142.325 337.182, 141.500 336.357 C 140.675 335.532, 140 334.016, 140 332.988 C 140 331.959, 139.589 330.864, 139.087 330.553 C 138.584 330.243, 137.284 328.079, 136.198 325.744 C 135.112 323.410, 133.048 318.940, 131.612 315.812 C 130.175 312.683, 129 309.403, 129 308.522 C 129 307.641, 128.100 305.156, 127 303 C 125.900 300.844, 125 298.167, 125 297.051 C 125 295.935, 124.086 292.654, 122.969 289.761 C 121.852 286.867, 120.283 280, 119.483 274.500 C 118.683 269, 117.747 263.375, 117.404 262 C 117.061 260.625, 116.552 252.204, 116.273 243.287 C 115.899 231.295, 116.175 224.525, 117.335 217.287 C 118.198 211.904, 119.396 204.125, 119.999 200 C 120.601 195.875, 121.798 190.475, 122.658 188 C 123.519 185.525, 124.816 181.250, 125.540 178.500 C 126.264 175.750, 127.797 170.800, 128.947 167.500 C 130.097 164.200, 131.704 160.082, 132.519 158.349 C 133.333 156.616, 134 154.526, 134 153.706 C 134 152.885, 134.675 151.955, 135.500 151.638 C 136.325 151.322, 137 150.374, 137 149.531 C 137 148.689, 137.430 148, 137.955 148 C 138.480 148, 139.205 146.425, 139.566 144.500 C 139.942 142.495, 140.816 141, 141.611 141 C 142.375 141, 143 140.100, 143 139 C 143 137.900, 143.461 137, 144.025 137 C 144.588 137, 145.472 135.888, 145.989 134.528 C 146.506 133.169, 149.296 128.894, 152.189 125.028 C 155.081 121.163, 157.797 118, 158.224 118 C 158.651 118, 159 117.525, 159 116.944 C 159 116.363, 161.250 113.602, 164 110.808 C 166.750 108.014, 169 105.492, 169 105.203 C 169 104.915, 170.463 103.380, 172.250 101.792 C 174.037 100.205, 177.147 97.352, 179.161 95.453 C 181.175 93.554, 183.087 92, 183.411 92 C 183.735 92, 185.012 91.079, 186.250 89.954 C 187.488 88.828, 189.175 87.310, 190 86.580 C 190.825 85.851, 192.471 84.954, 193.658 84.589 C 194.844 84.223, 196.068 83.266, 196.376 82.462 C 196.685 81.658, 197.571 81, 198.346 81 C 199.121 81, 200.315 80.325, 201 79.500 C 201.685 78.675, 203.072 78, 204.083 78 C 205.095 78, 206.727 77.140, 207.711 76.088 C 208.695 75.037, 211.289 73.843, 213.475 73.435 C 215.661 73.027, 218.056 72.087, 218.796 71.347 C 219.537 70.606, 220.863 70, 221.743 70 C 222.623 70, 224.119 69.297, 225.068 68.438 C 226.017 67.580, 229.428 66.627, 232.647 66.321 C 235.866 66.015, 239.007 65.133, 239.626 64.361 C 240.313 63.504, 244.211 62.588, 249.626 62.009 C 254.507 61.488, 262.451 60.602, 267.279 60.042 C 273.309 59.342, 278.946 59.350, 285.279 60.069 C 290.351 60.645, 298.059 61.517, 302.409 62.006 C 306.759 62.496, 310.653 63.438, 311.062 64.100 C 311.471 64.763, 314.590 65.685, 317.993 66.151 C 321.574 66.640, 325.252 67.840, 326.725 68.998 C 328.125 70.099, 329.884 71, 330.635 71 C 331.386 71, 332 71.392, 332 71.872 C 332 72.352, 333.806 73.033, 336.014 73.386 C 338.222 73.739, 340.922 74.922, 342.014 76.014 C 343.106 77.106, 345.238 78.034, 346.750 78.077 C 348.262 78.119, 350.385 78.318, 351.466 78.520 C 352.547 78.721, 354.010 78.407, 354.716 77.821 C 355.422 77.235, 356 75.637, 356 74.269 C 356 72.622, 354.342 70.134, 351.082 66.892 C 348.378 64.201, 345.754 62, 345.252 62 C 344.750 62, 342.351 60.206, 339.920 58.014 C 337.489 55.822, 334.860 54.022, 334.079 54.014 C 333.297 54.006, 331.831 53.252, 330.822 52.339 C 329.812 51.425, 327.977 50.089, 326.743 49.370 C 325.509 48.651, 323.262 47.554, 321.750 46.933 C 320.238 46.312, 319 45.173, 319 44.402 C 319 43.447, 317.796 43, 315.222 43 C 312.682 43, 310.884 42.345, 309.732 41 C 308.790 39.900, 307.003 38.993, 305.760 38.985 C 304.517 38.976, 302.838 38.550, 302.028 38.038 C 300.768 37.242, 300.805 37.012, 302.286 36.444 C 303.237 36.079, 305.541 36.067, 307.407 36.417 C 309.273 36.767, 311.349 37.716, 312.022 38.526 C 312.695 39.337, 314.508 40, 316.051 40 C 317.594 40, 319.560 40.703, 320.418 41.561 C 321.277 42.420, 323.559 43.379, 325.490 43.692 C 327.420 44.005, 329 44.842, 329 45.551 C 329 46.261, 330.319 47.131, 331.931 47.485 C 333.543 47.839, 335.398 48.775, 336.053 49.564 C 336.709 50.354, 337.804 51, 338.488 51 C 339.171 51, 340.874 51.900, 342.273 53 C 343.671 54.100, 345.292 55, 345.874 55 C 346.457 55, 348.508 56.575, 350.433 58.500 C 352.358 60.425, 354.608 62, 355.431 62 C 356.255 62, 357.411 62.900, 358 64 C 358.589 65.100, 359.664 66, 360.389 66 C 361.114 66, 362.899 67.104, 364.354 68.452 C 365.809 69.801, 367 71.376, 367 71.952 C 367 72.529, 367.468 73, 368.040 73 C 368.611 73, 370.844 74.800, 373 77 C 375.156 79.200, 377.389 81, 377.960 81 C 378.532 81, 379 81.645, 379 82.433 C 379 83.221, 379.900 84.151, 381 84.500 C 382.100 84.849, 383 85.591, 383 86.148 C 383 86.705, 384.688 89.187, 386.750 91.664 C 388.813 94.141, 392.188 97.930, 394.250 100.084 C 398 104, 398 104, 413.750 103.986 C 422.413 103.979, 430.400 103.731, 431.500 103.435 C 432.601 103.139, 434.048 101.738, 434.717 100.320 C 435.623 98.400, 435.650 97.202, 434.822 95.622 C 434.211 94.455, 432.426 91.860, 430.855 89.856 C 429.285 87.852, 428 85.822, 428 85.345 C 428 84.868, 426.650 83.363, 425 82 C 423.350 80.637, 422 79.050, 422 78.474 C 422 77.898, 419.975 75.283, 417.500 72.663 C 415.025 70.042, 413 67.681, 413 67.416 C 413 67.150, 411.634 65.598, 409.966 63.966 C 408.297 62.335, 406.606 61, 406.210 61 C 405.813 61, 404.890 59.649, 404.159 57.998 C 403.398 56.278, 401.799 54.737, 400.415 54.389 C 399.087 54.056, 398 53.187, 398 52.459 C 398 51.731, 397.111 50.853, 396.024 50.508 C 394.938 50.163, 392.455 48.333, 390.506 46.440 C 388.558 44.548, 386.283 43, 385.450 43 C 384.618 43, 377.314 39.567, 369.219 35.370 C 361.123 31.174, 353.958 27.311, 353.296 26.786 C 352.634 26.261, 349.034 24.375, 345.296 22.595 C 341.558 20.815, 335.575 18.410, 332 17.250 C 328.425 16.091, 322.800 14.475, 319.500 13.661 C 316.200 12.846, 310.350 11.475, 306.500 10.616 C 302.650 9.756, 295.450 8.592, 290.500 8.029 C 285.550 7.466, 274.488 7.004, 265.917 7.003 C 257.346 7.001, 250.122 7.211, 249.864 7.469 M 218.333 30.667 C 218.700 31.033, 219.300 31.033, 219.667 30.667 C 220.033 30.300, 219.733 30, 219 30 C 218.267 30, 217.967 30.300, 218.333 30.667 M 272.750 30.737 C 275.637 30.939, 280.363 30.939, 283.250 30.737 C 286.137 30.535, 283.775 30.370, 278 30.370 C 272.225 30.370, 269.863 30.535, 272.750 30.737 M 291 34 C 291 34.550, 293.025 35, 295.500 35 C 297.975 35, 300 34.550, 300 34 C 300 33.450, 297.975 33, 295.500 33 C 293.025 33, 291 33.450, 291 34 M 183.750 41.662 C 184.438 41.940, 185.563 41.940, 186.250 41.662 C 186.938 41.385, 186.375 41.158, 185 41.158 C 183.625 41.158, 183.063 41.385, 183.750 41.662 M 170 48.500 C 170 48.775, 170.225 49, 170.500 49 C 170.775 49, 171 48.775, 171 48.500 C 171 48.225, 170.775 48, 170.500 48 C 170.225 48, 170 48.225, 170 48.500 M 56.500 53.724 C 51.766 54.011, 50.135 54.553, 48.772 56.294 C 47.318 58.151, 47.041 60.806, 47.022 73.076 C 47.001 87.033, 47.098 87.744, 49.314 89.826 C 51.436 91.819, 52.671 92, 64.140 92 C 75.925 92, 76.778 91.866, 78.826 89.686 C 80.853 87.527, 80.998 86.397, 80.978 72.936 C 80.959 60.769, 80.684 58.165, 79.228 56.369 C 77.817 54.629, 76.125 54.158, 70 53.799 C 65.875 53.558, 59.800 53.524, 56.500 53.724 M 114 93.500 C 114 93.775, 114.225 94, 114.500 94 C 114.775 94, 115 93.775, 115 93.500 C 115 93.225, 114.775 93, 114.500 93 C 114.225 93, 114 93.225, 114 93.500 M 40.080 107.403 C 39.440 108.175, 38.480 110.312, 37.947 112.153 C 37.303 114.379, 37.339 117.247, 38.053 120.717 C 39.066 125.632, 39.335 125.972, 42.714 126.606 C 44.687 126.976, 48.346 126.879, 50.845 126.390 C 54.928 125.590, 55.480 125.146, 56.296 122 C 56.795 120.075, 56.941 116.250, 56.619 113.500 C 56.266 110.477, 55.360 108.006, 54.327 107.250 C 53.387 106.563, 50.059 106, 46.931 106 C 43.271 106, 40.830 106.500, 40.080 107.403 M 72.739 108.751 C 71.193 110.365, 69.829 113.215, 69.440 115.648 C 69.054 118.064, 69.278 121.313, 69.978 123.433 C 70.638 125.434, 72.271 127.786, 73.606 128.661 C 75.332 129.793, 77.487 130.112, 81.073 129.767 C 84.910 129.398, 86.518 128.714, 87.807 126.901 C 88.738 125.591, 89.826 123.165, 90.225 121.509 C 90.623 119.854, 90.690 116.623, 90.373 114.329 C 90.056 112.036, 88.925 109.223, 87.859 108.079 C 86.370 106.481, 84.702 106, 80.648 106 C 76.200 106, 74.962 106.431, 72.739 108.751 M 197.771 112.286 C 195.171 113.504, 193.033 115.012, 193.021 115.639 C 193.010 116.265, 191.523 117.054, 189.719 117.393 C 187.914 117.732, 185.668 118.907, 184.728 120.004 C 183.789 121.102, 182.366 122, 181.566 122 C 180.767 122, 179.316 123.350, 178.341 125 C 177.366 126.650, 176.231 128, 175.819 128 C 175.406 128, 173.703 129.335, 172.034 130.966 C 170.366 132.598, 169 134.360, 169 134.882 C 169 135.403, 167.664 137.091, 166.032 138.632 C 164.399 140.173, 162.789 142.686, 162.452 144.217 C 162.116 145.748, 161.427 147, 160.921 147 C 160.414 147, 160 147.681, 160 148.514 C 160 149.346, 159.438 151.034, 158.750 152.264 C 158.063 153.494, 157.266 154.725, 156.980 155 C 156.693 155.275, 155.906 156.759, 155.230 158.297 C 154.553 159.835, 154 162.889, 154 165.082 C 154 167.276, 154.727 170.180, 155.615 171.535 C 156.701 173.192, 158.156 174, 160.056 174 C 161.610 174, 163.162 174.453, 163.504 175.007 C 163.847 175.561, 163.311 176.322, 162.313 176.697 C 161.316 177.073, 158.250 179.692, 155.500 182.517 C 152.750 185.343, 149.262 189.169, 147.750 191.020 C 146.238 192.871, 145 194.895, 145 195.518 C 145 196.142, 143.909 197.677, 142.575 198.930 C 141.235 200.188, 139.624 203.399, 138.975 206.104 C 138.329 208.797, 137.395 211, 136.900 211 C 136.405 211, 136 212.527, 136 214.393 C 136 216.487, 135.426 218.006, 134.500 218.362 C 133.655 218.686, 133 220.174, 133 221.769 C 133 223.326, 132.489 225.111, 131.864 225.736 C 131.227 226.373, 130.329 232.942, 129.820 240.686 C 129.321 248.284, 129.182 260.125, 129.512 267 C 129.866 274.382, 130.791 281.547, 131.771 284.500 C 132.683 287.250, 134.008 290.388, 134.715 291.473 C 135.422 292.557, 136 294.197, 136 295.116 C 136 296.034, 136.675 297.045, 137.500 297.362 C 138.325 297.678, 139 298.851, 139 299.969 C 139 301.086, 139.900 302.900, 141 304 C 142.100 305.100, 143 306.450, 143 307 C 143 307.550, 143.420 308, 143.933 308 C 144.446 308, 145.137 308.855, 145.468 309.901 C 145.800 310.946, 147.181 312.079, 148.536 312.420 C 149.891 312.760, 151 313.503, 151 314.071 C 151 314.639, 152.419 315.599, 154.153 316.203 C 157.100 317.231, 157.186 317.391, 155.462 318.651 C 154.448 319.393, 152.466 320.014, 151.059 320.032 C 149.651 320.049, 147.632 320.720, 146.571 321.523 C 145.030 322.689, 144.690 324.038, 144.881 328.229 C 145.013 331.115, 145.768 334.192, 146.560 335.067 C 147.352 335.942, 148 337.137, 148 337.724 C 148 338.310, 149.117 339.850, 150.483 341.145 C 151.848 342.440, 152.973 344.083, 152.983 344.795 C 152.992 345.508, 154.013 347.111, 155.250 348.357 C 156.488 349.604, 158.106 351.772, 158.846 353.176 C 159.587 354.579, 161.292 356.914, 162.637 358.364 C 165.081 361, 165.081 361, 213.040 361 C 250.745 361, 260.999 361.267, 260.994 362.250 C 260.990 362.938, 260.363 364.697, 259.600 366.159 C 258.837 367.622, 257.898 371.110, 257.512 373.909 C 257.127 376.709, 256.455 379, 256.017 379 C 255.580 379, 254.927 380.575, 254.566 382.500 C 254.205 384.425, 253.480 386, 252.955 386 C 252.430 386, 252 386.888, 252 387.973 C 252 389.835, 251.174 389.962, 237.356 390.223 C 222.932 390.496, 222.684 390.539, 220.793 393.073 C 219.503 394.802, 219.079 396.468, 219.501 398.147 C 219.935 399.878, 221.754 401.470, 225.414 403.324 C 228.321 404.796, 231.955 406, 233.490 406 C 235.024 406, 236.779 406.634, 237.390 407.410 C 238.130 408.349, 242.668 409.231, 251 410.053 C 257.875 410.731, 269.575 411.291, 277 411.297 C 284.425 411.303, 295.450 410.736, 301.500 410.036 C 307.702 409.319, 313.189 408.162, 314.079 407.382 C 314.947 406.622, 316.522 405.997, 317.579 405.994 C 318.635 405.990, 320.694 405.365, 322.153 404.603 C 323.613 403.842, 326.376 402.701, 328.295 402.068 C 330.855 401.223, 331.918 400.210, 332.290 398.261 C 332.662 396.316, 332.089 394.846, 330.149 392.765 C 327.500 389.923, 327.500 389.923, 309.856 390.086 C 300.151 390.175, 291.770 389.976, 291.231 389.643 C 290.610 389.259, 290.576 387.293, 291.141 384.269 C 291.630 381.646, 292.473 379.350, 293.015 379.167 C 293.557 378.983, 294.003 377.633, 294.006 376.167 C 294.010 374.700, 294.668 372.243, 295.469 370.708 C 296.270 369.172, 297.215 366.370, 297.570 364.480 C 298.214 361.045, 298.214 361.045, 358.429 360.773 C 414.229 360.520, 418.772 360.372, 420.393 358.750 C 421.356 357.788, 423.250 357, 424.603 357 C 425.956 357, 427.322 356.325, 427.638 355.500 C 427.955 354.675, 428.845 354, 429.617 354 C 430.388 354, 431.790 353.100, 432.732 352 C 433.674 350.900, 434.954 350, 435.576 350 C 436.199 350, 437.899 348.896, 439.354 347.548 C 440.809 346.199, 442 344.613, 442 344.023 C 442 343.433, 443.144 342.516, 444.541 341.984 C 445.939 341.453, 447.852 339.667, 448.791 338.015 C 449.731 336.364, 450.837 335.010, 451.250 335.006 C 451.663 335.003, 452 334.100, 452 333 C 452 331.900, 452.565 331, 453.256 331 C 453.947 331, 455.142 329.538, 455.913 327.750 C 456.684 325.962, 458.143 323.306, 459.157 321.846 C 460.171 320.386, 461 318.674, 461 318.041 C 461 317.408, 461.939 314.830, 463.086 312.311 C 464.547 309.105, 464.983 306.725, 464.542 304.374 C 464.096 301.997, 463.268 300.877, 461.706 300.540 C 460.493 300.278, 455.096 299.937, 449.713 299.782 C 442.811 299.583, 439.679 299.101, 439.090 298.147 C 438.416 297.055, 437.459 297.248, 434.135 299.147 C 431.869 300.441, 430.012 302.063, 430.008 302.750 C 430.003 303.438, 429.550 304, 429 304 C 428.450 304, 428 304.572, 428 305.271 C 428 305.970, 426.988 307.524, 425.750 308.725 C 424.513 309.926, 421.533 312.729, 419.129 314.954 C 415.264 318.532, 414.194 319, 409.879 319 C 407.196 319, 405 318.577, 405 318.059 C 405 317.541, 405.404 316.868, 405.898 316.563 C 406.392 316.258, 407.113 312.854, 407.500 309 C 407.887 305.146, 408.554 301.775, 408.983 301.510 C 409.412 301.246, 410.079 297.647, 410.466 293.514 C 410.854 289.381, 411.582 286, 412.085 286 C 412.588 286, 413 281.999, 413 277.108 C 413 268.216, 413 268.216, 431.750 267.800 C 449.204 267.413, 450.811 267.218, 455 264.981 C 457.475 263.660, 460.095 261.998, 460.821 261.289 C 461.548 260.580, 462.561 260, 463.071 260 C 463.582 260, 464 259.325, 464 258.500 C 464 257.675, 464.432 257, 464.960 257 C 465.487 257, 467.062 255.767, 468.460 254.260 C 469.857 252.753, 471 250.953, 471 250.260 C 471 249.567, 471.348 249, 471.773 249 C 472.198 249, 473.393 247.425, 474.430 245.500 C 475.467 243.575, 476.694 242, 477.157 242 C 477.621 242, 478 242.450, 478 243 C 478 243.550, 478.810 244, 479.800 244 C 480.790 244, 482.140 243.460, 482.800 242.800 C 483.460 242.140, 484.003 240.902, 484.006 240.050 C 484.010 239.197, 484.611 237.353, 485.343 235.951 C 486.074 234.549, 486.975 231.197, 487.345 228.503 C 487.714 225.808, 489.094 220.431, 490.412 216.552 C 491.730 212.673, 493.114 207.599, 493.488 205.276 C 493.861 202.953, 495.479 196.935, 497.083 191.904 C 498.688 186.872, 500 181.977, 500 181.027 C 500 180.076, 501.297 174.844, 502.882 169.399 C 504.468 163.955, 506.268 156.773, 506.882 153.440 C 507.497 150.107, 508 144.363, 508 140.676 C 508 136.989, 507.572 133.191, 507.048 132.236 C 506.525 131.281, 505.321 128.754, 504.373 126.620 C 503.424 124.485, 501.617 121.708, 500.356 120.447 C 499.096 119.187, 497.150 117.865, 496.032 117.510 C 494.914 117.155, 494 116.221, 494 115.433 C 494 114.645, 493.347 114, 492.550 114 C 491.752 114, 490.659 113.213, 490.120 112.250 C 489.195 110.598, 481.148 110.488, 345.820 110.286 C 202.500 110.071, 202.500 110.071, 197.771 112.286 M 27.578 136.750 C 27.163 137.162, 26.188 139.017, 25.412 140.872 C 24.507 143.034, 24 147.929, 24 154.508 C 24 161.285, 24.469 165.675, 25.381 167.433 C 26.140 168.896, 28.485 170.973, 30.592 172.047 C 33.536 173.548, 36.468 174, 43.254 174 C 48.111 174, 52.628 173.550, 53.292 173 C 53.956 172.449, 55.625 171.140, 57 170.090 C 59.407 168.252, 59.512 167.696, 59.829 155.106 C 60.133 143.043, 59.992 141.798, 58.011 139.016 C 55.864 136, 55.864 136, 42.099 136 C 34.528 136, 27.994 136.338, 27.578 136.750 M 204.738 152.692 C 203.769 152.945, 203.233 153.567, 203.547 154.076 C 203.861 154.584, 203.498 155, 202.739 155 C 201.981 155, 200.382 156.125, 199.187 157.500 C 197.991 158.875, 196.597 160, 196.088 160 C 195.579 160, 194.190 161.575, 193 163.500 C 191.810 165.425, 190.161 167, 189.335 167 C 188.509 167, 188.019 167.563, 188.247 168.250 C 188.474 168.938, 190.846 169.755, 193.519 170.067 C 196.191 170.379, 198.551 171.152, 198.762 171.785 C 198.973 172.419, 200.684 173.225, 202.564 173.578 C 204.444 173.931, 205.755 174.588, 205.477 175.038 C 205.199 175.488, 205.990 176.175, 207.235 176.565 C 208.481 176.954, 211.412 179.178, 213.750 181.505 C 216.088 183.833, 218 185.998, 218 186.317 C 218 186.636, 219.125 188.111, 220.500 189.595 C 221.875 191.078, 223 192.806, 223 193.435 C 223 194.063, 223.900 196.342, 225 198.500 C 226.100 200.658, 227 203.363, 227 204.511 C 227 205.660, 227.421 207.028, 227.935 207.550 C 228.449 208.073, 229.419 212.444, 230.089 217.265 C 231.002 223.837, 231.024 226.652, 230.175 228.515 C 229.497 230.003, 228.208 231, 226.962 231 C 225.818 231, 225.140 231.418, 225.456 231.928 C 225.771 232.438, 225.235 233.076, 224.265 233.346 C 223.294 233.615, 217.920 234.131, 212.322 234.493 C 202.309 235.139, 202.119 235.111, 200.547 232.713 C 199.669 231.372, 198.684 227.176, 198.357 223.388 C 197.963 218.809, 196.958 215.086, 195.359 212.282 C 193.479 208.986, 192.095 207.833, 189.023 207.006 C 186.217 206.250, 183.831 206.266, 180.679 207.059 C 177.189 207.938, 175.613 209.096, 173.150 212.589 C 171.438 215.019, 169.778 218.243, 169.462 219.753 C 169.146 221.264, 168.414 224.525, 167.835 227 C 167.256 229.475, 166.134 232.965, 165.342 234.756 C 164.404 236.874, 163.692 243.355, 163.304 253.287 C 162.976 261.688, 163.034 270.742, 163.434 273.406 C 163.896 276.492, 165.039 279.130, 166.580 280.671 C 167.911 282.002, 169 283.532, 169 284.070 C 169 284.609, 170.350 285.320, 172 285.650 C 173.650 285.980, 175 286.644, 175 287.125 C 175 287.606, 176.098 288, 177.441 288 C 178.784 288, 180.139 287.585, 180.452 287.077 C 180.766 286.569, 182.372 285.858, 184.020 285.496 C 185.669 285.133, 186.743 284.394, 186.408 283.851 C 186.073 283.309, 186.758 282.614, 187.931 282.308 C 189.193 281.978, 190.814 280.065, 191.899 277.625 C 192.909 275.356, 194.055 272.155, 194.447 270.510 C 194.838 268.866, 195.685 267.194, 196.329 266.796 C 196.973 266.399, 197.500 265.494, 197.500 264.786 C 197.500 263.890, 199.623 263.405, 204.500 263.186 C 208.350 263.014, 213.489 263.165, 215.919 263.523 C 218.609 263.919, 219.849 264.475, 219.088 264.945 C 218.269 265.452, 218.857 265.921, 220.799 266.310 C 223.197 266.789, 223.864 267.528, 224.313 270.201 C 224.618 272.015, 224.324 276.076, 223.660 279.224 C 222.996 282.372, 221.900 285.500, 221.226 286.174 C 220.552 286.848, 220 287.985, 220 288.700 C 220 289.415, 219.621 290, 219.158 290 C 218.695 290, 217.798 291.732, 217.164 293.848 C 216.529 295.965, 214.883 298.913, 213.505 300.400 C 212.127 301.887, 211 303.530, 211 304.052 C 211 304.573, 210.575 305, 210.055 305 C 209.535 305, 208.518 306.233, 207.795 307.741 C 207.073 309.248, 205.136 311.116, 203.491 311.892 C 201.846 312.667, 200.168 313.859, 199.763 314.539 C 199.357 315.220, 197.895 316.061, 196.513 316.407 C 195.131 316.754, 194 317.480, 194 318.019 C 194 318.559, 194.787 319.040, 195.750 319.089 C 196.713 319.139, 209.200 319.101, 223.500 319.006 C 237.800 318.911, 249.593 318.741, 249.706 318.628 C 249.819 318.514, 249.274 316.573, 248.496 314.313 C 247.717 312.053, 246.541 303.183, 245.881 294.602 C 245.222 286.021, 244.375 279, 243.999 279 C 243.624 279, 243.029 270.737, 242.677 260.639 C 242.326 250.540, 241.582 240.077, 241.023 237.389 C 240.465 234.700, 239.331 224.955, 238.504 215.734 C 237.677 206.512, 237 193.398, 237 186.591 C 237 176.227, 237.257 174.115, 238.582 173.607 C 239.452 173.273, 245.189 173.006, 251.332 173.014 C 257.474 173.021, 263.487 173.292, 264.693 173.615 C 266.028 173.973, 267.096 175.239, 267.423 176.852 C 267.718 178.308, 268.413 184.096, 268.965 189.714 C 269.518 195.331, 270.218 207.031, 270.520 215.714 C 270.822 224.396, 271.316 235.179, 271.618 239.675 C 272 245.362, 272.593 248.014, 273.566 248.387 C 274.584 248.777, 275.554 246.955, 277.121 241.712 C 278.307 237.745, 279.603 234.050, 280.001 233.500 C 280.398 232.950, 281.007 230.325, 281.354 227.667 C 281.701 225.009, 282.315 222.309, 282.719 221.667 C 283.124 221.025, 284.238 218.250, 285.195 215.500 C 286.152 212.750, 286.952 209.825, 286.974 209 C 286.995 208.175, 287.613 206.348, 288.348 204.941 C 289.082 203.533, 289.993 200.383, 290.371 197.941 C 290.750 195.498, 291.833 191.589, 292.780 189.254 C 293.726 186.918, 294.837 185.006, 295.250 185.004 C 295.663 185.002, 296 183.942, 296 182.649 C 296 181.356, 296.495 178.879, 297.100 177.143 C 297.782 175.185, 299.083 173.766, 300.528 173.404 C 301.809 173.082, 307.802 172.972, 313.847 173.160 C 319.893 173.347, 325.129 173.792, 325.485 174.149 C 325.841 174.506, 326.774 178.331, 327.558 182.649 C 328.343 186.967, 329.274 198.150, 329.628 207.500 C 330.006 217.507, 330.729 225.077, 331.385 225.903 C 332.025 226.708, 332.645 232.674, 332.840 239.903 C 333.027 246.831, 333.589 252.928, 334.090 253.450 C 334.650 254.034, 335 253.600, 335 252.322 C 335 251.180, 335.613 249.736, 336.362 249.115 C 337.110 248.493, 337.999 245.660, 338.335 242.819 C 338.672 239.978, 339.409 237.191, 339.973 236.627 C 340.538 236.062, 341 234.592, 341 233.359 C 341 232.126, 341.420 230.859, 341.933 230.542 C 342.446 230.225, 343.389 227.385, 344.028 224.233 C 344.667 221.080, 346.054 216.517, 347.109 214.093 C 348.164 211.669, 349.320 207.852, 349.678 205.612 C 350.036 203.372, 351.380 198.857, 352.665 195.580 C 353.949 192.302, 355 188.818, 355 187.838 C 355 186.857, 356.215 183.455, 357.700 180.277 C 359.185 177.100, 360.873 174.169, 361.450 173.765 C 362.028 173.361, 367.225 173.031, 373 173.031 C 378.775 173.031, 384.137 173.434, 384.917 173.927 C 385.799 174.486, 386.333 176.535, 386.333 179.359 C 386.333 181.853, 385.849 184.480, 385.256 185.197 C 384.664 185.914, 383.881 188.300, 383.518 190.500 C 383.154 192.700, 382.494 195.400, 382.053 196.500 C 381.611 197.600, 380.660 199.850, 379.940 201.500 C 379.220 203.150, 378.022 206.525, 377.279 209 C 376.535 211.475, 375.487 215.300, 374.949 217.500 C 374.411 219.700, 373.203 223.300, 372.263 225.500 C 371.324 227.700, 370.265 229.725, 369.910 230 C 369.555 230.275, 368.801 232.975, 368.235 236 C 367.669 239.025, 365.771 245.325, 364.016 250 C 362.262 254.675, 359.927 261.875, 358.827 266 C 357.727 270.125, 356.449 273.956, 355.987 274.513 C 355.526 275.071, 354.600 277.771, 353.930 280.513 C 353.260 283.256, 352.397 285.950, 352.012 286.500 C 351.627 287.050, 350.548 290.298, 349.614 293.718 C 348.679 297.138, 347.261 301.188, 346.463 302.718 C 345.665 304.248, 345.010 306.274, 345.006 307.219 C 345.003 308.165, 344.055 310.752, 342.899 312.969 C 341.744 315.186, 340.367 317, 339.840 317 C 339.313 317, 339.160 317.450, 339.500 318 C 339.877 318.610, 347.510 319, 359.059 319 C 369.477 319, 378 318.619, 378 318.154 C 378 317.688, 377.332 315.967, 376.515 314.330 C 375.197 311.689, 375.203 310.454, 376.568 303.426 C 377.415 299.067, 378.746 289.425, 379.527 282 C 380.308 274.575, 381.378 266.250, 381.906 263.500 C 382.434 260.750, 383.403 252.875, 384.059 246 C 384.715 239.125, 385.667 232.401, 386.174 231.058 C 386.682 229.714, 387.727 222.064, 388.498 214.058 C 389.268 206.051, 390.391 196.125, 390.994 192 C 391.597 187.875, 392.614 182.328, 393.254 179.674 C 393.925 176.887, 395.201 174.428, 396.270 173.855 C 397.414 173.243, 409.228 172.985, 427.133 173.182 C 453.525 173.471, 456.231 173.658, 457.121 175.250 C 457.659 176.213, 459.132 177, 460.395 177 C 461.657 177, 463.505 177.900, 464.500 179 C 465.495 180.100, 466.674 181, 467.120 181 C 467.565 181, 468.396 180.129, 468.966 179.063 C 469.536 177.998, 470.467 173.611, 471.035 169.313 C 471.603 165.016, 472.554 160.375, 473.150 159 C 473.746 157.625, 474.604 155.761, 475.058 154.858 C 475.511 153.955, 475.609 152.942, 475.274 152.608 C 474.940 152.274, 414.329 152.052, 340.583 152.116 C 266.838 152.180, 205.707 152.439, 204.738 152.692 M 49.626 201.908 C 48.045 202.950, 46.081 205.188, 45.261 206.881 C 44.332 208.799, 44.003 211.192, 44.388 213.230 C 44.728 215.028, 45.898 217.963, 46.988 219.750 C 48.767 222.667, 49.448 223, 53.621 223 C 57.321 223, 58.753 222.479, 60.635 220.448 C 62.598 218.331, 62.997 216.842, 62.985 211.698 C 62.976 208.289, 62.639 205.050, 62.235 204.500 C 61.831 203.950, 60.081 202.713, 58.346 201.750 C 56.611 200.787, 54.586 200.003, 53.846 200.007 C 53.106 200.010, 51.207 200.866, 49.626 201.908 M 422.474 208.500 C 422.328 209.050, 421.653 212.875, 420.974 217 C 420.295 221.125, 419.378 226.271, 418.935 228.436 C 418.462 230.746, 418.530 233.122, 419.100 234.186 C 419.887 235.658, 421.335 236.003, 426.785 236.018 C 430.478 236.029, 436.084 235.241, 439.241 234.268 C 442.399 233.296, 444.987 231.986, 444.991 231.357 C 444.996 230.728, 445.675 229.955, 446.500 229.638 C 447.658 229.194, 448 227.265, 448 221.187 C 448 214.455, 447.673 212.934, 445.750 210.717 C 443.639 208.283, 442.861 208.104, 433.120 207.811 C 426.777 207.621, 422.637 207.889, 422.474 208.500 M 14.500 222 C 10.873 222.453, 10.378 222.873, 9.184 226.500 C 8.299 229.186, 7.971 234.500, 8.183 242.672 C 8.477 253.956, 8.677 255.033, 10.924 257.422 C 13.264 259.910, 13.762 260, 25.134 260 C 36.568 260, 36.992 259.922, 39.352 257.377 C 41.355 255.216, 41.906 253.290, 42.475 246.462 C 42.854 241.902, 42.843 235.545, 42.449 232.336 C 42.055 229.126, 41.364 225.516, 40.915 224.313 C 40.154 222.279, 39.346 222.105, 29.299 221.813 C 23.359 221.641, 16.700 221.725, 14.500 222 M 300.237 245.750 C 299.672 248.363, 298.652 252.075, 297.971 254 C 297.289 255.925, 296.351 258.268, 295.885 259.206 C 295.419 260.145, 294.730 262.839, 294.353 265.193 C 293.977 267.548, 293.068 270.075, 292.334 270.809 C 291.600 271.542, 291 273.370, 291 274.869 C 291 276.369, 289.659 281.399, 288.020 286.048 C 286.381 290.697, 285.031 295.648, 285.020 297.050 C 285.009 298.453, 284.607 300.028, 284.126 300.550 C 283.645 301.073, 282.255 304.650, 281.036 308.500 C 279.818 312.350, 278.177 315.865, 277.390 316.311 C 276.602 316.758, 276.219 317.545, 276.538 318.061 C 276.864 318.590, 284.960 319, 295.059 319 C 309.113 319, 313 318.718, 313 317.700 C 313 316.985, 312.505 315.905, 311.901 315.301 C 311.296 314.696, 310.395 309.769, 309.898 304.351 C 309.401 298.933, 308.557 291.800, 308.022 288.500 C 307.488 285.200, 306.543 273.950, 305.923 263.500 C 305.303 253.050, 304.376 243.713, 303.863 242.750 C 303.350 241.787, 302.555 241, 302.097 241 C 301.640 241, 300.803 243.137, 300.237 245.750 M 18.261 281.863 C 14.281 285.725, 14.281 285.725, 13.791 295.891 C 13.522 301.482, 13.622 309.704, 14.014 314.162 C 14.536 320.098, 15.165 322.513, 16.363 323.184 C 17.264 323.687, 18 324.735, 18 325.511 C 18 326.325, 19.800 327.410, 22.250 328.074 C 24.918 328.796, 31.774 329.068, 40.666 328.805 C 50.305 328.519, 55.334 327.967, 56.405 327.079 C 57.270 326.361, 57.763 325.425, 57.500 325 C 57.237 324.575, 57.692 323.671, 58.511 322.991 C 59.724 321.984, 60 318.570, 60 304.577 C 60 293.298, 59.588 286.526, 58.800 284.857 C 58.141 283.459, 55.914 281.344, 53.852 280.157 C 50.504 278.230, 48.617 278, 36.172 278 C 22.241 278, 22.241 278, 18.261 281.863 M 17.125 342.704 C 16.369 343.004, 14.794 344.206, 13.625 345.375 C 11.900 347.100, 11.500 348.708, 11.500 353.917 C 11.500 358.161, 11.923 360.474, 12.750 360.750 C 13.438 360.979, 14 361.752, 14 362.467 C 14 363.182, 15.012 364.038, 16.250 364.370 C 17.488 364.701, 20.169 364.979, 22.210 364.986 C 24.979 364.997, 26.563 364.306, 28.460 362.260 C 30.406 360.161, 30.997 358.467, 30.986 355.010 C 30.979 352.530, 30.703 349.493, 30.373 348.261 C 30.043 347.030, 28.308 345.118, 26.518 344.011 C 24.728 342.905, 22.192 342.036, 20.882 342.079 C 19.572 342.122, 17.881 342.404, 17.125 342.704 M 53.911 344.801 C 50.927 345.051, 50.042 345.688, 48.661 348.585 C 47.405 351.218, 47 354.931, 47 363.800 C 47 373.345, 47.348 376.181, 48.868 379.016 C 50.525 382.106, 51.345 382.592, 56.118 383.310 C 59.078 383.756, 65.249 383.981, 69.831 383.810 C 76.426 383.565, 78.432 383.129, 79.463 381.719 C 80.194 380.720, 81.067 375.455, 81.453 369.719 C 81.854 363.774, 81.705 356.814, 81.099 353.078 C 80.525 349.546, 79.706 346.327, 79.278 345.926 C 78.850 345.525, 73.775 345.040, 68 344.848 C 62.225 344.657, 55.885 344.635, 53.911 344.801 M -0 363.059 C -0 363.641, 0.450 363.840, 1 363.500 C 1.550 363.160, 2 362.684, 2 362.441 C 2 362.198, 1.550 362, 1 362 C 0.450 362, -0 362.477, -0 363.059 M 50 395.393 C 50 396.159, 49.392 397.019, 48.649 397.304 C 47.838 397.616, 47.059 400.137, 46.700 403.618 C 46.273 407.757, 46.533 410.321, 47.611 412.593 C 48.665 414.815, 50.038 415.958, 52.163 416.383 C 53.836 416.717, 56.974 416.708, 59.136 416.362 C 61.298 416.017, 62.864 415.531, 62.617 415.284 C 62.369 415.036, 63.029 413.971, 64.083 412.917 C 65.138 411.863, 65.997 409.762, 65.994 408.250 C 65.991 406.738, 65.506 403.761, 64.916 401.636 C 64.250 399.238, 63.114 397.581, 61.921 397.269 C 60.865 396.993, 60 396.144, 60 395.383 C 60 394.390, 58.590 394, 55 394 C 51.393 394, 50 394.388, 50 395.393 M 85.387 397.688 C 84.225 397.916, 82.696 399.317, 81.990 400.802 C 81.284 402.286, 80.488 407.267, 80.221 411.872 C 79.944 416.657, 80.250 422.541, 80.936 425.605 C 81.596 428.554, 82.631 431.272, 83.235 431.645 C 83.840 432.019, 87.297 432.694, 90.917 433.145 C 94.538 433.596, 99.345 434.239, 101.601 434.573 C 105.025 435.081, 106.106 434.796, 108.157 432.841 C 109.508 431.553, 111.425 428.752, 112.418 426.615 C 113.894 423.436, 114.135 420.985, 113.745 413.115 C 113.483 407.827, 112.651 402.297, 111.897 400.828 C 111.060 399.196, 109.400 397.930, 107.638 397.578 C 106.049 397.260, 100.869 397.061, 96.125 397.136 C 91.381 397.211, 86.549 397.459, 85.387 397.688 M 178.333 433.667 C 178.700 434.033, 179.300 434.033, 179.667 433.667 C 180.033 433.300, 179.733 433, 179 433 C 178.267 433, 177.967 433.300, 178.333 433.667 M 303.250 439.723 C 301.462 439.945, 300 440.548, 300 441.063 C 300 441.579, 301.538 442, 303.418 442 C 305.298 442, 307.546 441.728, 308.412 441.395 C 309.279 441.063, 309.740 440.388, 309.435 439.895 C 309.131 439.403, 308.346 439.072, 307.691 439.160 C 307.036 439.248, 305.038 439.502, 303.250 439.723 M 194.750 440.662 C 195.438 440.940, 196.563 440.940, 197.250 440.662 C 197.938 440.385, 197.375 440.158, 196 440.158 C 194.625 440.158, 194.063 440.385, 194.750 440.662 M 212.750 444.662 C 213.438 444.940, 214.563 444.940, 215.250 444.662 C 215.938 444.385, 215.375 444.158, 214 444.158 C 212.625 444.158, 212.063 444.385, 212.750 444.662 M 289.250 444.689 C 290.212 444.941, 291.788 444.941, 292.750 444.689 C 293.712 444.438, 292.925 444.232, 291 444.232 C 289.075 444.232, 288.288 444.438, 289.250 444.689 M 225.500 448 C 225.840 448.550, 228.368 449, 231.118 449 C 234.197 449, 235.881 448.616, 235.500 448 C 235.160 447.450, 232.632 447, 229.882 447 C 226.803 447, 225.119 447.384, 225.500 448 M 270.500 448 C 270.143 448.577, 271.070 448.994, 272.691 448.985 C 274.872 448.973, 275.165 448.753, 274 448 C 273.175 447.467, 272.189 447.024, 271.809 447.015 C 271.429 447.007, 270.840 447.450, 270.500 448" stroke="none" fill="currentColor" fill-rule="evenodd"></path></svg>