
<svg viewBox="0 0 512 512" id="svgContainer" xmlns="http://www.w3.org/2000/svg">
<path fill="currentColor" fill-rule="evenodd" d="M 474.917 30.414 C 474.688 30.641, 466.400 32.242, 456.500 33.970 C 446.600 35.699, 438.112 37.498, 437.637 37.969 C 436.815 38.785, 433.582 50.086, 425.614 80 C 423.637 87.425, 418.637 106.100, 414.504 121.500 C 410.371 136.900, 404.707 158.050, 401.918 168.500 C 399.129 178.950, 395.806 191.325, 394.534 196 C 393.262 200.675, 389.839 213.441, 386.928 224.370 L 381.635 244.240 382.827 253.870 C 384.420 266.733, 384.316 277.926, 382.509 288.290 C 378.700 310.128, 369.042 330.739, 355.630 345.647 C 353.084 348.478, 351 351.290, 351 351.897 C 351 353.589, 441.392 353.444, 442.776 351.750 C 443.338 351.063, 444.751 342.625, 445.916 333 C 450.866 292.101, 453.029 274.258, 453.491 270.500 C 453.762 268.300, 454.620 262, 455.399 256.500 C 456.177 251, 457.124 242.675, 457.503 238 C 457.883 233.325, 459.061 223.425, 460.122 216 C 461.184 208.575, 462.922 194.625, 463.985 185 C 465.049 175.375, 466.383 164.125, 466.950 160 C 470.292 135.703, 471.213 128.273, 473.516 107 C 474.916 94.075, 477.400 72.700, 479.037 59.500 C 482.847 28.764, 482.863 30, 478.667 30 C 476.833 30, 475.146 30.186, 474.917 30.414 M 398 43.649 C 387.275 45.509, 358.475 50.643, 334 55.058 C 309.525 59.473, 280.950 64.624, 270.500 66.504 C 209.572 77.467, 136.977 90.249, 116.500 93.619 C 108.250 94.977, 100.558 96.476, 99.406 96.951 C 97.130 97.890, 97.422 96.563, 89.165 143.500 C 87.036 155.600, 85.480 165.838, 85.706 166.250 C 85.933 166.662, 115.842 167, 152.171 167 L 218.223 167 227.362 163.585 C 236.331 160.233, 244 158.261, 244 159.306 C 244 159.597, 242.016 166.510, 239.591 174.668 C 237.167 182.825, 233.086 196.700, 230.524 205.500 C 227.962 214.300, 225.010 224.200, 223.964 227.500 C 222.918 230.800, 219.553 242.275, 216.487 253 C 213.421 263.725, 209.761 276.016, 208.353 280.313 C 206.945 284.611, 205.952 288.282, 206.147 288.472 C 206.341 288.662, 221.700 289.148, 240.279 289.551 C 258.857 289.954, 274.241 290.582, 274.466 290.945 C 274.690 291.308, 275.351 310.032, 275.934 332.553 C 276.517 355.074, 277.253 375.863, 277.569 378.750 L 278.144 384 269.296 384 C 254.657 384, 244.743 382.278, 231.094 377.366 C 216.507 372.116, 210.384 368.928, 200 361.179 C 189.660 353.463, 180.412 343.837, 174.046 334.163 C 171.091 329.673, 168.352 326, 167.959 326 C 167.565 326, 166.518 328.813, 165.632 332.250 C 164.746 335.688, 162.272 345.025, 160.135 353 C 157.998 360.975, 153.671 377.175, 150.518 389 C 147.366 400.825, 143.735 414.325, 142.450 419 C 137.926 435.461, 130.228 464.539, 129.515 467.855 L 128.795 471.210 132.647 470.598 C 134.766 470.261, 149.550 468.404, 165.500 466.471 C 181.450 464.538, 205.300 461.620, 218.500 459.986 C 231.700 458.351, 259.375 454.970, 280 452.471 C 326.107 446.885, 364.138 442.243, 403.658 437.380 L 433.816 433.668 435.026 423.584 C 435.692 418.038, 437.478 403.825, 438.996 392 C 440.514 380.175, 441.559 370.163, 441.319 369.750 C 441.078 369.338, 415.251 369, 383.925 369 L 326.968 369 313.734 374.373 C 299.176 380.284, 295 381.550, 295 380.053 C 295 379.511, 302.028 360.040, 310.618 336.784 C 336.649 266.313, 338 262.586, 338 261.270 C 338 260.264, 329.575 260, 297.496 260 L 256.992 260 257.635 208.250 C 257.988 179.787, 258.433 156.320, 258.623 156.099 C 258.813 155.879, 266.738 156.157, 276.234 156.718 C 291.371 157.612, 294.660 158.127, 302.904 160.901 C 329.341 169.796, 349.738 185.311, 364.931 208.082 C 368.388 213.262, 371.600 217.644, 372.071 217.821 C 372.541 217.998, 373.220 216.873, 373.579 215.321 C 374.325 212.096, 384.142 175.018, 387.035 164.500 C 388.093 160.650, 390.812 150.525, 393.075 142 C 395.339 133.475, 398.714 120.875, 400.576 114 C 402.438 107.125, 406.692 91.150, 410.030 78.500 C 413.367 65.850, 416.719 53.475, 417.479 51 C 419.920 43.041, 420.300 39.986, 418.829 40.133 C 418.098 40.206, 408.725 41.788, 398 43.649 M 82.585 183.863 C 82.292 184.337, 80.908 191.650, 79.511 200.113 C 78.114 208.576, 76.253 219.550, 75.375 224.500 C 71.562 246.008, 67.702 267.465, 65.391 280 C 64.022 287.425, 60.896 305.200, 58.445 319.500 C 55.993 333.800, 52.884 351.125, 51.536 358 C 48.235 374.834, 42.283 408.316, 41.491 414.500 C 41.139 417.250, 38.607 432.100, 35.863 447.500 C 33.119 462.900, 30.607 477.034, 30.281 478.909 L 29.687 482.318 36.093 481.670 C 39.617 481.313, 49.925 480.112, 59 479.001 C 68.075 477.890, 83.030 476.112, 92.234 475.049 C 101.438 473.987, 109.720 472.696, 110.640 472.182 C 112.412 471.190, 112.691 470.239, 127.442 415 C 132.215 397.125, 137.411 377.775, 138.988 372 C 140.565 366.225, 143.719 354.525, 145.997 346 C 148.274 337.475, 151.915 323.933, 154.088 315.906 L 158.038 301.313 156.341 293.906 C 153.724 282.483, 153.952 256.381, 156.776 244.204 C 161.328 224.575, 170.598 206.969, 183.750 192.977 C 188.288 188.149, 192 183.930, 192 183.600 C 192 182.644, 83.176 182.906, 82.585 183.863"></path>
</svg>
