<svg xmlns="http://www.w3.org/2000/svg" viewBox="0 0 512 512">
  <path fill="currentColor" d="M256 5a251 251 0 1 0 0 502 251 251 0 0 0 0-502Zm0 21c105 0 194 71 221 167a391 391 0 0 1-161 170c-24 11-50 17-76 15-19-1-38-6-55-16 45-24 85-57 119-95 21-26 40-55 48-88 3-16 4-33 1-50a90 90 0 0 0-64-69c-16-4-33-4-49-1-33 6-61 24-84 48-41 41-66 98-62 156a165 165 0 0 0 41 96c-24 8-49 14-74 18A230 230 0 0 1 256 26Zm1 47c17 0 33 4 46 14 11 9 20 21 25 35s6 29 4 43c-3 29-18 56-35 79a339 339 0 0 1-133 103c-10-8-19-19-26-30-13-25-18-53-15-81s12-55 25-79c15-29 35-56 63-72 14-8 30-12 46-12Zm227 152 2 31A230 230 0 0 1 79 402c26-6 51-14 76-25 10 8 22 15 35 20 36 14 77 11 113-1 37-13 69-35 97-62 34-31 62-68 84-109Z"/>
</svg>
