<svg xmlns="http://www.w3.org/2000/svg" viewBox="0 0 512 512">
  <path fill-rule="evenodd" d="M107 21a85 85 0 0 0-86 86v298a85 85 0 0 0 86 86h298a85 85 0 0 0 86-86V107a85 85 0 0 0-86-86H107Zm207 90H96v58h15c16 0 29 13 29 29v102a102 102 0 0 0 101 101h146c16 0 29-13 29-29V212a102 102 0 0 0-102-101ZM177 300V154h27v146c0 16 13 30 30 30h95a30 30 0 0 0 30-30v-77a19 19 0 1 0-39 0v69h-26v-69a19 19 0 1 0-39 0v69h-27v-69a46 46 0 0 1 79-32 46 46 0 0 1 79 32v77a57 57 0 0 1-57 57h-95a57 57 0 0 1-57-57Z" clip-rule="evenodd"/>
</svg>
