<svg xmlns="http://www.w3.org/2000/svg" viewBox="0 0 512 512">
  <path d="M256 0a256 256 0 1 0 0 512 256 256 0 0 0 0-512Zm-50 62c23 0 33 5 46 14a95 95 0 0 1 41 59c5 24 4 43-3 57v1c-13 27-35 49-65 60l26 68c5 12 9 25 6 37-4 12-22 16-34 3-24-25-104-186-110-198-6-11-12-21-12-33 0-18 28-36 41-46 14-9 40-21 64-22Zm-22 50c-16 0-7 35-4 45 4 11 14 34 26 45 2 3 5 5 8 5 4 1 10-2 13-7a20 20 0 0 0 3-12 69 69 0 0 0-1-26c-5-16-15-33-29-43-2-3-6-5-10-6a19 19 0 0 0-6-1Zm180 43a49 49 0 0 1 34 13c6 6 7 13 5 21l-16 38-15 28c-29 52-35 58-43 55-10-4-7-56 2-119 3-18 7-26 12-31 4-3 13-5 21-5Zm-40 178c12 0 17 14 14 26a18 18 0 0 1-8 12c-4 2-14 2-20-2-6-5-7-13-6-20 2-6 7-13 15-16a16 16 0 0 1 5 0Zm-183 59h230c11 0 20 9 20 20v2c0 11-9 20-20 20H141a20 20 0 0 1-20-20v-2c0-11 9-20 20-20Z"/>
</svg>
