
<svg viewBox="0 0 128 128" id="svgContainer" xmlns="http://www.w3.org/2000/svg">

<path fill="currentColor" d="M54.8 108.3c2.2-.8 5 0 6.7 1.8a5.4 5.4 0 0 1 1.5 4c0 2.6-1.4 4.7-4 6-2.4 1.2-5.9-.1-7.4-2.9-1-1.7-1-4.2-.2-5.9a7.2 7.2 0 0 1 3.4-3m15-.9c5.1-2.6 10.8 2.8 8.4 8a6.1 6.1 0 0 1-10.9.6 6 6 0 0 1 2.5-8.7m-29.2-3.8c1.3-.6 3.6-.6 4.8-.1a6 6 0 0 1 2 10 6 6 0 0 1-8.4.2 5.7 5.7 0 0 1-2-4.5c0-2.3 1.5-4.6 3.6-5.6m-11.2-9 2.5-.2a6 6 0 0 1 3.6 10.8c-4.1 3.5-10.7.1-10.2-5.2a6.3 6.3 0 0 1 4.1-5.3m26.9-.2c1.8-1 3.7-.9 5.5 0a6 6 0 0 1 2.9 8A6.1 6.1 0 0 1 59 106c-4 0-7-3.7-6.1-7.4a6.5 6.5 0 0 1 3.3-4.2m14-2.8c1-.5 3.3-.3 4.6.3a6.2 6.2 0 0 1 .3 11c-1 .6-1.6.7-3 .7-1.9 0-2.8-.4-4.4-2-1.4-1.5-1.8-2.4-1.8-4.3 0-1.2.1-1.7.8-2.6a9 9 0 0 1 3.5-3m-25.6-3.8c1.2-.5 2.2-.5 3.7 0A6 6 0 0 1 52 91c1.5 3 .5 6.3-2.5 8-4 2.3-9.2-.7-9.2-5.3 0-2.5 1.9-5 4.3-6m62.4-3.3a6.2 6.2 0 0 1 5.8 9.8 6 6 0 0 1-7.7 1.8 6.2 6.2 0 0 1-3.4-6.1c.4-2.8 2.6-5 5.3-5.5m-86.8 0c2.2-.3 5 .6 6.2 2.2 1.6 2 1.1 6.2-.9 8.1-3 2.8-8.6 1.7-10-2A7 7 0 0 1 16 88c1-1.9 2.5-3.1 4.4-3.5m60-3.5a7 7 0 0 1 4.5.3 6.1 6.1 0 0 1 1.8 10c-1.3 1.3-2.1 1.6-4.3 1.6-1.9 0-2.2-.1-3.3-.8a6.4 6.4 0 0 1-2.8-6.7 6.5 6.5 0 0 1 4.1-4.4M32 78.1c5.1-2.5 10.6 3 8.2 8.3-1.1 2.3-4 3.9-6.3 3.5a6.7 6.7 0 0 1-5.1-4.4c-1-2.7.5-6 3.2-7.4m62-2.7c1.2-.5 1.6-.5 3.2 0s3.3 2 4 3.4c1.4 3 0 6.7-3 8.1a5.8 5.8 0 0 1-6.8-1.2c-2.3-2.3-2.7-4.8-1-7.6.7-1.2 2-2.2 3.5-2.7m17.5-3.4c2.2-1 5.2-.4 7 1.6a5.4 5.4 0 0 1 1.6 4c0 1.8-.5 3-1.7 4.2a5.6 5.6 0 0 1-4.4 2c-4.3 0-7.4-4.5-5.8-8.4.5-1.3 2-2.8 3.3-3.4m-96.8-2.2c1-.5 1.6-.6 2.7-.5 3.3.3 5.7 3 5.7 6.3 0 1.7-.4 2.7-1.5 4a6 6 0 0 1-10-1c-.5-1-.6-1.5-.6-3 0-2.7 1.1-4.5 3.7-5.8M29 64c1-.4 3.4-.1 4.5.5 1.1.5 2.4 1.8 3 3a7 7 0 0 1 0 5c-1.6 3-4.5 4.3-7.5 3.4a8 8 0 0 1-4.1-4.2c-1-3.2 1-6.7 4-7.7m70-3.7a6.2 6.2 0 0 1 4.3 11.5 7 7 0 0 1-5.3 0 6.2 6.2 0 0 1-3.6-6.7 6.4 6.4 0 0 1 4.5-4.8m15.4-4c1.2-.4 1.7-.3 3.1 0 2.3.8 4.5 3.6 4.5 6 0 2.1-2.3 5.4-4.3 6a6.3 6.3 0 1 1-3.3-12M12.3 54.4c.4-.1 1.5-.2 2.3-.1a6 6 0 0 1 5.4 5 6.3 6.3 0 0 1-5.3 7.3c-3.3.4-7-2.9-7-6.4 0-.8 1-3 1.6-3.8a8 8 0 0 1 3-2m13-5.1a7 7 0 0 1 2.2-.4 6 6 0 0 1 6 7.2 6.4 6.4 0 0 1-4.8 5 6 6 0 0 1-7.2-6.2 6 6 0 0 1 3.8-5.6M96 44.6c3.7-1 7.6 2.1 7.6 6 0 5.5-6.5 8.2-10.4 4.5a5.7 5.7 0 0 1-2-4.4c0-2.2 1-3.8 3.1-5.4l1.7-.7m16.3-3.1c1.3-.3 2-.3 3.4.1 5.3 1.6 5.8 9 .7 11.5-5 2.5-10.7-3.2-8-8.2.8-1.8 2.3-3 4-3.4M34.1 37c1.3-.5 3.5-.4 4.7.1 3.1 1.4 4.7 5 3.5 7.9-.5 1.2-2 2.8-3.3 3.5a6.2 6.2 0 0 1-8.7-5.7c0-2.4 1.6-4.8 3.9-5.8m-17.6-.4c1.9-.6 5.2.5 6.4 2.2a6.2 6.2 0 0 1 1 6c-.5 1.2-2 2.7-3.2 3.3-1.3.6-3.7.7-5 .2a6 6 0 0 1-3.7-5.6c0-3 1.6-5.1 4.5-6M91 30.8h1.3c3.9.6 6.3 4.4 5.3 8.1-.3 1.2-2 3-3.3 3.7-1.3.7-3.5.7-4.8.2-3.3-1.4-5-5.4-3.5-8.3 1-1.9 2.9-3.3 5-3.7m-44.4-3.7c1.7-.6 4.8.3 6.2 1.8 2.3 2.4 2 6.8-.6 9-2.6 2-7 1.6-8.8-1.1a6.2 6.2 0 0 1 3.2-9.7m58.5-.9c1.5-.4 1.4-.4 3 0 1.6.6 3.4 2.1 4 3.6a7 7 0 0 1 0 5 7.5 7.5 0 0 1-3.3 3.2c-1.2.5-3.5.5-4.6 0a6.7 6.7 0 0 1-3.8-5.7c0-1.5.8-3.5 1.9-4.4a6 6 0 0 1 2.8-1.7m-28.7-2a6.1 6.1 0 1 1-3.3 10 5.3 5.3 0 0 1-1.5-4c0-3 2-5.5 4.8-6m-16.5-.1a6.2 6.2 0 0 1 4.9 11.3c-5 2.6-10.8-2.8-8.5-8a7.6 7.6 0 0 1 3.6-3.3m-34-1.7c3.9-1.8 8.7 1.4 8.7 5.6 0 1.7-.4 2.8-1.6 4.1a5.6 5.6 0 0 1-4.5 2.1 6.2 6.2 0 0 1-6-8.2 7.9 7.9 0 0 1 3.5-3.6m64.8-7.7A6.2 6.2 0 0 1 95.6 26c-3 1.6-6.9.6-8.5-2.4-.5-.9-.6-1.4-.6-3 0-1.5 0-2 .7-3a6 6 0 0 1 3.6-2.9m-48.9-3.3c1.9-.5 4.6.4 5.8 1.8 2.3 2.7 2.3 5.9 0 8.4-3.4 3.9-9.6 2-10.6-3.3-.5-2.8 1.8-6.2 4.8-7M75.4 9a7 7 0 0 1 4.4-.2c1.3.4 3 2 3.7 3.3.7 1.4.7 3.6 0 5-1.2 2.5-4.2 4.2-6.6 3.7-4.2-.9-6.5-5.4-4.5-9 .5-1 1.9-2.3 3-2.8m-17-.7c2.1-1 4.6-.3 6.5 1.8a6 6 0 0 1-.4 8.5 5.7 5.7 0 0 1-4.2 1.6c-1.6 0-2.7-.4-4-1.6a5.6 5.6 0 0 1-2.1-4.5c0-2.6 1.4-4.7 4.1-5.8"/>
</svg>
