<svg xmlns="http://www.w3.org/2000/svg" viewBox="0 0 128 128">
  <path fill="currentColor" fill-rule="evenodd" d="m74 8-9 4-2 1-1-1-12-4-8 2c-6 2-11 8-13 14l-1 13v11l-3 2c-12 7-15 9-17 12l-4 9 1 7c1 6 5 12 11 14l2 2v8c2 5 4 9 7 11 5 4 12 6 18 4l13-6 7-4a201 201 0 0 1 17 9c2 2 6 3 8 2 6 0 12-2 15-6l4-5c2-3 2-6 2-10v-3l2-1 6-4c5-4 7-9 7-14 0-6-2-11-6-15l-12-8-7-4V37l-1-16c-2-5-7-10-12-12-3-1-8-2-12-1M48 23c-3 1-4 3-5 7v10l-1 15c-1 2-2 3-11 8l-12 8c-2 2-1 5 1 7 1 2 3 3 5 2l11-5 12-6c3-1 6 0 7 3 2 3 1 6-1 9l-9 5c-10 6-12 7-13 9v5l3 3c3 2 4 1 19-7l6-3 3-1c3 0 4 0 12 5a378 378 0 0 0 14 7h3l3-6c0-3-1-4-13-12l-10-6c-1-1-2-3-1-4l1-5c2-2 5-3 8-2l8 4c12 7 13 8 16 8l4-2c1-2 2-5 1-7s-3-3-10-7c-14-8-14-8-14-11l-1-13V28c-1-3-3-5-6-5-4 0-6 2-7 5v25l-1 2c-1 2-4 4-7 4s-5-1-6-4l-1-2V40l-1-14-1-1c-1-2-4-2-6-2"/>
</svg>
