<?xml version="1.0" encoding="UTF-8" standalone="no"?>
<svg xmlns="http://www.w3.org/2000/svg" viewBox="0 0 512 512">
    <g id="transformGroup" transform="scale(1) translate(0 0) rotate(0)">
        <svg viewBox="0 0 512 512" id="svgContainer" xmlns="http://www.w3.org/2000/svg">
            <path d="M 153.171 309.301 C 148.062 327.815, 138.987 342.266, 119.133 363.500 C 109.551 373.749, 107.194 376.959, 102.985 385.500 C 100.275 391, 97.535 397.965, 96.897 400.979 C 95.424 407.931, 96.292 425.010, 98.416 430.876 C 100.650 437.047, 100.462 439.887, 97.750 440.926 C 95.766 441.686, 96.504 442.273, 104 445.893 C 132.088 459.458, 175.989 459.768, 204.481 446.604 C 210.886 443.645, 212.098 442.722, 211.493 441.263 C 210.463 438.780, 210.501 438.470, 212.999 429.045 C 214.880 421.949, 215.157 418.895, 214.727 410.045 C 213.852 392.089, 209.622 383.465, 192.358 364.444 C 173.286 343.430, 166.546 332.810, 160.138 313.672 C 157.960 307.167, 156.010 301.677, 155.806 301.472 C 155.601 301.268, 154.415 304.791, 153.171 309.301" stroke="none" fill="#ffffff" fill-rule="evenodd"></path>
            <path d="M 120.443 42.092 C 120.072 42.692, 120.334 48.892, 121.025 55.868 C 122.734 73.123, 121.834 101.029, 119.098 115.650 C 113.658 144.719, 102.901 172.578, 86.723 199.500 C 79.301 211.850, 71.923 222.169, 58.657 238.756 C 46.630 253.794, 40.414 263.476, 35.702 274.509 C 28.692 290.924, 26 305.061, 26 325.455 C 26 359.052, 35.782 385.759, 56.918 409.867 C 67.788 422.265, 88.355 438.659, 95.136 440.331 C 99.522 441.412, 100.624 438.988, 98.594 432.724 C 93.944 418.376, 94.445 403.998, 100.066 390.496 C 104.313 380.295, 107.276 376.029, 119.039 363.175 C 133.842 347.001, 139.451 339.666, 144.411 330 C 148.769 321.509, 153.300 309.246, 154.557 302.548 C 154.923 300.597, 155.510 299.003, 155.861 299.007 C 156.213 299.011, 157.235 302.048, 158.133 305.757 C 163.479 327.837, 171.047 340.053, 198.553 371 C 206.162 379.561, 211.611 389.038, 214.079 398 C 216.152 405.531, 215.660 421.296, 213.056 430.746 C 209.570 443.393, 211.350 444.796, 222.095 437.873 C 244.494 423.441, 262.315 404.262, 272.925 383.171 C 277.465 374.146, 282.641 358.067, 284.570 347 C 286.561 335.581, 286.034 313.718, 283.487 302 C 278.365 278.442, 267.866 256.933, 252.003 237.500 C 225.216 204.685, 206.613 159.041, 204.156 120.105 C 203.619 111.600, 203.171 109.510, 201.691 108.605 C 199.052 106.992, 197.527 109.581, 196.129 118.050 C 195.486 121.940, 191.811 133.439, 187.961 143.602 C 184.112 153.765, 179.940 165.620, 178.691 169.947 L 176.420 177.814 173.725 163.521 C 168.619 136.444, 157.730 102.947, 146.074 78.467 C 140.130 65.984, 128.918 45.801, 126.231 42.750 C 124.499 40.784, 121.465 40.439, 120.443 42.092" stroke="none" fill="#cc1414" fill-rule="evenodd"></path>
            <path d="M 255.366 195.488 C 254.607 197.466, 258.183 203.384, 267.458 215.500 C 285.451 239.004, 288.248 242.987, 293.242 252.222 L 298.500 261.943 317.782 261.972 C 340.632 262.005, 343.009 261.400, 346.010 254.788 C 347.749 250.956, 347.958 248.130, 347.978 228.218 C 348.002 203.832, 347.410 200.562, 342.199 196.286 C 339.510 194.080, 339.342 194.072, 297.719 194.036 C 261.634 194.005, 255.859 194.203, 255.366 195.488 M 378.164 195.689 C 371.640 198.904, 371.500 199.581, 371.500 228 C 371.500 256.524, 371.638 257.177, 378.326 260.351 C 381.406 261.812, 387.258 262, 429.651 261.996 C 475.880 261.993, 477.612 261.924, 480.810 259.974 C 486.469 256.524, 487 253.781, 487 228 C 487 202.219, 486.469 199.476, 480.810 196.026 C 477.610 194.075, 475.902 194.008, 429.500 194.027 C 387.011 194.043, 381.117 194.234, 378.164 195.689 M 307.499 284.001 C 307.159 284.552, 307.902 289.615, 309.151 295.251 C 311.112 304.102, 311.444 308.638, 311.579 328.500 L 311.735 351.500 394.784 351.756 L 477.833 352.011 481.052 349.302 C 486.590 344.643, 487 342.435, 486.998 317.282 C 486.997 291.276, 486.516 289.226, 479.500 285.282 L 475.500 283.033 391.809 283.016 C 336.993 283.006, 307.904 283.346, 307.499 284.001 M 124.437 357.250 L 121.500 360.500 124.750 357.563 C 126.537 355.948, 128 354.485, 128 354.313 C 128 353.540, 127.175 354.221, 124.437 357.250 M 191 363.313 C 191 363.485, 192.463 364.948, 194.250 366.563 L 197.500 369.500 194.563 366.250 C 191.825 363.221, 191 362.540, 191 363.313 M 306.233 374.250 C 305.676 374.938, 303.326 380, 301.011 385.500 C 293.737 402.778, 283.812 418.621, 270.668 433.940 C 268.101 436.932, 266 440.004, 266 440.767 C 266 441.929, 271.858 442.100, 302.250 441.827 C 334.949 441.532, 338.860 441.321, 342.173 439.673 C 348.608 436.471, 349 434.525, 349 405.802 L 349 380.406 345.208 376.703 L 341.416 373 324.330 373 C 311.868  373, 306.971 373.338, 306.233 374.250 M 376.697 376.798 L 372.905 380.682 373.203 407.262 L 373.500 433.842 376 436.516 C 381.224 442.103, 380.227 442, 429.200 441.994 C 457.195 441.991, 475.917 441.595, 478.209 440.959 C 480.248 440.392, 483.286 438.560, 484.959 436.887 L 488 433.846 488 408.324 C 488 387.712, 487.712 382.194, 486.500 379.642 C 483.497 373.312, 485.379 373.529, 430.495 373.207 L 380.489 372.915 376.697 376.798 M 95.286 412.500 C 95.294 415.250, 95.488 416.256, 95.718 414.736 C  95.947 413.216, 95.941  410.966, 95.704 409.736 C 95.467 408.506, 95.279 409.750, 95.286 412.500 M 215.286 412.500 C 215.294 415.250, 215.488 416.256, 215.718 414.736 C 215.947 413.216, 215.941 410.966, 215.704 409.736 C 215.467 408.506, 215.279 409.750, 215.286 412.500" stroke="none" fill="#b3b3b3" fill-rule="evenodd"></path>
        </svg>
    </g>
</svg>